<svg width="64" height="64" viewBox="0 0 64 64" fill="none" xmlns="http://www.w3.org/2000/svg">
<rect width="64" height="64" rx="8" fill="#1D4FD7"/>
<g clip-path="url(#clip0_581_1167)">
<path d="M36.0002 36C36.0002 36.2652 35.8949 36.5195 35.7074 36.7071C35.5198 36.8946 35.2655 37 35.0002 37H33.0002V39C33.0002 39.2652 32.8949 39.5195 32.7074 39.7071C32.5198 39.8946 32.2655 40 32.0002 40C31.735 40 31.4807 39.8946 31.2931 39.7071C31.1056 39.5195 31.0002 39.2652 31.0002 39V37H29.0002C28.735 37 28.4807 36.8946 28.2931 36.7071C28.1056 36.5195 28.0002 36.2652 28.0002 36C28.0002 35.7347 28.1056 35.4804 28.2931 35.2929C28.4807 35.1053 28.735 35 29.0002 35H31.0002V33C31.0002 32.7347 31.1056 32.4804 31.2931 32.2929C31.4807 32.1053 31.735 32 32.0002 32C32.2655 32 32.5198 32.1053 32.7074 32.2929C32.8949 32.4804 33.0002 32.7347 33.0002 33V35H35.0002C35.2655 35 35.5198 35.1053 35.7074 35.2929C35.8949 35.4804 36.0002 35.7347 36.0002 36ZM42.0002 30.485V39C41.9987 40.3256 41.4714 41.5964 40.534 42.5337C39.5967 43.4711 38.3258 43.9984 37.0002 44H27.0002C25.6746 43.9984 24.4038 43.4711 23.4665 42.5337C22.5291 41.5964 22.0018 40.3256 22.0002 39V25C22.0018 23.6744 22.5291 22.4035 23.4665 21.4662C24.4038 20.5288 25.6746 20.0015 27.0002 20H31.5152C32.4349 19.9976 33.3458 20.1775 34.1955 20.5294C35.0451 20.8813 35.8166 21.3981 36.4652 22.05L39.9492 25.536C40.6015 26.1842 41.1186 26.9554 41.4707 27.8049C41.8227 28.6545 42.0027 29.5654 42.0002 30.485V30.485ZM35.0512 23.464C34.7365 23.1591 34.3832 22.8969 34.0002 22.684V27C34.0002 27.2652 34.1056 27.5195 34.2931 27.7071C34.4807 27.8946 34.735 28 35.0002 28H39.3162C39.1032 27.6172 38.8406 27.2641 38.5352 26.95L35.0512 23.464ZM40.0002 30.485C40.0002 30.32 39.9682 30.162 39.9532 30H35.0002C34.2046 30 33.4415 29.6839 32.8789 29.1213C32.3163 28.5587 32.0002 27.7956 32.0002 27V22.047C31.8382 22.032 31.6792 22 31.5152 22H27.0002C26.2046 22 25.4415 22.316 24.8789 22.8786C24.3163 23.4413 24.0002 24.2043 24.0002 25V39C24.0002 39.7956 24.3163 40.5587 24.8789 41.1213C25.4415 41.6839 26.2046 42 27.0002 42H37.0002C37.7959 42 38.559 41.6839 39.1216 41.1213C39.6842 40.5587 40.0002 39.7956 40.0002 39V30.485Z" fill="#FEFFFF"/>
</g>
<defs>
<clipPath id="clip0_581_1167">
<rect width="24" height="24" fill="white" transform="translate(20 20)"/>
</clipPath>
</defs>
</svg>
