<svg width="64" height="64" viewBox="0 0 64 64" fill="none" xmlns="http://www.w3.org/2000/svg">
<rect width="64" height="64" rx="8" fill="#1D4FD7"/>
<g clip-path="url(#clip0_581_1177)">
<path d="M43 42H23C22.7348 42 22.4804 41.8946 22.2929 41.7071C22.1054 41.5196 22 41.2652 22 41V21C22 20.7348 21.8946 20.4804 21.7071 20.2929C21.5196 20.1054 21.2652 20 21 20C20.7348 20 20.4804 20.1054 20.2929 20.2929C20.1054 20.4804 20 20.7348 20 21V41C20 41.7956 20.3161 42.5587 20.8787 43.1213C21.4413 43.6839 22.2044 44 23 44H43C43.2652 44 43.5196 43.8946 43.7071 43.7071C43.8946 43.5196 44 43.2652 44 43C44 42.7348 43.8946 42.4804 43.7071 42.2929C43.5196 42.1054 43.2652 42 43 42Z" fill="#FEFFFF"/>
<path d="M35.0002 40.0006C35.2655 40.0006 35.5198 39.8953 35.7074 39.7077C35.8949 39.5202 36.0003 39.2658 36.0003 39.0006V32.0006C36.0003 31.7354 35.8949 31.481 35.7074 31.2935C35.5198 31.106 35.2655 31.0006 35.0002 31.0006C34.735 31.0006 34.4807 31.106 34.2931 31.2935C34.1056 31.481 34.0002 31.7354 34.0002 32.0006V39.0006C34.0002 39.2658 34.1056 39.5202 34.2931 39.7077C34.4807 39.8953 34.735 40.0006 35.0002 40.0006Z" fill="#FEFFFF"/>
<path d="M27 40.0006C27.2652 40.0006 27.5196 39.8953 27.7071 39.7077C27.8946 39.5202 28 39.2658 28 39.0006V32.0006C28 31.7354 27.8946 31.481 27.7071 31.2935C27.5196 31.106 27.2652 31.0006 27 31.0006C26.7348 31.0006 26.4804 31.106 26.2929 31.2935C26.1054 31.481 26 31.7354 26 32.0006V39.0006C26 39.2658 26.1054 39.5202 26.2929 39.7077C26.4804 39.8953 26.7348 40.0006 27 40.0006Z" fill="#FEFFFF"/>
<path d="M39 40C39.2652 40 39.5196 39.8946 39.7071 39.7071C39.8947 39.5196 40 39.2652 40 39V27C40 26.7348 39.8947 26.4804 39.7071 26.2929C39.5196 26.1054 39.2652 26 39 26C38.7348 26 38.4804 26.1054 38.2929 26.2929C38.1054 26.4804 38 26.7348 38 27V39C38 39.2652 38.1054 39.5196 38.2929 39.7071C38.4804 39.8946 38.7348 40 39 40Z" fill="#FEFFFF"/>
<path d="M30.9998 40C31.265 40 31.5193 39.8946 31.7069 39.7071C31.8944 39.5196 31.9998 39.2652 31.9998 39V27C31.9998 26.7348 31.8944 26.4804 31.7069 26.2929C31.5193 26.1054 31.265 26 30.9998 26C30.7345 26 30.4802 26.1054 30.2927 26.2929C30.1051 26.4804 29.9998 26.7348 29.9998 27V39C29.9998 39.2652 30.1051 39.5196 30.2927 39.7071C30.4802 39.8946 30.7345 40 30.9998 40Z" fill="#FEFFFF"/>
</g>
<defs>
<clipPath id="clip0_581_1177">
<rect width="24" height="24" fill="white" transform="translate(20 20)"/>
</clipPath>
</defs>
</svg>
