<svg width="64" height="64" viewBox="0 0 64 64" fill="none" xmlns="http://www.w3.org/2000/svg">
<rect width="64" height="64" rx="8" fill="#1D4FD7"/>
<g clip-path="url(#clip0_581_1182)">
<path d="M29.8782 38.122C30.1568 38.4008 30.4876 38.6219 30.8517 38.7728C31.2158 38.9237 31.6061 39.0014 32.0002 39.0014C32.3944 39.0014 32.7846 38.9237 33.1487 38.7728C33.5128 38.6219 33.8436 38.4008 34.1222 38.122L37.3332 34.911C37.5054 34.7206 37.5977 34.4713 37.5911 34.2147C37.5846 33.958 37.4795 33.7138 37.2978 33.5325C37.1161 33.3512 36.8716 33.2467 36.615 33.2406C36.3584 33.2346 36.1093 33.3274 35.9192 33.5L32.9932 36.427L33.0002 21C33.0002 20.7348 32.8949 20.4804 32.7073 20.2929C32.5198 20.1054 32.2654 20 32.0002 20V20C31.735 20 31.4807 20.1054 31.2931 20.2929C31.1056 20.4804 31.0002 20.7348 31.0002 21L30.9912 36.408L28.0812 33.5C27.8936 33.3125 27.6391 33.2072 27.3739 33.2073C27.1086 33.2074 26.8542 33.3129 26.6667 33.5005C26.4792 33.6881 26.3739 33.9426 26.374 34.2079C26.3741 34.4731 26.4796 34.7275 26.6672 34.915L29.8782 38.122Z" fill="#FEFFFF"/>
<path d="M43 35.9998C42.7348 35.9998 42.4804 36.1052 42.2929 36.2927C42.1054 36.4803 42 36.7346 42 36.9998V40.9998C42 41.2651 41.8946 41.5194 41.7071 41.7069C41.5196 41.8945 41.2652 41.9998 41 41.9998H23C22.7348 41.9998 22.4804 41.8945 22.2929 41.7069C22.1054 41.5194 22 41.2651 22 40.9998V36.9998C22 36.7346 21.8946 36.4803 21.7071 36.2927C21.5196 36.1052 21.2652 35.9998 21 35.9998V35.9998C20.7348 35.9998 20.4804 36.1052 20.2929 36.2927C20.1054 36.4803 20 36.7346 20 36.9998V40.9998C20 41.7955 20.3161 42.5585 20.8787 43.1212C21.4413 43.6838 22.2044 43.9998 23 43.9998H41C41.7956 43.9998 42.5587 43.6838 43.1213 43.1212C43.6839 42.5585 44 41.7955 44 40.9998V36.9998C44 36.7346 43.8946 36.4803 43.7071 36.2927C43.5196 36.1052 43.2652 35.9998 43 35.9998Z" fill="#FEFFFF"/>
</g>
<defs>
<clipPath id="clip0_581_1182">
<rect width="24" height="24" fill="white" transform="translate(20 20)"/>
</clipPath>
</defs>
</svg>
