<svg width="64" height="64" viewBox="0 0 64 64" fill="none" xmlns="http://www.w3.org/2000/svg">
<rect width="64" height="64" rx="8" fill="#1D4FD7"/>
<g clip-path="url(#clip0_581_1172)">
<path d="M42.8533 21.148C42.1734 20.4692 41.252 20.088 40.2913 20.088C39.3305 20.088 38.4091 20.4692 37.7293 21.148L21.4653 37.412C20.9995 37.8751 20.6302 38.426 20.3788 39.0328C20.1273 39.6396 19.9986 40.2902 20.0003 40.947V43C20.0003 43.2652 20.1056 43.5196 20.2932 43.7071C20.4807 43.8947 20.735 44 21.0003 44H23.0533C23.71 44.0019 24.3606 43.8734 24.9674 43.6221C25.5742 43.3708 26.1251 43.0017 26.5883 42.536L42.8533 26.271C43.5318 25.5912 43.9128 24.67 43.9128 23.7095C43.9128 22.749 43.5318 21.8278 42.8533 21.148V21.148ZM25.1743 41.122C24.6103 41.6823 23.8482 41.9977 23.0533 42H22.0003V40.947C21.9992 40.5529 22.0764 40.1625 22.2273 39.7985C22.3782 39.4344 22.5998 39.1039 22.8793 38.826L35.2223 26.483L37.5223 28.783L25.1743 41.122ZM41.4383 24.857L38.9323 27.364L36.6323 25.069L39.1393 22.562C39.2903 22.4113 39.4695 22.2919 39.6667 22.2104C39.8639 22.129 40.0752 22.0872 40.2885 22.0874C40.5019 22.0877 40.7131 22.1299 40.9101 22.2118C41.1071 22.2936 41.2861 22.4135 41.4368 22.5645C41.5875 22.7155 41.7069 22.8948 41.7884 23.0919C41.8698 23.2891 41.9116 23.5004 41.9113 23.7138C41.9111 23.9271 41.8689 24.1383 41.787 24.3353C41.7051 24.5324 41.5853 24.7113 41.4343 24.862L41.4383 24.857Z" fill="#FEFFFF"/>
</g>
<defs>
<clipPath id="clip0_581_1172">
<rect width="24" height="24" fill="white" transform="translate(20 20)"/>
</clipPath>
</defs>
</svg>
