<svg width="500" height="435" viewBox="0 0 500 435" fill="none" xmlns="http://www.w3.org/2000/svg">
<g clip-path="url(#clip0_73_1790)">
<path d="M330.49 9.66996C330.49 9.66996 250.25 -20.22 172.41 24.78C94.57 69.78 56.15 160.56 23.08 233.25C-9.99003 305.94 10.5 380.58 70.77 415.25C131.04 449.92 171.13 400.44 255.06 399.07C338.99 397.7 361.73 410.19 430.8 362.83C499.87 315.47 511.06 201.71 455.05 116.72C399.04 31.73 330.49 9.66996 330.49 9.66996Z" fill="#1D4FD7"/>
<path opacity="0.7" d="M330.49 9.66996C330.49 9.66996 250.25 -20.22 172.41 24.78C94.57 69.78 56.15 160.56 23.08 233.25C-9.99003 305.94 10.5 380.58 70.77 415.25C131.04 449.92 171.13 400.44 255.06 399.07C338.99 397.7 361.73 410.19 430.8 362.83C499.87 315.47 511.06 201.71 455.05 116.72C399.04 31.73 330.49 9.66996 330.49 9.66996Z" fill="white"/>
<g opacity="0.3">
<path d="M96.314 92.4856C110.482 78.3174 110.482 55.3462 96.314 41.178C82.1458 27.0097 59.1746 27.0097 45.0064 41.178C30.8382 55.3462 30.8382 78.3174 45.0064 92.4856C59.1746 106.654 82.1458 106.654 96.314 92.4856Z" stroke="black" stroke-miterlimit="10"/>
<path d="M70.6601 100.64C89.3328 100.64 104.47 85.5028 104.47 66.83C104.47 48.1573 89.3328 33.02 70.6601 33.02C51.9874 33.02 36.8501 48.1573 36.8501 66.83C36.8501 85.5028 51.9874 100.64 70.6601 100.64Z" stroke="black" stroke-miterlimit="10"/>
<path d="M77.0999 76.9801L70.66 66.8301H42.95" stroke="black" stroke-miterlimit="10"/>
</g>
<g opacity="0.3">
<path d="M376.79 31.0801H339.94V106.08H376.79V31.0801Z" stroke="black" stroke-miterlimit="10"/>
<path d="M418.17 31.0801H381.32V106.08H418.17V31.0801Z" stroke="black" stroke-miterlimit="10"/>
<path d="M459.55 31.0801H422.7V106.08H459.55V31.0801Z" stroke="black" stroke-miterlimit="10"/>
<path d="M376.79 109.95H339.94V184.95H376.79V109.95Z" stroke="black" stroke-miterlimit="10"/>
<path d="M418.17 109.95H381.32V184.95H418.17V109.95Z" stroke="black" stroke-miterlimit="10"/>
<path d="M459.55 109.95H422.7V184.95H459.55V109.95Z" stroke="black" stroke-miterlimit="10"/>
<path d="M376.79 188.83H339.94V263.83H376.79V188.83Z" stroke="black" stroke-miterlimit="10"/>
<path d="M418.17 188.83H381.32V263.83H418.17V188.83Z" stroke="black" stroke-miterlimit="10"/>
<path d="M459.55 188.83H422.7V263.83H459.55V188.83Z" stroke="black" stroke-miterlimit="10"/>
<path d="M376.79 267.71H339.94V342.71H376.79V267.71Z" stroke="black" stroke-miterlimit="10"/>
<path d="M418.17 267.71H381.32V342.71H418.17V267.71Z" stroke="black" stroke-miterlimit="10"/>
<path d="M459.55 267.71H422.7V342.71H459.55V267.71Z" stroke="black" stroke-miterlimit="10"/>
</g>
<path d="M25.9399 350.51H492.71" stroke="#263238" stroke-miterlimit="10"/>
<path d="M55.58 250.17C55.5752 250.16 55.5728 250.148 55.5728 250.137C55.5727 250.125 55.5752 250.114 55.5799 250.104C55.5847 250.093 55.5916 250.084 55.6002 250.076C55.6089 250.069 55.619 250.063 55.63 250.06C55.6513 250.055 55.6736 250.058 55.6934 250.067C55.7133 250.076 55.7296 250.091 55.74 250.11C58.2787 256.164 60.2863 262.428 61.74 268.83C63.1908 275.23 64.2792 281.707 65 288.23L65.46 293.13C65.54 293.95 65.62 294.77 65.68 295.59L65.82 298.05C65.89 299.69 65.99 301.33 66.03 302.98V307.91V310.37C66.03 311.19 65.93 312.01 65.87 312.83C65.75 314.47 65.65 316.11 65.5 317.74C65.19 321.01 64.69 324.26 64.19 327.5C64.1839 327.518 64.1724 327.533 64.1572 327.544C64.1419 327.555 64.1237 327.561 64.105 327.561C64.0863 327.561 64.0681 327.555 64.0529 327.544C64.0376 327.533 64.0262 327.518 64.02 327.5C64.02 325.86 64.1 324.22 64.13 322.59C64.16 320.96 64.32 319.33 64.3 317.69C64.28 316.05 64.3 314.43 64.3 312.8V310.36V307.91V303.03L64.17 298.14L64.12 295.7C64.12 294.89 64.03 294.08 63.98 293.26L63.68 288.38C63.109 281.872 62.1708 275.402 60.87 269C59.6542 262.582 57.8843 256.282 55.58 250.17Z" fill="#263238"/>
<path d="M54.8801 275.71C54.8863 275.692 54.8978 275.677 54.913 275.666C54.9282 275.655 54.9464 275.65 54.9651 275.65C54.9838 275.65 55.002 275.655 55.0173 275.666C55.0325 275.677 55.044 275.692 55.0501 275.71C56.4328 279.78 57.5912 283.923 58.5201 288.12C59.4424 292.329 60.1301 296.585 60.5801 300.87C61.0101 305.14 61.4901 309.42 61.5801 313.72C61.6818 318.022 61.5282 322.326 61.1201 326.61C61.1153 326.629 61.1053 326.647 61.0912 326.661C61.0771 326.675 61.0595 326.685 61.0401 326.69C61.0288 326.692 61.0173 326.691 61.0064 326.687C60.9955 326.684 60.9855 326.678 60.977 326.671C60.9685 326.663 60.9616 326.654 60.957 326.643C60.9524 326.633 60.95 326.621 60.9501 326.61C60.4501 322.33 60.1501 318.06 59.8501 313.79C59.5501 309.52 59.5101 305.25 59.2301 300.98C58.9579 296.722 58.4504 292.482 57.7101 288.28C56.998 284.041 56.0533 279.845 54.8801 275.71Z" fill="#263238"/>
<path d="M40.72 284.7C40.7373 284.687 40.7583 284.68 40.78 284.68C40.8016 284.68 40.8226 284.687 40.84 284.7C44.3812 286.979 47.5714 289.761 50.31 292.96C51.6856 294.57 52.9233 296.293 54.01 298.11L54.77 299.54L55.37 301.04C55.5686 301.534 55.7422 302.038 55.89 302.55C56.04 303.06 56.21 303.55 56.35 304.08C57.4476 308.163 58.1179 312.349 58.35 316.57C58.5586 320.769 58.4014 324.978 57.88 329.15C57.8775 329.169 57.868 329.187 57.8533 329.2C57.8385 329.213 57.8195 329.22 57.8 329.22C57.7881 329.221 57.7761 329.22 57.7647 329.217C57.7532 329.214 57.7425 329.208 57.7332 329.201C57.7239 329.194 57.7162 329.184 57.7105 329.174C57.7048 329.163 57.7012 329.152 57.7 329.14L56.63 316.69C56.3159 312.56 55.7718 308.45 55 304.38C54.89 303.88 54.74 303.38 54.61 302.89C54.4956 302.392 54.3521 301.901 54.18 301.42L53.68 300L53 298.63C52.0134 296.82 50.8795 295.094 49.61 293.47C47.0787 290.174 44.0844 287.26 40.72 284.82C40.7083 284.802 40.7021 284.781 40.7021 284.76C40.7021 284.739 40.7083 284.718 40.72 284.7Z" fill="#263238"/>
<path d="M47.57 300.7C49.41 302.047 50.8902 303.826 51.88 305.88C52.916 307.897 53.7244 310.024 54.29 312.22C54.4592 312.759 54.5994 313.306 54.7099 313.86L55.0999 315.52C55.3093 316.63 55.4496 317.752 55.52 318.88C55.52 320.01 55.52 321.14 55.52 322.27C55.438 323.398 55.2911 324.519 55.08 325.63C55.0754 325.647 55.0665 325.662 55.0542 325.674C55.0419 325.687 55.0267 325.695 55.0099 325.7C54.9987 325.703 54.987 325.703 54.9755 325.701C54.9641 325.699 54.9532 325.695 54.9437 325.688C54.9342 325.682 54.9263 325.673 54.9204 325.663C54.9146 325.653 54.911 325.642 54.91 325.63C54.6481 324.539 54.4477 323.434 54.31 322.32C54.14 321.22 53.97 320.13 53.83 319.04C53.69 317.95 53.53 316.88 53.45 315.78C53.37 314.68 53.2099 313.6 52.9799 312.53C52.5971 310.375 51.9767 308.269 51.13 306.25C50.37 304.19 49.1329 302.34 47.52 300.85C47.5059 300.835 47.498 300.816 47.498 300.795C47.498 300.775 47.5059 300.755 47.52 300.74C47.5251 300.73 47.5322 300.722 47.5408 300.715C47.5494 300.708 47.5593 300.703 47.57 300.7Z" fill="#263238"/>
<path d="M67.4301 313.18C67.9001 307.65 68.8101 302.18 69.6701 296.7C70.5301 291.22 71.4901 285.78 72.4901 280.33C73.4901 274.88 74.6101 269.46 75.7901 264.06C75.7901 264.039 75.7985 264.018 75.8135 264.003C75.8285 263.988 75.8489 263.98 75.8701 263.98C75.8913 263.98 75.9116 263.988 75.9266 264.003C75.9416 264.018 75.9501 264.039 75.9501 264.06C75.0101 269.513 74.1401 274.977 73.3401 280.45C72.5101 285.91 71.7301 291.39 71.0401 296.87C70.3501 302.35 69.8401 307.87 69.1501 313.33L67.1501 329.79C67.1476 329.809 67.1381 329.827 67.1234 329.84C67.1086 329.853 67.0897 329.86 67.0701 329.86C67.0588 329.861 67.0473 329.86 67.0364 329.857C67.0255 329.854 67.0154 329.848 67.0069 329.84C66.9984 329.833 66.9916 329.824 66.987 329.813C66.9823 329.803 66.98 329.791 66.9801 329.78C66.9101 328.39 66.9101 327.01 66.8801 325.62C66.8501 324.23 66.8801 322.84 66.9601 321.45C67.0001 318.71 67.2301 315.94 67.4301 313.18Z" fill="#263238"/>
<path d="M70.75 313.1C71.05 310.91 71.45 308.73 71.87 306.56L72.64 303.33C72.9 302.26 73.14 301.18 73.45 300.11C74.5585 295.825 75.9721 291.624 77.68 287.54L78.34 286.02L79.08 284.53C79.55 283.53 80.08 282.53 80.65 281.61C81.7407 279.676 83.0861 277.897 84.65 276.32C84.6659 276.304 84.6875 276.295 84.71 276.295C84.7325 276.295 84.754 276.304 84.77 276.32C84.7859 276.336 84.7948 276.358 84.7948 276.38C84.7948 276.403 84.7859 276.424 84.77 276.44C83.3184 278.073 82.091 279.893 81.12 281.85C80.64 282.85 80.12 283.8 79.72 284.85L79.07 286.35L78.5 287.89C76.971 291.986 75.7378 296.187 74.81 300.46C74.31 302.59 73.98 304.76 73.56 306.9L73 310.12C72.81 311.2 72.58 312.27 72.43 313.35C72.08 315.52 71.68 317.67 71.31 319.83C70.94 321.99 70.58 324.17 70.12 326.34C70.1139 326.359 70.102 326.377 70.0859 326.389C70.0698 326.402 70.0503 326.409 70.03 326.41C70.0079 326.408 69.9875 326.397 69.9727 326.38C69.9579 326.364 69.9498 326.342 69.95 326.32C69.95 324.113 70 321.903 70.1 319.69C70.26 317.49 70.52 315.3 70.75 313.1Z" fill="#263238"/>
<path d="M75.3299 313.38C76.3299 310.48 77.5299 307.64 78.8299 304.85C80.1302 302.073 81.5996 299.377 83.2299 296.78C83.2441 296.766 83.2627 296.756 83.2827 296.754C83.3027 296.751 83.323 296.756 83.3403 296.766C83.3576 296.776 83.3709 296.792 83.3781 296.811C83.3853 296.83 83.3859 296.851 83.3799 296.87C81.9584 299.568 80.7028 302.349 79.6199 305.2C78.4999 308.02 77.4799 310.89 76.6199 313.81C75.7599 316.73 75.1299 319.69 74.3599 322.61C73.5899 325.53 72.8899 328.49 71.9899 331.45C71.9822 331.468 71.9697 331.483 71.9537 331.493C71.9378 331.504 71.9191 331.51 71.8999 331.51C71.8787 331.51 71.8583 331.502 71.8433 331.487C71.8283 331.472 71.8199 331.451 71.8199 331.43C71.7753 328.341 72.0636 325.257 72.6799 322.23C73.322 319.213 74.2083 316.253 75.3299 313.38Z" fill="#263238"/>
<path d="M75.5199 323C76.0771 321.191 76.8958 319.473 77.9499 317.9C78.9255 316.28 80.1164 314.8 81.4899 313.5C82.1903 312.871 82.9431 312.302 83.7399 311.8C84.5292 311.285 85.3925 310.894 86.2999 310.64C86.3198 310.636 86.3405 310.639 86.3586 310.648C86.3768 310.657 86.3913 310.672 86.3999 310.69C86.414 310.705 86.4218 310.725 86.4218 310.745C86.4218 310.766 86.414 310.785 86.3999 310.8C84.7652 311.577 83.3186 312.7 82.1599 314.09C80.9647 315.439 79.9557 316.943 79.1599 318.56C78.3199 320.15 77.8899 321.91 77.1599 323.56C76.8399 324.4 76.5199 325.25 76.1599 326.08C75.8275 326.967 75.4401 327.832 74.9999 328.67C74.9942 328.684 74.9846 328.696 74.9722 328.705C74.9598 328.714 74.9451 328.719 74.9299 328.72C74.906 328.72 74.8832 328.711 74.8663 328.694C74.8494 328.677 74.8399 328.654 74.8399 328.63C74.8083 327.689 74.8417 326.747 74.9399 325.81C75.0999 324.88 75.2899 324 75.5199 323Z" fill="#263238"/>
<path d="M75.1699 272C77.9321 271.229 80.4309 269.717 82.3961 267.629C84.3613 265.54 85.7182 262.954 86.3199 260.15C88.4099 250.4 81.6799 254.58 87.7199 239.25C93.7599 223.92 92.3599 220.4 90.2699 216C88.1799 211.6 87.0199 213 85.1599 218.78C83.2999 224.56 76.5699 233.64 73.9999 250.6C71.4299 267.56 75.1699 272 75.1699 272Z" fill="#1D4FD7"/>
<path d="M57.2901 255.48C57.2901 255.48 63.2901 253.39 63.5601 242C63.8301 230.61 59.1401 232.94 58.4501 218.77C57.7601 204.6 56.8201 194.62 54.2701 194.38C51.7201 194.14 44.9701 201.38 42.6501 217.15C40.3301 232.92 45.6501 243.4 50.3201 248.04C54.9901 252.68 57.2901 255.48 57.2901 255.48Z" fill="#1D4FD7"/>
<path d="M78.4299 285.68C78.4299 285.68 79.8199 277.31 82.6099 273.36C85.3999 269.41 91.4299 265.93 95.3799 258.26C99.3299 250.59 103.75 246.88 103.51 257.8C103.27 268.72 98.3999 274.29 92.3599 278C86.3199 281.71 78.4299 285.68 78.4299 285.68Z" fill="#1D4FD7"/>
<path d="M81 300.08C81 300.08 86.58 289.39 94.71 281.49C102.84 273.59 109.34 269.65 107.02 273.6C104.7 277.55 101.91 277.31 97.96 284.28C94.01 291.25 95.17 296.36 89.6 300.28C84.03 304.2 81 300.08 81 300.08Z" fill="#1D4FD7"/>
<path d="M81.6799 313.78C81.9099 313.09 82.1399 307.98 90.0399 303.78C97.9399 299.58 105.37 301.22 104.44 303.31C103.51 305.4 98.6399 308.89 93.7599 310.98C88.8799 313.07 81.6799 313.78 81.6799 313.78Z" fill="#1D4FD7"/>
<path d="M57.7501 286.14C57.7501 286.14 61.2401 281.73 59.3801 272.44C57.5201 263.15 53.3801 265.44 48.6901 260.59C44.0001 255.74 45.0001 255 40.3301 249.9C35.6601 244.8 31.5001 242 29.6401 244.09C27.7801 246.18 30.5701 252.69 33.3601 256.41C36.1501 260.13 40.5601 261.98 42.6501 266.63C44.7401 271.28 43.8101 278.71 49.1601 282.19C54.5101 285.67 57.7501 286.14 57.7501 286.14Z" fill="#1D4FD7"/>
<path d="M46.1401 288.7C46.1401 288.7 37.7701 279.17 31.7301 272.2C25.6901 265.23 23.3701 259.89 23.1401 264.54C22.9101 269.19 21.0501 272.9 25.9301 278.94C30.8101 284.98 46.1401 288.7 46.1401 288.7Z" fill="#1D4FD7"/>
<path d="M50.55 304C50.55 304 50.78 300.28 37.55 291.69C24.32 283.1 18.72 281.49 20.12 285C21.52 288.51 27.32 292 33.59 298.24C39.86 304.48 50.55 304 50.55 304Z" fill="#1D4FD7"/>
<path d="M74.6201 271C74.6201 271 77.7301 254.34 80.9801 242.49C84.2301 230.64 86.3201 223.44 86.3201 223.44" stroke="#263238" stroke-linecap="round" stroke-linejoin="round"/>
<path d="M57.82 255.65C57.82 255.65 52.18 237.59 50.32 226.65C48.46 215.71 50.55 207.6 51.48 202.73" stroke="#263238" stroke-linecap="round" stroke-linejoin="round"/>
<path d="M79.1599 285.33C81.6615 281.028 84.5252 276.946 87.7199 273.13C92.8299 267.13 96.7799 263.84 99.0999 258.03" stroke="#263238" stroke-linecap="round" stroke-linejoin="round"/>
<path d="M57.75 286.14C57.75 286.14 55.89 274.99 51.48 269.14C47.07 263.29 38.24 254.28 34.75 248.47" stroke="#263238" stroke-linecap="round" stroke-linejoin="round"/>
<path d="M82.22 313.53C82.22 313.53 90.04 308.44 95.62 305.65" stroke="#263238" stroke-linecap="round" stroke-linejoin="round"/>
<path d="M57.73 375.08C55.9864 375.072 54.3086 374.413 53.025 373.233C51.7414 372.053 50.9444 370.437 50.79 368.7C49.63 354.9 47.21 323.9 48.46 322.38C53.58 316.14 75.63 316.14 80.75 322.38C82 323.9 79.58 354.9 78.42 368.7C78.2647 370.447 77.4591 372.072 76.1628 373.254C74.8665 374.435 73.1739 375.087 71.42 375.08H57.73Z" fill="#263238" stroke="#263238" stroke-linecap="round" stroke-linejoin="round"/>
<path d="M186.79 257.19H181.37V278.87H186.79V257.19Z" fill="#263238" stroke="#263238" stroke-linecap="round" stroke-linejoin="round"/>
<path d="M270.46 257.19H265.04V278.87H270.46V257.19Z" fill="#263238" stroke="#263238" stroke-linecap="round" stroke-linejoin="round"/>
<path d="M193.23 186.37H256.73C258.642 186.37 260.476 187.13 261.828 188.482C263.18 189.834 263.94 191.668 263.94 193.58V288.2H186V193.58C186 192.632 186.187 191.692 186.551 190.816C186.914 189.94 187.447 189.144 188.119 188.475C188.79 187.805 189.588 187.274 190.465 186.913C191.342 186.552 192.281 186.367 193.23 186.37Z" fill="#ABABAB" stroke="#263238" stroke-linecap="round" stroke-linejoin="round"/>
<path d="M189.5 375.07C191.742 375.07 193.56 373.252 193.56 371.01C193.56 368.768 191.742 366.95 189.5 366.95C187.258 366.95 185.44 368.768 185.44 371.01C185.44 373.252 187.258 375.07 189.5 375.07Z" fill="white" stroke="#263238" stroke-linecap="round" stroke-linejoin="round"/>
<path d="M229.13 371C229.13 370.195 228.891 369.407 228.443 368.738C227.996 368.068 227.359 367.547 226.615 367.239C225.871 366.931 225.052 366.851 224.262 367.009C223.473 367.167 222.747 367.555 222.179 368.126C221.61 368.696 221.223 369.422 221.067 370.212C220.911 371.002 220.993 371.821 221.303 372.565C221.612 373.308 222.135 373.943 222.806 374.389C223.477 374.835 224.265 375.072 225.07 375.07C225.604 375.07 226.133 374.965 226.626 374.76C227.119 374.555 227.567 374.255 227.944 373.877C228.322 373.499 228.62 373.051 228.824 372.557C229.027 372.063 229.131 371.534 229.13 371Z" fill="white" stroke="#263238" stroke-linecap="round" stroke-linejoin="round"/>
<path d="M264.7 371C264.7 370.195 264.461 369.408 264.014 368.739C263.567 368.07 262.931 367.548 262.188 367.24C261.444 366.932 260.626 366.851 259.836 367.008C259.047 367.165 258.321 367.553 257.752 368.122C257.183 368.691 256.795 369.417 256.638 370.206C256.481 370.996 256.562 371.814 256.87 372.558C257.178 373.301 257.7 373.937 258.369 374.384C259.038 374.831 259.825 375.07 260.63 375.07C261.709 375.07 262.745 374.641 263.508 373.878C264.271 373.115 264.7 372.079 264.7 371Z" fill="white" stroke="#263238" stroke-linecap="round" stroke-linejoin="round"/>
<path d="M228.74 350.6V283.62H221.6V350.17L221.34 350.35L184.42 365.25V369.66H190.18V366.61L222.17 361.9L222.76 369.66H227.03L227.62 361.95L259.28 366.61V369.66H265.04V365.25L228.74 350.6Z" fill="#263238" stroke="#263238" stroke-linecap="round" stroke-linejoin="round"/>
<path d="M236.32 291.03H213.65V299.06H236.32V291.03Z" fill="#263238" stroke="#263238" stroke-linecap="round" stroke-linejoin="round"/>
<path d="M267.58 273.56H182.39C180.877 273.56 179.65 274.787 179.65 276.3V288.76C179.65 290.273 180.877 291.5 182.39 291.5H267.58C269.093 291.5 270.32 290.273 270.32 288.76V276.3C270.32 274.787 269.093 273.56 267.58 273.56Z" fill="#ABABAB" stroke="#263238" stroke-linecap="round" stroke-linejoin="round"/>
<path d="M183.84 244.65H177.2C175.946 244.65 174.93 245.666 174.93 246.92V258.98C174.93 260.234 175.946 261.25 177.2 261.25H183.84C185.094 261.25 186.11 260.234 186.11 258.98V246.92C186.11 245.666 185.094 244.65 183.84 244.65Z" fill="#ABABAB" stroke="#263238" stroke-linecap="round" stroke-linejoin="round"/>
<path d="M272.42 244.65H265.78C264.526 244.65 263.51 245.666 263.51 246.92V258.98C263.51 260.234 264.526 261.25 265.78 261.25H272.42C273.674 261.25 274.69 260.234 274.69 258.98V246.92C274.69 245.666 273.674 244.65 272.42 244.65Z" fill="#ABABAB" stroke="#263238" stroke-linecap="round" stroke-linejoin="round"/>
<path d="M102.85 271.11L343.35 271.11V247.71L102.85 247.71V271.11Z" fill="white" stroke="#263238" stroke-linecap="round" stroke-linejoin="round"/>
<path d="M102.85 253.93L343.35 253.93V247.71L102.85 247.71V253.93Z" fill="#263238" stroke="#263238" stroke-linecap="round" stroke-linejoin="round"/>
<path d="M340.82 375.08H344.23L345.36 247.37H339.68L340.82 375.08Z" fill="white" stroke="#263238" stroke-linecap="round" stroke-linejoin="round"/>
<path d="M101.65 375.08H105.06L106.2 247.37H100.52L101.65 375.08Z" fill="white" stroke="#263238" stroke-linecap="round" stroke-linejoin="round"/>
<path d="M97.3501 249.58L348.81 249.58V244.3L97.3501 244.3V249.58Z" fill="white" stroke="#263238" stroke-linecap="round" stroke-linejoin="round"/>
<path d="M192.84 244.61H268.5V241.49H192.84V244.61Z" fill="white" stroke="#263238" stroke-linecap="round" stroke-linejoin="round"/>
<path d="M251.49 230.31H342.52V168.97H251.49V230.31Z" fill="#263238" stroke="#263238" stroke-linecap="round" stroke-linejoin="round"/>
<path d="M271.15 244.61H307.99V241.15H271.15V244.61Z" fill="#ABABAB" stroke="#263238" stroke-linecap="round" stroke-linejoin="round"/>
<path d="M286.03 244.61H307.99V204.9H286.03V244.61Z" fill="#ABABAB" stroke="#263238" stroke-linecap="round" stroke-linejoin="round"/>
<path d="M217.69 36.02L227.95 38.58" stroke="#263238" stroke-miterlimit="10"/>
<path d="M234.36 15.5L237.35 22.34" stroke="#263238" stroke-miterlimit="10"/>
<path d="M295.07 36.02L284.81 38.58" stroke="#263238" stroke-miterlimit="10"/>
<path d="M278.39 15.5L275.4 22.34" stroke="#263238" stroke-miterlimit="10"/>
<path d="M257.02 6.52002V15.07" stroke="#263238" stroke-miterlimit="10"/>
<path d="M275.29 69.0899C275.361 66.2801 275.723 63.4852 276.37 60.7499C277.31 57.6599 276.64 56.3099 275.96 56.5799C275.28 56.8499 274.49 56.9899 274.08 59.4099C273.749 61.0939 273.568 62.804 273.54 64.5199C273.54 65.9999 275.29 69.0899 275.29 69.0899Z" fill="white" stroke="#263238" stroke-miterlimit="10"/>
<path d="M260.76 53.81C261 53.39 262.53 55.03 263.59 56.01C263.17 55.15 263.06 55.1 262.38 53.62C261.824 52.6448 261.632 51.5034 261.84 50.4C262.2 49 265.08 52.11 265.91 53.73C265.49 52.43 264.6 49.73 264.4 48.92C264.13 47.84 264.27 46.36 265.07 45.83C265.87 45.3 267.07 48.11 267.07 48.11C268.066 48.5801 268.906 49.3263 269.49 50.26L274.06 59.41L274.47 65.86L278.63 81.73L288.32 95.18L277.64 100.36L271.37 85.5C270.29 84.5537 269.342 83.4674 268.55 82.27C267.67 80.9 266.86 75.82 266.38 71.71C266.016 70.6856 265.742 69.6317 265.56 68.56C265.16 66.28 264.45 60.91 264.45 60.91C264.45 60.91 262.4 58.46 261.3 56.81C260.999 56.3787 260.794 55.8871 260.701 55.3692C260.608 54.8513 260.628 54.3193 260.76 53.81Z" fill="white" stroke="#263238" stroke-miterlimit="10"/>
<path d="M266.15 54.4299C267.08 55.8778 267.915 57.3843 268.65 58.9399C269.055 60.0203 269.389 61.126 269.65 62.2499" stroke="#263238" stroke-miterlimit="10"/>
<path d="M267.09 48.11C267.09 48.11 270.59 56.31 271.39 57.52C272.107 58.9103 272.52 60.4376 272.6 62" stroke="#263238" stroke-miterlimit="10"/>
<path d="M263.59 56C264.66 56.9629 265.641 58.0206 266.52 59.16C266.84 59.87 267.86 63.74 267.86 63.74" stroke="#263238" stroke-miterlimit="10"/>
<path d="M348.31 329.33C348.31 329.33 349.68 348.25 347.8 357.45C345.92 366.65 339.11 380.29 338.43 382.16C337.75 384.03 332 405 332.12 405.85C332.24 406.7 336.38 414.03 335.87 417.6C335.36 421.17 334.51 422.21 332.98 422.55C331.45 422.89 324.11 422.72 319.17 426.81C314.23 430.9 306.9 430.04 304.35 429.87C301.8 429.7 295.15 429.7 294.8 428.34C294.45 426.98 298.38 423.91 300.43 423.06C302.48 422.21 307.93 417.6 309.43 416.06C310.93 414.52 316.76 407.06 317.95 404.13C319.14 401.2 322.55 356.93 323.57 350.13C324.58 343.934 325.095 337.668 325.11 331.39C324.94 329.139 325.229 326.876 325.96 324.74L348.31 329.33Z" fill="white" stroke="#263238" stroke-miterlimit="10"/>
<path d="M300.43 423.06C301.601 422.459 302.707 421.738 303.73 420.91C305.104 421.618 306.577 422.113 308.1 422.38C309.63 422.38 320.88 414.88 324.8 412.66C327.97 410.87 332.49 410.42 334.09 410.31C335.09 412.78 336.14 415.71 335.87 417.6C335.36 421.18 334.51 422.21 332.98 422.55C331.45 422.89 324.11 422.72 319.17 426.81C314.23 430.9 306.9 430.04 304.35 429.87C301.8 429.7 295.15 429.7 294.8 428.34C294.45 426.98 298.38 423.91 300.43 423.06Z" fill="#1D4FD7" stroke="#263238" stroke-miterlimit="10"/>
<path d="M404.09 324.31C404.09 324.31 410.09 334.72 412.71 344.94C415.33 355.16 414.91 398.83 415.31 399.63C415.71 400.43 419.31 408.85 421.12 412.45C422.93 416.05 427.33 421.45 427.33 423.07C427.33 424.69 424.13 424.67 423.52 424.67H412.52C412.52 424.67 409.52 423.67 408.91 422.47C408.3 421.27 407.91 416.06 406.51 414.47C405.11 412.88 401.7 408.66 401.51 406.47C401.32 404.28 402.71 397.47 402.71 395.85C402.71 394.23 398.3 376.42 396.9 371.85C395.5 367.28 388.49 355.22 387.69 345.2C386.89 335.18 386.08 330.78 386.08 330.78L404.09 324.31Z" fill="white" stroke="#263238" stroke-miterlimit="10"/>
<path d="M411 397.45C413.27 398.11 415.26 400.51 416.38 402.09C417.69 405.09 419.83 409.93 421.09 412.45C422.89 416.06 427.3 421.45 427.3 423.07C427.3 424.69 424.1 424.67 423.49 424.67H412.49C412.49 424.67 409.49 423.67 408.88 422.47C408.27 421.27 407.88 416.06 406.48 414.47C405.08 412.88 401.67 408.66 401.48 406.47C401.527 404.207 401.765 401.953 402.19 399.73C403.323 398.601 404.737 397.795 406.286 397.394C407.834 396.994 409.461 397.013 411 397.45Z" fill="#1D4FD7" stroke="#263238" stroke-miterlimit="10"/>
<path d="M423.52 424.67H412.52C412.52 424.67 409.52 423.67 408.91 422.47C408.3 421.27 407.91 416.06 406.51 414.47C405.33 413.12 402.73 409.92 401.82 407.63L402.36 407.06C402.36 407.06 407.75 402.72 411.7 405.06C415.65 407.4 416.7 412.95 419.19 415.71C421.68 418.47 425.89 420.52 427.34 423.05C427.33 424.67 424.13 424.67 423.52 424.67Z" fill="#263238" stroke="#263238" stroke-miterlimit="10"/>
<path d="M407.86 163C407.86 163 414.11 197.16 414.29 198.28C414.47 199.4 419.54 216.08 418.79 219.82C418.04 223.56 402.49 255.22 402.49 255.22C402.49 255.22 398.56 248.67 398 248.29C397.44 247.91 399.5 216.64 399.5 216.64L393.31 196.64C393.31 196.64 393.31 176.21 395.94 172.29C398.57 168.37 406.8 161 407.86 163Z" fill="#1D4FD7" stroke="#263238" stroke-miterlimit="10"/>
<path d="M395.3 200.85C395.3 200.85 404.16 198.58 409.1 193.64" stroke="#263238" stroke-miterlimit="10"/>
<path d="M399.42 207.85C399.42 207.85 406.22 212.18 413.22 212.18" stroke="#263238" stroke-miterlimit="10"/>
<path d="M409.75 240.19C405.99 248.08 402.49 255.19 402.49 255.19C402.49 255.19 398.56 248.64 398 248.26C397.79 248.13 397.94 243.86 398.2 238.51C399.83 239.737 401.742 240.534 403.76 240.828C405.779 241.121 407.839 240.902 409.75 240.19Z" fill="white" stroke="#263238" stroke-miterlimit="10"/>
<path d="M391.85 221.5L404 252.83C407.41 261.65 407.91 308.68 407.91 308.68L406.91 326.31C406.91 326.31 387.27 335.53 364.84 334.52C350.698 333.775 336.702 331.286 323.17 327.11C323.17 327.11 323.27 286.29 328.27 272.67C333.27 259.05 336.89 245.22 336.89 245.22L338.57 224.11L391.85 221.5Z" fill="#263238" stroke="#263238" stroke-miterlimit="10"/>
<path d="M402.88 174C402.53 174.89 393.88 203.12 393.88 203.12C393.88 203.12 391.82 209.87 391.63 210.62C391.627 214.061 391.814 217.5 392.19 220.92C392.38 221.67 393.75 219.67 393.19 222.29C392.63 224.91 390.19 225.1 388.7 225.85C380.757 228.938 372.312 230.528 363.79 230.54C355.246 230.255 346.732 229.376 338.31 227.91C337.333 226.179 336.52 224.362 335.88 222.48C335.5 220.8 336.56 216.98 336.56 216.98L331.56 176.67C331.56 176.67 310.71 149.11 307.86 147.16C305.01 145.21 301.28 142.35 300.21 141.46C298.91 140.167 297.936 138.584 297.37 136.84C296.65 134.84 277.69 100.34 277.69 100.34C277.69 100.34 282.49 95.18 283.69 94.83C285.043 94.5198 286.412 94.2828 287.79 94.12L312.45 121.71C312.45 121.71 317.25 124.03 318.32 124.56C319.39 125.09 319.21 128.12 319.21 128.12L326.72 131.48L351.89 139.43L363.89 142.33C363.89 142.33 397.89 155.14 400.02 156.21C402.15 157.28 408.02 161.21 407.84 162.97C407.66 164.73 404.46 172.05 404.46 172.05" fill="#1D4FD7"/>
<path d="M402.88 174C402.53 174.89 393.88 203.12 393.88 203.12C393.88 203.12 391.82 209.87 391.63 210.62C391.627 214.061 391.814 217.5 392.19 220.92C392.38 221.67 393.75 219.67 393.19 222.29C392.63 224.91 390.19 225.1 388.7 225.85C380.757 228.938 372.312 230.528 363.79 230.54C355.246 230.255 346.732 229.376 338.31 227.91C337.333 226.179 336.52 224.362 335.88 222.48C335.5 220.8 336.56 216.98 336.56 216.98L331.56 176.67C331.56 176.67 310.71 149.11 307.86 147.16C305.01 145.21 301.28 142.35 300.21 141.46C298.91 140.167 297.936 138.584 297.37 136.84C296.65 134.84 277.69 100.34 277.69 100.34C277.69 100.34 282.49 95.18 283.69 94.83C285.043 94.5198 286.412 94.2828 287.79 94.12L312.45 121.71C312.45 121.71 317.25 124.03 318.32 124.56C319.39 125.09 319.21 128.12 319.21 128.12L326.72 131.48L351.89 139.43L363.89 142.33C363.89 142.33 397.89 155.14 400.02 156.21C402.15 157.28 408.02 161.21 407.84 162.97C407.66 164.73 404.46 172.05 404.46 172.05" stroke="#263238" stroke-miterlimit="10"/>
<path d="M351.27 199.05C356.75 206.39 364.07 215.24 370.27 219.44" stroke="#263238" stroke-miterlimit="10"/>
<path d="M343.12 187.41C343.12 187.41 345.71 191.41 349.56 196.73" stroke="#263238" stroke-miterlimit="10"/>
<path d="M377.16 217.87C378.081 218.508 379.036 219.096 380.02 219.63" stroke="#263238" stroke-miterlimit="10"/>
<path d="M364.28 206.33C367.66 209.937 371.293 213.299 375.15 216.39" stroke="#263238" stroke-miterlimit="10"/>
<path d="M314.77 129C314.77 129 306.59 138.43 306.77 135.58C306.95 132.73 306.05 132.73 308.77 130.58" stroke="#263238" stroke-miterlimit="10"/>
<path d="M363.16 92.27C363.16 92.27 353.16 98.22 352.32 100.14C351.48 102.06 351.05 106.72 349.98 107.79C348.91 108.86 342.76 110.34 342.98 111.79C343.2 113.24 345.53 117.79 345.53 117.79C345.53 117.79 345.11 132.03 345.11 133.09C345.11 134.15 346.38 134.79 347.66 135C348.94 135.21 351.91 136.07 351.91 136.07V139.47C351.91 139.47 360.19 142.23 361.04 142.23C361.89 142.23 367.42 142.65 367.42 142.65C367.42 142.65 378.68 135.22 382.29 124.59C385.9 113.96 382.29 105.68 378.29 100.79C374.29 95.9 363.16 92.27 363.16 92.27Z" fill="white" stroke="#263238" stroke-miterlimit="10"/>
<path d="M364.86 121C364.86 121 371.86 115.26 373.57 119.94C375.28 124.62 373.78 127.16 371.66 128.01C369.54 128.86 364.43 130.56 364.43 130.56C364.43 130.56 359.55 141.82 359.12 146.5C358.69 151.18 355.72 154.79 357.21 157.97C358.7 161.15 360.82 162.44 371.21 163.5C381.6 164.56 393.49 163.03 400.92 159.84C408.35 156.65 407.34 145.44 405.85 142.84C404.36 140.24 397.35 131.36 397.56 126.69C397.77 122.02 404.15 114.81 399.63 101.87C395.63 90.42 376.1 83.34 370.79 83.98C365.48 84.62 360.79 83.98 360.79 87.38C360.552 91.5525 361.923 95.6576 364.62 98.85C368.23 103.53 366.1 107.14 365.25 107.99C364.4 108.84 361.64 111.6 362.07 114.99C362.418 117.215 363.384 119.298 364.86 121Z" fill="#263238" stroke="#263238" stroke-miterlimit="10"/>
<path d="M352.58 122.22C352.58 122.22 351.84 125.41 346.93 124.43" stroke="#263238" stroke-miterlimit="10"/>
<path d="M355.77 105.28C355.618 104.615 355.244 104.022 354.709 103.599C354.175 103.175 353.512 102.946 352.83 102.95" stroke="#263238" stroke-miterlimit="10"/>
<path d="M351.55 108C351.07 109 350.97 109.91 351.33 110.09C351.69 110.27 352.39 109.63 352.87 108.66C353.35 107.69 353.45 106.75 353.09 106.57C352.73 106.39 352 107.05 351.55 108Z" fill="#263238"/>
<path d="M148.61 98.1201C148.61 98.1201 149.16 97.0101 147.51 95.3601C145.86 93.7101 138.51 89.1101 136.29 87.6301C134.07 86.1501 131.51 81.5701 122.68 86.9001C113.85 92.2301 108 101.8 106.87 108.6C105.74 115.4 110.18 123.68 118.45 128.28C122.996 130.921 127.978 132.726 133.16 133.61L134.08 135.26L160.2 131.4C160.2 131.4 164.43 126.99 163.88 124.4C163.33 121.81 158.73 113.19 158.73 113.19C158.73 113.19 161.67 108.77 160.73 107.49C159.79 106.21 148.61 98.1201 148.61 98.1201Z" fill="white" stroke="#263238" stroke-miterlimit="10"/>
<path d="M137.76 120.37C137.76 120.37 134.08 121.66 132.61 122.21C131.14 122.76 126.91 121.47 125.07 117.79C123.23 114.11 125.99 110.25 128.01 109.89C130.03 109.53 131.69 110.81 132.8 110.62C133.91 110.43 133.9 109.15 134.08 108.05C134.26 106.95 131.14 104.92 131.14 104.92C131.14 104.92 135.37 100.32 136.47 98.3C137.57 96.28 128.93 94.3 128.57 92.6C128.21 90.9 136.29 87.6 136.29 87.6C134.08 86.13 131.51 81.54 122.68 86.87C113.85 92.2 108 101.8 106.87 108.6C105.74 115.4 110.18 123.68 118.45 128.28C122.382 130.504 126.606 132.163 131 133.21L132.94 132.14C132.94 132.14 133.86 131.04 136.07 127.72C137.42 125.52 138.013 122.939 137.76 120.37Z" fill="#263238" stroke="#263238" stroke-miterlimit="10"/>
<path d="M147.32 97.38C147.32 97.38 144.93 97.01 143.09 100.32" stroke="#263238" stroke-miterlimit="10"/>
<path d="M158.73 116.87C158.73 116.87 155.23 118.35 150.63 114.3" stroke="#263238" stroke-miterlimit="10"/>
<path d="M148.31 102.77C148.95 104.04 149.03 105.29 148.48 105.57C147.93 105.85 146.98 105.03 146.34 103.76C145.7 102.49 145.62 101.24 146.17 100.97C146.72 100.7 147.67 101.5 148.31 102.77Z" fill="#263238"/>
<path d="M156.34 133.06C156.34 133.06 134.45 131.22 133.16 133.61C131.87 136 132.06 140.78 132.06 140.78L156.15 135.26L156.34 133.06Z" fill="#1D4FD7" stroke="#263238" stroke-miterlimit="10"/>
<path d="M192 122.73C192 122.73 236.72 73.91 237 73.21C237.28 72.51 238.63 56.73 238.76 55.63C238.89 54.53 238.54 52.83 239.86 51.14C241.18 49.45 243.69 45.49 243.69 45.49C244.487 43.7789 245.371 42.11 246.34 40.49C247 39.64 248.64 38.36 249.7 37.19C250.76 36.02 252.36 35.1 253.21 35.76C254.06 36.42 254.46 39.18 254.46 39.18C254.46 39.18 255.57 39.18 255.92 40.9C256.27 42.62 253.52 51.54 253.41 52.46C253.3 53.38 252.47 61.79 251.49 66.86C250.51 71.93 248.96 75.44 247.44 77.3C245.92 79.16 229.73 102.75 225.66 107.3C221.59 111.85 205.51 139.82 205.51 139.82L192 122.73Z" fill="white" stroke="#263238" stroke-miterlimit="10"/>
<path d="M242.54 47.5C242.54 47.5 240.3 53.74 240.2 54.6C240.1 55.46 239.53 60.16 239.53 60.16" stroke="#263238" stroke-miterlimit="10"/>
<path d="M247.4 39.5801C247.4 39.5801 244.51 47.6501 244.19 48.9201C243.87 50.1901 243.57 51.9201 243.57 51.9201" stroke="#263238" stroke-miterlimit="10"/>
<path d="M254.4 39.13C253.785 41.0792 253.06 42.9923 252.23 44.86C251.156 47.6032 250.319 50.4336 249.73 53.32" stroke="#263238" stroke-miterlimit="10"/>
<path d="M251.46 36.17C251.46 36.17 248.07 44.79 247.59 46.64C247.11 48.49 246.45 51.71 246.23 52.11" stroke="#263238" stroke-miterlimit="10"/>
<path d="M180.11 153.04L207.33 228.06L201.21 236.62L194.78 224.6L189.72 198.98L180.11 153.04Z" fill="#263238" stroke="#263238" stroke-miterlimit="10"/>
<path d="M121.39 208.37C121.39 208.37 118.69 219.18 120.56 220.63C122.43 222.08 139.47 227.28 139.89 226.63C140.31 225.98 140.09 219.15 139.68 217.28C139.27 215.41 136.15 212.92 136.15 212.92L121.39 208.37Z" fill="white" stroke="#263238" stroke-miterlimit="10"/>
<path d="M126.17 177C126.17 177 120.77 204.43 121.17 205.47C121.57 206.51 135.5 208.17 135.5 208.17L126.17 177Z" fill="#1D4FD7" stroke="#263238" stroke-miterlimit="10"/>
<path d="M120.15 200.27C120.15 200.27 118.48 209 120.56 210.04C122.64 211.08 135.11 214.4 136.15 212.95C137.19 211.5 135.73 205.26 135.73 205.26C135.73 205.26 121.19 198.61 120.15 200.27Z" fill="#1D4FD7" stroke="#263238" stroke-miterlimit="10"/>
<path d="M178 405.14C178 405.14 184.77 410.21 186.7 410.7C188.63 411.19 195.4 413.35 196.12 414.56C196.84 415.77 196.12 419.64 195.12 421.09C194.12 422.54 180.39 424.71 173.86 423.99C167.33 423.27 153.08 426.64 151.63 422.05C150.18 417.46 152.63 410.7 152.63 410.7C152.63 410.7 173.68 406.11 178 405.14Z" fill="white" stroke="#263238" stroke-miterlimit="10"/>
<path d="M191.08 419.88C188.42 420.6 177.79 421.09 165.22 421.57C157.22 421.88 153.15 420.33 151.22 419.16C151.245 420.139 151.396 421.11 151.67 422.05C153.12 426.64 167.38 423.26 173.9 423.99C180.42 424.72 194.2 422.54 195.16 421.09C195.636 420.299 195.974 419.434 196.16 418.53L191.08 419.88Z" fill="white" stroke="#263238" stroke-miterlimit="10"/>
<path d="M89.3601 390.64C89.3601 390.64 83.5601 402.72 84.5201 405.38C85.4801 408.04 88.3901 408.52 91.0501 409.49C93.7101 410.46 100.47 410.21 102.4 411.42C104.33 412.63 113.52 416.74 117.87 417.42C122.22 418.1 126.81 416.21 127.29 414.28C127.77 412.35 120.29 406.55 117.38 404.62C114.47 402.69 109.89 395.92 109.89 395.92L89.3601 390.64Z" fill="white" stroke="#263238" stroke-miterlimit="10"/>
<path d="M99.0001 408.28C94.0806 406.906 89.2678 405.174 84.6001 403.1C84.3929 403.843 84.3654 404.625 84.5201 405.38C85.5201 408.04 88.3901 408.52 91.0501 409.49C93.7101 410.46 100.47 410.21 102.4 411.42C104.33 412.63 113.52 416.74 117.87 417.42C122.22 418.1 126.81 416.21 127.29 414.28C127.312 413.705 127.108 413.145 126.72 412.72C124.72 413.95 121.95 415.35 119.8 415.49C115.93 415.77 105.06 409.73 99.0001 408.28Z" fill="white" stroke="#263238" stroke-miterlimit="10"/>
<path d="M137.21 237.51C137.21 237.51 131.88 258.02 131.64 263.82C131.511 267.685 131.591 271.554 131.88 275.41C131.88 275.41 128.02 278.31 128.74 280.73C129.174 282.189 129.825 283.574 130.67 284.84C130.67 284.84 121.49 319.84 120.28 321.56C119.07 323.28 106.28 343.07 102.89 349.83C99.5001 356.59 91.5301 384.83 91.5301 384.83C90.5956 385.767 89.9291 386.938 89.6001 388.22C89.3601 389.91 88.8701 392.81 88.8701 392.81C89.9201 394.555 91.3625 396.031 93.0828 397.121C94.803 398.212 96.7538 398.886 98.7801 399.09C106.03 400.09 109.89 398.61 109.89 398.61C110.711 397.359 111.287 395.965 111.59 394.5C112.07 392.08 112.79 388.22 112.79 388.22L126.32 364.78L148.79 323.49L155.56 304.16C155.56 304.16 158.7 332.67 158.46 333.88C158.22 335.09 151.94 356.81 151.94 367.44C151.94 378.07 152.66 400.3 152.66 400.3C152.66 400.3 150.73 403.68 151.21 405.61L151.69 407.55L152.69 410.69C152.69 410.69 162.11 410.44 166.46 409.69C170.81 408.94 178.06 405.1 178.06 405.1C178.06 405.1 178.78 401.72 178.06 400.51C177.229 399.409 176.578 398.184 176.13 396.88C175.506 394.43 175.425 391.874 175.89 389.39C176.61 386.01 184.1 335.3 187 322.49C189.9 309.68 190.62 268.37 190.38 260.88C190.263 256.588 189.859 252.308 189.17 248.07L189.66 239.37C189.66 239.37 176.13 233.57 164.53 232.85C152.93 232.13 138.92 234.3 138.92 234.3L137.21 237.51Z" fill="#263238" stroke="#263238" stroke-miterlimit="10"/>
<path d="M141.79 276.62L150.73 291.12L154.59 302.48" stroke="#8F8F8F" stroke-miterlimit="10"/>
<path d="M158.35 276.24C160.04 274.74 161.71 273.13 162.35 272.51C163.56 271.31 165.25 254.64 165.5 253.91" stroke="#8F8F8F" stroke-miterlimit="10"/>
<path d="M140.58 256.08C140.58 256.08 140.58 268.65 142.03 271.31C143.48 273.97 152.9 279.76 154.35 279.31" stroke="#8F8F8F" stroke-miterlimit="10"/>
<path d="M143.24 250.53C143.24 250.53 156.24 248.35 164.74 251.25" stroke="#263238" stroke-miterlimit="10"/>
<path d="M175.52 314.72C175.84 321.81 176.13 331.79 175.37 334.37C174.657 336.688 173.768 338.948 172.71 341.13C171.99 343.07 172.96 345.24 172.47 346.45C171.98 347.66 170.54 368.9 169.33 374.45C168.12 380 167.88 392.09 167.88 392.09" stroke="#8F8F8F" stroke-miterlimit="10"/>
<path d="M179.72 243C179.72 243 178.03 264.26 177.3 271C176.57 277.74 174.16 288.15 174.41 292.5C174.66 296.85 175.13 307.24 175.13 307.24C175.13 307.24 175.19 308.17 175.27 309.7" stroke="#8F8F8F" stroke-miterlimit="10"/>
<path d="M168.37 395.23V400.79C168.627 400.848 168.87 400.958 169.083 401.112C169.296 401.267 169.476 401.464 169.61 401.69C169.745 401.917 169.832 402.168 169.867 402.43C169.901 402.691 169.882 402.956 169.81 403.21C169.406 404.512 168.656 405.681 167.64 406.59" stroke="#263238" stroke-miterlimit="10"/>
<path d="M132.06 140.78C132.06 140.78 124.15 149.43 122.13 159.36C120.11 169.29 126.91 182.71 126.91 182.71L138.31 224.82C138.31 224.82 135 227.4 134.82 229.61C134.64 231.82 135.55 236.96 137.21 237.51C138.87 238.06 164.61 237.88 164.61 237.88C164.61 237.88 190.17 242.48 190.72 242.48C191.27 242.48 194.22 239.9 194.22 236.96C194.22 234.02 193.67 229.79 193.48 227.96C193.29 226.13 185.94 177.76 185.21 174.45C184.48 171.14 184.21 158.06 184.21 158.06L199.61 146.63L202.25 143.25L190.47 124.25C190.47 124.25 171.6 128.87 170.68 129.6C169.76 130.33 132.06 140.78 132.06 140.78Z" fill="#1D4FD7" stroke="#263238" stroke-miterlimit="10"/>
<path d="M186.12 126.47C186.12 126.47 198.57 149.09 199.33 149C200.09 148.91 206.99 143.81 207.49 142.76C207.99 141.71 207.16 139.39 207.16 139.39C207.16 139.39 194.16 122.44 193.04 121.39C192.852 121.177 192.622 121.007 192.363 120.89C192.104 120.773 191.824 120.713 191.54 120.713C191.256 120.713 190.976 120.773 190.717 120.89C190.459 121.007 190.228 121.177 190.04 121.39C189.62 122.07 185.29 122.66 186.12 126.47Z" fill="#1D4FD7" stroke="#263238" stroke-miterlimit="10"/>
<path d="M184.21 158.05L159.99 176.13" stroke="#263238" stroke-miterlimit="10"/>
<path d="M155.87 203.3C154.709 205.352 153.42 207.33 152.01 209.22" stroke="#263238" stroke-miterlimit="10"/>
<path d="M168.33 174C165.62 183.108 161.991 191.916 157.5 200.29" stroke="#263238" stroke-miterlimit="10"/>
<path d="M159.55 204.19C159.55 204.19 150.61 217.61 146.41 221.24" stroke="#263238" stroke-miterlimit="10"/>
</g>
<defs>
<clipPath id="clip0_73_1790">
<rect width="500" height="435" fill="white"/>
</clipPath>
</defs>
</svg>
