<svg width="659" height="659" viewBox="0 0 659 659" fill="none" xmlns="http://www.w3.org/2000/svg">
<path d="M544.255 136.637C522.788 115.429 497.915 97.974 470.671 84.9978C430.103 66.0186 385.41 56.8849 340.716 56.3313C210.089 54.7497 200.152 208.244 159.992 229.53C119.833 250.815 47.0395 253.372 44.5221 338.726C42.9537 392.408 55.4747 447.606 90.718 489.426C122.983 527.727 170.404 547.141 217.114 561.481C269.557 577.587 325.19 593.39 380.362 582.569C437.036 571.419 476.773 526.58 523.272 496.293C552.545 477.208 578.826 457.122 596.896 426.518C599.057 422.854 601.096 419.128 603.011 415.341C627.21 367.775 632.007 312.906 618.617 261.438C606.636 215.19 579.604 171.195 544.255 136.637Z" fill="#1D4FD7"/>
<path opacity="0.7" d="M544.255 136.637C522.788 115.429 497.915 97.974 470.671 84.9978C430.103 66.0186 385.41 56.8849 340.716 56.3313C210.089 54.7497 200.152 208.244 159.992 229.53C119.833 250.815 47.0395 253.372 44.5221 338.726C42.9537 392.408 55.4747 447.606 90.718 489.426C122.983 527.727 170.404 547.141 217.114 561.481C269.557 577.587 325.19 593.39 380.362 582.569C437.036 571.419 476.773 526.58 523.272 496.293C552.545 477.208 578.826 457.122 596.896 426.518C599.057 422.854 601.096 419.128 603.011 415.341C627.21 367.775 632.007 312.906 618.617 261.438C606.636 215.19 579.604 171.195 544.255 136.637Z" fill="white"/>
<path d="M20.2708 610.498H631.085" stroke="#263238" stroke-linecap="round" stroke-linejoin="round"/>
<path d="M542.528 517.394C545.468 518.712 552.637 518.514 552.651 518.514C552.664 518.514 551.109 513.822 550.964 513.532C549.395 510.237 544.374 504.794 540.42 505.348C539.742 505.444 539.093 505.682 538.515 506.048C537.937 506.413 537.443 506.897 537.065 507.468C536.688 508.038 536.436 508.682 536.326 509.357C536.215 510.032 536.25 510.723 536.426 511.384C537.151 514.218 540.024 516.3 542.528 517.394Z" fill="#263238"/>
<path d="M545.006 538.192C548.051 538.627 554.456 536.782 554.97 536.624C556.018 540.294 557.317 543.887 558.858 547.379C559.728 549.421 560.69 551.438 561.666 553.468C561.086 552.611 560.545 551.847 560.466 551.754C558.081 548.987 551.833 545.059 548.077 546.654C547.46 546.937 546.909 547.348 546.46 547.858C546.011 548.368 545.674 548.967 545.472 549.616C545.269 550.264 545.205 550.948 545.284 551.623C545.363 552.298 545.582 552.949 545.929 553.534C547.313 556.064 550.647 557.316 553.349 557.699C556.051 558.081 561.573 556.631 563.023 556.222L564.17 558.529C566.028 562.232 567.9 565.91 569.613 569.574C570.219 570.892 570.773 572.21 571.327 573.449C570.813 572.684 570.364 572.052 570.285 571.959C567.9 569.205 561.652 565.264 557.896 566.872C557.279 567.154 556.728 567.563 556.279 568.072C555.831 568.581 555.494 569.179 555.292 569.826C555.089 570.474 555.025 571.157 555.103 571.831C555.182 572.505 555.402 573.155 555.748 573.739C557.066 576.269 560.466 577.521 563.168 577.917C565.87 578.312 570.865 576.981 572.592 576.506C573.119 577.824 573.646 579.142 574.094 580.46C574.384 581.37 574.727 582.227 574.964 583.096C575.201 583.966 575.478 584.928 575.729 585.825C576.15 587.564 576.585 589.37 576.954 591.097C577.218 592.283 577.442 593.429 577.679 594.576C577.086 593.258 575.887 590.78 575.755 590.622C573.818 587.525 568.242 582.714 564.275 583.703C563.623 583.889 563.017 584.212 562.497 584.648C561.977 585.084 561.554 585.626 561.257 586.236C560.96 586.846 560.795 587.512 560.772 588.191C560.749 588.869 560.87 589.545 561.125 590.174C562.114 592.889 565.211 594.629 567.821 595.446C570.694 596.316 577.047 595.512 577.851 595.446C578.22 597.344 578.576 599.202 578.879 600.955C579.511 604.514 579.999 607.73 580.368 610.498H583.004C582.543 607.624 581.963 604.25 581.225 600.507C580.843 598.583 580.408 596.553 579.907 594.418C581.818 593.645 583.684 592.765 585.495 591.782C587.591 594.049 592.955 596.711 593.64 597.054C592.915 598.846 592.191 600.586 591.479 602.221C590.161 605.318 588.843 608.099 587.683 610.511H590.556C591.545 608.323 592.599 605.858 593.706 603.17C594.457 601.338 595.222 599.387 595.986 597.37C596.751 597.528 603.051 598.807 605.977 598.148C608.613 597.542 611.868 596.039 613.054 593.403C613.358 592.797 613.53 592.134 613.56 591.457C613.59 590.78 613.477 590.104 613.228 589.474C612.98 588.843 612.601 588.272 612.117 587.798C611.633 587.324 611.054 586.957 610.418 586.721C606.544 585.403 600.626 589.818 598.464 592.757C598.332 592.929 597.146 594.972 596.434 596.263C596.738 595.433 597.054 594.642 597.357 593.785C597.977 592.098 598.543 590.398 599.163 588.513C599.426 587.617 599.703 586.721 599.967 585.811C600.23 584.902 600.454 583.927 600.705 582.978C601.232 580.764 601.654 578.497 602.023 576.19C603.499 576.73 608.771 578.576 611.512 578.378C614.254 578.18 617.641 577.192 619.223 574.767C619.612 574.21 619.88 573.578 620.008 572.911C620.137 572.244 620.124 571.558 619.97 570.896C619.816 570.235 619.524 569.613 619.114 569.072C618.703 568.531 618.184 568.082 617.588 567.755C613.951 565.87 607.44 569.336 604.857 571.907C604.685 572.065 603.038 574.121 602.155 575.267C602.379 573.949 602.603 572.513 602.774 571.103C603.275 567.056 603.657 562.931 604.092 558.832L604.487 555.063C605.015 555.26 611.236 557.58 614.293 557.356C617.022 557.171 620.435 556.17 622.004 553.745C622.393 553.189 622.662 552.557 622.792 551.891C622.921 551.225 622.909 550.539 622.756 549.877C622.604 549.216 622.313 548.594 621.904 548.052C621.495 547.511 620.977 547.061 620.383 546.733C616.745 544.861 610.234 548.314 607.637 550.884C607.453 551.082 605.081 554.048 604.514 554.838C604.804 552.084 605.12 549.329 605.542 546.627C606.092 542.982 606.88 539.376 607.901 535.833C608.138 535.925 614.623 538.377 617.76 538.153C620.488 537.968 623.902 536.966 625.47 534.541C625.862 533.986 626.132 533.355 626.263 532.688C626.394 532.021 626.382 531.334 626.229 530.672C626.076 530.01 625.785 529.388 625.375 528.847C624.965 528.305 624.445 527.856 623.849 527.529C620.211 525.658 613.7 529.111 611.104 531.681C610.906 531.892 608.362 535.082 607.941 535.635C607.941 535.424 608.033 535.213 608.099 535.003C609.22 531.477 610.653 528.059 612.382 524.788C613.305 522.969 614.307 521.282 615.295 519.661C616.468 520.241 621.793 522.824 624.64 522.943C627.487 523.061 630.874 522.429 632.706 520.201C633.155 519.691 633.492 519.091 633.693 518.441C633.895 517.792 633.958 517.107 633.877 516.432C633.796 515.756 633.574 515.105 633.224 514.522C632.875 513.938 632.406 513.435 631.849 513.045C628.449 510.791 621.595 513.506 618.735 515.786C618.577 515.905 617.14 517.341 616.099 518.422C616.56 517.697 617.022 516.946 617.483 516.261C619.196 513.625 620.91 511.424 622.465 509.447C623.348 508.326 624.165 507.325 624.956 506.402C626.393 506.402 632.179 506.204 634.709 505.018C637.24 503.832 639.981 501.697 640.601 498.863C640.758 498.208 640.777 497.528 640.657 496.866C640.537 496.203 640.281 495.573 639.904 495.015C639.527 494.457 639.038 493.984 638.468 493.625C637.898 493.267 637.26 493.03 636.594 492.932C632.535 492.497 627.697 498.072 626.221 501.407C626.089 501.697 624.6 506.441 624.679 506.428H624.732C623.968 507.311 623.15 508.247 622.28 509.302C620.686 511.252 618.906 513.48 617.14 516.037C615.197 518.76 613.415 521.594 611.802 524.524C609.986 527.801 608.464 531.233 607.255 534.778C607.249 534.822 607.249 534.867 607.255 534.91C607.255 533.711 607.255 530.363 607.189 530.1C606.715 526.488 603.684 519.766 599.664 519.015C598.992 518.911 598.307 518.949 597.651 519.126C596.996 519.304 596.385 519.617 595.858 520.046C595.331 520.474 594.9 521.009 594.593 521.615C594.286 522.221 594.11 522.884 594.075 523.562C593.838 526.449 595.934 529.322 597.963 531.141C600.257 533.197 606.623 535.174 607.189 535.332C606.062 538.972 605.182 542.684 604.553 546.443C604.158 548.631 603.828 550.845 603.539 553.033C603.539 551.992 603.539 551.069 603.539 550.937C603.064 547.313 600.033 540.591 596.013 539.853C595.342 539.749 594.656 539.786 594.001 539.964C593.345 540.142 592.734 540.455 592.207 540.883C591.68 541.312 591.25 541.847 590.942 542.452C590.635 543.058 590.459 543.722 590.424 544.4C590.187 547.286 592.27 550.16 594.313 551.978C596.355 553.797 601.772 555.629 603.209 556.077C603.104 556.934 602.985 557.791 602.88 558.713C602.392 562.812 601.917 566.911 601.337 570.918C601.127 572.328 600.876 573.712 600.626 575.096C600.626 574.174 600.626 573.396 600.626 573.277C600.151 569.666 597.12 562.944 593.1 562.193C592.428 562.088 591.743 562.127 591.087 562.305C590.431 562.484 589.82 562.798 589.294 563.228C588.768 563.659 588.339 564.195 588.034 564.802C587.729 565.41 587.556 566.074 587.525 566.753C587.288 569.626 589.37 572.5 591.4 574.318C593.429 576.137 598.332 577.785 600.046 578.338C599.743 579.749 599.44 581.159 599.097 582.516C598.833 583.439 598.636 584.335 598.332 585.245C598.029 586.154 597.752 587.05 597.463 587.881C596.843 589.568 596.224 591.308 595.578 592.942C595.143 594.089 594.708 595.156 594.26 596.25C594.484 594.84 594.853 592.085 594.853 591.861C594.814 588.646 593.947 585.496 592.336 582.714C592.346 582.357 592.324 582 592.27 581.647C592.184 580.973 591.958 580.324 591.606 579.743C591.254 579.162 590.784 578.662 590.226 578.274C589.668 577.886 589.035 577.62 588.367 577.493C587.7 577.365 587.013 577.379 586.352 577.534C582.398 578.589 579.894 585.521 579.762 589.172C579.762 589.383 579.894 591.742 579.999 593.219C579.801 592.362 579.617 591.518 579.406 590.583C578.997 588.843 578.523 587.103 578.088 585.245C577.811 584.348 577.548 583.452 577.271 582.53C576.994 581.607 576.625 580.698 576.309 579.775C575.531 577.64 574.635 575.505 573.673 573.383C575.202 573.014 580.618 571.643 582.793 569.969C584.968 568.295 587.248 565.593 587.222 562.707C587.243 562.023 587.119 561.342 586.858 560.71C586.596 560.077 586.203 559.508 585.704 559.039C585.205 558.571 584.613 558.213 583.965 557.991C583.318 557.769 582.631 557.687 581.95 557.751C577.877 558.186 574.358 564.671 573.62 568.295C573.62 568.519 573.33 571.142 573.225 572.592C572.645 571.274 572.065 570.048 571.445 568.783C569.626 565.119 567.676 561.468 565.738 557.83C565.145 556.71 564.565 555.59 563.985 554.469C564.526 554.338 570.997 552.848 573.435 550.977C575.597 549.316 577.89 546.601 577.877 543.715C577.895 543.032 577.768 542.353 577.504 541.722C577.241 541.092 576.848 540.524 576.35 540.057C575.853 539.589 575.262 539.231 574.616 539.008C573.971 538.784 573.286 538.699 572.605 538.759C568.546 539.194 565.013 545.678 564.275 549.303C564.275 549.566 563.88 553.349 563.84 554.311C562.522 551.847 561.31 549.382 560.163 546.904C558.623 543.558 557.302 540.115 556.209 536.597C556.46 536.531 563.221 535.003 565.712 533.078C567.873 531.418 570.167 528.703 570.154 525.816C570.171 525.133 570.044 524.454 569.781 523.824C569.518 523.194 569.125 522.626 568.627 522.158C568.129 521.69 567.538 521.333 566.893 521.109C566.247 520.886 565.562 520.801 564.882 520.86C560.822 521.309 557.29 527.78 556.552 531.404C556.552 531.681 556.13 535.741 556.117 536.492C556.051 536.281 555.959 536.083 555.906 535.872C554.89 532.313 554.197 528.67 553.837 524.986C553.613 522.956 553.507 521.032 553.441 519.107C554.759 518.949 560.611 518.158 563.05 516.682C565.488 515.206 567.966 512.821 568.322 509.961C568.414 509.287 568.364 508.601 568.175 507.948C567.986 507.295 567.661 506.689 567.222 506.17C566.784 505.65 566.24 505.229 565.628 504.933C565.016 504.637 564.349 504.473 563.669 504.451C559.583 504.451 555.366 510.501 554.232 513.967C554.232 514.165 553.771 516.155 553.481 517.605C553.481 516.748 553.481 515.852 553.481 515.035C553.481 511.938 553.692 509.104 553.876 506.6C554.008 505.176 554.14 503.964 554.285 502.646C555.471 501.828 560.203 498.481 561.652 496.056C563.102 493.631 564.288 490.375 563.168 487.686C562.94 487.055 562.583 486.478 562.12 485.992C561.656 485.506 561.097 485.122 560.477 484.864C559.857 484.606 559.19 484.48 558.519 484.494C557.848 484.508 557.187 484.662 556.578 484.945C552.94 486.83 551.992 494.171 552.624 497.743C552.624 498.059 554.048 502.83 554.114 502.791H554.193C554.021 503.937 553.863 505.176 553.718 506.534C553.481 509.051 553.217 511.885 553.138 514.982C553.023 518.327 553.106 521.677 553.389 525.012C553.681 528.749 554.298 532.454 555.234 536.083V536.202C554.588 535.2 552.69 532.432 552.519 532.248C550.133 529.48 543.899 525.552 540.13 527.147C539.512 527.431 538.961 527.841 538.512 528.351C538.063 528.862 537.727 529.46 537.524 530.109C537.322 530.758 537.258 531.442 537.336 532.117C537.415 532.792 537.635 533.443 537.981 534.027C538.983 536.545 542.304 537.744 545.006 538.192Z" fill="#263238"/>
<path d="M615.137 518.976C615.137 518.976 616.455 514.205 616.455 513.888C616.956 510.277 615.809 502.988 612.132 501.209C611.512 500.931 610.841 500.787 610.162 500.786C609.482 500.784 608.81 500.925 608.189 501.2C607.568 501.474 607.011 501.876 606.555 502.38C606.099 502.883 605.754 503.477 605.542 504.122C604.553 506.837 605.806 510.171 607.282 512.465C609.061 515.154 615.137 518.976 615.137 518.976Z" fill="#263238"/>
<path d="M488.978 392.764C491.074 393.687 496.214 393.568 496.214 393.568C496.214 393.568 495.107 390.207 495.014 390.009C493.881 387.65 490.322 383.762 487.436 384.157C486.956 384.234 486.497 384.412 486.09 384.678C485.683 384.944 485.337 385.294 485.075 385.703C484.812 386.112 484.639 386.573 484.567 387.054C484.494 387.534 484.524 388.025 484.655 388.494C485.156 390.431 487.212 391.921 488.978 392.764Z" fill="#263238"/>
<path d="M490.771 407.552C492.945 407.868 497.519 406.55 497.888 406.445C498.632 409.063 499.557 411.626 500.656 414.116C501.288 415.579 501.974 417.028 502.672 418.478C502.25 417.859 501.868 417.318 501.815 417.252C500.102 415.275 495.647 412.468 492.958 413.602C492.518 413.805 492.125 414.099 491.805 414.463C491.485 414.828 491.244 415.255 491.099 415.718C490.954 416.181 490.907 416.669 490.962 417.152C491.016 417.634 491.171 418.099 491.416 418.518C492.418 420.323 494.79 421.154 496.688 421.496C498.586 421.839 502.567 420.732 503.608 420.442C503.872 420.996 504.148 421.549 504.425 422.09C505.743 424.726 507.061 427.362 508.313 429.998C508.748 430.92 509.13 431.843 509.539 432.765L508.788 431.698C507.087 429.734 502.619 426.927 499.931 428.06C499.49 428.263 499.097 428.557 498.777 428.922C498.457 429.287 498.217 429.715 498.073 430.178C497.929 430.642 497.884 431.13 497.94 431.612C497.997 432.094 498.154 432.559 498.402 432.976C499.39 434.782 501.776 435.678 503.674 435.955C505.957 435.973 508.23 435.635 510.409 434.953C510.791 435.902 511.16 436.864 511.49 437.813C511.7 438.459 511.938 439.131 512.109 439.738C512.28 440.344 512.465 441.056 512.649 441.688C512.953 442.927 513.269 444.219 513.532 445.444C513.717 446.288 513.875 447.105 514.046 447.922C513.625 447 512.728 445.286 512.728 445.075C511.41 442.861 507.364 439.408 504.53 440.133C504.063 440.266 503.629 440.496 503.257 440.807C502.884 441.119 502.581 441.505 502.367 441.941C502.153 442.378 502.034 442.854 502.016 443.339C501.998 443.825 502.082 444.308 502.264 444.759C502.975 446.697 505.19 447.935 507.061 448.515C508.933 449.095 513.651 448.515 514.218 448.515C514.495 449.833 514.745 451.151 514.956 452.469C515.404 455.013 515.76 457.306 516.023 459.297H517.974C517.645 457.241 517.236 454.829 516.656 452.153C516.393 450.769 516.076 449.306 515.733 447.804C517.088 447.256 518.409 446.626 519.687 445.919C521.449 447.431 523.409 448.695 525.513 449.675C524.999 450.993 524.472 452.206 523.958 453.366C522.996 455.58 522.086 457.57 521.256 459.297H523.312C524.011 457.728 524.775 455.975 525.566 454.025C526.093 452.707 526.647 451.323 527.187 449.886C527.74 450.005 532.235 450.914 534.33 450.44C536.426 449.965 538.535 448.937 539.392 447.052C539.606 446.618 539.727 446.143 539.745 445.658C539.764 445.174 539.681 444.691 539.5 444.24C539.32 443.79 539.047 443.383 538.699 443.046C538.351 442.708 537.936 442.448 537.48 442.281C534.713 441.345 530.482 444.495 528.927 446.591C528.834 446.723 527.991 448.173 527.477 449.095C527.701 448.502 527.925 447.935 528.136 447.329C528.584 446.117 528.993 444.904 529.454 443.599C529.652 442.953 529.836 442.281 530.034 441.662C530.231 441.042 530.376 440.344 530.561 439.645C530.93 438.064 531.233 436.443 531.51 434.795C532.564 435.177 536.334 436.495 538.284 436.35C540.235 436.205 542.673 435.507 543.794 433.78C544.073 433.382 544.265 432.93 544.357 432.453C544.45 431.976 544.442 431.485 544.332 431.011C544.223 430.537 544.015 430.092 543.723 429.704C543.43 429.316 543.059 428.994 542.634 428.759C539.998 427.441 535.385 429.892 533.526 431.737C533.421 431.843 532.208 433.319 531.602 434.136C531.76 433.148 531.919 432.159 532.05 431.157C532.406 428.271 532.683 425.319 532.96 422.379L533.237 419.743C533.619 419.888 538.06 421.549 540.248 421.391C542.199 421.259 544.637 420.534 545.758 418.755C546.036 418.358 546.228 417.907 546.321 417.431C546.413 416.955 546.405 416.464 546.295 415.992C546.186 415.519 545.978 415.075 545.686 414.688C545.393 414.302 545.023 413.981 544.598 413.747C541.962 412.429 537.349 414.88 535.49 416.712C535.359 416.857 533.658 418.966 533.263 419.533C533.474 417.556 533.698 415.579 534.001 413.667C534.393 411.06 534.952 408.48 535.675 405.944C535.859 406.01 540.486 407.763 542.726 407.605C544.677 407.473 547.115 406.748 548.235 404.969C548.514 404.572 548.706 404.121 548.799 403.644C548.891 403.168 548.883 402.678 548.773 402.206C548.664 401.733 548.456 401.289 548.164 400.902C547.871 400.515 547.5 400.194 547.076 399.96C544.44 398.642 539.827 401.081 537.968 402.926C537.823 403.071 536.004 405.351 535.714 405.786C535.714 405.641 535.714 405.483 535.82 405.338C536.623 402.819 537.646 400.376 538.878 398.036C539.55 396.718 540.196 395.532 540.973 394.372C541.804 394.781 545.613 396.639 547.642 396.718C549.672 396.797 552.097 396.349 553.402 394.754C553.722 394.39 553.961 393.963 554.105 393.5C554.248 393.037 554.293 392.55 554.236 392.069C554.178 391.588 554.021 391.124 553.773 390.708C553.525 390.292 553.192 389.933 552.796 389.654C550.371 388.032 545.468 389.97 543.425 391.604C543.319 391.696 542.291 392.711 541.54 393.476C541.883 392.949 542.212 392.408 542.542 391.92C543.754 390.088 544.993 388.467 546.1 387.057C546.733 386.253 547.313 385.541 547.88 384.882C548.908 384.882 553.033 384.737 554.839 383.894C556.644 383.05 558.621 381.521 559.056 379.492C559.171 379.02 559.186 378.529 559.1 378.051C559.013 377.574 558.827 377.119 558.554 376.718C558.28 376.317 557.926 375.977 557.513 375.722C557.1 375.466 556.638 375.3 556.157 375.235C553.257 374.931 549.804 378.912 548.736 381.297C548.644 381.495 547.59 384.882 547.642 384.882L545.889 386.938C544.756 388.336 543.491 389.917 542.225 391.736C540.834 393.685 539.557 395.714 538.403 397.812C537.109 400.156 536.02 402.608 535.148 405.14C535.153 405.171 535.153 405.202 535.148 405.232C535.148 404.376 535.148 401.977 535.148 401.792C534.805 399.156 532.643 394.412 529.77 393.884C529.293 393.816 528.807 393.848 528.343 393.978C527.879 394.108 527.447 394.333 527.075 394.639C526.703 394.946 526.399 395.326 526.182 395.757C525.965 396.187 525.841 396.658 525.816 397.14C525.645 399.196 527.134 401.252 528.597 402.557C530.06 403.862 534.779 405.43 535.187 405.549C534.369 408.139 533.726 410.78 533.263 413.457C532.986 415.025 532.749 416.607 532.538 418.201C532.538 417.463 532.538 416.791 532.538 416.699C532.208 414.063 530.034 409.305 527.161 408.791C526.683 408.72 526.196 408.751 525.731 408.88C525.266 409.009 524.834 409.234 524.461 409.541C524.089 409.848 523.784 410.229 523.568 410.661C523.352 411.092 523.229 411.564 523.207 412.046C523.035 414.102 524.525 416.158 525.974 417.463C527.424 418.768 531.246 420.099 532.327 420.389C532.261 420.996 532.169 421.615 532.103 422.221C531.747 425.147 531.418 428.086 530.996 430.946C530.851 431.948 530.666 432.937 530.495 433.925C530.495 433.266 530.495 432.713 530.495 432.607C530.152 429.971 527.991 425.213 525.118 424.699C524.641 424.631 524.154 424.663 523.69 424.793C523.226 424.923 522.794 425.148 522.422 425.454C522.05 425.761 521.746 426.141 521.529 426.572C521.313 427.002 521.188 427.473 521.164 427.955C520.992 430.011 522.482 432.067 523.945 433.358C525.839 434.631 527.92 435.6 530.113 436.232C529.902 437.247 529.691 438.248 529.441 439.224C529.243 439.869 529.111 440.542 528.887 441.161C528.663 441.78 528.479 442.479 528.268 443.085C527.833 444.298 527.385 445.537 526.95 446.71C526.647 447.527 526.33 448.291 526.014 449.069C526.172 448.067 526.449 446.103 526.449 445.932C526.424 443.617 525.802 441.347 524.643 439.342C524.669 439.088 524.669 438.832 524.643 438.578C524.582 438.096 524.421 437.633 524.169 437.218C523.917 436.803 523.581 436.446 523.181 436.17C522.782 435.894 522.329 435.705 521.852 435.615C521.375 435.526 520.884 435.539 520.412 435.652C517.579 436.403 515.799 441.359 515.654 443.955C515.654 444.113 515.747 445.787 515.839 446.855C515.694 446.235 515.562 445.642 515.404 445.01C515.114 443.757 514.785 442.518 514.429 441.187C514.227 440.555 514.029 439.909 513.836 439.25C513.664 438.604 513.387 437.932 513.163 437.286C512.597 435.757 511.964 434.228 511.279 432.713C512.373 432.449 516.248 431.474 517.79 430.274C519.332 429.075 520.979 427.151 520.966 425.081C520.981 424.596 520.893 424.114 520.708 423.665C520.523 423.217 520.245 422.813 519.893 422.479C519.541 422.145 519.122 421.89 518.664 421.73C518.206 421.57 517.719 421.508 517.236 421.549C514.323 421.865 511.806 426.492 511.279 429.049C511.279 429.207 511.068 431.078 511.002 432.106C510.58 431.197 510.172 430.287 509.684 429.391C508.366 426.755 507.048 424.119 505.611 421.562C505.189 420.758 504.768 419.968 504.359 419.164C504.741 419.071 509.368 418.004 511.107 416.659C512.847 415.315 514.297 413.536 514.284 411.48C514.296 410.994 514.207 410.51 514.02 410.061C513.834 409.612 513.555 409.207 513.202 408.873C512.849 408.538 512.43 408.282 511.971 408.12C511.513 407.959 511.025 407.895 510.541 407.934C507.641 408.251 505.124 412.877 504.596 415.434C504.596 415.631 504.306 418.32 504.28 419.019C503.371 417.252 502.474 415.486 501.644 413.747C500.536 411.355 499.585 408.894 498.797 406.379C498.969 406.379 503.806 405.232 505.585 403.875C507.127 402.689 508.774 400.738 508.761 398.682C508.774 398.196 508.684 397.712 508.498 397.263C508.312 396.814 508.033 396.409 507.68 396.075C507.327 395.741 506.907 395.484 506.449 395.323C505.99 395.161 505.503 395.097 505.018 395.136C502.119 395.453 499.601 400.079 499.074 402.636C499.074 402.834 498.771 405.746 498.758 406.274C498.758 406.129 498.652 405.984 498.613 405.839C497.883 403.297 497.384 400.694 497.123 398.062C496.965 396.599 496.886 395.215 496.847 393.845C497.769 393.739 501.974 393.173 503.713 392.118C505.453 391.064 507.219 389.364 507.43 387.307C507.501 386.825 507.469 386.333 507.336 385.863C507.203 385.394 506.972 384.958 506.658 384.584C506.344 384.211 505.955 383.908 505.515 383.696C505.076 383.484 504.596 383.367 504.109 383.353C501.183 383.353 498.178 387.677 497.374 390.154C497.374 390.299 497.031 391.71 496.833 392.79C496.833 392.184 496.833 391.472 496.833 390.958C496.833 388.744 496.978 386.728 497.11 384.935C497.202 383.92 497.295 382.998 497.4 382.141C498.244 381.561 501.631 379.175 502.672 377.462C503.713 375.749 504.517 373.403 503.766 371.478C503.603 371.021 503.346 370.603 503.011 370.252C502.677 369.901 502.271 369.625 501.823 369.441C501.374 369.257 500.891 369.169 500.406 369.184C499.921 369.199 499.445 369.316 499.008 369.528C496.372 370.846 495.726 376.118 496.161 378.661C496.161 378.885 497.176 382.299 497.216 382.273C497.097 383.103 496.992 383.986 496.886 384.909C496.702 386.701 496.517 388.731 496.464 390.945C496.387 393.336 496.444 395.73 496.636 398.115C496.844 400.784 497.285 403.431 497.954 406.023C497.959 406.054 497.959 406.085 497.954 406.115C497.492 405.39 496.148 403.479 496.029 403.282C494.316 401.305 489.861 398.497 487.172 399.631C486.732 399.834 486.339 400.128 486.019 400.493C485.699 400.857 485.458 401.285 485.313 401.747C485.168 402.21 485.121 402.699 485.176 403.181C485.23 403.663 485.385 404.128 485.63 404.547C486.461 406.379 488.833 407.262 490.771 407.552Z" fill="#263238"/>
<path d="M540.881 393.832C540.881 393.832 541.817 390.418 541.843 390.194C542.199 387.558 541.382 382.404 538.746 381.139C538.303 380.939 537.823 380.835 537.338 380.834C536.852 380.832 536.372 380.932 535.928 381.129C535.484 381.326 535.086 381.613 534.761 381.974C534.436 382.335 534.19 382.76 534.04 383.222C533.329 385.159 534.225 387.532 535.293 389.166C536.531 391.09 540.881 393.832 540.881 393.832Z" fill="#263238"/>
<path d="M122.772 517.394C119.846 518.712 112.663 518.514 112.663 518.514C112.663 518.514 114.205 513.822 114.336 513.532C115.918 510.237 120.926 504.794 124.88 505.348C125.557 505.448 126.205 505.691 126.78 506.06C127.356 506.43 127.847 506.917 128.221 507.49C128.595 508.063 128.843 508.708 128.948 509.384C129.054 510.06 129.015 510.751 128.834 511.41C128.162 514.218 125.276 516.3 122.772 517.394Z" fill="#263238"/>
<path d="M120.294 538.192C117.262 538.627 110.844 536.782 110.343 536.624C109.262 540.291 107.941 543.884 106.389 547.379C105.506 549.421 104.557 551.438 103.582 553.468C104.162 552.611 104.689 551.847 104.781 551.754C107.167 548.987 113.401 545.059 117.17 546.654C117.797 546.931 118.358 547.337 118.816 547.847C119.275 548.356 119.62 548.957 119.829 549.609C120.038 550.262 120.107 550.951 120.03 551.632C119.953 552.313 119.733 552.97 119.384 553.56C117.987 556.091 114.666 557.343 111.964 557.725C109.262 558.107 103.727 556.657 102.277 556.249C101.895 557.013 101.526 557.791 101.13 558.555C99.285 562.259 97.4134 565.936 95.6868 569.6C95.0805 570.918 94.5402 572.236 93.9866 573.475C94.5006 572.711 94.9487 572.078 95.0278 571.986C97.4134 569.231 103.648 565.29 107.417 566.898C108.034 567.18 108.585 567.589 109.034 568.098C109.482 568.607 109.819 569.205 110.022 569.853C110.224 570.5 110.288 571.183 110.21 571.857C110.131 572.531 109.912 573.181 109.565 573.765C108.168 576.295 104.834 577.548 102.145 577.943C99.4563 578.338 94.4479 577.007 92.7213 576.533C92.1941 577.851 91.6537 579.169 91.2056 580.487C90.9157 581.396 90.573 582.253 90.3357 583.123L89.624 585.93C89.2023 587.67 88.7541 589.475 88.3983 591.202C88.1347 592.388 87.8974 593.535 87.6602 594.682C88.2533 593.364 89.4659 590.886 89.5845 590.728C91.5351 587.63 97.0971 582.82 101.064 583.808C101.718 583.993 102.326 584.315 102.847 584.75C103.368 585.186 103.792 585.727 104.091 586.338C104.389 586.948 104.556 587.615 104.579 588.294C104.603 588.973 104.483 589.65 104.227 590.279C103.239 592.995 100.128 594.734 97.532 595.551C94.6588 596.421 88.306 595.617 87.502 595.551C87.1198 597.449 86.764 599.308 86.4608 601.061C85.8414 604.619 85.3537 607.835 84.9715 610.603H82.3355C82.7836 607.73 83.3635 604.356 84.1016 600.613C84.4838 598.688 84.9319 596.659 85.4196 594.523C83.5086 593.751 81.6428 592.871 79.8313 591.887C77.7357 594.154 72.3714 596.817 71.6729 597.159C72.4109 598.952 73.1358 600.692 73.8476 602.326C75.1656 605.423 76.4836 608.204 77.6302 610.616H74.6779C73.7026 608.428 72.635 605.964 71.5411 603.275C70.7898 601.443 70.0254 599.492 69.2609 597.476C68.4833 597.634 62.1964 598.912 59.2573 598.253C56.6213 597.647 53.379 596.145 52.1796 593.509C51.8784 592.902 51.7078 592.239 51.6789 591.563C51.65 590.886 51.7634 590.211 52.0119 589.581C52.2604 588.951 52.6383 588.381 53.1213 587.906C53.6043 587.432 54.1815 587.064 54.8156 586.826C58.6906 585.508 64.6084 589.924 66.7831 592.863C66.9017 593.034 68.1011 595.077 68.8128 596.369C68.4965 595.538 68.1933 594.748 67.877 593.891C67.2576 592.204 66.6908 590.504 66.0845 588.619C65.8078 587.723 65.5442 586.826 65.2674 585.917C64.9906 585.007 64.7929 584.032 64.5425 583.083C64.0153 580.869 63.5803 578.602 63.2245 576.296C61.7483 576.836 56.4631 578.681 53.7349 578.483C51.0066 578.286 47.593 577.297 46.0246 574.872C45.6348 574.316 45.3663 573.685 45.2366 573.019C45.1069 572.352 45.1189 571.666 45.2718 571.005C45.4247 570.343 45.7151 569.722 46.1241 569.18C46.5331 568.638 47.0516 568.189 47.6457 567.86C51.2834 565.976 57.8075 569.442 60.3908 572.012C60.5489 572.17 62.1964 574.226 63.0268 575.373C62.8159 574.055 62.5918 572.618 62.4205 571.208C61.9197 567.162 61.5243 563.036 61.1025 558.937C60.9839 557.619 60.8389 556.42 60.7071 555.168C60.1931 555.366 53.9589 557.685 50.9012 557.461C48.1861 557.277 44.7725 556.275 43.1909 553.85C42.8016 553.293 42.5339 552.661 42.4051 551.994C42.2764 551.327 42.2896 550.641 42.4437 549.979C42.5979 549.318 42.8896 548.696 43.3 548.155C43.7103 547.614 44.23 547.165 44.8252 546.838C48.4497 544.967 54.9738 548.42 57.5571 550.99C57.7548 551.188 60.1931 554.153 60.6939 554.944C60.3908 552.189 60.0876 549.435 59.6527 546.733C59.1066 543.087 58.3229 539.482 57.3067 535.938C57.0562 536.031 50.5717 538.482 47.4348 538.258C44.7198 538.074 41.3061 537.072 39.7245 534.647C39.3353 534.09 39.0675 533.458 38.9388 532.791C38.8101 532.124 38.8232 531.438 38.9774 530.776C39.1316 530.115 39.4233 529.493 39.8336 528.952C40.2439 528.411 40.7636 527.962 41.3589 527.635C44.9834 525.763 51.5075 529.217 54.0907 531.787C54.3016 531.998 56.8454 535.187 57.2671 535.741C57.2012 535.53 57.1617 535.319 57.0958 535.108C55.979 531.583 54.5499 528.165 52.8255 524.893C51.8897 523.075 50.9012 521.388 49.8995 519.766C48.7397 520.346 43.4018 522.93 40.5549 523.048C37.708 523.167 34.3339 522.534 32.5019 520.307C32.0539 519.796 31.7182 519.197 31.5166 518.548C31.3149 517.899 31.2518 517.216 31.3313 516.541C31.4108 515.866 31.6312 515.216 31.9782 514.631C32.3252 514.047 32.791 513.543 33.3454 513.15C36.759 510.896 43.6126 513.611 46.5254 515.892C46.6836 516.01 48.1202 517.447 49.1614 518.528C48.7001 517.803 48.2256 517.051 47.8434 516.366C46.13 513.73 44.4034 511.529 42.8614 509.552C41.9783 508.432 41.148 507.43 40.3704 506.507C38.9337 506.507 33.1477 506.31 30.6172 505.123C28.0866 503.937 25.3452 501.802 24.7257 498.968C24.5515 498.306 24.5198 497.614 24.6325 496.938C24.7452 496.262 24.9998 495.618 25.3796 495.047C25.7595 494.477 26.2558 493.993 26.836 493.629C27.4161 493.264 28.067 493.027 28.7456 492.932C32.8182 492.497 37.6421 498.072 39.1314 501.407C39.2632 501.697 40.7526 506.441 40.6735 506.428H40.5812C41.3589 507.311 42.176 508.247 43.0459 509.302C44.6275 511.252 46.4068 513.48 48.1861 516.037C50.1112 518.758 51.8717 521.593 53.4581 524.524C55.2786 527.801 56.8047 531.232 58.0184 534.778V534.91C58.0184 533.711 58.0184 530.363 58.0184 530.1C58.4797 526.488 61.5243 519.766 65.5442 519.015C66.2149 518.909 66.9005 518.945 67.5562 519.122C68.2119 519.299 68.8229 519.612 69.3492 520.041C69.8755 520.47 70.3052 521.006 70.6102 521.613C70.9153 522.22 71.0887 522.884 71.1193 523.562C71.3565 526.449 69.2741 529.322 67.2444 531.141C64.9511 533.197 58.5719 535.174 58.0184 535.332C59.1392 538.974 60.0197 542.686 60.6544 546.443C61.0498 548.631 61.3661 550.845 61.6692 553.033C61.6692 551.992 61.6692 551.069 61.6692 550.937C62.1437 547.313 65.1751 540.591 69.195 539.853C69.8965 539.687 70.6262 539.681 71.3304 539.835C72.0346 539.988 72.6955 540.298 73.2644 540.74C73.8333 541.183 74.2959 541.747 74.618 542.392C74.9402 543.036 75.1138 543.745 75.126 544.466C75.3633 547.352 73.2808 550.225 71.2511 552.044C69.2214 553.863 63.7912 555.695 62.3546 556.143C62.46 557 62.5787 557.857 62.6709 558.779C63.1718 562.878 63.6331 566.977 64.2262 570.984C64.4239 572.394 64.6875 573.778 64.9379 575.162C64.9379 574.239 64.9379 573.462 64.9379 573.343C65.4124 569.732 68.4438 563.01 72.4768 562.259C73.1418 562.157 73.8206 562.194 74.4703 562.369C75.1199 562.543 75.7262 562.851 76.2505 563.273C76.7748 563.694 77.2057 564.22 77.5159 564.817C77.826 565.414 78.0086 566.069 78.052 566.74C78.2892 569.613 76.2068 572.486 74.1639 574.305C72.121 576.124 67.2312 577.772 65.531 578.325C65.8341 579.735 66.1241 581.146 66.4799 582.503C66.7435 583.426 66.9281 584.322 67.2444 585.232C67.5607 586.141 67.8243 587.037 68.1143 587.868C68.7205 589.555 69.3532 591.294 69.9858 592.929C70.4208 594.075 70.8689 595.143 71.3038 596.237C71.0798 594.827 70.7107 592.072 70.6975 591.848C70.743 588.634 71.6096 585.485 73.2149 582.701C73.2106 582.344 73.2326 581.987 73.2808 581.633C73.3663 580.959 73.5924 580.311 73.9445 579.73C74.2966 579.149 74.7669 578.648 75.3248 578.261C75.8827 577.873 76.5158 577.607 77.1832 577.479C77.8505 577.352 78.5372 577.366 79.1986 577.521C83.1526 578.576 85.6568 585.508 85.7886 589.159C85.7886 589.37 85.6568 591.729 85.5382 593.205C85.7359 592.349 85.9204 591.505 86.1445 590.569C86.5531 588.83 87.0144 587.09 87.4625 585.232C87.7261 584.335 88.0029 583.439 88.2797 582.516C88.5564 581.594 88.9123 580.684 89.2286 579.762C90.0194 577.627 90.8981 575.496 91.8646 573.37C90.3226 573 84.9188 571.63 82.7441 569.956C80.5694 568.282 78.2892 565.58 78.3024 562.694C78.2828 562.01 78.4084 561.331 78.6708 560.699C78.9331 560.068 79.3264 559.499 79.8245 559.031C80.3227 558.563 80.9145 558.205 81.5608 557.982C82.2072 557.76 82.8935 557.676 83.5744 557.738C87.6338 558.173 91.1661 564.658 91.9042 568.282C91.9042 568.506 92.1941 571.129 92.2996 572.579C92.8795 571.261 93.4462 570.035 94.0789 568.77C95.8977 565.106 97.8483 561.455 99.7858 557.817C100.379 556.697 100.946 555.577 101.539 554.456C100.985 554.324 94.5138 552.835 92.0887 550.964C89.914 549.303 87.6207 546.588 87.647 543.701C87.6253 543.017 87.7494 542.337 88.0111 541.704C88.2727 541.072 88.6659 540.502 89.1646 540.034C89.6632 539.565 90.2559 539.208 90.9032 538.986C91.5505 538.764 92.2377 538.682 92.919 538.746C96.9916 539.181 100.511 545.665 101.249 549.29C101.249 549.553 101.657 553.336 101.697 554.298C103.015 551.833 104.227 549.369 105.361 546.891C106.895 543.542 108.216 540.1 109.315 536.584C109.065 536.518 102.303 534.989 99.8122 533.065C97.6375 531.404 95.3441 528.689 95.3705 525.803C95.3509 525.119 95.4765 524.44 95.7389 523.808C96.0012 523.177 96.3945 522.608 96.8926 522.14C97.3908 521.672 97.9826 521.314 98.6289 521.092C99.2753 520.869 99.9616 520.785 100.643 520.847C104.715 521.295 108.247 527.767 108.985 531.391C108.985 531.668 109.407 535.727 109.42 536.479C109.42 536.268 109.565 536.07 109.631 535.859C110.635 532.297 111.327 528.655 111.701 524.973C111.925 522.943 112.03 521.019 112.083 519.094C110.765 518.936 104.913 518.145 102.488 516.669C100.063 515.193 97.5716 512.807 97.2157 509.947C97.1231 509.275 97.1726 508.59 97.3612 507.938C97.5498 507.286 97.8733 506.681 98.3106 506.161C98.7479 505.642 99.2893 505.22 99.8999 504.924C100.51 504.627 101.177 504.461 101.855 504.438C105.954 504.438 110.172 510.488 111.292 513.954C111.292 514.152 111.766 516.142 112.043 517.592C112.043 516.735 112.043 515.839 112.043 515.022C112.043 511.924 111.845 509.091 111.648 506.586C111.529 505.163 111.384 503.95 111.252 502.632C110.066 501.815 105.335 498.468 103.885 496.042C102.435 493.617 101.249 490.362 102.356 487.673C102.592 487.025 102.963 486.435 103.445 485.942C103.927 485.449 104.508 485.064 105.15 484.813C105.793 484.562 106.481 484.451 107.17 484.488C107.858 484.524 108.531 484.707 109.144 485.024C112.768 486.909 113.73 494.25 113.098 497.822C113.098 498.138 111.674 502.909 111.608 502.87C111.766 504.016 111.925 505.255 112.07 506.613C112.32 509.13 112.584 511.964 112.649 515.061C112.763 518.406 112.684 521.755 112.412 525.091C112.122 528.829 111.5 532.534 110.554 536.162V536.281C111.2 535.279 113.084 532.512 113.256 532.327C115.655 529.559 121.889 525.632 125.658 527.226C126.275 527.511 126.824 527.922 127.272 528.433C127.719 528.944 128.054 529.543 128.256 530.192C128.457 530.84 128.52 531.524 128.44 532.198C128.36 532.872 128.14 533.522 127.793 534.106C126.33 536.545 122.996 537.744 120.294 538.192Z" fill="#263238"/>
<path d="M50.1763 518.976C50.1763 518.976 48.8583 514.205 48.8583 513.888C48.3575 510.277 49.5173 502.988 53.1945 501.209C53.8145 500.931 54.4858 500.787 55.165 500.786C55.8442 500.784 56.5162 500.925 57.1374 501.2C57.7587 501.474 58.3153 501.876 58.7713 502.38C59.2273 502.883 59.5725 503.477 59.7845 504.122C60.7599 506.837 59.5209 510.171 58.0316 512.465C56.2523 515.154 50.1763 518.976 50.1763 518.976Z" fill="#263238"/>
<path d="M176.309 392.764C174.213 393.687 169.086 393.568 169.086 393.568C169.086 393.568 170.18 390.207 170.286 390.009C171.406 387.65 174.964 383.762 177.864 384.157C178.343 384.236 178.8 384.415 179.206 384.682C179.611 384.949 179.955 385.298 180.217 385.707C180.478 386.117 180.65 386.576 180.721 387.056C180.793 387.536 180.762 388.026 180.632 388.494C180.157 390.431 178.101 391.921 176.309 392.764Z" fill="#263238"/>
<path d="M174.543 407.552C172.368 407.868 167.795 406.55 167.425 406.445C166.671 409.061 165.742 411.624 164.644 414.116C164.025 415.579 163.326 417.028 162.641 418.478C163.063 417.859 163.432 417.318 163.498 417.252C165.198 415.275 169.666 412.468 172.355 413.602C172.795 413.805 173.189 414.099 173.509 414.463C173.829 414.828 174.068 415.256 174.212 415.72C174.357 416.183 174.402 416.672 174.345 417.154C174.289 417.636 174.131 418.1 173.884 418.518C172.895 420.323 170.51 421.154 168.612 421.496C166.714 421.839 162.733 420.732 161.692 420.442C161.415 420.996 161.152 421.549 160.875 422.09C159.557 424.726 158.239 427.362 156.921 429.998C156.486 430.92 156.091 431.843 155.695 432.765L156.433 431.698C158.147 429.734 162.602 426.927 165.29 428.06C165.731 428.264 166.124 428.557 166.444 428.922C166.764 429.286 167.004 429.714 167.15 430.177C167.295 430.64 167.342 431.128 167.287 431.61C167.232 432.092 167.078 432.557 166.832 432.976C165.831 434.782 163.458 435.678 161.56 435.955C159.281 435.973 157.013 435.635 154.839 434.953C154.456 435.902 154.074 436.864 153.758 437.813C153.547 438.459 153.31 439.131 153.138 439.738L152.585 441.688C152.295 442.927 151.979 444.219 151.715 445.444C151.53 446.288 151.359 447.105 151.188 447.922C151.609 447 152.506 445.286 152.572 445.075C153.89 442.861 157.936 439.408 160.77 440.133C161.237 440.266 161.671 440.495 162.043 440.807C162.415 441.119 162.718 441.506 162.93 441.942C163.143 442.379 163.261 442.855 163.277 443.341C163.293 443.826 163.207 444.309 163.023 444.759C162.325 446.697 160.097 447.935 158.239 448.515C156.183 449.135 151.649 448.515 151.082 448.515C150.805 449.833 150.555 451.151 150.331 452.469C149.883 455.013 149.54 457.306 149.277 459.297H147.366C147.682 457.241 148.104 454.829 148.684 452.153C148.96 450.769 149.277 449.306 149.619 447.804C148.266 447.253 146.945 446.624 145.665 445.919C143.908 447.436 141.947 448.701 139.84 449.675C140.367 450.993 140.881 452.206 141.395 453.366C142.357 455.58 143.28 457.57 144.11 459.297H141.949C141.237 457.724 140.486 455.967 139.695 454.025C139.154 452.707 138.614 451.323 138.06 449.886C137.52 450.005 133.026 450.914 130.917 450.44C129.019 450.018 126.726 448.937 125.869 447.052C125.647 446.611 125.522 446.127 125.503 445.633C125.483 445.139 125.571 444.647 125.758 444.19C125.945 443.733 126.229 443.321 126.589 442.982C126.949 442.644 127.378 442.387 127.846 442.229C130.614 441.293 134.845 444.443 136.387 446.538C136.479 446.67 137.322 448.12 137.836 449.043C137.625 448.45 137.401 447.883 137.177 447.276C136.742 446.064 136.334 444.851 135.859 443.547C135.675 442.901 135.477 442.229 135.279 441.609C135.082 440.99 134.937 440.291 134.765 439.593C134.383 438.011 134.08 436.39 133.816 434.742C132.762 435.125 128.993 436.443 127.029 436.298C125.065 436.153 122.653 435.454 121.52 433.727C121.243 433.328 121.054 432.875 120.963 432.398C120.872 431.921 120.882 431.43 120.993 430.957C121.103 430.484 121.312 430.039 121.604 429.651C121.897 429.264 122.268 428.942 122.693 428.706C125.329 427.388 129.942 429.839 131.787 431.685C131.905 431.79 133.105 433.266 133.711 434.083C133.566 433.095 133.395 432.106 133.276 431.105C132.92 428.218 132.643 425.266 132.353 422.327C132.274 421.43 132.169 420.534 132.077 419.691C131.708 419.836 127.253 421.496 125.065 421.338C123.127 421.206 120.689 420.482 119.556 418.702C119.277 418.305 119.085 417.854 118.992 417.378C118.9 416.902 118.908 416.412 119.018 415.939C119.127 415.467 119.335 415.023 119.628 414.636C119.92 414.249 120.291 413.928 120.716 413.694C123.352 412.376 127.978 414.827 129.823 416.659C129.968 416.804 131.655 418.913 132.064 419.48C131.853 417.503 131.629 415.526 131.325 413.615C130.92 411.022 130.343 408.46 129.599 405.944C129.428 406.01 124.788 407.763 122.548 407.605C120.61 407.473 118.172 406.748 117.038 404.969C116.76 404.572 116.568 404.121 116.475 403.644C116.382 403.168 116.391 402.678 116.501 402.206C116.61 401.733 116.818 401.289 117.11 400.902C117.403 400.515 117.773 400.194 118.198 399.96C120.834 398.642 125.46 401.081 127.306 402.926C127.451 403.071 129.269 405.351 129.573 405.786C129.573 405.641 129.573 405.483 129.454 405.338C128.651 402.819 127.627 400.376 126.396 398.036C125.737 396.718 125.078 395.532 124.314 394.372C123.483 394.781 119.674 396.639 117.631 396.718C115.589 396.797 113.19 396.349 111.872 394.754C111.552 394.39 111.313 393.963 111.169 393.5C111.026 393.037 110.981 392.55 111.038 392.069C111.095 391.588 111.253 391.124 111.501 390.708C111.749 390.292 112.082 389.933 112.478 389.654C114.916 388.032 119.819 389.97 121.862 391.604C121.968 391.696 122.996 392.711 123.734 393.476C123.404 392.949 123.075 392.408 122.745 391.92C121.52 390.088 120.294 388.467 119.187 387.057C118.554 386.253 117.961 385.541 117.407 384.882C116.379 384.882 112.241 384.737 110.435 383.894C108.629 383.05 106.652 381.521 106.231 379.492C106.113 379.021 106.097 378.53 106.181 378.053C106.266 377.575 106.451 377.12 106.723 376.719C106.996 376.317 107.35 375.977 107.762 375.721C108.174 375.466 108.636 375.3 109.117 375.235C112.03 374.931 115.483 378.912 116.537 381.297C116.63 381.495 117.697 384.882 117.645 384.882H117.579C118.132 385.515 118.712 386.2 119.332 386.938C120.465 388.336 121.744 389.917 123.009 391.736C124.391 393.688 125.663 395.717 126.818 397.812C128.117 400.154 129.207 402.606 130.073 405.14C130.073 405.14 130.073 405.206 130.073 405.232C130.073 404.376 130.073 401.977 130.073 401.792C130.403 399.156 132.578 394.412 135.451 393.884C135.928 393.814 136.415 393.844 136.88 393.973C137.345 394.103 137.778 394.328 138.15 394.635C138.523 394.941 138.827 395.323 139.043 395.754C139.259 396.186 139.382 396.658 139.405 397.14C139.576 399.196 138.087 401.252 136.637 402.557C134.989 404.02 130.442 405.43 130.047 405.549C130.86 408.139 131.499 410.781 131.958 413.457C132.248 415.025 132.472 416.607 132.683 418.201C132.683 417.463 132.683 416.791 132.683 416.699C133.026 414.063 135.187 409.305 138.06 408.791C138.538 408.722 139.024 408.754 139.488 408.884C139.952 409.014 140.384 409.24 140.756 409.546C141.128 409.852 141.432 410.233 141.649 410.664C141.865 411.094 141.99 411.565 142.014 412.046C142.186 414.102 140.696 416.158 139.233 417.463C137.77 418.768 133.961 420.099 132.881 420.389L133.118 422.221C133.461 425.147 133.803 428.086 134.225 430.946C134.37 431.948 134.555 432.937 134.726 433.925C134.726 433.266 134.726 432.713 134.726 432.607C135.055 429.971 137.23 425.213 140.103 424.699C140.581 424.629 141.068 424.659 141.533 424.788C141.998 424.917 142.43 425.143 142.803 425.449C143.175 425.756 143.479 426.138 143.696 426.569C143.912 427.001 144.035 427.473 144.057 427.955C144.229 430.011 142.739 432.067 141.29 433.358C139.395 434.631 137.314 435.6 135.121 436.232C135.332 437.247 135.543 438.248 135.793 439.224C135.978 439.869 136.11 440.542 136.334 441.161C136.558 441.78 136.756 442.479 136.953 443.085C137.401 444.298 137.836 445.537 138.271 446.71C138.588 447.527 138.904 448.291 139.207 449.069C139.049 448.067 138.785 446.103 138.785 445.932C138.805 443.618 139.422 441.348 140.578 439.342C140.558 439.088 140.558 438.832 140.578 438.578C140.637 438.095 140.797 437.631 141.048 437.215C141.3 436.799 141.636 436.441 142.036 436.164C142.436 435.888 142.889 435.699 143.367 435.611C143.845 435.522 144.336 435.536 144.809 435.652C147.629 436.403 149.422 441.359 149.553 443.955C149.553 444.113 149.461 445.787 149.382 446.855C149.527 446.235 149.659 445.642 149.804 445.01C150.107 443.757 150.436 442.518 150.792 441.187C150.977 440.555 151.175 439.869 151.372 439.25C151.57 438.63 151.834 437.932 152.058 437.286C152.611 435.757 153.257 434.228 153.929 432.713C152.835 432.449 148.973 431.474 147.418 430.274C145.863 429.075 144.229 427.151 144.242 425.081C144.229 424.596 144.319 424.113 144.505 423.665C144.692 423.216 144.971 422.812 145.324 422.479C145.677 422.145 146.097 421.89 146.555 421.73C147.014 421.57 147.501 421.508 147.985 421.549C150.885 421.865 153.415 426.492 153.942 429.049C153.942 429.207 154.14 431.078 154.219 432.106C154.628 431.197 155.036 430.287 155.537 429.391C156.855 426.755 158.173 424.119 159.61 421.562L160.928 419.164C160.532 419.071 155.906 418.004 154.166 416.659C152.427 415.315 150.99 413.536 151.003 411.48C150.989 410.994 151.077 410.511 151.261 410.062C151.446 409.613 151.724 409.208 152.076 408.873C152.428 408.539 152.846 408.282 153.304 408.12C153.762 407.958 154.249 407.895 154.733 407.934C157.646 408.251 160.163 412.877 160.69 415.434C160.69 415.631 160.967 418.32 160.994 419.019C161.916 417.252 162.812 415.486 163.63 413.747C164.742 411.356 165.698 408.894 166.49 406.379C166.305 406.379 161.481 405.232 159.689 403.875C158.147 402.689 156.512 400.738 156.526 398.682C156.511 398.196 156.599 397.713 156.784 397.264C156.969 396.815 157.246 396.41 157.598 396.075C157.95 395.741 158.369 395.484 158.827 395.322C159.285 395.161 159.771 395.097 160.256 395.136C163.168 395.453 165.686 400.079 166.213 402.636C166.213 402.834 166.516 405.746 166.529 406.274C166.529 406.129 166.635 405.984 166.674 405.839C167.394 403.295 167.888 400.693 168.15 398.062C168.322 396.599 168.388 395.215 168.427 393.845C167.518 393.739 163.313 393.173 161.574 392.118C159.834 391.064 158.054 389.364 157.844 387.307C157.777 386.824 157.812 386.333 157.948 385.864C158.084 385.396 158.316 384.961 158.63 384.588C158.945 384.215 159.334 383.913 159.773 383.7C160.212 383.487 160.691 383.369 161.178 383.353C164.091 383.353 167.109 387.677 167.913 390.154C167.913 390.299 168.256 391.71 168.454 392.79C168.454 392.184 168.454 391.472 168.454 390.958C168.454 388.744 168.309 386.728 168.164 384.935C168.084 383.92 167.979 382.998 167.887 382.141C167.03 381.561 163.656 379.175 162.615 377.462C161.574 375.749 160.77 373.403 161.534 371.478C161.697 371.021 161.954 370.603 162.289 370.252C162.624 369.901 163.029 369.625 163.478 369.441C163.926 369.257 164.409 369.169 164.894 369.184C165.379 369.199 165.855 369.316 166.292 369.528C168.928 370.846 169.574 376.118 169.139 378.661C169.139 378.885 168.124 382.299 168.071 382.273C168.177 383.103 168.295 383.986 168.401 384.909C168.572 386.701 168.757 388.731 168.809 390.945C168.887 393.336 168.83 395.73 168.638 398.115C168.437 400.785 167.996 403.432 167.32 406.023C167.326 406.054 167.326 406.085 167.32 406.115C167.781 405.39 169.139 403.479 169.257 403.282C170.958 401.305 175.426 398.497 178.114 399.631C178.555 399.834 178.948 400.128 179.268 400.493C179.588 400.857 179.828 401.285 179.972 401.749C180.116 402.212 180.161 402.701 180.105 403.183C180.048 403.665 179.891 404.13 179.643 404.547C178.853 406.379 176.467 407.262 174.543 407.552Z" fill="#263238"/>
<path d="M124.432 393.832C124.432 393.832 123.497 390.418 123.47 390.194C123.101 387.558 123.932 382.404 126.554 381.139C126.998 380.939 127.479 380.835 127.965 380.833C128.452 380.831 128.933 380.932 129.378 381.128C129.823 381.325 130.222 381.613 130.548 381.973C130.875 382.334 131.122 382.759 131.273 383.222C131.971 385.159 131.075 387.532 130.021 389.166C128.769 391.09 124.432 393.832 124.432 393.832Z" fill="#263238"/>
<path d="M377.159 145.336H287.706L273.419 210.3H391.446L377.159 145.336Z" fill="#F0F0F0" stroke="#263238" stroke-linecap="round" stroke-linejoin="round"/>
<path d="M405.694 209.114H259.172L235.777 306.053H429.088L405.694 209.114Z" fill="#E3E3E3" stroke="#263238" stroke-linecap="round" stroke-linejoin="round"/>
<path d="M377.067 209.285H287.812V221.055H377.067V209.285Z" fill="white" stroke="#263238" stroke-linecap="round" stroke-linejoin="round"/>
<path d="M379.465 219.961H285.4V231.981H379.465V219.961Z" fill="white" stroke="#263238" stroke-linecap="round" stroke-linejoin="round"/>
<path d="M381.877 231.256H283.001V243.514H381.877V231.256Z" fill="white" stroke="#263238" stroke-linecap="round" stroke-linejoin="round"/>
<path d="M384.276 242.868H280.589V255.376H384.276V242.868Z" fill="white" stroke="#263238" stroke-linecap="round" stroke-linejoin="round"/>
<path d="M386.688 254.783H278.19V267.528H386.688V254.783Z" fill="white" stroke="#263238" stroke-linecap="round" stroke-linejoin="round"/>
<path d="M389.087 267H275.778V279.996H389.087V267Z" fill="white" stroke="#263238" stroke-linecap="round" stroke-linejoin="round"/>
<path d="M391.486 279.838H273.366V293.084H391.486V279.838Z" fill="white" stroke="#263238" stroke-linecap="round" stroke-linejoin="round"/>
<path d="M393.897 292.372H270.968V305.855H393.897V292.372Z" fill="white" stroke="#263238" stroke-linecap="round" stroke-linejoin="round"/>
<path d="M353.29 145.494H311.575V153.27H353.29V145.494Z" fill="white" stroke="#263238" stroke-linecap="round" stroke-linejoin="round"/>
<path d="M354.423 152.559H310.455V160.493H354.423V152.559Z" fill="white" stroke="#263238" stroke-linecap="round" stroke-linejoin="round"/>
<path d="M355.531 160.018H309.322V168.111H355.531V160.018Z" fill="white" stroke="#263238" stroke-linecap="round" stroke-linejoin="round"/>
<path d="M356.664 167.676H308.201V175.94H356.664V167.676Z" fill="white" stroke="#263238" stroke-linecap="round" stroke-linejoin="round"/>
<path d="M357.797 175.544H307.081V183.966H357.797V175.544Z" fill="white" stroke="#263238" stroke-linecap="round" stroke-linejoin="round"/>
<path d="M358.904 183.624H305.947V192.204H358.904V183.624Z" fill="white" stroke="#263238" stroke-linecap="round" stroke-linejoin="round"/>
<path d="M360.038 192.099H304.827V200.85H360.038V192.099Z" fill="white" stroke="#263238" stroke-linecap="round" stroke-linejoin="round"/>
<path d="M361.158 200.376H303.707V209.285H361.158V200.376Z" fill="white" stroke="#263238" stroke-linecap="round" stroke-linejoin="round"/>
<path d="M455.949 305.381H208.916L169.482 450.914H495.384L455.949 305.381Z" fill="#C7C7C7" stroke="#263238" stroke-linecap="round" stroke-linejoin="round"/>
<path d="M547.998 446.354H116.867L75.2314 610.498H589.634L547.998 446.354Z" fill="#C7C7C7" stroke="#263238" stroke-linecap="round" stroke-linejoin="round"/>
<path d="M494.685 462.816H170.18L171.287 446.604H493.578L494.685 462.816Z" fill="white" stroke="#263238" stroke-linecap="round" stroke-linejoin="round"/>
<path d="M498.81 479.739H166.055L167.215 462.987H497.651L498.81 479.739Z" fill="white" stroke="#263238" stroke-linecap="round" stroke-linejoin="round"/>
<path d="M503.001 496.899H161.864L163.089 479.607H501.776L503.001 496.899Z" fill="white" stroke="#263238" stroke-linecap="round" stroke-linejoin="round"/>
<path d="M507.245 514.31H157.62L158.898 496.464H505.967L507.245 514.31Z" fill="white" stroke="#263238" stroke-linecap="round" stroke-linejoin="round"/>
<path d="M511.555 531.971H153.31L154.654 513.559H510.211L511.555 531.971Z" fill="white" stroke="#263238" stroke-linecap="round" stroke-linejoin="round"/>
<path d="M516.023 551.148H148.842L150.252 532.129H514.613L516.023 551.148Z" fill="white" stroke="#263238" stroke-linecap="round" stroke-linejoin="round"/>
<path d="M520.557 570.615H144.308L145.784 550.99H519.081L520.557 570.615Z" fill="white" stroke="#263238" stroke-linecap="round" stroke-linejoin="round"/>
<path d="M525.17 590.398H139.695L141.25 570.127H523.615L525.17 590.398Z" fill="white" stroke="#263238" stroke-linecap="round" stroke-linejoin="round"/>
<path d="M529.849 610.498H135.016L136.65 589.581H528.215L529.849 610.498Z" fill="white" stroke="#263238" stroke-linecap="round" stroke-linejoin="round"/>
<path d="M418.056 305.328H246.809V322.554H418.056V305.328Z" fill="white" stroke="#263238" stroke-linecap="round" stroke-linejoin="round"/>
<path d="M422.67 320.946H242.196V338.528H422.67V320.946Z" fill="white" stroke="#263238" stroke-linecap="round" stroke-linejoin="round"/>
<path d="M427.296 337.474H237.583V355.412H427.296V337.474Z" fill="white" stroke="#263238" stroke-linecap="round" stroke-linejoin="round"/>
<path d="M431.895 354.463H232.957V372.757H431.895V354.463Z" fill="white" stroke="#263238" stroke-linecap="round" stroke-linejoin="round"/>
<path d="M436.522 371.887H228.344V390.537H436.522V371.887Z" fill="white" stroke="#263238" stroke-linecap="round" stroke-linejoin="round"/>
<path d="M441.135 389.772H223.73V408.791H441.135V389.772Z" fill="white" stroke="#263238" stroke-linecap="round" stroke-linejoin="round"/>
<path d="M445.761 408.554H219.117V427.928H445.761V408.554Z" fill="white" stroke="#263238" stroke-linecap="round" stroke-linejoin="round"/>
<path d="M450.36 426.9H214.491V446.631H450.36V426.9Z" fill="white" stroke="#263238" stroke-linecap="round" stroke-linejoin="round"/>
<path d="M205.305 209.971L193.509 220.33" stroke="#263238" stroke-linecap="round" stroke-linejoin="round"/>
<path d="M310.283 117.671L212.567 203.578" stroke="#263238" stroke-linecap="round" stroke-linejoin="round"/>
<path d="M300.016 115.114L233.286 139.484" stroke="#263238" stroke-linecap="round" stroke-linejoin="round"/>
<path d="M238.901 105.124L196.079 108.695" stroke="#263238" stroke-linecap="round" stroke-linejoin="round"/>
<path d="M288.458 100.998L243.685 104.728" stroke="#263238" stroke-linecap="round" stroke-linejoin="round"/>
<path d="M173.805 44.1925L162.707 40.6866" stroke="#263238" stroke-linecap="round" stroke-linejoin="round"/>
<path d="M269.478 74.4011L177.007 45.1942" stroke="#263238" stroke-linecap="round" stroke-linejoin="round"/>
<path d="M284.609 79.1854L275.686 76.3649" stroke="#263238" stroke-linecap="round" stroke-linejoin="round"/>
<path d="M464.015 209.971L475.811 220.33" stroke="#263238" stroke-linecap="round" stroke-linejoin="round"/>
<path d="M359.036 117.671L456.753 203.578" stroke="#263238" stroke-linecap="round" stroke-linejoin="round"/>
<path d="M369.303 115.114L436.034 139.484" stroke="#263238" stroke-linecap="round" stroke-linejoin="round"/>
<path d="M430.419 105.124L473.241 108.695" stroke="#263238" stroke-linecap="round" stroke-linejoin="round"/>
<path d="M380.849 100.998L425.635 104.728" stroke="#263238" stroke-linecap="round" stroke-linejoin="round"/>
<path d="M495.515 44.1925L506.613 40.6866" stroke="#263238" stroke-linecap="round" stroke-linejoin="round"/>
<path d="M399.842 74.4011L492.312 45.1942" stroke="#263238" stroke-linecap="round" stroke-linejoin="round"/>
<path d="M384.698 79.1854L393.634 76.3649" stroke="#263238" stroke-linecap="round" stroke-linejoin="round"/>
<path d="M318.745 281.947C318.745 281.947 313.473 280.391 313.776 285.057C314.079 289.723 319.668 292.82 319.668 292.82L318.745 281.947Z" fill="white" stroke="#263238" stroke-linecap="round" stroke-linejoin="round"/>
<path d="M351.036 281.947C351.036 281.947 355.385 279.772 355.385 283.818C355.385 287.864 350.733 291.884 350.733 291.884L351.036 281.947Z" fill="white" stroke="#263238" stroke-linecap="round" stroke-linejoin="round"/>
<path d="M318.126 269.215C318.126 269.215 318.429 291.265 319.668 295.311C320.907 299.357 324.637 304.629 328.063 304.629C331.49 304.629 342.97 303.694 345.197 302.455C346.876 301.245 348.254 299.664 349.223 297.835C350.192 296.007 350.727 293.979 350.786 291.911C350.786 286.942 351.405 274.526 351.405 274.526C352.772 273.467 353.843 272.073 354.516 270.48C355.755 267.686 351.405 263.653 350.469 263.336C349.534 263.02 346.12 262.097 346.12 262.097C346.12 262.097 348.295 260.239 347.675 258.684C347.056 257.129 341.151 256.193 338.673 256.193C336.695 256.397 334.787 257.036 333.085 258.064C333.085 258.064 323.147 257.748 320.037 261.478C319.129 262.525 318.483 263.772 318.151 265.117C317.819 266.461 317.81 267.866 318.126 269.215Z" fill="#263238" stroke="#263238" stroke-linecap="round" stroke-linejoin="round"/>
<path d="M352.908 308.966L313.144 309.598C313.144 309.598 315.015 303.694 317.19 303.008C319.365 302.323 341.718 301.756 346.384 302.389C351.049 303.021 352.908 308.966 352.908 308.966Z" fill="#1D4FD7" stroke="#263238" stroke-linecap="round" stroke-linejoin="round"/>
<path d="M339.055 571.287C339.055 571.287 337.368 589.344 338.805 589.91C340.242 590.477 344.538 592.546 354.858 589.91C357.6 589.225 352.565 570.707 352.565 570.707C352.565 570.707 345.896 574.74 339.055 571.287Z" fill="#263238" stroke="#263238" stroke-linecap="round" stroke-linejoin="round"/>
<path d="M291.278 431.474L296.55 510.066C296.55 510.066 293.387 524.564 296.286 537.401C299.186 550.239 303.904 595.486 303.904 595.486C303.904 595.486 306.263 591.018 314.158 590.214C322.053 589.41 323.608 592.573 323.608 592.573C323.608 592.573 323.094 558.41 323.094 554.469C323.094 550.529 326.244 525.566 325.981 517.934C325.683 512.46 324.978 507.014 323.872 501.644L325.717 454.077L329.922 453.55C329.922 453.55 327.035 492.708 328.867 501.644C330.699 510.58 335.18 538.443 335.457 540.802C335.734 543.161 339.134 571.287 339.134 571.287C339.134 571.287 345.962 573.132 349.125 572.869C351.134 572.626 352.997 571.695 354.397 570.233C354.397 570.233 360.17 527.912 359.669 521.348C359.168 514.784 353.079 499.008 353.079 497.69C353.079 496.372 351.497 487.436 351.497 487.436C351.497 487.436 362.542 456.687 364.374 445.655C366.206 434.624 366.404 429.668 366.404 429.668C366.404 429.668 335.128 434.663 319.615 434.663C310.082 434.616 300.582 433.547 291.278 431.474Z" fill="#1D4FD7" stroke="#263238" stroke-linecap="round" stroke-linejoin="round"/>
<path d="M305.367 509.644C309.51 506.186 313.917 503.057 318.547 500.286" stroke="#263238" stroke-linecap="round" stroke-linejoin="round"/>
<path d="M299.041 515.219C299.041 515.219 300.359 513.901 302.679 511.938" stroke="#263238" stroke-linecap="round" stroke-linejoin="round"/>
<path d="M304.774 504.504L321.236 493.406" stroke="#263238" stroke-linecap="round" stroke-linejoin="round"/>
<path d="M366.404 429.668C366.404 429.668 335.128 434.663 319.615 434.663C310.082 434.616 300.582 433.547 291.278 431.474L291.594 436.153C296.141 439.579 304.234 445.853 310.876 451.969C318.705 459.139 323.661 462.157 325.374 463.079L325.717 454.104L329.922 453.577C329.922 453.577 327.035 492.734 328.867 501.67C329.724 505.783 331.121 513.915 332.413 521.73C334.35 515.628 338.054 508.326 344.855 507.628C349.168 507.24 353.486 508.317 357.112 510.685C355.24 504.57 353.052 498.52 353.052 497.73C353.052 496.412 351.471 487.475 351.471 487.475C351.471 487.475 362.516 456.727 364.348 445.695C366.18 434.663 366.404 429.668 366.404 429.668Z" fill="#263238" stroke="#263238" stroke-linecap="round" stroke-linejoin="round"/>
<path d="M282.052 416.053C282.052 416.053 283.989 419.717 285.281 420.152C286.573 420.587 287.653 424.462 287.653 428.337C287.653 432.212 286.335 432.647 286.335 432.647C286.895 433.372 287.282 434.216 287.467 435.113C287.652 436.011 287.63 436.939 287.403 437.826C286.546 440.621 280.945 442.558 278.572 443.428C276.2 444.298 272.536 440.41 271.033 438.472C269.531 436.535 270.599 421.009 270.599 421.009C270.599 421.009 281.195 418.215 282.052 416.053Z" fill="white" stroke="#263238" stroke-linecap="round" stroke-linejoin="round"/>
<path d="M286.375 432.647C286.375 432.647 282.065 434.373 281.419 434.808C280.773 435.243 278.401 432.436 279.258 431.579C280.564 430.494 281.933 429.486 283.357 428.561" stroke="#263238" stroke-linecap="round" stroke-linejoin="round"/>
<path d="M277.531 424.897C277.531 424.897 282.065 425.964 280.549 430.063" stroke="#263238" stroke-linecap="round" stroke-linejoin="round"/>
<path d="M280.114 434.162C280.114 434.162 275.594 435.889 275.594 437.602C275.594 439.316 277.755 441.556 279.047 441.266C280.339 440.976 278.823 439.329 278.823 439.329" stroke="#263238" stroke-linecap="round" stroke-linejoin="round"/>
<path d="M387.874 424.897C386.084 426.968 384.495 429.206 383.129 431.579C382.062 433.938 379.9 436.1 380.335 437.602C380.77 439.105 380.981 440.238 380.981 440.238C380.981 440.238 379.044 444.759 380.981 446.051C382.234 446.975 383.735 447.503 385.291 447.566C386.148 447.566 389.601 450.361 391.973 449.926C394.345 449.491 397.785 448.423 398.01 441.095C398.234 433.767 399.077 425.358 399.077 425.358C399.077 425.358 391.327 424.897 387.874 424.897Z" stroke="#263238" stroke-linecap="round" stroke-linejoin="round"/>
<path d="M380.981 440.212C380.981 440.212 386.793 443.876 388.52 443.876C390.246 443.876 391.538 441.24 390.246 439.988C388.681 438.654 387.025 437.429 385.291 436.324" stroke="#263238" stroke-linecap="round" stroke-linejoin="round"/>
<path d="M392.395 431.79C392.395 431.79 388.955 435.665 390.246 439.975" stroke="#263238" stroke-linecap="round" stroke-linejoin="round"/>
<path d="M390.892 441.266C390.892 441.266 394.991 442.347 395.202 443.639C395.413 444.93 394.991 447.092 394.121 447.092C393.252 447.092 392.803 445.576 392.803 445.576" stroke="#263238" stroke-linecap="round" stroke-linejoin="round"/>
<path d="M402.293 423.276C401.184 425.658 399.335 427.618 397.021 428.864C393.278 430.722 386.767 425.754 386.767 425.754L379.927 385.686L365.02 363.28L363.768 395.94C363.768 395.94 369.673 431.961 368.75 432.594C367.827 433.227 354.147 439.421 331.161 441.912C308.175 444.403 287.996 433.53 287.996 433.53L297.617 396.244L293.268 368.566L282.553 385.357L283.95 414.221C283.95 414.221 281.472 420.745 277.123 421.681C274.35 422.224 271.499 422.224 268.727 421.681C268.73 421.646 268.73 421.611 268.727 421.575C268.727 421.391 268.635 420.969 268.529 420.35C268.529 420.073 268.437 419.743 268.371 419.374C268.292 418.808 268.173 418.136 268.055 417.397C267.936 416.659 267.87 416.224 267.765 415.579C267.659 414.933 267.554 414.261 267.435 413.549C265.761 403.11 263.06 386.227 262.849 384.724V384.658C262.849 381.746 283.04 329.737 284.266 328.512C285.492 327.286 285.584 323.24 289.868 320.432C294.151 317.625 317.546 308.017 317.546 308.017C326.534 305.209 351.392 308.939 351.392 308.939C351.392 308.939 361.026 314.528 362.265 315.16C363.504 315.793 376.856 323.846 379.966 325.704C383.077 327.563 383.38 330.976 384.619 335.022C385.858 339.069 394.873 368.882 397.667 374.154C400.461 379.426 402.293 423.276 402.293 423.276Z" fill="#1D4FD7" stroke="#263238" stroke-linecap="round" stroke-linejoin="round"/>
<path d="M282.553 385.396L283.95 414.261C283.95 414.261 281.472 420.785 277.123 421.72C274.35 422.263 271.499 422.263 268.727 421.72C268.73 421.685 268.73 421.65 268.727 421.615C268.727 421.431 268.635 421.009 268.529 420.389C268.529 420.112 268.437 419.77 268.371 419.414C268.292 418.847 268.173 418.175 268.055 417.437C267.936 416.699 267.87 416.264 267.765 415.618C267.659 414.972 267.554 414.3 267.435 413.588C265.761 403.15 263.06 386.266 262.849 384.764V384.698C264.641 385.713 267.976 387.334 270.111 386.978C271.732 386.675 273.696 384.513 275.132 382.615C275.422 381.746 275.66 381.1 275.791 380.717C277.347 376.539 286.454 351.221 286.454 351.221L293.281 368.618L282.553 385.396Z" fill="#263238" stroke="#263238" stroke-linecap="round" stroke-linejoin="round"/>
<path d="M287.68 339.714L293.268 368.605" stroke="#263238" stroke-linecap="round" stroke-linejoin="round"/>
<path d="M369.475 343.286L365.02 363.32L374.338 343.444" stroke="#263238" stroke-linecap="round" stroke-linejoin="round"/>
<path d="M371.228 335.378L370.516 338.568" stroke="#263238" stroke-linecap="round" stroke-linejoin="round"/>
<path d="M328.986 346.239C328.986 346.239 347.003 379.189 350.417 381.337" stroke="#263238" stroke-linecap="round" stroke-linejoin="round"/>
<path d="M348.281 384.131L350.733 386.306" stroke="#263238" stroke-linecap="round" stroke-linejoin="round"/>
<path d="M334.271 371.716L345.738 381.891" stroke="#263238" stroke-linecap="round" stroke-linejoin="round"/>
<path d="M402.293 423.276C402.293 423.276 401.792 411.493 400.909 399.407C395.532 397.562 389.35 394.978 387.07 392.21C382.721 386.938 366.878 365.495 366.878 365.495V366.167L379.887 385.686L386.714 425.754C386.714 425.754 393.238 430.722 396.968 428.864C399.302 427.628 401.171 425.667 402.293 423.276Z" fill="#263238" stroke="#263238" stroke-linecap="round" stroke-linejoin="round"/>
<path d="M303.838 595.472L303.259 604.817C303.259 604.817 298.672 611.13 299.819 614.57C300.965 618.01 305.552 617.43 312.432 617.43C319.312 617.43 324.188 612.567 324.188 608.204C324.188 603.842 323.543 592.52 323.543 592.52C323.543 592.52 320.617 589.884 314.092 590.161C312.111 590.296 310.178 590.838 308.414 591.752C306.65 592.665 305.093 593.932 303.838 595.472Z" fill="#263238" stroke="#263238" stroke-linecap="round" stroke-linejoin="round"/>
<path d="M322.514 612.751C321.318 611.79 319.903 611.139 318.395 610.856C316.886 610.573 315.332 610.668 313.868 611.13C308.834 612.804 305.802 615.875 302.099 616.837C304.313 617.681 307.858 617.43 312.432 617.43C314.358 617.474 316.269 617.075 318.018 616.264C319.766 615.453 321.304 614.251 322.514 612.751Z" fill="white" stroke="#263238" stroke-linecap="round" stroke-linejoin="round"/>
<path d="M335.945 106.56H328.881V136.637H335.945V106.56Z" fill="#1D4FD7" stroke="#263238" stroke-linecap="round" stroke-linejoin="round"/>
<path d="M342.852 143.082H321.974L324.439 131.418H340.387L342.852 143.082Z" fill="#1D4FD7" stroke="#263238" stroke-linecap="round" stroke-linejoin="round"/>
<path d="M355.438 147.998H309.401L314.304 137.257H350.522L355.438 147.998Z" fill="#1D4FD7" stroke="#263238" stroke-linecap="round" stroke-linejoin="round"/>
<path d="M309.084 74.7306C305.796 74.673 302.565 75.5955 299.802 77.3806C297.04 79.1657 294.871 81.7326 293.573 84.7543C292.274 87.7761 291.905 91.116 292.511 94.3486C293.117 97.5812 294.672 100.56 296.977 102.906C299.282 105.252 302.233 106.859 305.454 107.522C308.675 108.185 312.021 107.875 315.066 106.63C318.11 105.385 320.715 103.262 322.548 100.532C324.382 97.8012 325.361 94.5868 325.362 91.2979C325.381 89.1412 324.975 87.002 324.167 85.0022C323.359 83.0024 322.166 81.1813 320.654 79.6429C319.143 78.1045 317.343 76.8788 315.358 76.036C313.373 75.1931 311.241 74.7496 309.084 74.7306ZM309.084 103.727C306.63 103.771 304.218 103.084 302.156 101.753C300.094 100.422 298.474 98.5069 297.504 96.2521C296.534 93.9974 296.257 91.5049 296.708 89.0922C297.16 86.6794 298.319 84.4557 300.039 82.7042C301.759 80.9528 303.961 79.7529 306.365 79.2574C308.769 78.762 311.266 78.9933 313.538 79.9221C315.81 80.8509 317.754 82.435 319.123 84.4726C320.492 86.5102 321.223 88.9092 321.223 91.3638C321.237 94.6021 319.968 97.7141 317.693 100.019C315.418 102.323 312.322 103.633 309.084 103.661V103.727Z" fill="#1D4FD7" stroke="#263238" stroke-linecap="round" stroke-linejoin="round"/>
<path d="M358.193 74.7306C354.904 74.6704 351.672 75.5907 348.908 77.3741C346.143 79.1576 343.973 81.7235 342.672 84.745C341.372 87.7664 341 91.1067 341.605 94.3401C342.209 97.5736 343.763 100.554 346.067 102.901C348.372 105.249 351.323 106.857 354.545 107.521C357.766 108.185 361.113 107.875 364.158 106.631C367.203 105.386 369.808 103.264 371.643 100.533C373.477 97.8022 374.456 94.5873 374.457 91.2978C374.496 86.9446 372.804 82.7541 369.754 79.6475C366.705 76.5409 362.546 74.7723 358.193 74.7306ZM358.193 103.727C355.743 103.766 353.336 103.076 351.278 101.744C349.221 100.413 347.606 98.4998 346.638 96.2484C345.67 93.997 345.393 91.5087 345.842 89.0995C346.291 86.6904 347.446 84.469 349.16 82.7177C350.875 80.9663 353.071 79.7639 355.47 79.2632C357.869 78.7626 360.362 78.9862 362.634 79.9057C364.906 80.8251 366.853 82.399 368.228 84.4274C369.603 86.4558 370.345 88.8472 370.358 91.2978C370.374 92.9091 370.071 94.5076 369.468 96.0017C368.864 97.4958 367.972 98.8561 366.842 100.005C365.712 101.153 364.366 102.067 362.882 102.695C361.398 103.322 359.804 103.65 358.193 103.661V103.727Z" fill="#1D4FD7" stroke="#263238" stroke-linecap="round" stroke-linejoin="round"/>
<path d="M332.413 114.851C326.96 114.851 321.73 112.684 317.874 108.828C314.018 104.973 311.852 99.7428 311.852 94.2897V73.1095H352.974V94.2897C352.974 99.7428 350.807 104.973 346.952 108.828C343.096 112.684 337.866 114.851 332.413 114.851Z" fill="#1D4FD7" stroke="#263238" stroke-linecap="round" stroke-linejoin="round"/>
<path d="M318.086 84.4047L326.785 99.7858L329.091 94.6324L334.733 95.555L322.936 80.7538L318.086 84.4047Z" fill="#263238" stroke="#263238" stroke-linecap="round" stroke-linejoin="round"/>
<path d="M317.625 82.5859L314.594 99.9967L319.641 97.4661L323.424 101.763L323.675 82.8363L317.625 82.5859Z" fill="#263238" stroke="#263238" stroke-linecap="round" stroke-linejoin="round"/>
<path d="M330.489 78.0388C330.489 76.2922 329.971 74.5849 329 73.1327C328.03 71.6806 326.651 70.5487 325.037 69.8804C323.424 69.212 321.648 69.0371 319.935 69.3778C318.222 69.7186 316.649 70.5596 315.414 71.7946C314.179 73.0296 313.338 74.603 312.997 76.316C312.656 78.029 312.831 79.8045 313.5 81.4181C314.168 83.0317 315.3 84.4108 316.752 85.3811C318.204 86.3515 319.911 86.8694 321.658 86.8694C322.818 86.8711 323.967 86.6439 325.039 86.2007C326.112 85.7575 327.086 85.1072 327.906 84.2868C328.726 83.4665 329.377 82.4923 329.82 81.4201C330.263 80.348 330.49 79.1989 330.489 78.0388Z" fill="white" stroke="#263238" stroke-linecap="round" stroke-linejoin="round"/>
<path d="M328.472 78.0388C328.472 76.6911 328.072 75.3736 327.324 74.2531C326.575 73.1325 325.511 72.2591 324.266 71.7434C323.021 71.2277 321.65 71.0927 320.329 71.3556C319.007 71.6186 317.793 72.2675 316.84 73.2205C315.887 74.1735 315.238 75.3876 314.975 76.7094C314.712 78.0312 314.847 79.4013 315.363 80.6464C315.878 81.8915 316.752 82.9557 317.872 83.7044C318.993 84.4532 320.31 84.8528 321.658 84.8528C322.553 84.8546 323.44 84.6795 324.268 84.3377C325.095 83.9958 325.847 83.494 326.48 82.8609C327.113 82.2278 327.615 81.476 327.957 80.6484C328.299 79.8209 328.474 78.9341 328.472 78.0388Z" fill="white" stroke="#263238" stroke-linecap="round" stroke-linejoin="round"/>
<path d="M319.668 74.612C319.841 74.642 320.019 74.637 320.19 74.5973C320.361 74.5576 320.523 74.484 320.666 74.3808C320.808 74.2776 320.928 74.147 321.02 73.9965C321.111 73.8461 321.171 73.6789 321.197 73.5049H322.132V82.375H320.814V75.6005H319.734L319.668 74.612Z" fill="#263238"/>
<path d="M394.662 290.909C393.608 284.925 392.026 270.058 401.12 262.77C412.6 253.544 420.745 270.177 430.749 257.221C440.752 244.265 443.705 216.112 473.32 216.481C502.936 216.851 505.163 233.523 505.163 239.072C505.163 244.621 514.046 248.693 515.905 248.693C517.763 248.693 528.123 243.883 531.826 254.624C535.53 265.366 533.012 271.574 538.904 271.758C544.795 271.943 552.084 263.956 560.097 267.976C568.111 271.996 568.111 280.497 571.445 283.462C574.78 286.428 580.329 281.248 587.736 284.2C592.217 285.993 593.575 288.879 593.944 290.869L394.662 290.909Z" fill="white" stroke="black" stroke-miterlimit="10"/>
<path d="M408.475 93.3671C408.132 91.4033 407.631 86.5135 410.596 84.1411C414.379 81.0965 417.055 86.5662 420.337 82.3091C423.618 78.0519 424.594 68.8127 434.32 68.9314C444.047 69.05 444.785 74.5197 444.785 76.3517C444.785 78.1837 447.711 79.5149 448.318 79.5149C448.924 79.5149 452.338 77.9333 453.59 81.4656C454.842 84.9978 453.985 87.0275 455.909 87.1066C457.834 87.1857 460.246 84.4706 462.882 85.7886C465.518 87.1066 465.518 89.9139 466.611 90.8892C467.705 91.8646 469.524 90.1512 471.963 91.1265C472.465 91.2808 472.917 91.5641 473.276 91.948C473.634 92.3318 473.886 92.803 474.005 93.3144L408.475 93.3671Z" fill="white" stroke="black" stroke-miterlimit="10"/>
<path d="M392.764 176.783C392.118 173.119 391.196 164.065 396.718 159.649C403.717 154.008 408.685 164.17 414.788 156.262C420.89 148.354 422.696 131.22 440.766 131.418C458.835 131.615 460.193 141.804 460.193 145.191C460.193 148.578 465.61 151.069 466.783 151.069C467.956 151.069 474.23 148.13 476.483 154.68C478.737 161.231 477.221 165.027 480.806 165.224C484.391 165.422 488.846 160.466 493.736 162.918C498.626 165.369 498.626 170.562 500.655 172.368C502.685 174.174 506.072 171.05 510.593 172.816C511.53 173.098 512.375 173.624 513.042 174.339C513.709 175.055 514.174 175.935 514.389 176.889L392.764 176.783Z" fill="white" stroke="black" stroke-miterlimit="10"/>
<path d="M291.963 67.0466C292.425 64.4106 293.097 57.8206 289.116 54.6574C284.055 50.5716 280.47 57.9129 276.068 52.206C271.666 46.499 270.361 34.1098 257.313 34.268C244.265 34.4261 243.29 41.7674 243.29 44.2189C243.29 46.6704 239.336 48.4628 238.558 48.4628C237.78 48.4628 233.181 46.3409 231.546 51.0988C229.912 55.8568 231.019 58.5587 228.436 58.651C225.852 58.7432 222.623 55.2242 219.091 56.9903C215.559 58.7564 215.559 62.5127 214.096 63.8175C212.633 65.1224 210.142 62.829 206.926 64.1339C206.248 64.334 205.636 64.7122 205.154 65.2291C204.672 65.746 204.337 66.3828 204.185 67.073L291.963 67.0466Z" fill="white" stroke="black" stroke-miterlimit="10"/>
<path d="M314.422 249.603C315.74 242.235 317.598 223.941 306.514 214.966C292.385 203.565 282.355 224.073 270.045 208.125C257.735 192.178 254.084 157.514 217.615 158.041C181.146 158.569 178.405 179.011 178.405 185.851C178.405 192.692 167.465 197.713 165.225 197.713C162.984 197.713 150.186 191.782 145.626 205.015C141.066 218.248 144.15 225.879 136.914 226.103C129.678 226.327 120.571 216.481 110.712 221.424C100.853 226.366 100.853 236.858 96.7544 240.509C92.6554 244.159 85.8018 237.767 76.6944 241.418C71.1588 243.619 69.4982 247.165 69.0369 249.616L314.422 249.603Z" fill="white" stroke="black" stroke-miterlimit="10"/>
<path d="M222.584 174.925C222.992 172.592 223.585 166.793 220.066 163.959C215.585 160.348 212.409 166.846 208.508 161.784C204.606 156.723 203.46 145.758 191.914 145.968C180.368 146.179 179.498 152.558 179.498 154.786C179.498 157.013 176.032 158.529 175.307 158.529C174.582 158.529 170.549 156.657 169.099 160.849C167.65 165.04 168.638 167.439 166.345 167.544C164.051 167.65 161.205 164.5 158.081 166.068C154.957 167.636 154.957 170.945 153.652 172.104C152.348 173.264 150.186 171.235 147.3 172.394C146.696 172.575 146.152 172.915 145.725 173.379C145.298 173.843 145.004 174.414 144.875 175.03L222.584 174.925Z" fill="white" stroke="black" stroke-miterlimit="10"/>
</svg>
