<svg width="180" height="52" viewBox="0 0 180 52" fill="none" xmlns="http://www.w3.org/2000/svg">
<path fill-rule="evenodd" clip-rule="evenodd" d="M27.8247 14.6728C24.768 11.6161 20.6222 9.8988 16.2994 9.8988C11.9765 9.8988 7.83069 11.6161 4.77397 14.6728C1.71725 17.7295 0 21.8753 0 26.1982C0 32.9461 5.14335 40.0164 15.2127 47.5684C15.5262 47.8035 15.9075 47.9306 16.2994 47.9306C16.6912 47.9306 17.0725 47.8035 17.386 47.5684C27.4554 40.0164 32.5987 32.9461 32.5987 26.1982C32.5987 21.8753 30.8815 17.7295 27.8247 14.6728ZM16.2994 39.3282C23.6509 39.3282 29.6105 33.3686 29.6105 26.0171C29.6105 18.6655 23.6509 12.7059 16.2994 12.7059C8.94782 12.7059 2.98822 18.6655 2.98822 26.0171C2.98822 33.3686 8.94782 39.3282 16.2994 39.3282Z" fill="#FEFFFF"/>
<g clip-path="url(#clip0_176_1185)">
<path d="M22.0368 26.1612L22.1996 29.0015C22.2237 29.415 21.9765 29.7985 21.4579 30.152C20.9394 30.5056 20.2308 30.7857 19.3324 30.9925C18.4339 31.1992 17.4601 31.3026 16.4109 31.3026C15.3617 31.3026 14.3879 31.1992 13.4894 30.9925C12.5909 30.7857 11.8824 30.5056 11.3639 30.152C10.8453 29.7985 10.5981 29.415 10.6222 29.0015L10.785 26.1612L15.9767 27.7881C16.1094 27.8301 16.2541 27.851 16.4109 27.851C16.5677 27.851 16.7124 27.8301 16.845 27.7881L22.0368 26.1612ZM26.8306 23.249C26.8306 23.3868 26.7642 23.4797 26.6316 23.5276L16.5013 26.6915C16.4772 26.6975 16.4471 26.7005 16.4109 26.7005C16.3747 26.7005 16.3446 26.6975 16.3204 26.6915L10.4232 24.8399C10.1639 25.0437 9.94985 25.3777 9.78101 25.8421C9.61217 26.3065 9.50966 26.8413 9.47348 27.4466C9.85337 27.6623 10.0433 27.9889 10.0433 28.4263C10.0433 28.8397 9.86844 29.1603 9.51871 29.388L10.0433 33.28C10.0554 33.3639 10.0312 33.4388 9.97095 33.5047C9.91668 33.5706 9.84432 33.6036 9.75387 33.6036H8.01726C7.92681 33.6036 7.85445 33.5706 7.80018 33.5047C7.73988 33.4388 7.71576 33.3639 7.72782 33.28L8.25243 29.388C7.90269 29.1603 7.72782 28.8397 7.72782 28.4263C7.72782 27.9889 7.9238 27.6563 8.31574 27.4286C8.38207 26.1882 8.67754 25.1995 9.20214 24.4624L6.1902 23.5276C6.05754 23.4797 5.99121 23.3868 5.99121 23.249C5.99121 23.1112 6.05754 23.0183 6.1902 22.9704L16.3204 19.8065C16.3446 19.8005 16.3747 19.7975 16.4109 19.7975C16.4471 19.7975 16.4772 19.8005 16.5013 19.8065L26.6316 22.9704C26.7642 23.0183 26.8306 23.1112 26.8306 23.249Z" fill="#FEFFFF"/>
</g>
<path d="M44.9167 32.3438C43.3121 32.3438 41.7743 32.1337 40.3034 31.7135C38.8325 31.2741 37.6481 30.7106 36.7503 30.0229L38.3263 26.5271C39.1859 27.1384 40.1984 27.6446 41.3636 28.0457C42.548 28.4278 43.7419 28.6188 44.9454 28.6188C45.8623 28.6188 46.5978 28.5329 47.1518 28.3609C47.7248 28.1699 48.1451 27.912 48.4125 27.5873C48.68 27.2625 48.8137 26.89 48.8137 26.4698C48.8137 25.9349 48.6036 25.5146 48.1833 25.209C47.763 24.8842 47.2091 24.6263 46.5214 24.4353C45.8337 24.2252 45.0696 24.0342 44.229 23.8622C43.4076 23.6712 42.5767 23.442 41.7361 23.1745C40.9147 22.9071 40.1602 22.5632 39.4725 22.143C38.7848 21.7227 38.2212 21.1687 37.7819 20.481C37.3616 19.7933 37.1515 18.9146 37.1515 17.8449C37.1515 16.6987 37.4571 15.6576 38.0684 14.7216C38.6988 13.7664 39.6348 13.0119 40.8765 12.4579C42.1373 11.8848 43.7133 11.5983 45.6044 11.5983C46.8652 11.5983 48.1069 11.7511 49.3295 12.0567C50.552 12.3433 51.6314 12.7826 52.5674 13.3748L51.1347 16.8993C50.1986 16.3644 49.2626 15.9728 48.3266 15.7245C47.3905 15.457 46.4736 15.3233 45.5758 15.3233C44.678 15.3233 43.9425 15.4284 43.3694 15.6385C42.7963 15.8486 42.3856 16.1256 42.1373 16.4695C41.889 16.7942 41.7648 17.1763 41.7648 17.6156C41.7648 18.1314 41.9749 18.5517 42.3952 18.8764C42.8154 19.1821 43.3694 19.4304 44.0571 19.6214C44.7448 19.8124 45.4994 20.0035 46.3208 20.1945C47.1613 20.3855 47.9923 20.6052 48.8137 20.8535C49.6542 21.1019 50.4183 21.4362 51.106 21.8564C51.7937 22.2767 52.3477 22.8307 52.768 23.5184C53.2073 24.2061 53.427 25.0753 53.427 26.1259C53.427 27.253 53.1118 28.2845 52.4814 29.2205C51.851 30.1566 50.9055 30.9111 49.6447 31.4842C48.403 32.0573 46.827 32.3438 44.9167 32.3438ZM66.3126 32.3438C64.7462 32.3438 63.2849 32.086 61.9286 31.5702C60.5914 31.0544 59.4261 30.3285 58.4328 29.3925C57.4585 28.4564 56.6944 27.358 56.1404 26.0973C55.6055 24.8365 55.3381 23.4611 55.3381 21.9711C55.3381 20.481 55.6055 19.1056 56.1404 17.8449C56.6944 16.5841 57.4681 15.4857 58.4614 14.5496C59.4548 13.6136 60.62 12.8877 61.9572 12.3719C63.2944 11.8562 64.7462 11.5983 66.3126 11.5983C67.8982 11.5983 69.35 11.8562 70.6681 12.3719C72.0053 12.8877 73.161 13.6136 74.1352 14.5496C75.1286 15.4666 75.9022 16.5554 76.4562 17.8162C77.0102 19.077 77.2872 20.4619 77.2872 21.9711C77.2872 23.4611 77.0102 24.846 76.4562 26.1259C75.9022 27.3867 75.1286 28.4851 74.1352 29.4211C73.161 30.3381 72.0053 31.0544 70.6681 31.5702C69.35 32.086 67.8982 32.3438 66.3126 32.3438ZM72.8744 36.6133C72.0912 36.6133 71.3462 36.5274 70.6394 36.3554C69.9517 36.1835 69.264 35.9065 68.5763 35.5245C67.9077 35.1424 67.2009 34.6266 66.4559 33.9771C65.73 33.3276 64.9372 32.5253 64.0776 31.5702L68.9488 30.3381C69.4646 31.0449 69.9422 31.6084 70.3815 32.0287C70.8209 32.4489 71.2411 32.745 71.6423 32.9169C72.0626 33.0889 72.5019 33.1748 72.9604 33.1748C74.183 33.1748 75.2718 32.6781 76.227 31.6848L78.2901 34.1491C76.9338 35.7919 75.1286 36.6133 72.8744 36.6133ZM66.3126 28.3896C67.2105 28.3896 68.0319 28.2368 68.7769 27.9311C69.541 27.6255 70.2096 27.1861 70.7827 26.613C71.3558 26.0399 71.7951 25.3618 72.1008 24.5786C72.4255 23.7763 72.5879 22.9071 72.5879 21.9711C72.5879 21.0159 72.4255 20.1467 72.1008 19.3635C71.7951 18.5803 71.3558 17.9022 70.7827 17.3291C70.2096 16.756 69.541 16.3166 68.7769 16.011C68.0319 15.7054 67.2105 15.5525 66.3126 15.5525C65.4148 15.5525 64.5838 15.7054 63.8197 16.011C63.0556 16.3166 62.387 16.756 61.8139 17.3291C61.26 17.9022 60.8206 18.5803 60.4959 19.3635C60.1902 20.1467 60.0374 21.0159 60.0374 21.9711C60.0374 22.9071 60.1902 23.7763 60.4959 24.5786C60.8206 25.3618 61.26 26.0399 61.8139 26.613C62.387 27.1861 63.0556 27.6255 63.8197 27.9311C64.5838 28.2368 65.4148 28.3896 66.3126 28.3896ZM80.7758 32V11.9421H85.4178V28.2177H95.4754V32H80.7758ZM97.1807 25.7247V22.143H105.29V25.7247H97.1807ZM112.214 32V15.7245H105.795V11.9421H123.274V15.7245H116.856V32H112.214ZM130.194 32L123.632 11.9421H128.446L134.148 29.7077H131.741L137.701 11.9421H141.999L147.73 29.7077H145.409L151.255 11.9421H155.696L149.134 32H144.148L139.077 16.4122H140.395L135.18 32H130.194ZM167.806 32.3438C166.22 32.3438 164.75 32.086 163.393 31.5702C162.056 31.0544 160.891 30.3285 159.897 29.3925C158.923 28.4564 158.159 27.358 157.605 26.0973C157.07 24.8365 156.803 23.4611 156.803 21.9711C156.803 20.481 157.07 19.1056 157.605 17.8449C158.159 16.5841 158.933 15.4857 159.926 14.5496C160.919 13.6136 162.085 12.8877 163.422 12.3719C164.759 11.8562 166.211 11.5983 167.777 11.5983C169.363 11.5983 170.815 11.8562 172.133 12.3719C173.47 12.8877 174.626 13.6136 175.6 14.5496C176.593 15.4857 177.367 16.5841 177.921 17.8449C178.475 19.0865 178.752 20.4619 178.752 21.9711C178.752 23.4611 178.475 24.846 177.921 26.1259C177.367 27.3867 176.593 28.4851 175.6 29.4211C174.626 30.3381 173.47 31.0544 172.133 31.5702C170.815 32.086 169.372 32.3438 167.806 32.3438ZM167.777 28.3896C168.675 28.3896 169.497 28.2368 170.242 27.9311C171.006 27.6255 171.674 27.1861 172.247 26.613C172.82 26.0399 173.26 25.3618 173.565 24.5786C173.89 23.7954 174.053 22.9262 174.053 21.9711C174.053 21.0159 173.89 20.1467 173.565 19.3635C173.26 18.5803 172.82 17.9022 172.247 17.3291C171.693 16.756 171.034 16.3166 170.27 16.011C169.506 15.7054 168.675 15.5525 167.777 15.5525C166.88 15.5525 166.049 15.7054 165.284 16.011C164.539 16.3166 163.88 16.756 163.307 17.3291C162.734 17.9022 162.285 18.5803 161.961 19.3635C161.655 20.1467 161.502 21.0159 161.502 21.9711C161.502 22.9071 161.655 23.7763 161.961 24.5786C162.285 25.3618 162.725 26.0399 163.279 26.613C163.852 27.1861 164.52 27.6255 165.284 27.9311C166.049 28.2368 166.88 28.3896 167.777 28.3896Z" fill="#FEFFFF"/>
<path d="M39.6522 47.6046C38.7519 47.6046 38.0455 47.3514 37.5328 46.845C37.0264 46.3387 36.7732 45.6072 36.7732 44.6507V40.9465H37.9923V44.6038C37.9923 45.279 38.1361 45.7697 38.4237 46.0761C38.7175 46.3824 39.1302 46.5356 39.6616 46.5356C40.193 46.5356 40.6025 46.3824 40.8901 46.0761C41.1776 45.7697 41.3214 45.279 41.3214 44.6038V40.9465H42.5218V44.6507C42.5218 45.6072 42.2655 46.3387 41.7528 46.845C41.2464 47.3514 40.5462 47.6046 39.6522 47.6046ZM46.9658 42.4469C47.366 42.4469 47.7223 42.525 48.0349 42.6813C48.3537 42.8376 48.6038 43.0783 48.7851 43.4034C48.9664 43.7223 49.0571 44.1349 49.0571 44.6413V47.5109H47.8849V44.7913C47.8849 44.3474 47.7786 44.0161 47.566 43.7973C47.3597 43.5785 47.069 43.4691 46.6939 43.4691C46.4188 43.4691 46.175 43.5253 45.9624 43.6379C45.7499 43.7504 45.5842 43.9192 45.4654 44.1443C45.3529 44.3631 45.2966 44.6413 45.2966 44.9789V47.5109H44.1244V42.5032H45.2403V43.8536L45.0434 43.4409C45.2185 43.1221 45.4717 42.8783 45.803 42.7095C46.1406 42.5344 46.5282 42.4469 46.9658 42.4469ZM50.5519 47.5109V40.5526H51.7241V47.5109H50.5519ZM55.5211 47.5765C55.0085 47.5765 54.5521 47.4671 54.152 47.2483C53.7519 47.0232 53.4361 46.7169 53.2048 46.3293C52.9735 45.9417 52.8578 45.5009 52.8578 45.007C52.8578 44.5069 52.9735 44.0661 53.2048 43.6848C53.4361 43.2971 53.7519 42.9939 54.152 42.7751C54.5521 42.5563 55.0085 42.4469 55.5211 42.4469C56.04 42.4469 56.4995 42.5563 56.8996 42.7751C57.306 42.9939 57.6217 43.294 57.8468 43.6754C58.0781 44.0567 58.1938 44.5006 58.1938 45.007C58.1938 45.5009 58.0781 45.9417 57.8468 46.3293C57.6217 46.7169 57.306 47.0232 56.8996 47.2483C56.4995 47.4671 56.04 47.5765 55.5211 47.5765ZM55.5211 46.5731C55.8087 46.5731 56.065 46.5106 56.2901 46.3855C56.5152 46.2605 56.6902 46.0792 56.8152 45.8416C56.9465 45.6041 57.0122 45.3259 57.0122 45.007C57.0122 44.6819 56.9465 44.4037 56.8152 44.1724C56.6902 43.9348 56.5152 43.7535 56.2901 43.6285C56.065 43.5035 55.8118 43.4409 55.5305 43.4409C55.2429 43.4409 54.9866 43.5035 54.7615 43.6285C54.5427 43.7535 54.3677 43.9348 54.2364 44.1724C54.1051 44.4037 54.0394 44.6819 54.0394 45.007C54.0394 45.3259 54.1051 45.6041 54.2364 45.8416C54.3677 46.0792 54.5427 46.2605 54.7615 46.3855C54.9866 46.5106 55.2398 46.5731 55.5211 46.5731ZM61.62 47.5765C61.0949 47.5765 60.626 47.4671 60.2134 47.2483C59.807 47.0232 59.4882 46.7169 59.2569 46.3293C59.0255 45.9417 58.9099 45.5009 58.9099 45.007C58.9099 44.5069 59.0255 44.0661 59.2569 43.6848C59.4882 43.2971 59.807 42.9939 60.2134 42.7751C60.626 42.5563 61.0949 42.4469 61.62 42.4469C62.1077 42.4469 62.5359 42.5469 62.9048 42.747C63.2799 42.9408 63.5644 43.2284 63.7582 43.6097L62.8579 44.1349C62.7079 43.8973 62.5234 43.7223 62.3046 43.6097C62.0921 43.4972 61.8607 43.4409 61.6107 43.4409C61.3231 43.4409 61.0636 43.5035 60.8323 43.6285C60.601 43.7535 60.4197 43.9348 60.2884 44.1724C60.1571 44.4037 60.0915 44.6819 60.0915 45.007C60.0915 45.3321 60.1571 45.6134 60.2884 45.851C60.4197 46.0823 60.601 46.2605 60.8323 46.3855C61.0636 46.5106 61.3231 46.5731 61.6107 46.5731C61.8607 46.5731 62.0921 46.5168 62.3046 46.4043C62.5234 46.2918 62.7079 46.1167 62.8579 45.8791L63.7582 46.4043C63.5644 46.7794 63.2799 47.0701 62.9048 47.2764C62.5359 47.4765 62.1077 47.5765 61.62 47.5765ZM65.69 46.3949L65.7182 44.9226L68.3345 42.5032H69.7412L67.5187 44.7351L66.8998 45.2508L65.69 46.3949ZM64.7335 47.5109V40.5526H65.9057V47.5109H64.7335ZM68.5127 47.5109L66.6841 45.2508L67.4249 44.3131L69.9381 47.5109H68.5127ZM73.7152 49.3958C73.4714 49.3958 73.2276 49.3551 72.9838 49.2739C72.74 49.1926 72.5368 49.0801 72.3742 48.9363L72.8431 48.0735C72.9619 48.1798 73.0963 48.2642 73.2464 48.3267C73.3964 48.3892 73.5496 48.4205 73.7059 48.4205C73.9184 48.4205 74.0904 48.3674 74.2216 48.2611C74.3529 48.1548 74.4748 47.9766 74.5874 47.7266L74.8781 47.0701L74.9719 46.9294L76.8662 42.5032H77.9915L75.6471 47.9141C75.4908 48.2892 75.3157 48.5862 75.1219 48.805C74.9344 49.0238 74.7218 49.177 74.4842 49.2645C74.2529 49.352 73.9966 49.3958 73.7152 49.3958ZM74.7468 47.689L72.4868 42.5032H73.7059L75.5439 46.8263L74.7468 47.689ZM80.8452 47.5765C80.3326 47.5765 79.8762 47.4671 79.4761 47.2483C79.076 47.0232 78.7602 46.7169 78.5289 46.3293C78.2976 45.9417 78.1819 45.5009 78.1819 45.007C78.1819 44.5069 78.2976 44.0661 78.5289 43.6848C78.7602 43.2971 79.076 42.9939 79.4761 42.7751C79.8762 42.5563 80.3326 42.4469 80.8452 42.4469C81.3641 42.4469 81.8236 42.5563 82.2237 42.7751C82.6301 42.9939 82.9458 43.294 83.1709 43.6754C83.4022 44.0567 83.5179 44.5006 83.5179 45.007C83.5179 45.5009 83.4022 45.9417 83.1709 46.3293C82.9458 46.7169 82.6301 47.0232 82.2237 47.2483C81.8236 47.4671 81.3641 47.5765 80.8452 47.5765ZM80.8452 46.5731C81.1328 46.5731 81.3891 46.5106 81.6142 46.3855C81.8393 46.2605 82.0143 46.0792 82.1393 45.8416C82.2706 45.6041 82.3363 45.3259 82.3363 45.007C82.3363 44.6819 82.2706 44.4037 82.1393 44.1724C82.0143 43.9348 81.8393 43.7535 81.6142 43.6285C81.3891 43.5035 81.1359 43.4409 80.8546 43.4409C80.567 43.4409 80.3107 43.5035 80.0856 43.6285C79.8668 43.7535 79.6918 43.9348 79.5605 44.1724C79.4292 44.4037 79.3635 44.6819 79.3635 45.007C79.3635 45.3259 79.4292 45.6041 79.5605 45.8416C79.6918 46.0792 79.8668 46.2605 80.0856 46.3855C80.3107 46.5106 80.5639 46.5731 80.8452 46.5731ZM86.766 47.5765C86.3408 47.5765 85.9657 47.4984 85.6406 47.3421C85.3156 47.1795 85.0624 46.9357 84.8811 46.6106C84.6997 46.2793 84.6091 45.8635 84.6091 45.3634V42.5032H85.7813V45.2039C85.7813 45.6541 85.8813 45.9917 86.0814 46.2167C86.2877 46.4356 86.5784 46.545 86.9535 46.545C87.2286 46.545 87.4662 46.4887 87.6662 46.3762C87.8725 46.2636 88.032 46.0948 88.1445 45.8698C88.2633 45.6447 88.3227 45.3665 88.3227 45.0351V42.5032H89.4949V47.5109H88.3789V46.1605L88.5759 46.5731C88.4071 46.8982 88.1601 47.1483 87.835 47.3233C87.5099 47.4921 87.1536 47.5765 86.766 47.5765ZM91.0375 47.5109V42.5032H92.1534V43.8817L92.0222 43.4784C92.1722 43.1408 92.4066 42.8845 92.7255 42.7095C93.0506 42.5344 93.4538 42.4469 93.9352 42.4469V43.5628C93.8852 43.5503 93.8383 43.5441 93.7945 43.5441C93.7508 43.5378 93.707 43.5347 93.6633 43.5347C93.2194 43.5347 92.8662 43.666 92.6036 43.9286C92.341 44.1849 92.2097 44.5694 92.2097 45.082V47.5109H91.0375ZM100.359 47.5765C99.9522 47.5765 99.5802 47.4827 99.2426 47.2952C98.9112 47.1076 98.6455 46.8263 98.4455 46.4512C98.2517 46.0698 98.1548 45.5884 98.1548 45.007C98.1548 44.4193 98.2485 43.938 98.4361 43.5628C98.6299 43.1877 98.8925 42.9095 99.2238 42.7282C99.5552 42.5407 99.9334 42.4469 100.359 42.4469C100.852 42.4469 101.287 42.5532 101.662 42.7657C102.043 42.9783 102.343 43.2753 102.562 43.6566C102.787 44.038 102.9 44.4881 102.9 45.007C102.9 45.5259 102.787 45.9792 102.562 46.3668C102.343 46.7481 102.043 47.0451 101.662 47.2577C101.287 47.4702 100.852 47.5765 100.359 47.5765ZM97.5827 49.3301V42.5032H98.6987V43.6848L98.6612 45.0164L98.7549 46.348V49.3301H97.5827ZM100.227 46.5731C100.509 46.5731 100.759 46.5106 100.977 46.3855C101.203 46.2605 101.381 46.0792 101.512 45.8416C101.643 45.6041 101.709 45.3259 101.709 45.007C101.709 44.6819 101.643 44.4037 101.512 44.1724C101.381 43.9348 101.203 43.7535 100.977 43.6285C100.759 43.5035 100.509 43.4409 100.227 43.4409C99.9459 43.4409 99.6927 43.5035 99.4676 43.6285C99.2426 43.7535 99.0644 43.9348 98.9331 44.1724C98.8018 44.4037 98.7362 44.6819 98.7362 45.007C98.7362 45.3259 98.8018 45.6041 98.9331 45.8416C99.0644 46.0792 99.2426 46.2605 99.4676 46.3855C99.6927 46.5106 99.9459 46.5731 100.227 46.5731ZM106.27 47.5765C105.757 47.5765 105.301 47.4671 104.901 47.2483C104.501 47.0232 104.185 46.7169 103.954 46.3293C103.722 45.9417 103.607 45.5009 103.607 45.007C103.607 44.5069 103.722 44.0661 103.954 43.6848C104.185 43.2971 104.501 42.9939 104.901 42.7751C105.301 42.5563 105.757 42.4469 106.27 42.4469C106.789 42.4469 107.248 42.5563 107.649 42.7751C108.055 42.9939 108.371 43.294 108.596 43.6754C108.827 44.0567 108.943 44.5006 108.943 45.007C108.943 45.5009 108.827 45.9417 108.596 46.3293C108.371 46.7169 108.055 47.0232 107.649 47.2483C107.248 47.4671 106.789 47.5765 106.27 47.5765ZM106.27 46.5731C106.558 46.5731 106.814 46.5106 107.039 46.3855C107.264 46.2605 107.439 46.0792 107.564 45.8416C107.695 45.6041 107.761 45.3259 107.761 45.007C107.761 44.6819 107.695 44.4037 107.564 44.1724C107.439 43.9348 107.264 43.7535 107.039 43.6285C106.814 43.5035 106.561 43.4409 106.279 43.4409C105.992 43.4409 105.736 43.5035 105.51 43.6285C105.292 43.7535 105.117 43.9348 104.985 44.1724C104.854 44.4037 104.788 44.6819 104.788 45.007C104.788 45.3259 104.854 45.6041 104.985 45.8416C105.117 46.0792 105.292 46.2605 105.51 46.3855C105.736 46.5106 105.989 46.5731 106.27 46.5731ZM111.956 47.5765C111.406 47.5765 110.981 47.4358 110.681 47.1545C110.381 46.8669 110.231 46.4449 110.231 45.8885V41.3966H111.403V45.8604C111.403 46.098 111.462 46.2824 111.581 46.4137C111.706 46.545 111.878 46.6106 112.097 46.6106C112.36 46.6106 112.578 46.5418 112.753 46.4043L113.082 47.2389C112.944 47.3514 112.775 47.4358 112.575 47.4921C112.375 47.5484 112.169 47.5765 111.956 47.5765ZM109.406 43.4784V42.5407H112.744V43.4784H109.406ZM116.243 47.5765C115.686 47.5765 115.199 47.4671 114.78 47.2483C114.367 47.0232 114.045 46.7169 113.814 46.3293C113.589 45.9417 113.476 45.5009 113.476 45.007C113.476 44.5069 113.586 44.0661 113.805 43.6848C114.03 43.2971 114.336 42.9939 114.724 42.7751C115.117 42.5563 115.564 42.4469 116.065 42.4469C116.552 42.4469 116.987 42.5532 117.368 42.7657C117.749 42.9783 118.05 43.2784 118.268 43.666C118.487 44.0536 118.597 44.51 118.597 45.0351C118.597 45.0852 118.593 45.1414 118.587 45.2039C118.587 45.2665 118.584 45.3259 118.578 45.3821H114.405V44.6038H117.959L117.499 44.8476C117.506 44.56 117.446 44.3068 117.321 44.088C117.196 43.8692 117.024 43.6973 116.805 43.5722C116.593 43.4472 116.346 43.3847 116.065 43.3847C115.777 43.3847 115.524 43.4472 115.305 43.5722C115.092 43.6973 114.924 43.8723 114.799 44.0974C114.68 44.3162 114.62 44.5756 114.62 44.8757V45.0633C114.62 45.3634 114.689 45.6291 114.827 45.8604C114.964 46.0917 115.158 46.2699 115.408 46.3949C115.658 46.52 115.946 46.5825 116.271 46.5825C116.552 46.5825 116.805 46.5387 117.03 46.4512C117.256 46.3637 117.456 46.2261 117.631 46.0386L118.259 46.7606C118.034 47.0232 117.749 47.2264 117.406 47.3702C117.068 47.5077 116.68 47.5765 116.243 47.5765ZM122.572 42.4469C122.972 42.4469 123.328 42.525 123.641 42.6813C123.96 42.8376 124.21 43.0783 124.391 43.4034C124.572 43.7223 124.663 44.1349 124.663 44.6413V47.5109H123.491V44.7913C123.491 44.3474 123.385 44.0161 123.172 43.7973C122.966 43.5785 122.675 43.4691 122.3 43.4691C122.025 43.4691 121.781 43.5253 121.568 43.6379C121.356 43.7504 121.19 43.9192 121.071 44.1443C120.959 44.3631 120.903 44.6413 120.903 44.9789V47.5109H119.73V42.5032H120.846V43.8536L120.649 43.4409C120.824 43.1221 121.078 42.8783 121.409 42.7095C121.747 42.5344 122.134 42.4469 122.572 42.4469ZM128.043 47.5765C127.493 47.5765 127.068 47.4358 126.767 47.1545C126.467 46.8669 126.317 46.4449 126.317 45.8885V41.3966H127.49V45.8604C127.49 46.098 127.549 46.2824 127.668 46.4137C127.793 46.545 127.965 46.6106 128.183 46.6106C128.446 46.6106 128.665 46.5418 128.84 46.4043L129.168 47.2389C129.031 47.3514 128.862 47.4358 128.662 47.4921C128.462 47.5484 128.255 47.5765 128.043 47.5765ZM125.492 43.4784V42.5407H128.831V43.4784H125.492ZM130.14 47.5109V42.5032H131.312V47.5109H130.14ZM130.731 41.6779C130.512 41.6779 130.331 41.6092 130.187 41.4716C130.05 41.3341 129.981 41.1684 129.981 40.9746C129.981 40.7745 130.05 40.6089 130.187 40.4776C130.331 40.34 130.512 40.2713 130.731 40.2713C130.95 40.2713 131.128 40.3369 131.266 40.4682C131.409 40.5932 131.481 40.7527 131.481 40.9465C131.481 41.1528 131.412 41.3278 131.275 41.4716C131.137 41.6092 130.956 41.6779 130.731 41.6779ZM135.944 47.5109V46.4981L135.878 46.2824V44.51C135.878 44.1661 135.775 43.9004 135.569 43.7129C135.363 43.5191 135.05 43.4222 134.631 43.4222C134.35 43.4222 134.072 43.4659 133.797 43.5535C133.528 43.641 133.3 43.7629 133.112 43.9192L132.652 43.0658C132.921 42.8595 133.24 42.7063 133.609 42.6063C133.984 42.5 134.372 42.4469 134.772 42.4469C135.497 42.4469 136.057 42.6219 136.45 42.9721C136.851 43.3159 137.051 43.8504 137.051 44.5756V47.5109H135.944ZM134.369 47.5765C133.994 47.5765 133.665 47.514 133.384 47.389C133.103 47.2577 132.884 47.0795 132.728 46.8544C132.577 46.6231 132.502 46.3637 132.502 46.0761C132.502 45.7947 132.568 45.5415 132.699 45.3165C132.837 45.0914 133.059 44.9132 133.365 44.7819C133.672 44.6507 134.078 44.585 134.584 44.585H136.038V45.3634H134.669C134.269 45.3634 134 45.429 133.862 45.5603C133.725 45.6853 133.656 45.8416 133.656 46.0292C133.656 46.2417 133.74 46.4105 133.909 46.5356C134.078 46.6606 134.312 46.7231 134.612 46.7231C134.9 46.7231 135.156 46.6575 135.381 46.5262C135.613 46.3949 135.778 46.2011 135.878 45.9448L136.075 46.6481C135.963 46.9419 135.76 47.1701 135.466 47.3327C135.178 47.4952 134.812 47.5765 134.369 47.5765ZM138.563 47.5109V40.5526H139.735V47.5109H138.563ZM145.766 47.5765C145.216 47.5765 144.791 47.4358 144.49 47.1545C144.19 46.8669 144.04 46.4449 144.04 45.8885V41.3966H145.213V45.8604C145.213 46.098 145.272 46.2824 145.391 46.4137C145.516 46.545 145.688 46.6106 145.906 46.6106C146.169 46.6106 146.388 46.5418 146.563 46.4043L146.891 47.2389C146.754 47.3514 146.585 47.4358 146.385 47.4921C146.185 47.5484 145.978 47.5765 145.766 47.5765ZM143.215 43.4784V42.5407H146.554V43.4784H143.215ZM149.949 47.5765C149.436 47.5765 148.98 47.4671 148.58 47.2483C148.18 47.0232 147.864 46.7169 147.633 46.3293C147.401 45.9417 147.286 45.5009 147.286 45.007C147.286 44.5069 147.401 44.0661 147.633 43.6848C147.864 43.2971 148.18 42.9939 148.58 42.7751C148.98 42.5563 149.436 42.4469 149.949 42.4469C150.468 42.4469 150.927 42.5563 151.328 42.7751C151.734 42.9939 152.05 43.294 152.275 43.6754C152.506 44.0567 152.622 44.5006 152.622 45.007C152.622 45.5009 152.506 45.9417 152.275 46.3293C152.05 46.7169 151.734 47.0232 151.328 47.2483C150.927 47.4671 150.468 47.5765 149.949 47.5765ZM149.949 46.5731C150.237 46.5731 150.493 46.5106 150.718 46.3855C150.943 46.2605 151.118 46.0792 151.243 45.8416C151.374 45.6041 151.44 45.3259 151.44 45.007C151.44 44.6819 151.374 44.4037 151.243 44.1724C151.118 43.9348 150.943 43.7535 150.718 43.6285C150.493 43.5035 150.24 43.4409 149.958 43.4409C149.671 43.4409 149.415 43.5035 149.189 43.6285C148.971 43.7535 148.796 43.9348 148.664 44.1724C148.533 44.4037 148.467 44.6819 148.467 45.007C148.467 45.3259 148.533 45.6041 148.664 45.8416C148.796 46.0792 148.971 46.2605 149.189 46.3855C149.415 46.5106 149.668 46.5731 149.949 46.5731ZM155.87 47.5765C155.388 47.5765 154.954 47.4702 154.566 47.2577C154.185 47.0389 153.885 46.7388 153.666 46.3574C153.447 45.976 153.338 45.5259 153.338 45.007C153.338 44.4881 153.447 44.038 153.666 43.6566C153.885 43.2753 154.185 42.9783 154.566 42.7657C154.954 42.5532 155.388 42.4469 155.87 42.4469C156.289 42.4469 156.664 42.5407 156.995 42.7282C157.326 42.9095 157.589 43.1877 157.783 43.5628C157.977 43.938 158.074 44.4193 158.074 45.007C158.074 45.5884 157.98 46.0698 157.792 46.4512C157.605 46.8263 157.345 47.1076 157.014 47.2952C156.683 47.4827 156.301 47.5765 155.87 47.5765ZM156.01 46.5731C156.292 46.5731 156.542 46.5106 156.761 46.3855C156.986 46.2605 157.164 46.0792 157.295 45.8416C157.433 45.6041 157.502 45.3259 157.502 45.007C157.502 44.6819 157.433 44.4037 157.295 44.1724C157.164 43.9348 156.986 43.7535 156.761 43.6285C156.542 43.5035 156.292 43.4409 156.01 43.4409C155.729 43.4409 155.476 43.5035 155.251 43.6285C155.032 43.7535 154.854 43.9348 154.716 44.1724C154.585 44.4037 154.519 44.6819 154.519 45.007C154.519 45.3259 154.585 45.6041 154.716 45.8416C154.854 46.0792 155.032 46.2605 155.251 46.3855C155.476 46.5106 155.729 46.5731 156.01 46.5731ZM157.53 47.5109V46.3293L157.577 44.9976L157.483 43.666V40.5526H158.646V47.5109H157.53ZM163.282 47.5109V46.4981L163.216 46.2824V44.51C163.216 44.1661 163.113 43.9004 162.906 43.7129C162.7 43.5191 162.388 43.4222 161.969 43.4222C161.687 43.4222 161.409 43.4659 161.134 43.5535C160.865 43.641 160.637 43.7629 160.45 43.9192L159.99 43.0658C160.259 42.8595 160.578 42.7063 160.947 42.6063C161.322 42.5 161.709 42.4469 162.109 42.4469C162.835 42.4469 163.394 42.6219 163.788 42.9721C164.188 43.3159 164.388 43.8504 164.388 44.5756V47.5109H163.282ZM161.706 47.5765C161.331 47.5765 161.003 47.514 160.721 47.389C160.44 47.2577 160.221 47.0795 160.065 46.8544C159.915 46.6231 159.84 46.3637 159.84 46.0761C159.84 45.7947 159.906 45.5415 160.037 45.3165C160.174 45.0914 160.396 44.9132 160.703 44.7819C161.009 44.6507 161.415 44.585 161.922 44.585H163.375V45.3634H162.006C161.606 45.3634 161.337 45.429 161.2 45.5603C161.062 45.6853 160.993 45.8416 160.993 46.0292C160.993 46.2417 161.078 46.4105 161.247 46.5356C161.415 46.6606 161.65 46.7231 161.95 46.7231C162.238 46.7231 162.494 46.6575 162.719 46.5262C162.95 46.3949 163.116 46.2011 163.216 45.9448L163.413 46.6481C163.3 46.9419 163.097 47.1701 162.803 47.3327C162.516 47.4952 162.15 47.5765 161.706 47.5765ZM166.221 49.3958C165.978 49.3958 165.734 49.3551 165.49 49.2739C165.246 49.1926 165.043 49.0801 164.88 48.9363L165.349 48.0735C165.468 48.1798 165.602 48.2642 165.753 48.3267C165.903 48.3892 166.056 48.4205 166.212 48.4205C166.425 48.4205 166.596 48.3674 166.728 48.2611C166.859 48.1548 166.981 47.9766 167.094 47.7266L167.384 47.0701L167.478 46.9294L169.372 42.5032H170.498L168.153 47.9141C167.997 48.2892 167.822 48.5862 167.628 48.805C167.44 49.0238 167.228 49.177 166.99 49.2645C166.759 49.352 166.503 49.3958 166.221 49.3958ZM167.253 47.689L164.993 42.5032H166.212L168.05 46.8263L167.253 47.689Z" fill="#FCFCFD"/>
<defs>
<clipPath id="clip0_176_1185">
<rect width="20.8394" height="13.8061" fill="white" transform="translate(5.99121 19.7975)"/>
</clipPath>
</defs>
</svg>
