<svg width="175" height="50" viewBox="0 0 175 50" fill="none" xmlns="http://www.w3.org/2000/svg">
<path fill-rule="evenodd" clip-rule="evenodd" d="M26.9154 14.2239C23.9586 11.2607 19.9483 9.59595 15.7667 9.59595C11.5851 9.59595 7.5748 11.2607 4.61795 14.2239C1.66113 17.1872 0 21.2062 0 25.3967C0 31.9384 4.97528 38.7924 14.7156 46.1136C15.0188 46.3414 15.3876 46.4646 15.7667 46.4646C16.1457 46.4646 16.5146 46.3414 16.8178 46.1136C26.5581 38.7924 31.5334 31.9384 31.5334 25.3967C31.5334 21.2062 29.8724 17.1872 26.9154 14.2239ZM15.7667 38.1252C22.878 38.1252 28.6427 32.348 28.6427 25.2212C28.6427 18.0945 22.878 12.3172 15.7667 12.3172C8.65541 12.3172 2.89055 18.0945 2.89055 25.2212C2.89055 32.348 8.65541 38.1252 15.7667 38.1252Z" fill="#1D4FD7"/>
<mask id="mask0_45_1087" style="mask-type:luminance" maskUnits="userSpaceOnUse" x="5" y="19" width="21" height="14">
<path d="M25.9537 19.1919H5.79541V32.5757H25.9537V19.1919Z" fill="white"/>
</mask>
<g mask="url(#mask0_45_1087)">
<path d="M21.3166 25.3611L21.4741 28.1144C21.4974 28.5154 21.2583 28.8871 20.7567 29.2298C20.2551 29.5725 19.5697 29.8442 18.7006 30.0444C17.8315 30.2449 16.8895 30.3452 15.8746 30.3452C14.8597 30.3452 13.9177 30.2449 13.0486 30.0444C12.1795 29.8442 11.4941 29.5725 10.9925 29.2298C10.4909 28.8871 10.2517 28.5154 10.275 28.1144L10.4325 25.3611L15.4546 26.9381C15.5829 26.9788 15.7229 26.9992 15.8746 26.9992C16.0262 26.9992 16.1662 26.9788 16.2946 26.9381L21.3166 25.3611ZM25.9537 22.5379C25.9537 22.6715 25.8895 22.7615 25.7612 22.808L15.9621 25.875C15.9387 25.8808 15.9096 25.8838 15.8746 25.8838C15.8396 25.8838 15.8104 25.8808 15.7871 25.875L10.0826 24.0801C9.83174 24.2776 9.62469 24.6015 9.46136 25.0517C9.29805 25.502 9.19887 26.0204 9.16389 26.607C9.53135 26.8161 9.7151 27.1328 9.7151 27.5568C9.7151 27.9576 9.54594 28.2684 9.20764 28.4891L9.7151 32.2621C9.72676 32.3434 9.70343 32.4159 9.6451 32.4798C9.59259 32.5437 9.52261 32.5757 9.4351 32.5757H7.75525C7.66777 32.5757 7.59777 32.5437 7.54525 32.4798C7.48695 32.4159 7.46361 32.3434 7.47528 32.2621L7.98274 28.4891C7.64443 28.2684 7.47528 27.9576 7.47528 27.5568C7.47528 27.1328 7.66484 26.8103 8.04397 26.5896C8.10813 25.3871 8.39395 24.4287 8.90141 23.7142L5.9879 22.808C5.85956 22.7615 5.79541 22.6715 5.79541 22.5379C5.79541 22.4042 5.85956 22.3142 5.9879 22.2677L15.7871 19.2006C15.8104 19.1948 15.8396 19.1919 15.8746 19.1919C15.9096 19.1919 15.9387 19.1948 15.9621 19.2006L25.7612 22.2677C25.8895 22.3142 25.9537 22.4042 25.9537 22.5379Z" fill="#1D4FD7"/>
</g>
<path d="M43.4489 31.1414C41.8967 31.1414 40.4092 30.9376 38.9863 30.5303C37.5634 30.1043 36.4179 29.5581 35.5493 28.8914L37.0738 25.5025C37.9053 26.0952 38.8848 26.5858 40.0119 26.9747C41.1576 27.3452 42.3124 27.5303 43.4766 27.5303C44.3635 27.5303 45.0749 27.4469 45.6108 27.2803C46.1652 27.0952 46.5716 26.8452 46.8304 26.5303C47.0892 26.2154 47.2185 25.8543 47.2185 25.4469C47.2185 24.9284 47.0151 24.521 46.6087 24.2247C46.2022 23.9099 45.6663 23.6599 45.0011 23.4747C44.3358 23.271 43.5968 23.0858 42.7836 22.9192C41.9891 22.734 41.1853 22.5118 40.3722 22.2525C39.5777 21.9932 38.8477 21.6599 38.1825 21.2525C37.5173 20.8451 36.9722 20.3081 36.5472 19.6414C36.1407 18.9747 35.9374 18.1229 35.9374 17.0858C35.9374 15.9747 36.2329 14.9654 36.8243 14.0581C37.4341 13.1321 38.3395 12.4007 39.5407 11.8636C40.7602 11.3081 42.2847 11.0303 44.1141 11.0303C45.3337 11.0303 46.5349 11.1784 47.7174 11.4747C48.8999 11.7525 49.9441 12.1784 50.8495 12.7525L49.4636 16.1692C48.5582 15.6507 47.6526 15.271 46.7473 15.0303C45.8419 14.771 44.9549 14.6414 44.0864 14.6414C43.2178 14.6414 42.5065 14.7432 41.9521 14.9469C41.3978 15.1507 41.0004 15.4192 40.7602 15.7525C40.5201 16.0673 40.3999 16.4377 40.3999 16.8636C40.3999 17.3636 40.6033 17.771 41.0097 18.0858C41.4161 18.3821 41.9521 18.6229 42.6173 18.8081C43.2826 18.9932 44.0125 19.1784 44.807 19.3636C45.6202 19.5488 46.424 19.7618 47.2185 20.0025C48.0316 20.2432 48.7707 20.5673 49.4359 20.9747C50.1011 21.3821 50.6371 21.9192 51.0435 22.5858C51.4686 23.2525 51.681 24.0951 51.681 25.1136C51.681 26.2063 51.3761 27.2063 50.7663 28.1136C50.1566 29.0209 49.2419 29.7525 48.0223 30.3081C46.8211 30.8636 45.2966 31.1414 43.4489 31.1414ZM64.1454 31.1414C62.6303 31.1414 61.2167 30.8914 59.9046 30.3914C58.6112 29.8914 57.4841 29.1876 56.5231 28.2803C55.5807 27.373 54.8416 26.3081 54.3056 25.0858C53.7883 23.8636 53.5295 22.5303 53.5295 21.0858C53.5295 19.6414 53.7883 18.3081 54.3056 17.0858C54.8416 15.8636 55.59 14.7988 56.5508 13.8914C57.5118 12.984 58.6389 12.2803 59.9323 11.7803C61.226 11.2803 62.6303 11.0303 64.1454 11.0303C65.6792 11.0303 67.0835 11.2803 68.3585 11.7803C69.6522 12.2803 70.77 12.984 71.7124 13.8914C72.6734 14.7803 73.4218 15.8358 73.9575 17.0581C74.4935 18.2803 74.7613 19.6229 74.7613 21.0858C74.7613 22.5303 74.4935 23.8729 73.9575 25.1136C73.4218 26.3358 72.6734 27.4007 71.7124 28.3081C70.77 29.1969 69.6522 29.8914 68.3585 30.3914C67.0835 30.8914 65.6792 31.1414 64.1454 31.1414ZM70.4928 35.2803C69.7353 35.2803 69.0147 35.1969 68.3308 35.0303C67.6656 34.8636 67.0004 34.5952 66.3351 34.2247C65.6886 33.8543 65.0047 33.3543 64.284 32.7247C63.582 32.0952 62.815 31.3174 61.9834 30.3914L66.6955 29.1969C67.1944 29.882 67.6565 30.4285 68.0813 30.8358C68.5064 31.2432 68.9129 31.5303 69.3009 31.6969C69.7076 31.8636 70.1325 31.9469 70.5759 31.9469C71.7587 31.9469 72.812 31.4654 73.7358 30.5025L75.7314 32.8914C74.4196 34.4841 72.6734 35.2803 70.4928 35.2803ZM64.1454 27.3081C65.014 27.3081 65.8085 27.1598 66.5292 26.8636C67.2685 26.5674 67.915 26.1414 68.4694 25.5858C69.0238 25.0303 69.4488 24.3729 69.7444 23.6136C70.0586 22.8358 70.2156 21.9932 70.2156 21.0858C70.2156 20.1599 70.0586 19.3173 69.7444 18.5581C69.4488 17.7988 69.0238 17.1414 68.4694 16.5858C67.915 16.0303 67.2685 15.6043 66.5292 15.3081C65.8085 15.0118 65.014 14.8636 64.1454 14.8636C63.2771 14.8636 62.4733 15.0118 61.734 15.3081C60.9949 15.6043 60.3481 16.0303 59.7938 16.5858C59.258 17.1414 58.833 17.7988 58.5187 18.5581C58.2232 19.3173 58.0753 20.1599 58.0753 21.0858C58.0753 21.9932 58.2232 22.8358 58.5187 23.6136C58.833 24.3729 59.258 25.0303 59.7938 25.5858C60.3481 26.1414 60.9949 26.5674 61.734 26.8636C62.4733 27.1598 63.2771 27.3081 64.1454 27.3081ZM78.1361 30.8081V11.3636H82.6263V27.1414H92.3553V30.8081H78.1361ZM94.005 24.7247V21.2525H101.849V24.7247H94.005ZM108.546 30.8081V15.0303H102.338V11.3636H119.245V15.0303H113.037V30.8081H108.546ZM125.939 30.8081L119.592 11.3636H124.248L129.764 28.5858H127.436L133.201 11.3636H137.359L142.902 28.5858H140.657L146.312 11.3636H150.608L144.26 30.8081H139.438L134.532 15.6969H135.807L130.762 30.8081H125.939ZM162.322 31.1414C160.789 31.1414 159.366 30.8914 158.054 30.3914C156.76 29.8914 155.633 29.1876 154.672 28.2803C153.73 27.373 152.991 26.3081 152.455 25.0858C151.937 23.8636 151.678 22.5303 151.678 21.0858C151.678 19.6414 151.937 18.3081 152.455 17.0858C152.991 15.8636 153.739 14.7988 154.7 13.8914C155.661 12.984 156.788 12.2803 158.081 11.7803C159.375 11.2803 160.779 11.0303 162.294 11.0303C163.828 11.0303 165.232 11.2803 166.507 11.7803C167.801 12.2803 168.919 12.984 169.861 13.8914C170.822 14.7988 171.571 15.8636 172.106 17.0858C172.642 18.2895 172.91 19.6229 172.91 21.0858C172.91 22.5303 172.642 23.8729 172.106 25.1136C171.571 26.3358 170.822 27.4007 169.861 28.3081C168.919 29.1969 167.801 29.8914 166.507 30.3914C165.232 30.8914 163.837 31.1414 162.322 31.1414ZM162.294 27.3081C163.163 27.3081 163.957 27.1598 164.678 26.8636C165.417 26.5674 166.064 26.1414 166.618 25.5858C167.173 25.0303 167.598 24.3729 167.893 23.6136C168.208 22.8543 168.365 22.0118 168.365 21.0858C168.365 20.1599 168.208 19.3173 167.893 18.5581C167.598 17.7988 167.173 17.1414 166.618 16.5858C166.083 16.0303 165.445 15.6043 164.706 15.3081C163.967 15.0118 163.163 14.8636 162.294 14.8636C161.426 14.8636 160.622 15.0118 159.883 15.3081C159.162 15.6043 158.525 16.0303 157.97 16.5858C157.416 17.1414 156.982 17.7988 156.668 18.5581C156.372 19.3173 156.224 20.1599 156.224 21.0858C156.224 21.9932 156.372 22.8358 156.668 23.6136C156.982 24.3729 157.407 25.0303 157.943 25.5858C158.497 26.1414 159.144 26.5674 159.883 26.8636C160.622 27.1598 161.426 27.3081 162.294 27.3081Z" fill="#1D4FD7"/>
<path d="M38.3562 46.5556C37.4853 46.5556 36.802 46.3101 36.3061 45.8192C35.8162 45.3283 35.5713 44.6192 35.5713 43.6919V40.101H36.7506V43.6465C36.7506 44.301 36.8896 44.7768 37.1678 45.0737C37.4521 45.3707 37.8512 45.5192 38.3652 45.5192C38.8793 45.5192 39.2754 45.3707 39.5536 45.0737C39.8318 44.7768 39.9708 44.301 39.9708 43.6465V40.101H41.132V43.6919C41.132 44.6192 40.884 45.3283 40.3881 45.8192C39.8983 46.3101 39.221 46.5556 38.3562 46.5556ZM45.4307 41.5556C45.8178 41.5556 46.1625 41.6313 46.4649 41.7828C46.7733 41.9344 47.0152 42.1677 47.1906 42.4828C47.3659 42.7919 47.4536 43.1919 47.4536 43.6828V46.4647H46.3197V43.8283C46.3197 43.398 46.2169 43.0768 46.0113 42.8647C45.8117 42.6525 45.5305 42.5465 45.1677 42.5465C44.9016 42.5465 44.6657 42.601 44.4601 42.7101C44.2545 42.8192 44.0942 42.9828 43.9793 43.201C43.8705 43.4131 43.816 43.6828 43.816 44.0101V46.4647H42.6821V41.6101H43.7616V42.9192L43.5711 42.5192C43.7405 42.2101 43.9854 41.9737 44.3059 41.8101C44.6325 41.6404 45.0074 41.5556 45.4307 41.5556ZM48.8997 46.4647V39.7192H50.0336V46.4647H48.8997ZM53.7065 46.5283C53.2106 46.5283 52.7691 46.4222 52.3821 46.2101C51.995 45.9919 51.6896 45.695 51.4659 45.3192C51.2421 44.9434 51.1302 44.5162 51.1302 44.0374C51.1302 43.5525 51.2421 43.1253 51.4659 42.7556C51.6896 42.3798 51.995 42.0859 52.3821 41.8737C52.7691 41.6616 53.2106 41.5556 53.7065 41.5556C54.2084 41.5556 54.6529 41.6616 55.04 41.8737C55.433 42.0859 55.7384 42.3768 55.9562 42.7465C56.1799 43.1162 56.2918 43.5465 56.2918 44.0374C56.2918 44.5162 56.1799 44.9434 55.9562 45.3192C55.7384 45.695 55.433 45.9919 55.04 46.2101C54.6529 46.4222 54.2084 46.5283 53.7065 46.5283ZM53.7065 45.5556C53.9847 45.5556 54.2326 45.495 54.4503 45.3737C54.668 45.2525 54.8374 45.0768 54.9583 44.8465C55.0853 44.6162 55.1488 44.3465 55.1488 44.0374C55.1488 43.7222 55.0853 43.4525 54.9583 43.2283C54.8374 42.998 54.668 42.8222 54.4503 42.701C54.2326 42.5798 53.9877 42.5192 53.7156 42.5192C53.4374 42.5192 53.1894 42.5798 52.9717 42.701C52.7601 42.8222 52.5907 42.998 52.4637 43.2283C52.3367 43.4525 52.2732 43.7222 52.2732 44.0374C52.2732 44.3465 52.3367 44.6162 52.4637 44.8465C52.5907 45.0768 52.7601 45.2525 52.9717 45.3737C53.1894 45.495 53.4343 45.5556 53.7065 45.5556ZM59.6061 46.5283C59.0981 46.5283 58.6445 46.4222 58.2454 46.2101C57.8523 45.9919 57.5439 45.695 57.3201 45.3192C57.0964 44.9434 56.9845 44.5162 56.9845 44.0374C56.9845 43.5525 57.0964 43.1253 57.3201 42.7556C57.5439 42.3798 57.8523 42.0859 58.2454 41.8737C58.6445 41.6616 59.0981 41.5556 59.6061 41.5556C60.0778 41.5556 60.492 41.6525 60.8488 41.8465C61.2117 42.0344 61.4868 42.3131 61.6743 42.6828L60.8035 43.1919C60.6583 42.9616 60.4799 42.7919 60.2683 42.6828C60.0627 42.5737 59.8389 42.5192 59.597 42.5192C59.3188 42.5192 59.0678 42.5798 58.8441 42.701C58.6203 42.8222 58.445 42.998 58.318 43.2283C58.191 43.4525 58.1275 43.7222 58.1275 44.0374C58.1275 44.3525 58.191 44.6253 58.318 44.8556C58.445 45.0798 58.6203 45.2525 58.8441 45.3737C59.0678 45.495 59.3188 45.5556 59.597 45.5556C59.8389 45.5556 60.0627 45.501 60.2683 45.3919C60.4799 45.2828 60.6583 45.1131 60.8035 44.8828L61.6743 45.3919C61.4868 45.7556 61.2117 46.0374 60.8488 46.2374C60.492 46.4313 60.0778 46.5283 59.6061 46.5283ZM63.543 45.3828L63.5702 43.9556L66.1011 41.6101H67.4618L65.3119 43.7737L64.7132 44.2737L63.543 45.3828ZM62.6177 46.4647V39.7192H63.7516V46.4647H62.6177ZM66.2734 46.4647L64.5046 44.2737L65.2212 43.3647L67.6523 46.4647H66.2734ZM71.306 48.2919C71.0701 48.2919 70.8343 48.2525 70.5984 48.1737C70.3626 48.095 70.166 47.9859 70.0088 47.8465L70.4623 47.0101C70.5772 47.1131 70.7073 47.195 70.8524 47.2556C70.9975 47.3162 71.1457 47.3465 71.2969 47.3465C71.5025 47.3465 71.6688 47.295 71.7958 47.1919C71.9228 47.0889 72.0407 46.9162 72.1496 46.6737L72.4308 46.0374L72.5215 45.901L74.3539 41.6101H75.4425L73.1746 46.8556C73.0235 47.2192 72.8541 47.5071 72.6667 47.7192C72.4852 47.9313 72.2796 48.0798 72.0498 48.1647C71.8261 48.2495 71.5781 48.2919 71.306 48.2919ZM72.3038 46.6374L70.1176 41.6101H71.2969L73.0749 45.801L72.3038 46.6374ZM78.2029 46.5283C77.707 46.5283 77.2655 46.4222 76.8785 46.2101C76.4915 45.9919 76.1861 45.695 75.9623 45.3192C75.7385 44.9434 75.6267 44.5162 75.6267 44.0374C75.6267 43.5525 75.7385 43.1253 75.9623 42.7556C76.1861 42.3798 76.4915 42.0859 76.8785 41.8737C77.2655 41.6616 77.707 41.5556 78.2029 41.5556C78.7048 41.5556 79.1493 41.6616 79.5364 41.8737C79.9295 42.0859 80.2349 42.3768 80.4526 42.7465C80.6763 43.1162 80.7882 43.5465 80.7882 44.0374C80.7882 44.5162 80.6763 44.9434 80.4526 45.3192C80.2349 45.695 79.9295 45.9919 79.5364 46.2101C79.1493 46.4222 78.7048 46.5283 78.2029 46.5283ZM78.2029 45.5556C78.4811 45.5556 78.729 45.495 78.9467 45.3737C79.1644 45.2525 79.3338 45.0768 79.4547 44.8465C79.5817 44.6162 79.6452 44.3465 79.6452 44.0374C79.6452 43.7222 79.5817 43.4525 79.4547 43.2283C79.3338 42.998 79.1644 42.8222 78.9467 42.701C78.729 42.5798 78.4841 42.5192 78.212 42.5192C77.9338 42.5192 77.6858 42.5798 77.4681 42.701C77.2565 42.8222 77.0871 42.998 76.9601 43.2283C76.8331 43.4525 76.7696 43.7222 76.7696 44.0374C76.7696 44.3465 76.8331 44.6162 76.9601 44.8465C77.0871 45.0768 77.2565 45.2525 77.4681 45.3737C77.6858 45.495 77.9308 45.5556 78.2029 45.5556ZM83.9304 46.5283C83.5191 46.5283 83.1563 46.4525 82.8418 46.301C82.5274 46.1434 82.2824 45.9071 82.1071 45.5919C81.9317 45.2707 81.844 44.8677 81.844 44.3828V41.6101H82.9779V44.2283C82.9779 44.6647 83.0747 44.9919 83.2682 45.2101C83.4677 45.4222 83.749 45.5283 84.1118 45.5283C84.3779 45.5283 84.6077 45.4737 84.8012 45.3647C85.0008 45.2556 85.155 45.0919 85.2639 44.8737C85.3788 44.6556 85.4362 44.3859 85.4362 44.0647V41.6101H86.5701V46.4647H85.4906V45.1556L85.6811 45.5556C85.5178 45.8707 85.279 46.1131 84.9645 46.2828C84.65 46.4465 84.3053 46.5283 83.9304 46.5283ZM88.0621 46.4647V41.6101H89.1416V42.9465L89.0146 42.5556C89.1597 42.2283 89.3865 41.9798 89.6949 41.8101C90.0094 41.6404 90.3994 41.5556 90.8651 41.5556V42.6374C90.8167 42.6253 90.7714 42.6192 90.729 42.6192C90.6867 42.6131 90.6444 42.6101 90.602 42.6101C90.1727 42.6101 89.831 42.7374 89.577 42.9919C89.323 43.2404 89.196 43.6131 89.196 44.1101V46.4647H88.0621ZM97.0787 46.5283C96.6856 46.5283 96.3257 46.4374 95.9992 46.2556C95.6787 46.0737 95.4216 45.801 95.2281 45.4374C95.0406 45.0677 94.9469 44.601 94.9469 44.0374C94.9469 43.4677 95.0376 43.001 95.2191 42.6374C95.4065 42.2737 95.6605 42.004 95.981 41.8283C96.3016 41.6465 96.6674 41.5556 97.0787 41.5556C97.5564 41.5556 97.9767 41.6586 98.3396 41.8647C98.7085 42.0707 98.9987 42.3586 99.2104 42.7283C99.4281 43.098 99.537 43.5344 99.537 44.0374C99.537 44.5404 99.4281 44.9798 99.2104 45.3556C98.9987 45.7253 98.7085 46.0131 98.3396 46.2192C97.9767 46.4253 97.5564 46.5283 97.0787 46.5283ZM94.3936 48.2283V41.6101H95.473V42.7556L95.4368 44.0465L95.5275 45.3374V48.2283H94.3936ZM96.9517 45.5556C97.2238 45.5556 97.4657 45.495 97.6774 45.3737C97.8951 45.2525 98.0674 45.0768 98.1944 44.8465C98.3214 44.6162 98.3849 44.3465 98.3849 44.0374C98.3849 43.7222 98.3214 43.4525 98.1944 43.2283C98.0674 42.998 97.8951 42.8222 97.6774 42.701C97.4657 42.5798 97.2238 42.5192 96.9517 42.5192C96.6795 42.5192 96.4346 42.5798 96.2169 42.701C95.9992 42.8222 95.8268 42.998 95.6998 43.2283C95.5728 43.4525 95.5093 43.7222 95.5093 44.0374C95.5093 44.3465 95.5728 44.6162 95.6998 44.8465C95.8268 45.0768 95.9992 45.2525 96.2169 45.3737C96.4346 45.495 96.6795 45.5556 96.9517 45.5556ZM102.797 46.5283C102.301 46.5283 101.86 46.4222 101.473 46.2101C101.086 45.9919 100.78 45.695 100.556 45.3192C100.333 44.9434 100.221 44.5162 100.221 44.0374C100.221 43.5525 100.333 43.1253 100.556 42.7556C100.78 42.3798 101.086 42.0859 101.473 41.8737C101.86 41.6616 102.301 41.5556 102.797 41.5556C103.299 41.5556 103.744 41.6616 104.131 41.8737C104.524 42.0859 104.829 42.3768 105.047 42.7465C105.27 43.1162 105.382 43.5465 105.382 44.0374C105.382 44.5162 105.27 44.9434 105.047 45.3192C104.829 45.695 104.524 45.9919 104.131 46.2101C103.744 46.4222 103.299 46.5283 102.797 46.5283ZM102.797 45.5556C103.075 45.5556 103.323 45.495 103.541 45.3737C103.759 45.2525 103.928 45.0768 104.049 44.8465C104.176 44.6162 104.239 44.3465 104.239 44.0374C104.239 43.7222 104.176 43.4525 104.049 43.2283C103.928 42.998 103.759 42.8222 103.541 42.701C103.323 42.5798 103.078 42.5192 102.806 42.5192C102.528 42.5192 102.28 42.5798 102.062 42.701C101.851 42.8222 101.681 42.998 101.554 43.2283C101.427 43.4525 101.364 43.7222 101.364 44.0374C101.364 44.3465 101.427 44.6162 101.554 44.8465C101.681 45.0768 101.851 45.2525 102.062 45.3737C102.28 45.495 102.525 45.5556 102.797 45.5556ZM108.298 46.5283C107.765 46.5283 107.354 46.3919 107.064 46.1192C106.774 45.8404 106.628 45.4313 106.628 44.8919V40.5374H107.762V44.8647C107.762 45.095 107.82 45.2737 107.935 45.401C108.056 45.5283 108.222 45.5919 108.434 45.5919C108.688 45.5919 108.899 45.5253 109.069 45.3919L109.386 46.201C109.253 46.3101 109.09 46.3919 108.896 46.4465C108.703 46.501 108.503 46.5283 108.298 46.5283ZM105.83 42.5556V41.6465H109.06V42.5556H105.83ZM112.444 46.5283C111.906 46.5283 111.434 46.4222 111.029 46.2101C110.63 45.9919 110.318 45.695 110.094 45.3192C109.877 44.9434 109.768 44.5162 109.768 44.0374C109.768 43.5525 109.874 43.1253 110.085 42.7556C110.303 42.3798 110.599 42.0859 110.974 41.8737C111.355 41.6616 111.788 41.5556 112.271 41.5556C112.743 41.5556 113.163 41.6586 113.532 41.8647C113.901 42.0707 114.192 42.3616 114.403 42.7374C114.615 43.1131 114.721 43.5556 114.721 44.0647C114.721 44.1131 114.718 44.1677 114.712 44.2283C114.712 44.2889 114.709 44.3465 114.703 44.401H110.666V43.6465H114.104L113.659 43.8828C113.665 43.604 113.608 43.3586 113.487 43.1465C113.366 42.9344 113.2 42.7677 112.988 42.6465C112.783 42.5253 112.544 42.4647 112.271 42.4647C111.993 42.4647 111.748 42.5253 111.537 42.6465C111.331 42.7677 111.168 42.9374 111.047 43.1556C110.932 43.3677 110.875 43.6192 110.875 43.9101V44.0919C110.875 44.3828 110.941 44.6404 111.074 44.8647C111.207 45.0889 111.395 45.2616 111.637 45.3828C111.878 45.5041 112.157 45.5647 112.471 45.5647C112.743 45.5647 112.988 45.5222 113.206 45.4374C113.424 45.3525 113.617 45.2192 113.786 45.0374L114.394 45.7374C114.176 45.9919 113.901 46.1889 113.569 46.3283C113.242 46.4616 112.867 46.5283 112.444 46.5283ZM118.566 41.5556C118.953 41.5556 119.298 41.6313 119.6 41.7828C119.908 41.9344 120.15 42.1677 120.326 42.4828C120.501 42.7919 120.589 43.1919 120.589 43.6828V46.4647H119.455V43.8283C119.455 43.398 119.352 43.0768 119.146 42.8647C118.947 42.6525 118.666 42.5465 118.303 42.5465C118.037 42.5465 117.801 42.601 117.595 42.7101C117.39 42.8192 117.229 42.9828 117.115 43.201C117.006 43.4131 116.951 43.6828 116.951 44.0101V46.4647H115.817V41.6101H116.897V42.9192L116.706 42.5192C116.876 42.2101 117.121 41.9737 117.441 41.8101C117.768 41.6404 118.143 41.5556 118.566 41.5556ZM123.858 46.5283C123.326 46.5283 122.915 46.3919 122.625 46.1192C122.334 45.8404 122.189 45.4313 122.189 44.8919V40.5374H123.323V44.8647C123.323 45.095 123.38 45.2737 123.495 45.401C123.616 45.5283 123.783 45.5919 123.994 45.5919C124.248 45.5919 124.46 45.5253 124.629 45.3919L124.947 46.201C124.814 46.3101 124.65 46.3919 124.457 46.4465C124.263 46.501 124.064 46.5283 123.858 46.5283ZM121.391 42.5556V41.6465H124.62V42.5556H121.391ZM125.887 46.4647V41.6101H127.021V46.4647H125.887ZM126.459 40.8101C126.247 40.8101 126.072 40.7434 125.933 40.6101C125.799 40.4768 125.733 40.3162 125.733 40.1283C125.733 39.9344 125.799 39.7737 125.933 39.6465C126.072 39.5131 126.247 39.4465 126.459 39.4465C126.67 39.4465 126.843 39.5101 126.976 39.6374C127.115 39.7586 127.184 39.9131 127.184 40.101C127.184 40.301 127.118 40.4707 126.985 40.6101C126.852 40.7434 126.676 40.8101 126.459 40.8101ZM131.501 46.4647V45.4828L131.438 45.2737V43.5556C131.438 43.2222 131.338 42.9647 131.138 42.7828C130.939 42.595 130.636 42.501 130.231 42.501C129.959 42.501 129.69 42.5434 129.424 42.6283C129.164 42.7131 128.943 42.8313 128.762 42.9828L128.317 42.1556C128.577 41.9556 128.886 41.8071 129.243 41.7101C129.605 41.6071 129.98 41.5556 130.367 41.5556C131.069 41.5556 131.61 41.7253 131.991 42.0647C132.378 42.398 132.572 42.9162 132.572 43.6192V46.4647H131.501ZM129.977 46.5283C129.614 46.5283 129.297 46.4677 129.025 46.3465C128.753 46.2192 128.541 46.0465 128.39 45.8283C128.245 45.604 128.172 45.3525 128.172 45.0737C128.172 44.801 128.236 44.5556 128.363 44.3374C128.496 44.1192 128.71 43.9465 129.007 43.8192C129.303 43.6919 129.696 43.6283 130.186 43.6283H131.592V44.3828H130.268C129.881 44.3828 129.621 44.4465 129.487 44.5737C129.354 44.695 129.288 44.8465 129.288 45.0283C129.288 45.2344 129.37 45.398 129.533 45.5192C129.696 45.6404 129.923 45.701 130.213 45.701C130.491 45.701 130.739 45.6374 130.957 45.5101C131.181 45.3828 131.341 45.195 131.438 44.9465L131.628 45.6283C131.519 45.9131 131.323 46.1344 131.039 46.2919C130.76 46.4495 130.407 46.5283 129.977 46.5283ZM134.034 46.4647V39.7192H135.168V46.4647H134.034ZM141.002 46.5283C140.47 46.5283 140.058 46.3919 139.768 46.1192C139.478 45.8404 139.333 45.4313 139.333 44.8919V40.5374H140.467V44.8647C140.467 45.095 140.524 45.2737 140.639 45.401C140.76 45.5283 140.926 45.5919 141.138 45.5919C141.392 45.5919 141.604 45.5253 141.773 45.3919L142.09 46.201C141.957 46.3101 141.794 46.3919 141.601 46.4465C141.407 46.501 141.208 46.5283 141.002 46.5283ZM138.535 42.5556V41.6465H141.764V42.5556H138.535ZM145.048 46.5283C144.553 46.5283 144.111 46.4222 143.724 46.2101C143.337 45.9919 143.032 45.695 142.808 45.3192C142.584 44.9434 142.472 44.5162 142.472 44.0374C142.472 43.5525 142.584 43.1253 142.808 42.7556C143.032 42.3798 143.337 42.0859 143.724 41.8737C144.111 41.6616 144.553 41.5556 145.048 41.5556C145.55 41.5556 145.995 41.6616 146.382 41.8737C146.775 42.0859 147.08 42.3768 147.298 42.7465C147.522 43.1162 147.634 43.5465 147.634 44.0374C147.634 44.5162 147.522 44.9434 147.298 45.3192C147.08 45.695 146.775 45.9919 146.382 46.2101C145.995 46.4222 145.55 46.5283 145.048 46.5283ZM145.048 45.5556C145.327 45.5556 145.575 45.495 145.792 45.3737C146.01 45.2525 146.179 45.0768 146.3 44.8465C146.427 44.6162 146.491 44.3465 146.491 44.0374C146.491 43.7222 146.427 43.4525 146.3 43.2283C146.179 42.998 146.01 42.8222 145.792 42.701C145.575 42.5798 145.33 42.5192 145.058 42.5192C144.779 42.5192 144.531 42.5798 144.314 42.701C144.102 42.8222 143.933 42.998 143.806 43.2283C143.679 43.4525 143.615 43.7222 143.615 44.0374C143.615 44.3465 143.679 44.6162 143.806 44.8465C143.933 45.0768 144.102 45.2525 144.314 45.3737C144.531 45.495 144.776 45.5556 145.048 45.5556ZM150.776 46.5283C150.31 46.5283 149.89 46.4253 149.515 46.2192C149.146 46.0071 148.856 45.7162 148.644 45.3465C148.433 44.9768 148.327 44.5404 148.327 44.0374C148.327 43.5344 148.433 43.098 148.644 42.7283C148.856 42.3586 149.146 42.0707 149.515 41.8647C149.89 41.6586 150.31 41.5556 150.776 41.5556C151.181 41.5556 151.544 41.6465 151.864 41.8283C152.185 42.004 152.439 42.2737 152.626 42.6374C152.814 43.001 152.908 43.4677 152.908 44.0374C152.908 44.601 152.817 45.0677 152.636 45.4374C152.454 45.801 152.203 46.0737 151.883 46.2556C151.562 46.4374 151.193 46.5283 150.776 46.5283ZM150.912 45.5556C151.184 45.5556 151.426 45.495 151.638 45.3737C151.855 45.2525 152.028 45.0768 152.155 44.8465C152.288 44.6162 152.354 44.3465 152.354 44.0374C152.354 43.7222 152.288 43.4525 152.155 43.2283C152.028 42.998 151.855 42.8222 151.638 42.701C151.426 42.5798 151.184 42.5192 150.912 42.5192C150.64 42.5192 150.395 42.5798 150.177 42.701C149.966 42.8222 149.793 42.998 149.66 43.2283C149.533 43.4525 149.47 43.7222 149.47 44.0374C149.47 44.3465 149.533 44.6162 149.66 44.8465C149.793 45.0768 149.966 45.2525 150.177 45.3737C150.395 45.495 150.64 45.5556 150.912 45.5556ZM152.382 46.4647V45.3192L152.427 44.0283L152.336 42.7374V39.7192H153.461V46.4647H152.382ZM157.945 46.4647V45.4828L157.882 45.2737V43.5556C157.882 43.2222 157.782 42.9647 157.582 42.7828C157.383 42.595 157.08 42.501 156.675 42.501C156.403 42.501 156.134 42.5434 155.868 42.6283C155.608 42.7131 155.387 42.8313 155.206 42.9828L154.761 42.1556C155.021 41.9556 155.33 41.8071 155.686 41.7101C156.049 41.6071 156.424 41.5556 156.811 41.5556C157.513 41.5556 158.054 41.7253 158.435 42.0647C158.822 42.398 159.016 42.9162 159.016 43.6192V46.4647H157.945ZM156.421 46.5283C156.058 46.5283 155.741 46.4677 155.469 46.3465C155.197 46.2192 154.985 46.0465 154.834 45.8283C154.689 45.604 154.616 45.3525 154.616 45.0737C154.616 44.801 154.68 44.5556 154.807 44.3374C154.94 44.1192 155.154 43.9465 155.451 43.8192C155.747 43.6919 156.14 43.6283 156.63 43.6283H158.036V44.3828H156.712C156.325 44.3828 156.064 44.4465 155.931 44.5737C155.798 44.695 155.732 44.8465 155.732 45.0283C155.732 45.2344 155.814 45.398 155.977 45.5192C156.14 45.6404 156.367 45.701 156.657 45.701C156.935 45.701 157.183 45.6374 157.401 45.5101C157.625 45.3828 157.785 45.195 157.882 44.9465L158.072 45.6283C157.963 45.9131 157.767 46.1344 157.483 46.2919C157.204 46.4495 156.851 46.5283 156.421 46.5283ZM160.789 48.2919C160.553 48.2919 160.317 48.2525 160.082 48.1737C159.846 48.095 159.649 47.9859 159.492 47.8465L159.945 47.0101C160.06 47.1131 160.19 47.195 160.336 47.2556C160.481 47.3162 160.629 47.3465 160.78 47.3465C160.986 47.3465 161.152 47.295 161.279 47.1919C161.406 47.0889 161.524 46.9162 161.633 46.6737L161.914 46.0374L162.005 45.901L163.837 41.6101H164.926L162.658 46.8556C162.507 47.2192 162.337 47.5071 162.15 47.7192C161.968 47.9313 161.763 48.0798 161.533 48.1647C161.309 48.2495 161.061 48.2919 160.789 48.2919ZM161.787 46.6374L159.601 41.6101H160.78L162.558 45.801L161.787 46.6374Z" fill="#15181E"/>
</svg>
