<svg width="789" height="789" viewBox="0 0 789 789" fill="none" xmlns="http://www.w3.org/2000/svg">
<path d="M789 603.427H0V603.822H789V603.427Z" fill="#EBEBEB"/>
<path d="M373.986 533.048H69.29C66.903 533.044 64.6153 532.093 62.9289 530.404C61.2425 528.714 60.2954 526.425 60.2954 524.038V95.7215C60.3162 93.3482 61.2725 91.0789 62.9566 89.4066C64.6407 87.7343 66.9167 86.794 69.29 86.79H373.986C376.376 86.79 378.668 87.7393 380.357 89.4291C382.047 91.1188 382.996 93.4107 382.996 95.8004V524.038C382.996 526.428 382.047 528.72 380.357 530.409C378.668 532.099 376.376 533.048 373.986 533.048ZM69.29 87.1056C67.0077 87.1098 64.8202 88.0193 63.2079 89.6347C61.5955 91.25 60.6899 93.4391 60.6899 95.7215V524.038C60.6899 526.32 61.5955 528.509 63.2079 530.125C64.8202 531.74 67.0077 532.65 69.29 532.654H373.986C376.27 532.65 378.459 531.741 380.074 530.126C381.689 528.511 382.598 526.322 382.602 524.038V95.7215C382.598 93.4377 381.689 91.2486 380.074 89.6337C378.459 88.0188 376.27 87.1098 373.986 87.1056H69.29Z" fill="#EBEBEB"/>
<path d="M715.323 533.048H410.611C408.223 533.044 405.934 532.094 404.245 530.405C402.556 528.716 401.605 526.426 401.601 524.038V95.7215C401.626 93.3467 402.586 91.0775 404.272 89.4057C405.959 87.7338 408.236 86.794 410.611 86.79H715.323C717.694 86.7982 719.966 87.7403 721.646 89.4122C723.327 91.084 724.281 93.3509 724.302 95.7215V524.038C724.302 526.422 723.357 528.709 721.674 530.398C719.991 532.087 717.707 533.04 715.323 533.048ZM410.611 87.1056C408.328 87.1098 406.138 88.0188 404.524 89.6337C402.909 91.2486 402 93.4377 401.995 95.7215V524.038C402 526.322 402.909 528.511 404.524 530.126C406.138 531.741 408.328 532.65 410.611 532.654H715.323C717.607 532.65 719.796 531.741 721.411 530.126C723.026 528.511 723.935 526.322 723.939 524.038V95.7215C723.935 93.4377 723.026 91.2486 721.411 89.6337C719.796 88.0188 717.607 87.1098 715.323 87.1056H410.611Z" fill="#EBEBEB"/>
<path d="M316.294 618.45H275.266V618.844H316.294V618.45Z" fill="#EBEBEB"/>
<path d="M168.152 614.173H82.7819V614.568H168.152V614.173Z" fill="#EBEBEB"/>
<path d="M273.688 633.109H232.155V633.504H273.688V633.109Z" fill="#EBEBEB"/>
<path d="M468.761 630.458H407.487V630.853H468.761V630.458Z" fill="#EBEBEB"/>
<path d="M499.674 630.458H482.805V630.853H499.674V630.458Z" fill="#EBEBEB"/>
<path d="M709.958 623.799H623.862V624.194H709.958V623.799Z" fill="#EBEBEB"/>
<path d="M601.313 589.43H673.348V391.439H601.313V589.43Z" fill="#F0F0F0"/>
<path d="M286.77 603.411H659.509V589.415H286.77V603.411Z" fill="#F0F0F0"/>
<path d="M601.313 391.423H272.947V589.414H601.313V391.423Z" fill="#F5F5F5"/>
<path d="M602.575 404.836H272.947V477.313H602.575V404.836Z" fill="#F0F0F0"/>
<path d="M602.575 490.521H272.947V562.999H602.575V490.521Z" fill="#F0F0F0"/>
<path d="M601.313 477.298H613.779V404.82H601.313V477.298Z" fill="#E6E6E6"/>
<path d="M601.313 562.983H613.779V490.506H601.313V562.983Z" fill="#E6E6E6"/>
<path d="M263.353 391.423L601.313 391.423V379.241L263.353 379.241V391.423Z" fill="#F0F0F0"/>
<path d="M683.416 379.241H601.313V391.423H683.416V379.241Z" fill="#E6E6E6"/>
<path d="M517.821 342H687.345V128.907L517.821 128.907V342Z" fill="#F0F0F0"/>
<path d="M480.391 342H680.844V128.907L480.391 128.907V342Z" fill="#F5F5F5"/>
<path d="M497.18 145.697V325.21H664.054V145.697H497.18Z" fill="white"/>
<path d="M599.088 254.879L630.979 240.093V230.798L599.088 215.981V227.122L618.465 235.469L599.088 243.817V254.879Z" fill="#E6E6E6"/>
<path d="M578.29 211.689H572.467L582.787 259.202H588.594L578.29 211.689Z" fill="#E6E6E6"/>
<path d="M562.131 243.817L542.832 235.469L562.21 227.122V215.981L530.208 230.798V240.093L562.099 254.879L562.131 243.817Z" fill="#E6E6E6"/>
<path d="M184.973 603.427H196.082L196.082 241.781H184.973L184.973 603.427Z" fill="#F0F0F0"/>
<path d="M182.653 600.902L182.354 599.324C183.496 598.957 184.552 598.361 185.455 597.571C186.359 596.781 187.092 595.815 187.608 594.732C190.496 589.62 192.248 578.716 184.216 555.866C171.844 520.645 179.229 492.241 193.952 435.623C196.508 425.76 199.412 414.588 202.426 402.485C213.74 357.243 203.278 329.187 194.867 306.637C188.35 289.137 183.19 275.314 189.786 259.297L191.254 259.897C184.942 275.329 189.944 288.9 196.351 306.085C204.84 328.824 215.397 357.149 203.956 402.848C200.943 414.935 198.039 426.107 195.483 435.986C180.839 492.336 173.485 520.614 185.715 555.456C193.968 578.952 192.027 590.314 188.871 595.695C188.244 596.941 187.37 598.046 186.3 598.941C185.231 599.837 183.99 600.504 182.653 600.902Z" fill="#F0F0F0"/>
<path d="M170.408 603.427H210.631L199.443 596.831H181.596L170.408 603.427Z" fill="#F0F0F0"/>
<path d="M110.949 287.843H270.091L252.575 154.123H128.465L110.949 287.843Z" fill="#F5F5F5"/>
<path d="M346.971 309.888H431.93L420.742 379.241H358.159L346.971 309.888Z" fill="#F0F0F0"/>
<path d="M381.103 332.453C404.268 324.074 422.004 311.481 402.153 285.997C382.302 260.512 351.547 260.638 330.812 271.921C304.396 286.281 309.698 327.861 309.698 327.861C309.698 327.861 357.938 340.848 381.103 332.453Z" fill="#E0E0E0"/>
<path d="M403.621 309.288C385.9 297.216 373.339 283.251 393.9 268.512C414.462 253.774 439.82 261.333 455.064 275.014C474.489 292.467 463.269 323.095 463.269 323.095C463.269 323.095 421.326 321.297 403.621 309.288Z" fill="#E6E6E6"/>
<path d="M372.408 278.659C393.143 277.412 410.533 272 400.717 249.545C390.902 227.09 366.001 220.794 346.576 224.644C321.754 229.552 315.9 260.607 315.9 260.607C315.9 260.607 351.689 279.921 372.408 278.659Z" fill="#F0F0F0"/>
<path d="M398.445 265.42C381.198 259.865 367.674 251.549 380.819 234.68C393.964 217.811 416.324 217.906 431.946 225.354C451.86 234.822 450.093 262.374 450.093 262.374C450.093 262.374 415.693 270.958 398.445 265.42Z" fill="#EBEBEB"/>
<path d="M366.096 236.7C383.312 242.381 399.139 243.612 398.429 222.245C397.719 200.879 379.635 187.782 362.624 184.531C340.927 180.492 326.157 203.767 326.157 203.767C326.157 203.767 348.912 230.972 366.096 236.7Z" fill="#F5F5F5"/>
<path d="M409.791 227.469C397.467 228.321 386.815 226.459 390.855 212.462C394.895 198.465 409.097 192.895 420.837 193.668C435.828 194.662 441.651 212.604 441.651 212.604C441.651 212.604 422.099 226.632 409.791 227.469Z" fill="#FAFAFA"/>
<path d="M394.5 674.69C563.476 674.69 700.459 666.692 700.459 656.827C700.459 646.961 563.476 638.964 394.5 638.964C225.524 638.964 88.5416 646.961 88.5416 656.827C88.5416 666.692 225.524 674.69 394.5 674.69Z" fill="#F5F5F5"/>
<path d="M661.592 396.22H125.467V415.456H661.592V396.22Z" fill="#1D4FD7"/>
<path opacity="0.3" d="M268.954 396.22H125.467V415.456H268.954V396.22Z" fill="white"/>
<path d="M271.242 415.456H258.76L265.293 656.543H271.242H277.192L283.74 415.456H271.242Z" fill="#1D4FD7"/>
<path opacity="0.3" d="M265.293 656.543H271.242V420.632L258.966 422.872L265.293 656.543Z" fill="white"/>
<path d="M152.94 415.456H140.458L146.991 656.543H152.94H158.889L165.422 415.456H152.94Z" fill="#1D4FD7"/>
<path opacity="0.3" d="M146.991 656.543H152.94V420.632L140.647 422.872L146.991 656.543Z" fill="white"/>
<path d="M634.119 415.456H621.637L628.17 656.543H634.119H640.068L646.617 415.456H634.119Z" fill="#1D4FD7"/>
<path opacity="0.3" d="M628.17 656.543H634.119V420.632L621.843 422.872L628.17 656.543Z" fill="white"/>
<path d="M515.817 415.456H503.335L509.868 656.543H515.817H521.766L528.299 415.456H515.817Z" fill="#1D4FD7"/>
<path opacity="0.3" d="M509.868 656.543H515.817V420.632L503.54 422.872L509.868 656.543Z" fill="white"/>
<path d="M379.951 293.24H252.48C251.446 293.199 250.416 293.403 249.476 293.836C248.535 294.269 247.71 294.918 247.069 295.73C246.427 296.543 245.987 297.496 245.784 298.511C245.58 299.526 245.62 300.575 245.9 301.572L262.879 382.602C263.425 384.894 264.704 386.945 266.52 388.446C268.337 389.946 270.593 390.814 272.947 390.918H400.512C401.545 390.958 402.572 390.754 403.511 390.322C404.45 389.89 405.274 389.242 405.915 388.432C406.556 387.621 406.997 386.671 407.202 385.658C407.406 384.645 407.369 383.598 407.092 382.602L390.097 301.572C389.55 299.264 388.261 297.2 386.429 295.695C384.596 294.19 382.321 293.328 379.951 293.24Z" fill="#263238"/>
<path d="M274.051 386.294C272.461 386.187 270.946 385.58 269.721 384.56C268.497 383.539 267.627 382.158 267.234 380.614L250.255 299.583C250.11 299.047 250.087 298.485 250.188 297.939C250.289 297.393 250.511 296.876 250.839 296.427C251.179 296.043 251.6 295.74 252.073 295.541C252.545 295.341 253.057 295.251 253.569 295.275H381.134C382.724 295.383 384.24 295.99 385.464 297.01C386.689 298.03 387.559 299.411 387.951 300.956L404.931 381.986C405.076 382.523 405.099 383.085 404.998 383.631C404.897 384.177 404.674 384.694 404.347 385.142C404.009 385.529 403.588 385.834 403.115 386.034C402.642 386.233 402.129 386.323 401.617 386.294H274.051Z" fill="white"/>
<path opacity="0.4" d="M370.294 379.809L354.198 302.976C354.107 302.521 354.118 302.052 354.23 301.602C354.341 301.152 354.551 300.731 354.843 300.371C355.135 300.011 355.503 299.72 355.921 299.518C356.339 299.317 356.796 299.21 357.259 299.205H377.963C378.68 299.21 379.375 299.46 379.931 299.913C380.488 300.367 380.873 300.996 381.024 301.698L397.12 378.468C397.21 378.922 397.199 379.392 397.088 379.842C396.976 380.292 396.767 380.712 396.475 381.072C396.182 381.432 395.814 381.723 395.397 381.925C394.979 382.127 394.522 382.234 394.058 382.239H373.355C372.646 382.237 371.958 381.996 371.403 381.555C370.847 381.114 370.457 380.499 370.294 379.809Z" fill="#1D4FD7"/>
<path d="M260.875 305.927L260.181 302.597H285.744L286.439 305.927H260.875Z" fill="#1D4FD7"/>
<path d="M272.678 314.196L271.984 310.866H316.784L317.494 314.196H272.678Z" fill="#EBEBEB"/>
<path d="M275.045 322.448L274.335 319.119H324.563L325.257 322.448H275.045Z" fill="#EBEBEB"/>
<path d="M277.397 330.717L276.702 327.388H317.131L317.841 330.717H277.397Z" fill="#EBEBEB"/>
<path d="M268.655 344.114L267.944 340.785H284.119L284.813 344.114H268.655Z" fill="#1D4FD7"/>
<path d="M280.442 352.367L279.748 349.038H299.441L300.151 352.367H280.442Z" fill="#EBEBEB"/>
<path d="M304.87 352.367L304.16 349.038H323.869L324.563 352.367H304.87Z" fill="#EBEBEB"/>
<path d="M282.809 360.636L282.115 357.307H348.706L349.401 360.636H282.809Z" fill="#EBEBEB"/>
<path d="M285.16 368.889L284.466 365.56H335.246L335.94 368.889H285.16Z" fill="#EBEBEB"/>
<path d="M439.505 390.429H271.668C267.092 390.429 264.126 393.032 265.088 396.22H449.572C448.625 393.032 444.081 390.429 439.505 390.429Z" fill="#263238"/>
<path opacity="0.1" d="M216.517 272.757L200.406 195.972C200.318 195.518 200.331 195.051 200.444 194.602C200.556 194.154 200.766 193.736 201.058 193.378C201.35 193.02 201.717 192.73 202.134 192.529C202.55 192.329 203.005 192.222 203.467 192.216H333.81C334.526 192.221 335.218 192.469 335.775 192.919C336.331 193.369 336.718 193.995 336.871 194.694L352.983 271.416C353.073 271.871 353.062 272.34 352.951 272.79C352.839 273.24 352.63 273.661 352.338 274.021C352.046 274.381 351.677 274.672 351.26 274.874C350.842 275.075 350.385 275.182 349.922 275.187H219.579C218.87 275.185 218.182 274.944 217.627 274.503C217.071 274.062 216.681 273.447 216.517 272.757Z" fill="#1D4FD7"/>
<path d="M262.847 194.741H235.485L234.87 191.79H262.232L262.847 194.741Z" fill="#1D4FD7"/>
<path opacity="0.4" d="M258.398 199.443H247.415L246.799 196.493H257.782L258.398 199.443Z" fill="#1D4FD7"/>
<path opacity="0.4" d="M276.671 199.443H259.755L259.139 196.493H276.055L276.671 199.443Z" fill="#1D4FD7"/>
<path opacity="0.4" d="M284.04 204.13H248.393L247.778 201.179H283.44L284.04 204.13Z" fill="#1D4FD7"/>
<path opacity="0.4" d="M279.511 208.833H249.371L248.756 205.882H278.896L279.511 208.833Z" fill="#1D4FD7"/>
<path opacity="0.4" d="M299.504 258.713H280.316L280.931 261.648H300.12L299.504 258.713Z" fill="#1D4FD7"/>
<path d="M275.582 252.275H247.478L246.862 249.324H274.966L275.582 252.275Z" fill="#1D4FD7"/>
<path opacity="0.4" d="M286.88 263.4H260.749L261.364 266.351H287.496L286.88 263.4Z" fill="#1D4FD7"/>
<path opacity="0.4" d="M278.959 258.713H259.77L260.386 261.648H279.574L278.959 258.713Z" fill="#1D4FD7"/>
<path opacity="0.4" d="M297.169 254.011H258.792L259.407 256.962H297.784L297.169 254.011Z" fill="#1D4FD7"/>
<path d="M261.885 172.838H230.925L230.309 169.903H261.269L261.885 172.838Z" fill="#1D4FD7"/>
<path opacity="0.4" d="M277.176 183.979H243.028L243.643 186.93H277.775L277.176 183.979Z" fill="#1D4FD7"/>
<path opacity="0.4" d="M270.343 179.292H242.049L242.665 182.227H270.958L270.343 179.292Z" fill="#1D4FD7"/>
<path opacity="0.4" d="M272.221 174.59H241.071L241.686 177.541H272.836L272.221 174.59Z" fill="#1D4FD7"/>
<path d="M261.538 216.47H240.014L239.398 213.519H260.922L261.538 216.47Z" fill="#1D4FD7"/>
<path opacity="0.4" d="M295.339 227.595H253.285L253.9 230.546H295.938L295.339 227.595Z" fill="#1D4FD7"/>
<path opacity="0.4" d="M269.728 222.908H252.306L252.922 225.859H270.343L269.728 222.908Z" fill="#1D4FD7"/>
<path opacity="0.4" d="M288.632 222.908H271.211L271.826 225.859H289.247L288.632 222.908Z" fill="#1D4FD7"/>
<path opacity="0.4" d="M289.705 218.206H251.328L251.944 221.157H290.305L289.705 218.206Z" fill="#1D4FD7"/>
<path opacity="0.4" d="M289.626 241.686H256.22L256.835 244.622H290.242L289.626 241.686Z" fill="#1D4FD7"/>
<path opacity="0.4" d="M264.962 236.984H255.241L255.857 239.935H265.562L264.962 236.984Z" fill="#1D4FD7"/>
<path opacity="0.4" d="M280.158 236.984H266.287L266.903 239.935H280.774L280.158 236.984Z" fill="#1D4FD7"/>
<path opacity="0.4" d="M292.64 232.297H254.263L254.879 235.232H293.256L292.64 232.297Z" fill="#1D4FD7"/>
<path opacity="0.4" d="M322.859 231.508H309.114L308.499 228.557H322.259L322.859 231.508Z" fill="#1D4FD7"/>
<path opacity="0.4" d="M345.74 231.508H324.563L323.948 228.557H345.124L345.74 231.508Z" fill="#1D4FD7"/>
<path opacity="0.4" d="M354.734 236.211H310.093L309.477 233.26H354.119L354.734 236.211Z" fill="#1D4FD7"/>
<path opacity="0.4" d="M348.801 240.897H311.071L310.456 237.947H348.186L348.801 240.897Z" fill="#1D4FD7"/>
<path opacity="0.4" d="M365.702 212.841H322.953L323.569 215.776H366.317L365.702 212.841Z" fill="#1D4FD7"/>
<path opacity="0.4" d="M357.401 208.138H321.975L322.591 211.089H358.001L357.401 208.138Z" fill="#1D4FD7"/>
<path d="M350.995 203.452H311.986L312.602 206.387H351.61L350.995 203.452Z" fill="#1D4FD7"/>
<path opacity="0.4" d="M367.627 259.676H314.985L315.6 262.627H368.242L367.627 259.676Z" fill="#1D4FD7"/>
<path opacity="0.4" d="M335.814 254.989H314.006L314.622 257.924H336.43L335.814 254.989Z" fill="#1D4FD7"/>
<path opacity="0.4" d="M359.484 254.989H337.676L338.292 257.924H360.1L359.484 254.989Z" fill="#1D4FD7"/>
<path opacity="0.4" d="M361.062 250.287H313.028L313.643 253.237H361.678L361.062 250.287Z" fill="#1D4FD7"/>
<path opacity="0.4" d="M359.737 273.751H317.92L318.535 276.702H360.352L359.737 273.751Z" fill="#1D4FD7"/>
<path opacity="0.4" d="M329.108 269.065H316.941L317.557 272.016H329.723L329.108 269.065Z" fill="#1D4FD7"/>
<path opacity="0.4" d="M348.138 269.065H330.78L331.396 272.016H348.754L348.138 269.065Z" fill="#1D4FD7"/>
<path opacity="0.4" d="M364.013 264.362H315.963L316.578 267.313H364.613L364.013 264.362Z" fill="#1D4FD7"/>
<path opacity="0.4" d="M236.069 277.397H203.341L203.956 280.347H236.684L236.069 277.397Z" fill="#1D4FD7"/>
<path opacity="0.4" d="M226.396 272.71H202.363L202.978 275.645H226.995L226.396 272.71Z" fill="#1D4FD7"/>
<path opacity="0.4" d="M252.101 272.71H228.084L228.7 275.645H252.732L252.101 272.71Z" fill="#1D4FD7"/>
<path opacity="0.4" d="M249.435 268.008H201.384L202 270.958H250.034L249.435 268.008Z" fill="#1D4FD7"/>
<path d="M616.919 365.56H596.658L599.025 396.22H614.552L616.919 365.56Z" fill="#1D4FD7"/>
<path opacity="0.4" d="M616.919 365.56H596.658L599.025 396.22H614.552L616.919 365.56Z" fill="white"/>
<path d="M175.363 344.272H204.493L194.552 396.22H165.422L175.363 344.272Z" fill="#263238"/>
<path d="M212.462 330.354H171.323L182.843 396.22H223.981L212.462 330.354Z" fill="#1D4FD7"/>
<path d="M168.893 330.354H171.323L182.843 396.22H180.413L168.893 330.354Z" fill="#1D4FD7"/>
<path opacity="0.3" d="M168.893 330.354H171.323L182.843 396.22H180.413L168.893 330.354Z" fill="black"/>
<path d="M188.76 389.166L179.703 337.392H206.56L215.602 389.166H188.76Z" fill="white"/>
<path opacity="0.6" d="M214.324 389.166L205.282 337.392H206.56L215.602 389.166H214.324Z" fill="#1D4FD7"/>
<path d="M416.229 246.168C416.813 247.43 416.623 248.772 415.787 249.15C414.951 249.529 413.815 248.819 413.231 247.572C412.647 246.326 412.852 244.969 413.673 244.59C414.493 244.211 415.645 244.842 416.229 246.168Z" fill="#263238"/>
<path d="M416.734 248.661C416.734 248.661 417.239 257.277 415.693 262.264C418.849 263.321 422.257 260.686 422.257 260.686L416.734 248.661Z" fill="#FF5652"/>
<path d="M416.387 235.737C416.253 235.848 416.087 235.914 415.913 235.927C414.886 235.954 413.881 236.224 412.978 236.715C412.076 237.206 411.302 237.904 410.722 238.751C410.67 238.848 410.599 238.934 410.513 239.003C410.428 239.072 410.329 239.124 410.223 239.154C410.118 239.184 410.007 239.193 409.897 239.179C409.788 239.166 409.683 239.13 409.588 239.075C409.492 239.02 409.409 238.947 409.343 238.859C409.277 238.771 409.229 238.67 409.202 238.564C409.175 238.457 409.17 238.346 409.187 238.237C409.205 238.128 409.243 238.024 409.302 237.931C410.016 236.846 410.982 235.948 412.116 235.314C413.25 234.679 414.52 234.327 415.819 234.286C415.991 234.276 416.162 234.321 416.308 234.415C416.453 234.508 416.565 234.645 416.628 234.806C416.691 234.967 416.702 235.144 416.658 235.311C416.615 235.478 416.52 235.627 416.387 235.737Z" fill="#263238"/>
<path d="M462.701 244.211C467.577 261.096 473.021 274.193 479.665 281.673C479.665 281.673 479.791 294.944 457.178 301.256C432.309 308.199 441.84 292.23 441.84 292.23C454.464 285.208 453.265 274.604 443.765 270.564L462.701 244.211Z" fill="#FF8B7B"/>
<path d="M484.935 278.438C484.493 272.268 483.909 265.23 480.106 265.041C475.909 264.852 451.608 275.708 446.416 283.361C441.225 291.015 451.371 298.51 451.371 298.51L484.935 278.438Z" fill="#263238"/>
<path d="M435.197 373.986L414.209 373.292L414.588 390.871C414.588 390.871 432.893 388.977 433.698 384.164L435.197 373.986Z" fill="#FF8B7B"/>
<path d="M403.116 381.923L400.907 390.918L414.588 390.886L414.209 373.307L403.116 381.923Z" fill="#FF8B7B"/>
<path d="M519.43 300.94L518.988 305.453C518.846 306.905 518.657 308.325 518.468 309.761C518.105 312.618 517.647 315.474 517.158 318.314C516.211 324.011 514.98 329.676 513.56 335.372C512.117 341.178 510.368 346.904 508.321 352.525C507.232 355.413 506.096 358.301 504.739 361.236C503.371 364.314 501.789 367.294 500.005 370.151C499.579 370.893 499.043 371.729 498.522 372.424C498.001 373.118 497.496 374.002 496.944 374.728C496.391 375.454 495.808 376.306 495.082 377.047L494.056 378.215C493.689 378.646 493.299 379.057 492.888 379.446C489.725 382.543 486.018 385.031 481.953 386.784C475.716 389.459 469.097 391.136 462.338 391.754C459.261 392.117 456.216 392.259 453.233 392.338C450.251 392.417 447.268 392.338 444.333 392.18C441.398 392.023 438.495 391.77 435.607 391.423C432.719 391.076 429.91 390.618 426.849 390.003L427.354 373.513C437.43 371.751 447.389 369.379 457.178 366.412C459.355 365.704 461.494 364.882 463.585 363.95C465.365 363.199 467.067 362.274 468.666 361.188C469.596 360.628 470.384 359.862 470.97 358.948L471.428 358.222C471.64 357.912 471.834 357.59 472.011 357.259C472.236 356.897 472.442 356.523 472.627 356.139C472.832 355.729 473.053 355.35 473.258 354.892C475.112 350.845 476.637 346.655 477.818 342.363C479.112 337.724 480.327 332.895 481.306 327.893C482.284 322.89 483.231 317.841 484.099 312.744L485.298 305.075L486.387 297.611L519.43 300.94Z" fill="#1D4FD7"/>
<path opacity="0.2" d="M519.43 300.94L518.988 305.453C518.846 306.905 518.657 308.325 518.468 309.761C518.105 312.618 517.647 315.474 517.158 318.314C516.211 324.011 514.98 329.676 513.56 335.372C512.117 341.178 510.368 346.904 508.321 352.525C507.232 355.413 506.096 358.301 504.739 361.236C503.371 364.314 501.789 367.294 500.005 370.151C499.579 370.893 499.043 371.729 498.522 372.424C498.001 373.118 497.496 374.002 496.944 374.728C496.391 375.454 495.808 376.306 495.082 377.047L494.056 378.215C493.689 378.646 493.299 379.057 492.888 379.446C489.725 382.543 486.018 385.031 481.953 386.784C475.716 389.459 469.097 391.136 462.338 391.754C459.261 392.117 456.216 392.259 453.233 392.338C450.251 392.417 447.268 392.338 444.333 392.18C441.398 392.023 438.495 391.77 435.607 391.423C432.719 391.076 429.91 390.618 426.849 390.003L427.354 373.513C437.43 371.751 447.389 369.379 457.178 366.412C459.355 365.704 461.494 364.882 463.585 363.95C465.365 363.199 467.067 362.274 468.666 361.188C469.596 360.628 470.384 359.862 470.97 358.948L471.428 358.222C471.64 357.912 471.834 357.59 472.011 357.259C472.236 356.897 472.442 356.523 472.627 356.139C472.832 355.729 473.053 355.35 473.258 354.892C475.112 350.845 476.637 346.655 477.818 342.363C479.112 337.724 480.327 332.895 481.306 327.893C482.284 322.89 483.231 317.841 484.099 312.744L485.298 305.075L486.387 297.611L519.43 300.94Z" fill="black"/>
<path d="M426.249 321.912C434.074 355.647 438.478 390.085 439.394 424.703H531.786C532.291 413.294 530.366 348.959 521.071 302.487C520.246 298.278 518.588 294.276 516.195 290.716C513.801 287.157 510.721 284.111 507.134 281.759C503.547 279.407 499.526 277.796 495.307 277.019C491.089 276.243 486.757 276.318 482.568 277.239L482.126 277.349C470.591 279.969 454.038 284.198 444.254 287.906L443.86 288.064C437.317 290.608 431.922 295.445 428.682 301.672C425.442 307.9 424.577 315.094 426.249 321.912Z" fill="#1D4FD7"/>
<path opacity="0.2" d="M432.261 351.421C432.987 355.855 433.729 360.557 434.408 365.481C441.966 357.591 444.365 333.416 444.365 333.416L432.261 351.421Z" fill="black"/>
<path d="M355.508 375.138L334.536 373.181L333.842 390.744C337.308 391.701 340.969 391.691 344.43 390.714C347.89 389.738 351.017 387.833 353.472 385.206L355.508 375.138Z" fill="#FF8B7B"/>
<path d="M324.563 378.357L317.841 390.429L333.905 390.744L334.599 373.181L324.563 378.357Z" fill="#FF8B7B"/>
<path d="M460.918 313.817C459.466 316.578 458.172 319.024 456.721 321.549C455.269 324.074 453.88 326.536 452.381 328.981C449.414 333.905 446.337 338.733 443.087 343.515C436.56 353.306 429.33 362.609 421.452 371.351C417.234 376.057 412.648 380.42 407.739 384.401C407.124 384.922 406.398 385.427 405.72 385.979C405.041 386.531 404.441 386.973 403.432 387.557C402.422 388.141 401.569 388.725 400.654 389.229C399.739 389.734 398.792 390.192 397.861 390.602C394.38 392.114 390.738 393.22 387.005 393.9C380.475 395.001 373.82 395.15 367.248 394.342C364.17 393.989 361.114 393.463 358.096 392.764C356.591 392.417 355.108 392.023 353.646 391.581C352.068 391.139 350.789 390.65 349.101 390.003L351.705 373.718C361.615 372.376 372.329 370.656 379.714 367.311C381.354 366.637 382.897 365.751 384.306 364.676C384.873 364.286 385.402 363.842 385.884 363.35C385.995 363.208 386.484 362.782 386.847 362.435C387.21 362.088 387.636 361.757 388.03 361.346C391.408 357.999 394.57 354.442 397.498 350.695C403.851 342.499 409.787 333.988 415.282 325.194C418.123 320.729 420.884 316.184 423.646 311.623L427.717 304.775L431.646 298.037L460.918 313.817Z" fill="#1D4FD7"/>
<path d="M435.56 643.193H418.296L409.601 603.19H426.881L435.56 643.193Z" fill="#FF8B7B"/>
<path d="M417.334 639.5H436.743C437.08 639.512 437.405 639.632 437.669 639.842C437.933 640.053 438.123 640.342 438.211 640.668L441.619 656.038C441.7 656.411 441.696 656.798 441.606 657.169C441.516 657.541 441.343 657.887 441.1 658.181C440.857 658.476 440.55 658.712 440.203 658.871C439.855 659.03 439.476 659.108 439.094 659.099C432.325 658.989 429.027 658.594 420.49 658.594C415.235 658.594 408.497 659.131 401.254 659.131C394.011 659.131 393.048 651.966 396.015 651.319C409.333 648.4 410.217 644.392 414.525 640.558C415.297 639.868 416.298 639.491 417.334 639.5Z" fill="#263238"/>
<g opacity="0.2">
<path d="M426.896 603.206H409.601L414.43 625.361L431.378 623.831L426.896 603.206Z" fill="black"/>
</g>
<path d="M457.162 223.918C463.474 239.888 467.861 248.929 463.695 260.528C457.383 277.965 434.991 279.732 424.103 265.94C414.32 253.521 405.767 229.488 418.123 216.281C420.828 213.353 424.238 211.165 428.028 209.927C431.818 208.689 435.861 208.44 439.774 209.206C443.686 209.971 447.338 211.725 450.382 214.3C453.425 216.875 455.76 220.186 457.162 223.918Z" fill="#FF8B7B"/>
<path d="M426.833 247.841C424.245 251.312 422.257 253.948 422.257 253.948C422.257 253.948 416.939 240.74 418.975 234.68C416.387 229.552 411.164 237.11 409.191 227.122C407.219 217.133 415.756 206.402 418.975 204.177C419.307 205.341 419.456 206.55 419.417 207.759C428.115 200.7 439.17 197.209 450.345 197.992C449.411 199.381 448.817 200.97 448.61 202.631C448.61 202.631 467.34 205.787 471.601 216.391C470.094 215.672 468.504 215.142 466.867 214.813C470.301 219.736 471.661 225.812 470.654 231.729C469.295 240.359 468.588 249.078 468.54 257.814C468.713 262.295 456.421 270.864 448.925 261.711C441.43 252.559 426.833 247.841 426.833 247.841Z" fill="#263238"/>
<path d="M434.644 244.401C435.622 248.12 435.345 252.058 433.855 255.604C431.851 260.338 427.733 259.202 425.697 255.068C423.851 251.36 422.667 244.479 425.934 241.181C429.2 237.883 433.413 239.935 434.644 244.401Z" fill="#FF8B7B"/>
<path d="M467.088 424.64C467.088 424.64 386.862 453.738 384.511 492.225C380.156 563.125 409.144 619.254 409.144 619.254L435.717 616.414C435.717 616.414 430.983 593.596 427.464 529.372C423.03 448.657 560.016 531.265 531.802 424.64H467.088Z" fill="#1D4FD7"/>
<path opacity="0.5" d="M467.088 424.64C467.088 424.64 386.862 453.738 384.511 492.225C380.156 563.125 409.144 619.254 409.144 619.254L435.717 616.414C435.717 616.414 430.983 593.596 427.464 529.372C423.03 448.657 560.016 531.265 531.802 424.64H467.088Z" fill="white"/>
<path d="M401.79 609.471C401.664 609.471 406.019 621.274 406.019 621.274L439.157 618.024L437.5 607.293L401.79 609.471Z" fill="#1D4FD7"/>
<path d="M360.936 645.165H343.657L338.607 605.147H355.886L360.936 645.165Z" fill="#FF8B7B"/>
<path d="M343.531 639.484H362.467C362.808 639.48 363.141 639.594 363.408 639.807C363.676 640.02 363.861 640.318 363.934 640.652L367.374 656.006C367.475 656.382 367.486 656.776 367.408 657.158C367.33 657.539 367.164 657.897 366.924 658.203C366.683 658.509 366.375 658.755 366.023 658.922C365.672 659.088 365.286 659.17 364.897 659.162C358.096 659.052 348.249 658.673 339.649 658.689C329.644 658.689 327.735 659.241 315.979 659.257C308.878 659.257 306.905 652.108 309.872 651.367C323.38 648.4 327.703 648.069 339.365 640.857C340.596 640.015 342.04 639.539 343.531 639.484Z" fill="#263238"/>
<path opacity="0.2" d="M338.623 605.163L341.369 626.955L358.506 625.787L355.902 605.163H338.623Z" fill="black"/>
<path d="M439.394 424.64C439.394 424.64 307.947 436.301 309.367 502.325C310.834 570.999 336.493 617.314 336.493 617.314H362.151C362.151 617.314 357.291 581.682 358.159 514.081C358.411 493.835 399.344 487.144 439.299 484.777C473.826 482.726 506.143 463.048 519.556 431.125L522.318 424.64H439.394Z" fill="#1D4FD7"/>
<path opacity="0.5" d="M439.394 424.64C439.394 424.64 307.947 436.301 309.367 502.325C310.834 570.999 336.493 617.314 336.493 617.314H362.151C362.151 617.314 357.291 581.682 358.159 514.081C358.411 493.835 399.344 487.144 439.299 484.777C473.826 482.726 506.143 463.048 519.556 431.125L522.318 424.64H439.394Z" fill="white"/>
<path d="M330.481 610.418C330.37 610.418 334.883 622.284 334.883 622.284L365.875 620.059L364.06 609.329L330.481 610.418Z" fill="#1D4FD7"/>
<path d="M473.905 350.442L457.225 414.714C452.961 431.18 450.808 448.122 450.819 465.131V495.003C450.819 502.546 456.373 508.668 463.238 508.668H548.734C555.598 508.668 561.152 502.546 561.152 495.003V465.131C561.147 448.121 563.305 431.18 567.575 414.714L582.298 357.906C584.57 349.18 578.605 340.548 570.352 340.548H485.835C483.029 340.636 480.333 341.657 478.173 343.449C476.012 345.241 474.511 347.702 473.905 350.442Z" fill="#263238"/>
<path d="M367.563 477.55L370.357 493.488C371.84 501.867 379.209 508.668 386.831 508.668H481.874C489.496 508.668 494.498 501.867 493.014 493.488L490.221 477.55C488.533 468.003 480.154 460.271 471.475 460.271H380.298C371.556 460.271 365.891 468.003 367.563 477.55Z" fill="#263238"/>
<path d="M491.026 524.669H441.24L436.38 508.668H495.886L491.026 524.669Z" fill="#1D4FD7"/>
<path d="M475.025 524.669H457.241V643.666H475.025V524.669Z" fill="#1D4FD7"/>
<path opacity="0.7" d="M475.025 643.666H457.241V527.525L475.025 529.34V643.666Z" fill="white"/>
<path opacity="0.7" d="M470.686 643.666H466.441V528.456L470.686 528.898V643.666Z" fill="white"/>
<path d="M507.027 662.066H425.224C424.747 662.061 424.283 661.907 423.899 661.625C423.514 661.342 423.229 660.946 423.082 660.492C422.935 660.038 422.935 659.55 423.082 659.096C423.228 658.642 423.514 658.245 423.898 657.963L436.869 648.495C443.105 643.928 450.632 641.463 458.362 641.457H473.905C481.629 641.465 489.151 643.93 495.382 648.495L508.368 657.963C508.754 658.246 509.04 658.644 509.186 659.099C509.332 659.555 509.33 660.045 509.182 660.5C509.033 660.954 508.745 661.35 508.358 661.631C507.971 661.913 507.505 662.065 507.027 662.066Z" fill="#1D4FD7"/>
</svg>
