<svg width="402" height="307" viewBox="0 0 402 307" fill="none" xmlns="http://www.w3.org/2000/svg">
<path d="M310.014 6.56998C304.033 2.48472 297.002 0.205525 289.762 0.00402913C273.335 -0.245107 258.797 11.0946 248.992 24.2747C239.187 37.4549 232.669 52.829 223.057 66.1538C203.938 92.6748 171.39 109.97 138.801 107.47C119.859 106.016 102.025 98.3326 83.549 93.9124C76.2357 92.1604 68.191 90.9951 61.4563 94.3544C46.3071 101.925 46.2348 122.7 49.5138 137.005C53.6848 155.208 66.9855 172.792 83.6857 182.01C101.583 191.863 122.334 193.205 142.305 194.242C160.034 195.166 178.189 196.484 194.953 202.761C208.905 207.985 219.963 218.031 229.929 228.808C239.894 239.585 249.217 252.733 264.543 255.61C282.617 259.01 300.515 244.319 305.698 226.678C310.882 209.038 305.932 189.878 297.839 173.363C293.266 164.016 287.536 153.689 290.871 143.836C293.009 137.535 298.433 133.035 303.271 128.47C316.243 116.214 326.578 100.936 331.785 83.8586C336.993 66.7807 336.808 47.8865 329.985 31.3952C325.895 21.5021 318.838 12.3966 310.014 6.56998Z" fill="#407BFF"/>
<path opacity="0.9" d="M310.014 6.56998C304.033 2.48472 297.002 0.205525 289.762 0.00402913C273.335 -0.245107 258.797 11.0946 248.992 24.2747C239.187 37.4549 232.669 52.829 223.057 66.1538C203.938 92.6748 171.39 109.97 138.801 107.47C119.859 106.016 102.025 98.3326 83.549 93.9124C76.2357 92.1604 68.191 90.9951 61.4563 94.3544C46.3071 101.925 46.2348 122.7 49.5138 137.005C53.6848 155.208 66.9855 172.792 83.6857 182.01C101.583 191.863 122.334 193.205 142.305 194.242C160.034 195.166 178.189 196.484 194.953 202.761C208.905 207.985 219.963 218.031 229.929 228.808C239.894 239.585 249.217 252.733 264.543 255.61C282.617 259.01 300.515 244.319 305.698 226.678C310.882 209.038 305.932 189.878 297.839 173.363C293.266 164.016 287.536 153.689 290.871 143.836C293.009 137.535 298.433 133.035 303.271 128.47C316.243 116.214 326.578 100.936 331.785 83.8586C336.993 66.7807 336.808 47.8865 329.985 31.3952C325.895 21.5021 318.838 12.3966 310.014 6.56998Z" fill="white"/>
<path d="M200.916 306.587C114.858 306.587 45.0935 302.514 45.0935 297.489C45.0935 292.465 114.858 288.392 200.916 288.392C286.975 288.392 356.739 292.465 356.739 297.489C356.739 302.514 286.975 306.587 200.916 306.587Z" fill="#F5F5F5"/>
<path d="M328.482 272.101C328.611 271.298 331.424 251.865 325.79 245.17C325.227 244.465 324.515 243.892 323.705 243.493C322.895 243.095 322.007 242.88 321.105 242.864C309.733 242.599 308.182 251.704 308.166 251.825L309.508 252.034C309.556 251.704 310.906 243.997 321.073 244.222C321.782 244.229 322.481 244.396 323.116 244.711C323.752 245.025 324.309 245.479 324.745 246.038C329.993 252.275 327.156 271.699 327.156 271.9L328.482 272.101Z" fill="#407BFF"/>
<path d="M329.174 271.209L330.532 271.169C330.532 270.992 330.082 253.287 338.802 249.631C347.353 246.046 351.194 253.416 351.355 253.73L352.568 253.095C352.528 253.006 348.012 244.254 338.279 248.353C328.699 252.395 329.15 270.446 329.174 271.209Z" fill="#407BFF"/>
<path d="M329.133 272.6C329.133 272.318 329.214 244.319 334.679 236.137C339.919 228.269 348.341 231.974 348.727 232.119L349.289 230.881C349.193 230.857 339.436 226.574 333.521 235.414C327.839 243.941 327.751 271.466 327.751 272.632L329.133 272.6Z" fill="#407BFF"/>
<path d="M319.481 243.539C319.481 243.539 324.448 245.363 322.969 249.687C321.49 254.011 305.787 261.131 305.787 261.131C305.787 261.131 299.213 255.104 305.256 245.299C311.3 235.494 319.345 240.445 319.481 243.539Z" fill="#407BFF"/>
<path d="M334.92 234.659C334.92 234.659 331.392 234.281 331.705 232.135C332.019 229.989 345.408 224.46 353.332 233.397C353.332 233.397 348.261 242.108 340.931 242.237C333.602 242.366 334.92 234.659 334.92 234.659Z" fill="#407BFF"/>
<path d="M338.536 249.004C338.536 249.004 336.125 247.043 338.729 246.079C341.333 245.114 354.248 245.395 354.376 258.134C354.376 258.134 339.372 260.633 337.499 255.771C335.627 250.909 338.536 249.004 338.536 249.004Z" fill="#407BFF"/>
<path opacity="0.2" d="M319.481 243.539C319.481 243.539 324.448 245.363 322.969 249.687C321.49 254.011 305.787 261.131 305.787 261.131C305.787 261.131 299.213 255.104 305.256 245.299C311.3 235.494 319.345 240.445 319.481 243.539Z" fill="white"/>
<path opacity="0.2" d="M334.92 234.659C334.92 234.659 331.392 234.281 331.705 232.135C332.019 229.989 345.408 224.46 353.332 233.397C353.332 233.397 348.261 242.108 340.931 242.237C333.602 242.366 334.92 234.659 334.92 234.659Z" fill="white"/>
<path opacity="0.2" d="M338.536 249.004C338.536 249.004 336.125 247.043 338.729 246.079C341.333 245.114 354.248 245.395 354.376 258.134C354.376 258.134 339.372 260.633 337.499 255.771C335.627 250.909 338.536 249.004 338.536 249.004Z" fill="white"/>
<path d="M316.813 298.1H340.103L342.611 272.6H314.298L316.813 298.1Z" fill="#407BFF"/>
<path opacity="0.5" d="M316.813 298.1H340.103L342.611 272.6H314.298L316.813 298.1Z" fill="white"/>
<path d="M313.06 269.787H343.856V275.412H313.06V269.787Z" fill="#407BFF"/>
<path opacity="0.2" d="M313.06 269.787H343.856V275.412H313.06V269.787Z" fill="white"/>
<path d="M87.8727 25.2794H222.84C227.456 25.2794 231.198 29.0214 231.198 33.6375V289.742C231.198 294.358 227.456 298.1 222.84 298.1H87.8727C83.2566 298.1 79.5145 294.358 79.5145 289.742V33.6375C79.5145 29.0214 83.2566 25.2794 87.8727 25.2794Z" fill="#263238"/>
<path d="M84.5857 34.417V288.456C84.5856 288.948 84.6835 289.436 84.8736 289.89C85.0637 290.344 85.3422 290.756 85.693 291.101C86.0437 291.447 86.4597 291.719 86.9167 291.903C87.3737 292.086 87.8626 292.176 88.3549 292.169H222.664C223.111 292.174 223.554 292.09 223.968 291.92C224.382 291.75 224.757 291.499 225.071 291.181C225.386 290.863 225.633 290.484 225.798 290.069C225.962 289.653 226.042 289.208 226.031 288.761V34.1116C226.047 33.7172 225.985 33.3236 225.849 32.9532C225.712 32.5828 225.504 32.2429 225.236 31.9532C224.968 31.6635 224.645 31.4296 224.287 31.2648C223.928 31.1001 223.54 31.0079 223.146 30.9934H189.569C189.099 31.0018 188.642 31.15 188.257 31.4191C187.872 31.6883 187.576 32.0661 187.407 32.5043L186.016 35.9279C185.845 36.3631 185.547 36.7375 185.162 37.0037C184.778 37.2698 184.322 37.4156 183.855 37.4227H126.69C126.224 37.4208 125.769 37.2798 125.384 37.0177C124.999 36.7557 124.701 36.3846 124.528 35.952L123.138 32.5123C122.964 32.0762 122.667 31.7002 122.283 31.4304C121.899 31.1606 121.445 31.0087 120.976 30.9934H87.8807C86.9925 31.0186 86.1496 31.3915 85.5334 32.0317C84.9172 32.672 84.5769 33.5285 84.5857 34.417Z" fill="#407BFF"/>
<path opacity="0.3" d="M84.5857 46.8658H226.031V253.609H84.5857V46.8658Z" fill="white"/>
<path opacity="0.6" d="M158.515 33.2759C157.441 33.2759 156.57 32.4051 156.57 31.331C156.57 30.2569 157.441 29.3861 158.515 29.3861C159.589 29.3861 160.46 30.2569 160.46 31.331C160.46 32.4051 159.589 33.2759 158.515 33.2759Z" fill="white"/>
<path opacity="0.6" d="M152.64 31.331C152.64 31.5773 152.713 31.8182 152.85 32.023C152.987 32.2279 153.182 32.3876 153.409 32.4818C153.637 32.5761 153.887 32.6008 154.129 32.5527C154.371 32.5047 154.593 32.386 154.767 32.2118C154.941 32.0376 155.06 31.8156 155.108 31.574C155.156 31.3324 155.131 31.0819 155.037 30.8543C154.942 30.6267 154.783 30.4321 154.578 30.2952C154.373 30.1584 154.132 30.0853 153.886 30.0853C153.722 30.0842 153.56 30.1157 153.408 30.1779C153.256 30.2402 153.119 30.3319 153.003 30.4478C152.887 30.5636 152.795 30.7014 152.733 30.853C152.671 31.0046 152.639 31.1671 152.64 31.331Z" fill="white"/>
<path opacity="0.6" d="M210.078 41.2321H208.334V38.9015H210.078V41.2321Z" fill="white"/>
<path opacity="0.6" d="M212.923 41.2321H211.179V38.13H212.923V41.2321Z" fill="white"/>
<path opacity="0.6" d="M215.768 41.2321H214.024V37.3504H215.768V41.2321Z" fill="white"/>
<path opacity="0.6" d="M218.613 41.2321H216.869V36.5709H218.613V41.2321Z" fill="white"/>
<path opacity="0.6" d="M100.225 38.0496H101.262V40.3803H100.225V38.0496Z" fill="white"/>
<path opacity="0.6" d="M99.5178 41.2321H91.2642V37.2058H99.5178V41.2321Z" fill="white"/>
<path opacity="0.4" d="M174.629 90.5772C174.629 94.9277 175.919 99.1805 178.336 102.798C180.753 106.415 184.188 109.234 188.207 110.899C192.227 112.564 196.649 113 200.916 112.151C205.183 111.302 209.103 109.207 212.179 106.131C215.255 103.055 217.35 99.1354 218.199 94.8685C219.047 90.6016 218.612 86.1789 216.947 82.1596C215.282 78.1403 212.463 74.7049 208.845 72.2879C205.228 69.871 200.975 68.5809 196.625 68.5809C193.735 68.5767 190.873 69.1427 188.202 70.2466C185.532 71.3506 183.105 72.9706 181.062 75.014C179.018 77.0574 177.398 79.484 176.294 82.1546C175.19 84.8252 174.624 87.6874 174.629 90.5772Z" fill="white"/>
<path opacity="0.3" d="M185.317 109.439C188.579 111.395 192.292 112.474 196.095 112.569C199.897 112.665 203.66 111.775 207.016 109.986C206.735 109.938 206.462 109.905 206.213 109.873H206.261C204.155 107.567 204.252 102.793 204.911 98.5657C205.066 98.3063 205.205 98.0379 205.329 97.762C206.198 96.3845 206.846 94.8795 207.249 93.3017C208.175 92.5477 208.851 91.5304 209.186 90.3844C209.369 89.8269 209.374 89.2261 209.2 88.6657C209.026 88.1054 208.681 87.6133 208.214 87.2581C208.27 86.6071 208.302 85.9401 208.31 85.273C208.31 85.273 210.962 82.8621 209.307 81.6164C207.651 80.3707 207.281 78.5142 206.269 76.3684C205.256 74.2226 200.748 71.442 195.966 74.6968C195.966 74.6968 193.426 73.8288 192.301 74.4637C191.461 75.0676 190.77 75.8568 190.284 76.7703C190.131 76.58 189.938 76.4251 189.719 76.3162C189.5 76.2073 189.261 76.147 189.017 76.1394C188.772 76.1317 188.529 76.177 188.304 76.272C188.079 76.367 187.877 76.5096 187.712 76.6899C186.41 78.0401 187.439 82.8862 186.33 84.0756C185.221 85.265 187.31 86.5428 187.656 86.7679C187.793 87.4228 187.983 88.0653 188.227 88.6886C188.193 91.6925 188.767 94.6722 189.914 97.4486C190.04 97.7233 190.179 97.9916 190.332 98.2523C191.424 100.206 193.22 101.67 195.355 102.343C195.853 102.5 196.364 102.611 196.882 102.672C196.954 103.604 196.853 104.542 196.585 105.437C196.03 107.093 194.68 108.386 191.915 108.845C191.913 108.858 191.913 108.871 191.915 108.885C191.337 108.885 190.758 108.949 190.187 108.949C188.693 109.037 187.27 109.19 186.041 109.343C185.797 109.357 185.556 109.389 185.317 109.439Z" fill="black"/>
<path d="M175.93 102.761H181.669C182.72 102.761 183.573 103.614 183.573 104.665V110.404C183.573 111.456 182.72 112.308 181.669 112.308H175.93C174.878 112.308 174.026 111.456 174.026 110.404V104.665C174.026 103.614 174.878 102.761 175.93 102.761Z" fill="#407BFF"/>
<path opacity="0.3" d="M176.437 107.543C176.438 108.01 176.578 108.466 176.839 108.853C177.1 109.241 177.469 109.542 177.901 109.72C178.333 109.897 178.808 109.943 179.265 109.851C179.723 109.759 180.144 109.533 180.473 109.202C180.803 108.872 181.027 108.451 181.118 107.993C181.208 107.534 181.161 107.06 180.982 106.629C180.803 106.197 180.5 105.829 180.111 105.569C179.723 105.31 179.267 105.172 178.8 105.172C178.489 105.172 178.181 105.233 177.894 105.352C177.606 105.472 177.346 105.646 177.126 105.867C176.906 106.087 176.733 106.348 176.614 106.636C176.496 106.924 176.436 107.232 176.437 107.543Z" fill="black"/>
<path opacity="0.5" d="M124.769 78.6991H155.421C156.241 78.6991 157.028 78.3731 157.609 77.7928C158.189 77.2126 158.515 76.4256 158.515 75.605C158.513 74.785 158.186 73.9993 157.606 73.4195C157.027 72.8397 156.241 72.513 155.421 72.5109H124.769C123.949 72.513 123.163 72.8397 122.583 73.4195C122.004 73.9993 121.677 74.785 121.675 75.605C121.675 76.4256 122.001 77.2126 122.581 77.7928C123.161 78.3731 123.948 78.6991 124.769 78.6991Z" fill="white"/>
<path opacity="0.5" d="M107.964 90.5692H156.658C157.149 90.5692 157.62 90.3747 157.968 90.0283C158.316 89.6819 158.513 89.2118 158.515 88.7208C158.515 88.2284 158.319 87.7562 157.971 87.4081C157.623 87.0599 157.151 86.8643 156.658 86.8643H107.964C107.472 86.8643 107 87.0599 106.652 87.4081C106.303 87.7562 106.108 88.2284 106.108 88.7208C106.11 89.2118 106.306 89.6819 106.654 90.0283C107.002 90.3747 107.473 90.5692 107.964 90.5692Z" fill="white"/>
<path opacity="0.5" d="M124.038 98.6059H156.658C157.149 98.6059 157.62 98.4114 157.968 98.065C158.316 97.7186 158.513 97.2484 158.515 96.7575C158.515 96.2651 158.319 95.7929 157.971 95.4447C157.623 95.0966 157.151 94.901 156.658 94.901H124.038C123.545 94.901 123.073 95.0966 122.725 95.4447C122.377 95.7929 122.181 96.2651 122.181 96.7575C122.183 97.2484 122.38 97.7186 122.728 98.065C123.076 98.4114 123.547 98.6059 124.038 98.6059Z" fill="white"/>
<path opacity="0.3" d="M146.098 277.936H164.88C165.927 277.936 166.777 278.785 166.777 279.833V284.14C166.777 285.188 165.927 286.037 164.88 286.037H146.098C145.051 286.037 144.202 285.188 144.202 284.14V279.833C144.202 278.785 145.051 277.936 146.098 277.936Z" fill="black"/>
<path opacity="0.5" d="M115.077 260.729H195.91C196.935 260.729 197.766 261.561 197.766 262.586C197.766 263.611 196.935 264.442 195.91 264.442H115.077C114.052 264.442 113.22 263.611 113.22 262.586C113.22 261.561 114.052 260.729 115.077 260.729Z" fill="white"/>
<path opacity="0.5" d="M127.132 268.766H183.855C184.88 268.766 185.711 269.597 185.711 270.623C185.711 271.648 184.88 272.479 183.855 272.479H127.132C126.107 272.479 125.275 271.648 125.275 270.623C125.275 269.597 126.107 268.766 127.132 268.766Z" fill="white"/>
<path opacity="0.4" d="M90.6774 116.656H220.301V158.045H90.6774V116.656Z" fill="white"/>
<path opacity="0.5" d="M133.891 124.331H157.92C158.387 124.331 158.835 124.146 159.165 123.816C159.495 123.486 159.68 123.038 159.68 122.571C159.68 122.104 159.495 121.657 159.165 121.327C158.835 120.997 158.387 120.811 157.92 120.811H133.891C133.423 120.811 132.975 120.996 132.643 121.326C132.312 121.656 132.125 122.104 132.123 122.571C132.125 123.039 132.312 123.486 132.643 123.816C132.975 124.146 133.423 124.331 133.891 124.331Z" fill="white"/>
<path opacity="0.5" d="M111.388 131.564H157.92C158.387 131.564 158.835 131.379 159.165 131.049C159.495 130.719 159.68 130.271 159.68 129.804C159.68 129.337 159.495 128.89 159.165 128.56C158.835 128.23 158.387 128.044 157.92 128.044H111.388C110.921 128.044 110.472 128.229 110.141 128.559C109.809 128.889 109.622 129.337 109.62 129.804C109.622 130.272 109.809 130.719 110.141 131.049C110.472 131.379 110.921 131.564 111.388 131.564Z" fill="white"/>
<path opacity="0.3" d="M167.685 120.811H215.511V153.544H167.685V120.811Z" fill="black"/>
<path opacity="0.3" d="M215.511 145.869L204.171 135.149L194.543 144.535L186.177 136.418L167.685 153.544H215.511V145.869Z" fill="black"/>
<path opacity="0.5" d="M176.196 132.103C174.438 132.103 173.013 130.678 173.013 128.92C173.013 127.163 174.438 125.738 176.196 125.738C177.953 125.738 179.378 127.163 179.378 128.92C179.378 130.678 177.953 132.103 176.196 132.103Z" fill="white"/>
<path opacity="0.4" d="M90.6774 162.063H220.301V203.452H90.6774V162.063Z" fill="white"/>
<path opacity="0.5" d="M133.891 169.738H157.92C158.387 169.738 158.835 169.553 159.165 169.223C159.495 168.893 159.68 168.445 159.68 167.978C159.68 167.512 159.495 167.064 159.165 166.734C158.835 166.404 158.387 166.218 157.92 166.218H133.891C133.423 166.218 132.975 166.404 132.643 166.733C132.312 167.063 132.125 167.511 132.123 167.978C132.125 168.446 132.312 168.894 132.643 169.223C132.975 169.553 133.423 169.738 133.891 169.738Z" fill="white"/>
<path opacity="0.5" d="M111.388 176.971H157.92C158.387 176.971 158.835 176.786 159.165 176.456C159.495 176.126 159.68 175.678 159.68 175.211C159.68 174.745 159.495 174.297 159.165 173.967C158.835 173.637 158.387 173.451 157.92 173.451H111.388C110.921 173.451 110.472 173.636 110.141 173.966C109.809 174.296 109.622 174.744 109.62 175.211C109.622 175.679 109.809 176.126 110.141 176.456C110.472 176.786 110.921 176.971 111.388 176.971Z" fill="white"/>
<path opacity="0.3" d="M167.685 166.218H215.511V198.952H167.685V166.218Z" fill="black"/>
<path opacity="0.3" d="M215.511 191.277L204.171 180.556L194.543 189.943L186.177 181.826L167.685 198.952H215.511V191.277Z" fill="black"/>
<path opacity="0.5" d="M176.196 177.51C174.438 177.51 173.013 176.085 173.013 174.327C173.013 172.57 174.438 171.145 176.196 171.145C177.953 171.145 179.378 172.57 179.378 174.327C179.378 176.085 177.953 177.51 176.196 177.51Z" fill="white"/>
<path opacity="0.4" d="M90.6774 207.471H220.301V248.859H90.6774V207.471Z" fill="white"/>
<path opacity="0.5" d="M133.891 215.146H157.92C158.387 215.146 158.835 214.96 159.165 214.63C159.495 214.3 159.68 213.852 159.68 213.386C159.68 212.919 159.495 212.471 159.165 212.141C158.835 211.811 158.387 211.625 157.92 211.625H133.891C133.423 211.625 132.975 211.811 132.643 212.141C132.312 212.47 132.125 212.918 132.123 213.386C132.125 213.853 132.312 214.301 132.643 214.631C132.975 214.96 133.423 215.146 133.891 215.146Z" fill="white"/>
<path opacity="0.5" d="M111.388 222.379H157.92C158.387 222.379 158.835 222.193 159.165 221.863C159.495 221.533 159.68 221.085 159.68 220.618C159.68 220.152 159.495 219.704 159.165 219.374C158.835 219.044 158.387 218.858 157.92 218.858H111.388C110.921 218.858 110.472 219.044 110.141 219.373C109.809 219.703 109.622 220.151 109.62 220.618C109.622 221.086 109.809 221.534 110.141 221.864C110.472 222.193 110.921 222.379 111.388 222.379Z" fill="white"/>
<path opacity="0.3" d="M167.685 211.625H215.511V244.359H167.685V211.625Z" fill="black"/>
<path opacity="0.3" d="M215.511 236.684L204.171 225.963L194.543 235.35L186.177 227.233L167.685 244.359H215.511V236.684Z" fill="black"/>
<path opacity="0.5" d="M176.196 222.917C174.438 222.917 173.013 221.492 173.013 219.734C173.013 217.977 174.438 216.552 176.196 216.552C177.953 216.552 179.378 217.977 179.378 219.734C179.378 221.492 177.953 222.917 176.196 222.917Z" fill="white"/>
<path opacity="0.3" d="M84.5857 46.8658H226.031V65.4627H84.5857V46.8658Z" fill="black"/>
<path d="M212.923 49.5099L218.718 52.7647L212.923 56.0276L207.129 52.7647L212.923 49.5099Z" fill="white"/>
<path d="M212.923 57.3376L216.99 55.0552L218.718 56.0276L212.923 59.2905L207.129 56.0276L208.857 55.0552L212.923 57.3376Z" fill="white"/>
<path d="M212.923 60.6005L216.99 58.3181L218.718 59.2905L212.923 62.5453L207.129 59.2905L208.857 58.3181L212.923 60.6005Z" fill="white"/>
<path d="M120.534 51.9772H139.316C140.363 51.9772 141.212 52.8263 141.212 53.8738V58.1815C141.212 59.229 140.363 60.0781 139.316 60.0781H120.534C119.486 60.0781 118.637 59.229 118.637 58.1815V53.8738C118.637 52.8263 119.486 51.9772 120.534 51.9772Z" fill="#407BFF"/>
<path d="M93.2091 51.9772H111.991C113.038 51.9772 113.887 52.8263 113.887 53.8738V58.1815C113.887 59.229 113.038 60.0781 111.991 60.0781H93.2091C92.1616 60.0781 91.3125 59.229 91.3125 58.1815V53.8738C91.3125 52.8263 92.1616 51.9772 93.2091 51.9772Z" fill="#407BFF"/>
<path opacity="0.2" d="M120.534 51.9772H139.316C140.363 51.9772 141.212 52.8263 141.212 53.8738V58.1815C141.212 59.229 140.363 60.0781 139.316 60.0781H120.534C119.486 60.0781 118.637 59.229 118.637 58.1815V53.8738C118.637 52.8263 119.486 51.9772 120.534 51.9772Z" fill="white"/>
<path opacity="0.2" d="M93.2091 51.9772H111.991C113.038 51.9772 113.887 52.8263 113.887 53.8738V58.1815C113.887 59.229 113.038 60.0781 111.991 60.0781H93.2091C92.1616 60.0781 91.3125 59.229 91.3125 58.1815V53.8738C91.3125 52.8263 92.1616 51.9772 93.2091 51.9772Z" fill="white"/>
<path d="M236.358 126.63C240.489 128.293 243.985 124.154 244.146 119.228C244.146 119.228 247.915 116.817 252.182 114.197C255.394 112.176 258.707 110.32 262.108 108.636C262.665 108.375 263.148 107.98 263.514 107.486C266.809 103.211 265.29 90.8906 265.29 90.8906C257.655 91.7425 242.402 105.574 235.723 112.244C229.045 118.914 232.259 124.958 236.358 126.63Z" fill="#407BFF"/>
<path opacity="0.2" d="M252.182 114.197C255.394 112.176 258.707 110.32 262.108 108.636C262.665 108.375 263.148 107.98 263.514 107.486L258.178 102.737C258.178 102.737 253.412 108.933 252.182 114.197Z" fill="black"/>
<path d="M261.497 292.113L254.979 292.804L253.758 278.74L260.275 278.048L261.497 292.113Z" fill="#E4897B"/>
<path d="M294.029 291.638H287.712L287.19 277.004H293.515L294.029 291.638Z" fill="#E4897B"/>
<path d="M286.836 290.907H294.511C294.637 290.908 294.759 290.951 294.857 291.03C294.954 291.109 295.022 291.218 295.05 291.341L296.295 296.967C296.345 297.209 296.297 297.46 296.162 297.667C296.026 297.873 295.814 298.017 295.572 298.068C295.505 298.076 295.438 298.076 295.371 298.068C292.888 298.028 291.08 297.875 287.961 297.875C286.041 297.875 280.246 298.076 277.594 298.076C274.942 298.076 274.596 295.456 275.681 295.215C280.552 294.154 284.216 292.683 285.775 291.285C286.068 291.028 286.447 290.892 286.836 290.907Z" fill="#263238"/>
<path d="M286.402 291.783C286.432 291.775 286.458 291.759 286.478 291.736C286.498 291.713 286.511 291.685 286.515 291.655C286.52 291.626 286.515 291.596 286.502 291.57C286.489 291.544 286.468 291.523 286.443 291.51C286.218 291.365 284.176 290.111 283.477 290.473C283.398 290.51 283.331 290.569 283.285 290.643C283.239 290.717 283.217 290.804 283.22 290.891C283.198 291.041 283.216 291.193 283.271 291.334C283.326 291.475 283.416 291.599 283.533 291.695C283.89 291.935 284.318 292.049 284.747 292.016C285.306 291.999 285.861 291.921 286.402 291.783ZM285.968 291.574C285.231 291.823 284.427 291.783 283.718 291.462C283.644 291.395 283.586 291.311 283.551 291.217C283.516 291.123 283.505 291.022 283.517 290.923C283.517 290.803 283.573 290.746 283.614 290.746C283.672 290.713 283.74 290.699 283.807 290.706C284.577 290.852 285.311 291.147 285.968 291.574Z" fill="#407BFF"/>
<path d="M286.443 291.815C286.465 291.8 286.484 291.78 286.496 291.756C286.509 291.732 286.515 291.706 286.515 291.679C286.515 291.59 286.354 289.774 285.623 289.179C285.537 289.104 285.436 289.047 285.326 289.014C285.217 288.981 285.101 288.971 284.988 288.986C284.874 288.986 284.764 289.025 284.676 289.097C284.588 289.169 284.528 289.269 284.506 289.38C284.377 290.047 285.639 291.438 286.29 291.791H286.362C286.386 291.807 286.414 291.816 286.443 291.815ZM285.43 289.356C285.874 289.924 286.135 290.613 286.177 291.333C285.526 290.843 284.723 289.79 284.803 289.38C284.803 289.38 284.803 289.227 285.02 289.227H285.092C285.216 289.23 285.336 289.276 285.43 289.356Z" fill="#407BFF"/>
<path d="M254.288 290.706H261.995C262.121 290.707 262.242 290.75 262.34 290.829C262.438 290.908 262.506 291.018 262.533 291.14L263.779 296.766C263.829 297.008 263.781 297.26 263.645 297.466C263.51 297.672 263.298 297.817 263.056 297.867C262.989 297.875 262.922 297.875 262.855 297.867C260.372 297.827 258.563 297.674 255.445 297.674C253.524 297.674 247.73 297.875 245.078 297.875C242.426 297.875 242.08 295.255 243.165 295.014C248.035 293.953 251.7 292.482 253.259 291.084C253.543 290.834 253.91 290.7 254.288 290.706Z" fill="#263238"/>
<path d="M253.854 291.582C253.883 291.574 253.91 291.558 253.93 291.535C253.95 291.512 253.963 291.484 253.967 291.454C253.971 291.425 253.967 291.395 253.954 291.369C253.941 291.343 253.92 291.322 253.894 291.309C253.669 291.164 251.628 289.911 250.929 290.272C250.849 290.309 250.783 290.368 250.737 290.442C250.691 290.517 250.668 290.603 250.672 290.69C250.65 290.84 250.668 290.992 250.722 291.133C250.777 291.274 250.868 291.398 250.985 291.494C251.342 291.734 251.769 291.848 252.198 291.815C252.757 291.799 253.312 291.72 253.854 291.582ZM253.42 291.373C252.683 291.622 251.879 291.582 251.17 291.261C251.095 291.194 251.038 291.11 251.003 291.016C250.968 290.922 250.956 290.822 250.969 290.722C250.969 290.602 251.025 290.545 251.065 290.545C251.124 290.512 251.191 290.498 251.258 290.505C252.028 290.651 252.763 290.946 253.42 291.373Z" fill="#407BFF"/>
<path d="M253.894 291.614C253.917 291.599 253.935 291.579 253.948 291.555C253.961 291.531 253.967 291.505 253.967 291.478C253.967 291.389 253.806 289.573 253.074 288.978C252.988 288.903 252.887 288.847 252.778 288.813C252.668 288.78 252.553 288.771 252.44 288.785C252.326 288.785 252.216 288.824 252.128 288.896C252.04 288.968 251.98 289.068 251.957 289.179C251.829 289.846 253.091 291.237 253.742 291.59H253.814C253.837 291.606 253.866 291.615 253.894 291.614ZM252.882 289.155C253.326 289.723 253.587 290.412 253.629 291.132C252.978 290.642 252.174 289.589 252.255 289.179C252.255 289.179 252.255 289.026 252.472 289.026H252.544C252.668 289.029 252.787 289.075 252.882 289.155Z" fill="#407BFF"/>
<path opacity="0.2" d="M260.275 278.048L253.758 278.74L254.392 285.997L260.91 285.306L260.275 278.048Z" fill="black"/>
<path opacity="0.2" d="M293.515 277.012H287.19L287.463 284.558H293.788L293.515 277.012Z" fill="black"/>
<path d="M290.927 148.618H257.398C254.184 166.033 244.234 227.642 251.387 282.533L262.719 281.143C262.719 281.143 261.666 208.266 271.687 181.327C272.845 195.745 274.211 211.063 275.4 219.252C278.318 239.344 284.562 283.248 284.562 283.248H296.119C296.119 283.248 293.756 241.224 292.663 221.478C291.466 200.053 290.927 153.038 290.927 148.618Z" fill="#263238"/>
<path opacity="0.2" d="M296.119 283.248H284.562C284.562 283.248 278.318 239.336 275.4 219.244C274.211 211.087 272.845 195.745 271.687 181.327C270.037 186.05 268.785 190.902 267.942 195.833C261.955 228.149 262.719 281.143 262.719 281.143L251.371 282.75C244.21 227.851 254.184 165.913 257.374 149.036H290.927C290.975 153.054 291.49 200.237 292.687 221.671C293.756 241.417 296.119 283.248 296.119 283.248Z" fill="white"/>
<path d="M250.069 285.193L264.117 283.103L263.691 279.214L249.072 281.135L250.069 285.193Z" fill="#407BFF"/>
<path d="M283.172 283.345H296.802V279.27L282.657 279.005L283.172 283.345Z" fill="#407BFF"/>
<path opacity="0.2" d="M271.687 181.327C270.037 186.05 268.785 190.902 267.942 195.833C267.002 182.975 270.755 169.401 270.755 169.401L271.687 181.327Z" fill="black"/>
<path d="M309.146 133.011C309.146 133.011 293.515 147.525 292.036 149.036C290.557 150.547 290.654 161.356 292.036 161.838C293.418 162.32 297.879 163.108 298.04 161.838C298.2 160.568 297.718 153.569 297.718 153.569L296.713 152.138L313.936 139.778L309.146 133.011Z" fill="#E4897B"/>
<path d="M296.713 93.5909C307.732 95.576 323.572 116.021 321.466 129.483C320.092 138.468 311.019 143.394 311.019 143.394L303.689 135.743C303.689 135.743 308.326 131.661 309.251 129.073C312.007 121.366 301.945 109.536 293.684 107.101L291.98 100.213L296.713 93.5909Z" fill="#407BFF"/>
<path d="M296.713 93.5909C294.857 100.411 293.513 107.361 292.695 114.382C292.43 116.536 292.213 118.649 292.036 120.699C291.803 123.302 291.642 125.81 291.514 128.189C291.353 131.203 291.305 134.763 291.313 138.267C291.313 146.303 291.65 154.059 291.65 154.059C285.221 155.666 266.64 154.597 256.49 153.858C255.297 144.152 254.987 134.358 255.566 124.596C255.904 118.15 256.615 111.729 257.695 105.365C258.241 101.967 258.998 98.6063 259.962 95.3027C260.335 94.1318 261.036 93.0923 261.982 92.3075C262.927 91.5227 264.078 91.0254 265.298 90.8745C266.528 90.7218 267.95 90.5691 269.445 90.4807C270.024 90.4807 270.602 90.4245 271.189 90.4164C275.983 90.471 280.771 90.8038 285.526 91.413C286.426 91.5175 287.343 91.6541 288.227 91.7987C291.085 92.2466 293.918 92.8448 296.713 93.5909Z" fill="#407BFF"/>
<path opacity="0.7" d="M256.49 153.866C266.64 154.605 285.221 155.674 291.65 154.067C291.65 154.067 291.329 146.328 291.313 138.275C291.313 134.771 291.353 131.211 291.514 128.197C291.642 125.786 291.803 123.31 292.036 120.707C292.213 118.657 292.43 116.544 292.695 114.39C292.759 113.811 292.832 113.224 292.912 112.646C293.145 110.789 293.427 108.941 293.716 107.101V107.052L290.59 102.552L284.377 93.5989C284.377 93.5989 274.042 97.778 269.75 91.8148C265.49 94.9979 261.61 98.6599 258.186 102.729C258.017 103.532 257.856 104.448 257.695 105.373C256.615 111.737 255.904 118.158 255.566 124.604C254.988 134.366 255.297 144.16 256.49 153.866Z" fill="white"/>
<path d="M266.737 63.3811C266.737 63.3811 265.668 70.5498 270.289 73.8931C274.91 77.2363 274.91 61.0344 274.91 61.0344L266.737 63.3811Z" fill="#263238"/>
<path d="M285.526 91.3728C282.448 94.1696 274.91 93.1409 274.91 93.1409C274.91 93.1409 270.2 91.847 271.189 90.3763C273.962 89.9182 275.304 88.6243 275.858 86.9687C276.162 85.9425 276.258 84.866 276.14 83.8023C276.094 83.2092 276.016 82.619 275.906 82.0342L285.229 75.1307C284.007 79.6875 282.513 88.0698 285.526 91.3728Z" fill="#E4897B"/>
<path opacity="0.2" d="M283.075 79.5027C282.706 85.1283 278.109 86.6392 275.842 86.9527C276.146 85.9265 276.241 84.8499 276.123 83.7862L283.075 79.5027Z" fill="black"/>
<path d="M283.694 80.8127C282.726 82.2461 281.313 83.322 279.674 83.8751C278.035 84.4283 276.26 84.4281 274.621 83.8746C272.489 83.1957 270.694 81.7339 269.598 79.784C269.445 79.5233 269.306 79.255 269.18 78.9803C266.905 73.66 266.182 64.3536 271.808 60.8657C273.045 60.0887 274.46 59.641 275.919 59.5651C277.378 59.4891 278.832 59.7874 280.143 60.4317C281.454 61.0759 282.578 62.0447 283.409 63.2459C284.241 64.4472 284.751 65.841 284.891 67.295C285.591 73.5073 286.29 77.1319 283.694 80.8127Z" fill="#E4897B"/>
<path d="M275.834 70.6141C275.955 71.1043 275.722 71.5624 275.392 71.6187C275.063 71.6749 274.725 71.3133 274.637 70.815C274.548 70.3168 274.757 69.8587 275.079 69.8024C275.4 69.7461 275.738 70.1078 275.834 70.6141Z" fill="#263238"/>
<path d="M270.152 71.5785C270.273 72.0768 270.04 72.5349 269.71 72.5912C269.381 72.6474 269.051 72.2777 268.963 71.7875C268.875 71.2973 269.075 70.8392 269.405 70.7829C269.734 70.7267 270.032 71.1044 270.152 71.5785Z" fill="#263238"/>
<path d="M272.001 71.5223C271.662 73.1601 271.102 74.7444 270.337 76.2318C270.727 76.4146 271.152 76.5094 271.583 76.5094C272.013 76.5094 272.439 76.4146 272.829 76.2318L272.001 71.5223Z" fill="#DE5753"/>
<path d="M277.265 68.4764C277.212 68.4931 277.156 68.4952 277.102 68.4824C277.048 68.4697 276.999 68.4426 276.959 68.404C276.691 68.1417 276.366 67.9456 276.009 67.8312C275.651 67.7168 275.273 67.6873 274.902 67.745C274.825 67.7623 274.745 67.7494 274.678 67.709C274.61 67.6686 274.561 67.6038 274.54 67.528C274.531 67.49 274.529 67.4505 274.534 67.4117C274.54 67.373 274.553 67.3357 274.574 67.3021C274.594 67.2685 274.62 67.2392 274.652 67.2159C274.683 67.1926 274.719 67.1758 274.757 67.1664C275.224 67.0824 275.704 67.1116 276.157 67.2514C276.61 67.3912 277.023 67.6377 277.361 67.97C277.389 67.997 277.412 68.0295 277.427 68.0654C277.443 68.1013 277.45 68.14 277.45 68.179C277.45 68.218 277.443 68.2567 277.427 68.2926C277.412 68.3285 277.389 68.3609 277.361 68.3879L277.265 68.4764Z" fill="#263238"/>
<path d="M274.05 78.699C274.787 78.6846 275.51 78.493 276.158 78.1405C276.805 77.7881 277.359 77.285 277.771 76.6737C277.782 76.656 277.79 76.6362 277.793 76.6154C277.797 76.5946 277.796 76.5733 277.79 76.5529C277.785 76.5326 277.776 76.5135 277.763 76.497C277.75 76.4804 277.733 76.4667 277.715 76.4568C277.682 76.435 277.641 76.4269 277.602 76.4344C277.563 76.442 277.529 76.4644 277.506 76.4969C277.113 77.0558 276.596 77.5154 275.995 77.8391C275.393 78.1628 274.725 78.3416 274.042 78.3614C274.001 78.3614 273.963 78.3775 273.934 78.4062C273.905 78.4348 273.889 78.4736 273.889 78.5141C273.891 78.554 273.908 78.5917 273.936 78.6199C273.964 78.6482 274.002 78.6649 274.042 78.6668L274.05 78.699Z" fill="#263238"/>
<path d="M267.38 70.0435C267.329 70.0729 267.27 70.0869 267.211 70.0837C267.173 70.0735 267.137 70.0558 267.106 70.0316C267.074 70.0074 267.048 69.9772 267.029 69.9427C267.009 69.9083 266.997 69.8704 266.992 69.8311C266.988 69.7918 266.991 69.752 267.002 69.714C267.125 69.254 267.356 68.8301 267.676 68.4778C267.996 68.1254 268.396 67.8549 268.842 67.6888C268.88 67.6777 268.919 67.6741 268.958 67.6781C268.997 67.6822 269.035 67.6939 269.069 67.7126C269.103 67.7313 269.134 67.7565 269.158 67.7869C269.183 67.8173 269.201 67.8522 269.212 67.8897C269.223 67.9272 269.227 67.9664 269.223 68.0053C269.219 68.0442 269.207 68.0818 269.188 68.1162C269.17 68.1505 269.144 68.1808 269.114 68.2054C269.084 68.23 269.049 68.2483 269.011 68.2594C268.665 68.3982 268.355 68.6157 268.107 68.8946C267.858 69.1735 267.678 69.5063 267.581 69.8667C267.562 69.9092 267.535 69.9471 267.5 69.9776C267.465 70.0082 267.424 70.0307 267.38 70.0435Z" fill="#263238"/>
<path d="M275.657 57.2974C276.405 57.1929 277.144 57.1045 277.892 57.0723C280.045 56.8705 282.21 57.3035 284.12 58.318C288.42 60.8656 287.68 67.3914 287.126 71.6187C286.386 77.2444 284.176 79.792 284.176 79.792C285.518 77.1077 285.116 71.8839 284.24 71.7553C283.364 71.6267 283.437 72.6233 283.437 72.6233C281.5 71.4178 279.756 68.0022 280.359 65.5912C280.817 63.7428 278.751 62.3765 277.007 63.2445L276.485 63.5017C276.228 63.6302 275.947 63.7588 275.681 63.8874L275.657 57.2974Z" fill="#263238"/>
<path d="M288.46 71.8839C288.013 73.3973 286.984 74.6718 285.599 75.428C283.758 76.4166 282.384 74.8816 282.513 72.9045C282.641 71.1525 283.726 68.4683 285.768 68.3156C287.809 68.1629 288.982 70.0274 288.46 71.8839Z" fill="#E4897B"/>
<path d="M273.246 62.6257C273.648 63.3409 272.636 65.6475 274.942 65.0849C277.249 64.5223 277.409 65.5189 279.049 67.1021C280.688 68.6853 283.999 66.2984 283.999 66.2984L287.624 66.7726C287.624 66.7726 290.268 64.3616 288.612 63.1159C286.957 61.8702 286.595 60.0138 285.575 57.868C284.554 55.7222 280.061 52.9415 275.272 56.2044C275.272 56.2044 272.732 55.3284 271.615 55.9633C270.774 56.5671 270.084 57.3563 269.598 58.2698C269.443 58.0805 269.249 57.9266 269.03 57.8184C268.811 57.7103 268.571 57.6504 268.326 57.6428C268.082 57.6351 267.838 57.68 267.613 57.7743C267.387 57.8686 267.184 58.0102 267.018 58.1894C265.716 59.5396 266.753 64.3857 265.636 65.5832C264.519 66.7806 267.018 68.2996 267.018 68.2996C267.018 68.2996 268.971 67.8334 268.971 66.4029C268.971 63.8553 269.349 62.9471 270.578 62.481C270.808 62.4039 271.056 62.4004 271.288 62.471C271.52 62.5416 271.724 62.6827 271.872 62.8748C271.872 62.8748 272.563 61.5086 273.246 62.6257Z" fill="#263238"/>
<path opacity="0.2" d="M292.912 112.646C293.145 110.789 293.427 108.941 293.716 107.101V107.052C293.443 106.594 291.2 102.841 290.975 100.157C290.786 100.95 290.657 101.756 290.59 102.568C290.348 105.115 290.461 109.278 292.912 112.646Z" fill="black"/>
<path d="M281.42 106.771L280.616 113.2C280.564 113.64 280.348 114.044 280.011 114.331C279.675 114.619 279.242 114.769 278.8 114.751L265.33 114.237C265.093 114.228 264.859 114.171 264.644 114.069C264.429 113.968 264.237 113.824 264.079 113.646C263.922 113.468 263.802 113.259 263.727 113.034C263.652 112.808 263.623 112.569 263.643 112.332L264.173 105.799C264.214 105.347 264.427 104.928 264.768 104.629C265.109 104.33 265.552 104.173 266.006 104.191L279.724 104.778C279.97 104.786 280.212 104.845 280.434 104.952C280.656 105.059 280.853 105.212 281.013 105.399C281.173 105.587 281.291 105.806 281.361 106.042C281.431 106.278 281.451 106.527 281.42 106.771Z" fill="#407BFF"/>
<path opacity="0.7" d="M274.91 107.213L269.228 109.07L274.621 111.77L273.158 109.495L274.91 107.213Z" fill="white"/>
<path d="M263.434 103.307L259.809 88.8413C259.741 88.5686 259.584 88.3264 259.363 88.1531C259.141 87.9799 258.869 87.8855 258.588 87.8849H250.985C250.874 87.8853 250.765 87.9108 250.665 87.9597C250.566 88.0085 250.478 88.0794 250.41 88.1669C250.342 88.2544 250.295 88.3562 250.272 88.4647C250.249 88.5732 250.251 88.6854 250.278 88.793L253.822 103.219C253.889 103.492 254.045 103.735 254.267 103.909C254.488 104.082 254.762 104.176 255.043 104.175H262.726C262.833 104.174 262.938 104.149 263.034 104.102C263.13 104.056 263.215 103.989 263.282 103.906C263.35 103.823 263.398 103.727 263.424 103.623C263.45 103.52 263.454 103.412 263.434 103.307Z" fill="#263238"/>
<path opacity="0.3" d="M256.112 93.5909C256.523 93.6521 256.905 93.8398 257.205 94.1278C257.504 94.4158 257.707 94.79 257.784 95.1983C258.009 96.0823 257.615 96.8056 256.9 96.8056C256.488 96.7437 256.106 96.556 255.805 96.2682C255.504 95.9805 255.3 95.6067 255.22 95.1983C255.003 94.3062 255.397 93.5909 256.112 93.5909Z" fill="white"/>
<path d="M235.964 117.613C235.964 117.613 245.006 102.849 247.529 100.591C250.053 98.3326 259.584 96.677 259.898 96.5725C260.211 96.4681 262.228 104.963 261.328 105.694C260.428 106.425 252.054 107.245 251.507 107.02C250.961 106.795 250.029 106.434 250.029 106.434L241.904 122.394C241.904 122.394 237.242 122.097 235.964 117.613Z" fill="#E4897B"/>
</svg>
