<svg width="893" height="666" viewBox="0 0 893 666" fill="none" xmlns="http://www.w3.org/2000/svg">
<path d="M892.857 584.643H0V585.089H892.857V584.643Z" fill="#EBEBEB"/>
<path d="M152.821 601.643H93.6785V602.089H152.821V601.643Z" fill="#EBEBEB"/>
<path d="M381.554 596.803H305.607V597.25H381.554V596.803Z" fill="#EBEBEB"/>
<path d="M201.179 607.911H166.911V608.357H201.179V607.911Z" fill="#EBEBEB"/>
<path d="M803.393 615.232H776.196V615.679H803.393V615.232Z" fill="#EBEBEB"/>
<path d="M760.286 615.232H699.054V615.679H760.286V615.232Z" fill="#EBEBEB"/>
<path d="M592.554 602.375H550V602.821H592.554V602.375Z" fill="#EBEBEB"/>
<path d="M423.214 505H78.4286C75.7243 505 73.1308 503.926 71.2186 502.014C69.3064 500.101 68.2322 497.508 68.2322 494.804V10.1071C68.2557 7.41838 69.3404 4.84776 71.25 2.95483C73.1597 1.0619 75.7397 -0.000103082 78.4286 7.50455e-09H423.214C425.919 7.50457e-09 428.512 1.07426 430.424 2.98647C432.336 4.89867 433.411 7.49217 433.411 10.1964V494.804C433.411 497.508 432.336 500.101 430.424 502.014C428.512 503.926 425.919 505 423.214 505ZM78.4286 0.357144C75.8442 0.361865 73.367 1.39061 71.5395 3.21806C69.7121 5.04552 68.6833 7.52273 68.6786 10.1071V494.804C68.6833 497.388 69.7121 499.865 71.5395 501.693C73.367 503.52 75.8442 504.549 78.4286 504.554H423.214C425.799 504.549 428.276 503.52 430.103 501.693C431.931 499.865 432.96 497.388 432.964 494.804V10.1071C432.96 7.52273 431.931 5.04552 430.103 3.21806C428.276 1.39061 425.799 0.361865 423.214 0.357144H78.4286Z" fill="#EBEBEB"/>
<path d="M809.482 505H464.661C461.958 504.995 459.367 503.92 457.456 502.008C455.545 500.097 454.469 497.506 454.464 494.804V10.1071C454.493 7.41984 455.579 4.85192 457.487 2.95999C459.396 1.06805 461.973 0.00455052 464.661 0H809.482C812.165 0.00929374 814.736 1.07544 816.638 2.96737C818.54 4.8593 819.619 7.42456 819.643 10.1071V494.804C819.643 497.502 818.574 500.09 816.669 502.001C814.765 503.912 812.18 504.991 809.482 505ZM464.661 0.357144C462.076 0.361865 459.599 1.39061 457.772 3.21806C455.944 5.04552 454.916 7.52273 454.911 10.1071V494.804C454.916 497.388 455.944 499.865 457.772 501.693C459.599 503.52 462.076 504.549 464.661 504.554H809.482C812.067 504.549 814.544 503.52 816.371 501.693C818.199 499.865 819.227 497.388 819.232 494.804V10.1071C819.227 7.52273 818.199 5.04552 816.371 3.21806C814.544 1.39061 812.067 0.361865 809.482 0.357144H464.661Z" fill="#EBEBEB"/>
<path d="M549.107 252.446L741.732 252.446V59.3035L549.107 59.3035V252.446Z" fill="#F0F0F0"/>
<path d="M549.107 59.3214H545.786V252.464H549.107V59.3214Z" fill="#E0E0E0"/>
<path d="M566.125 240.25L724.732 240.25V71.5L566.125 71.5V240.25Z" fill="#FAFAFA"/>
<path d="M628.571 203.571H678.804C689.696 203.571 696.982 194.75 695.071 183.929L685.303 127.982C684.218 122.569 681.334 117.682 677.119 114.116C672.904 110.549 667.607 108.514 662.089 108.339H611.982C601.089 108.339 593.804 117.161 595.714 127.982L605.482 183.929C606.559 189.323 609.425 194.196 613.614 197.761C617.804 201.325 623.074 203.373 628.571 203.571Z" fill="#F0F0F0"/>
<path d="M187.446 311.107H144.589V575.482H187.446V311.107Z" fill="#F0F0F0"/>
<path d="M375.5 575.5H148.964V584.625H375.5V575.5Z" fill="#F0F0F0"/>
<path d="M187.446 575.5H379.268L379.268 311.125H187.446L187.446 575.5Z" fill="#F5F5F5"/>
<path d="M195.161 495.982H371.554V448.768H195.161V495.982Z" fill="#F0F0F0"/>
<path d="M195.161 557.768H371.554V510.554H195.161V557.768Z" fill="#F0F0F0"/>
<path d="M350.678 445.875H216.036C214.872 445.875 213.928 446.818 213.928 447.982V450.25C213.928 451.414 214.872 452.357 216.036 452.357H350.678C351.842 452.357 352.786 451.414 352.786 450.25V447.982C352.786 446.818 351.842 445.875 350.678 445.875Z" fill="#F5F5F5"/>
<path d="M350.678 507.679H216.036C214.872 507.679 213.928 508.622 213.928 509.786V512.054C213.928 513.217 214.872 514.161 216.036 514.161H350.678C351.842 514.161 352.786 513.217 352.786 512.054V509.786C352.786 508.622 351.842 507.679 350.678 507.679Z" fill="#F5F5F5"/>
<path d="M195.161 372.893H371.554V325.679H195.161V372.893Z" fill="#F0F0F0"/>
<path d="M195.161 434.214H371.554V387H195.161V434.214Z" fill="#F0F0F0"/>
<path d="M350.678 322.804H216.036C214.872 322.804 213.928 323.747 213.928 324.911V327.179C213.928 328.342 214.872 329.286 216.036 329.286H350.678C351.842 329.286 352.786 328.342 352.786 327.179V324.911C352.786 323.747 351.842 322.804 350.678 322.804Z" fill="#F5F5F5"/>
<path d="M350.678 384.089H216.036C214.872 384.089 213.928 385.033 213.928 386.196V388.464C213.928 389.628 214.872 390.571 216.036 390.571H350.678C351.842 390.571 352.786 389.628 352.786 388.464V386.196C352.786 385.033 351.842 384.089 350.678 384.089Z" fill="#F5F5F5"/>
<path d="M372.321 44.75H131.768V255.929H372.321V44.75Z" fill="#E6E6E6"/>
<path d="M398.107 36.5358H116.196C115.883 36.5358 115.573 36.5978 115.283 36.7182C114.994 36.8387 114.731 37.0153 114.511 37.2377C114.29 37.4601 114.115 37.724 113.997 38.0143C113.879 38.3045 113.819 38.6152 113.821 38.9286C113.821 39.5585 114.072 40.1626 114.517 40.608C114.962 41.0534 115.566 41.3036 116.196 41.3036H398.107C398.739 41.3036 399.345 41.054 399.793 40.6091C400.241 40.1642 400.495 39.5602 400.5 38.9286C400.5 38.294 400.248 37.6854 399.799 37.2366C399.35 36.7879 398.742 36.5358 398.107 36.5358Z" fill="#E6E6E6"/>
<path d="M382.536 44.75H136.536V255.929H382.536V44.75Z" fill="#F0F0F0"/>
<path d="M372.321 255.929H131.768V262.696H379.357L372.321 255.929Z" fill="#E6E6E6"/>
<path d="M399.536 255.929H153.553L160.571 262.696H406.571L399.536 255.929Z" fill="#F0F0F0"/>
<path d="M368.25 241.643V59.0358L150.839 59.0358V241.643H368.25Z" fill="#FAFAFA"/>
<path d="M200.197 241.643L284.054 59.0358H323.661L239.786 241.643H200.197Z" fill="white"/>
<path d="M248.286 241.643L332.161 59.0358H347.589L263.732 241.643H248.286Z" fill="white"/>
<path d="M368.25 241.643V59.0358H366.429V241.643H368.25Z" fill="#E6E6E6"/>
<g opacity="0.4">
<path d="M151 32.2678H126.411V206.536H151V32.2678Z" fill="#F0F0F0"/>
<path d="M160.589 32.2678H141.428V206.536H160.589V32.2678Z" fill="#E6E6E6"/>
<path d="M175.589 32.2678H151V206.536H175.589V32.2678Z" fill="#F0F0F0"/>
<path d="M185.179 32.2678H166.018V206.536H185.179V32.2678Z" fill="#E6E6E6"/>
<path d="M200.178 32.2678H175.589V206.536H200.178V32.2678Z" fill="#F0F0F0"/>
</g>
<g opacity="0.4">
<path d="M359.107 32.2678H344.928V206.536H359.107V32.2678Z" fill="#F0F0F0"/>
<path d="M364.607 32.2678H353.571V206.536H364.607V32.2678Z" fill="#E6E6E6"/>
<path d="M373.268 32.2678H359.089V206.536H373.268V32.2678Z" fill="#F0F0F0"/>
<path d="M378.786 32.2678H367.75V206.536H378.786V32.2678Z" fill="#E6E6E6"/>
<path d="M387.446 32.2678H373.268V206.536H387.446V32.2678Z" fill="#F0F0F0"/>
</g>
<path d="M637.232 382.518C637.022 385.101 637.582 387.688 638.842 389.953C640.102 392.218 642.006 394.058 644.311 395.242C646.617 396.425 649.222 396.898 651.796 396.601C654.371 396.305 656.8 395.252 658.776 393.575C660.752 391.898 662.187 389.673 662.899 387.181C663.611 384.689 663.568 382.042 662.776 379.575C661.984 377.107 660.478 374.929 658.449 373.317C656.419 371.705 653.958 370.731 651.375 370.518C647.909 370.236 644.473 371.342 641.821 373.592C639.169 375.842 637.519 379.052 637.232 382.518Z" fill="#E0E0E0"/>
<path d="M673.676 403.392C680.847 402.337 685.806 395.668 684.751 388.497C683.695 381.325 677.026 376.367 669.855 377.422C662.683 378.477 657.725 385.146 658.78 392.318C659.835 399.489 666.504 404.447 673.676 403.392Z" fill="#E0E0E0"/>
<path d="M681.643 392.054C681.433 394.637 681.993 397.224 683.253 399.489C684.513 401.754 686.416 403.594 688.722 404.777C691.028 405.961 693.632 406.434 696.207 406.137C698.782 405.841 701.211 404.787 703.187 403.111C705.163 401.434 706.598 399.209 707.31 396.717C708.022 394.225 707.979 391.578 707.187 389.11C706.395 386.643 704.889 384.465 702.859 382.853C700.83 381.241 698.369 380.267 695.786 380.054C694.068 379.909 692.34 380.106 690.698 380.631C689.057 381.157 687.536 382.001 686.222 383.116C684.908 384.231 683.827 385.595 683.041 387.128C682.255 388.662 681.78 390.336 681.643 392.054Z" fill="#E0E0E0"/>
<path d="M612.857 389.393C612.647 391.976 613.207 394.563 614.467 396.828C615.727 399.093 617.631 400.933 619.936 402.117C622.242 403.3 624.847 403.773 627.421 403.476C629.996 403.18 632.425 402.127 634.401 400.45C636.377 398.773 637.812 396.548 638.524 394.056C639.236 391.564 639.193 388.917 638.401 386.45C637.609 383.982 636.103 381.804 634.074 380.192C632.044 378.58 629.583 377.606 627 377.393C623.534 377.111 620.098 378.217 617.446 380.467C614.794 382.717 613.144 385.927 612.857 389.393Z" fill="#E0E0E0"/>
<path d="M715.569 403.383C722.741 402.328 727.699 395.659 726.644 388.488C725.588 381.316 718.919 376.358 711.748 377.413C704.576 378.468 699.618 385.137 700.673 392.309C701.728 399.48 708.397 404.439 715.569 403.383Z" fill="#E0E0E0"/>
<path d="M616.776 389.343C622.285 384.632 622.931 376.346 618.22 370.837C613.508 365.328 605.223 364.682 599.714 369.393C594.204 374.105 593.558 382.39 598.27 387.9C602.981 393.409 611.267 394.055 616.776 389.343Z" fill="#E0E0E0"/>
<path d="M576.643 386.411C576.433 388.994 576.993 391.581 578.253 393.846C579.513 396.111 581.416 397.951 583.722 399.134C586.028 400.318 588.632 400.791 591.207 400.494C593.782 400.198 596.211 399.144 598.187 397.468C600.163 395.791 601.598 393.566 602.31 391.074C603.022 388.582 602.979 385.935 602.187 383.467C601.395 381 599.889 378.822 597.859 377.21C595.83 375.598 593.368 374.624 590.786 374.411C587.319 374.129 583.883 375.235 581.232 377.485C578.58 379.735 576.929 382.945 576.643 386.411Z" fill="#E0E0E0"/>
<path d="M561.661 389.946C561.661 389.946 563.911 443.643 650.196 443.643C736.482 443.643 738.732 389.946 738.732 389.946H561.661Z" fill="#F0F0F0"/>
<path d="M787.964 443.643H771.554V584.625H787.964V443.643Z" fill="#E6E6E6"/>
<path d="M792.339 443.643H782.679V584.625H792.339V443.643Z" fill="#F0F0F0"/>
<path d="M718.143 443.643H701.732V584.625H718.143V443.643Z" fill="#E6E6E6"/>
<path d="M721.214 443.643H711.554V584.625H721.214V443.643Z" fill="#F0F0F0"/>
<path d="M562.375 460.75L795.339 460.75V443.661H562.375V460.75Z" fill="#F0F0F0"/>
<path d="M491.179 443.643H474.768V584.625H491.179V443.643Z" fill="#E6E6E6"/>
<path d="M494.25 443.643H484.589V584.625H494.25V443.643Z" fill="#F0F0F0"/>
<path d="M471.839 460.75H555.357V443.661H471.839V460.75Z" fill="#E6E6E6"/>
<path d="M560.982 443.643H544.571V584.625H560.982V443.643Z" fill="#E6E6E6"/>
<path d="M565.375 443.643H555.714V584.625H565.375V443.643Z" fill="#F0F0F0"/>
<path d="M446.429 665.286C637.647 665.286 792.661 656.235 792.661 645.071C792.661 633.907 637.647 624.857 446.429 624.857C255.21 624.857 100.197 633.907 100.197 645.071C100.197 656.235 255.21 665.286 446.429 665.286Z" fill="#F5F5F5"/>
<path d="M634.786 627.339C634.788 630.908 633.524 634.361 631.218 637.085C628.913 639.809 625.716 641.627 622.196 642.214C578.872 649.524 534.628 649.524 491.304 642.214C487.799 641.611 484.62 639.786 482.332 637.064C480.044 634.341 478.794 630.896 478.804 627.339V482.697H634.857L634.786 627.339Z" fill="#407BFF"/>
<path opacity="0.3" d="M478.714 485.304V505.607C488.107 509.089 518.946 511.643 556.75 511.643C594.553 511.643 625.446 509.089 634.786 505.607V485.304H478.714Z" fill="black"/>
<path d="M637.714 500.786C637.714 505.375 602.286 509.089 556.75 509.089C511.214 509.089 475.786 505.375 475.786 500.786L474.303 482.75H639.286L637.714 500.786Z" fill="#407BFF"/>
<path d="M556.75 491.036C602.284 491.036 639.196 487.326 639.196 482.75C639.196 478.174 602.284 474.464 556.75 474.464C511.216 474.464 474.303 478.174 474.303 482.75C474.303 487.326 511.216 491.036 556.75 491.036Z" fill="#407BFF"/>
<path opacity="0.3" d="M556.75 491.036C602.284 491.036 639.196 487.326 639.196 482.75C639.196 478.174 602.284 474.464 556.75 474.464C511.216 474.464 474.303 478.174 474.303 482.75C474.303 487.326 511.216 491.036 556.75 491.036Z" fill="black"/>
<path opacity="0.2" d="M499.643 617.161C498.039 617.156 496.502 616.517 495.367 615.383C494.233 614.248 493.594 612.711 493.589 611.107V528.179C493.594 526.575 494.233 525.038 495.367 523.903C496.502 522.769 498.039 522.13 499.643 522.125C501.245 522.134 502.78 522.775 503.913 523.908C505.046 525.042 505.687 526.576 505.696 528.179V611.107C505.687 612.71 505.046 614.244 503.913 615.377C502.78 616.511 501.245 617.151 499.643 617.161Z" fill="black"/>
<path opacity="0.2" d="M613.875 617.161C612.271 617.156 610.734 616.517 609.6 615.383C608.465 614.248 607.826 612.711 607.821 611.107V528.179C607.826 526.575 608.465 525.038 609.6 523.903C610.734 522.769 612.271 522.13 613.875 522.125C615.477 522.134 617.012 522.775 618.145 523.908C619.278 525.042 619.919 526.576 619.928 528.179V611.107C619.919 612.71 619.278 614.244 618.145 615.377C617.012 616.511 615.477 617.151 613.875 617.161Z" fill="black"/>
<path opacity="0.2" d="M575.786 617.161C574.183 617.151 572.649 616.511 571.515 615.377C570.382 614.244 569.741 612.71 569.732 611.107V528.179C569.741 526.576 570.382 525.042 571.515 523.908C572.649 522.775 574.183 522.134 575.786 522.125C577.39 522.13 578.927 522.769 580.061 523.903C581.195 525.038 581.834 526.575 581.839 528.179V611.107C581.834 612.711 581.195 614.248 580.061 615.383C578.927 616.517 577.39 617.156 575.786 617.161Z" fill="black"/>
<path opacity="0.2" d="M537.714 617.161C536.112 617.151 534.577 616.511 533.444 615.377C532.311 614.244 531.67 612.71 531.661 611.107V528.179C531.67 526.576 532.311 525.042 533.444 523.908C534.577 522.775 536.112 522.134 537.714 522.125C539.318 522.13 540.855 522.769 541.99 523.903C543.124 525.038 543.763 526.575 543.768 528.179V611.107C543.763 612.711 543.124 614.248 541.99 615.383C540.855 616.517 539.318 617.156 537.714 617.161Z" fill="black"/>
<path d="M344.428 150.286C344.428 151.924 343.942 153.526 343.032 154.889C342.122 156.252 340.827 157.314 339.313 157.941C337.799 158.568 336.133 158.732 334.526 158.412C332.919 158.093 331.443 157.303 330.284 156.145C329.125 154.986 328.336 153.509 328.016 151.902C327.696 150.295 327.861 148.629 328.488 147.115C329.115 145.601 330.177 144.307 331.539 143.396C332.902 142.486 334.504 142 336.143 142C338.34 142 340.448 142.873 342.002 144.427C343.555 145.981 344.428 148.088 344.428 150.286Z" fill="#263238"/>
<path d="M329.482 151.482C329.401 151.484 329.322 151.464 329.252 151.423C329.183 151.382 329.126 151.322 329.089 151.25C328.541 150.244 328.197 149.14 328.077 148.001C327.956 146.862 328.06 145.71 328.384 144.612C328.709 143.513 329.246 142.489 329.966 141.598C330.686 140.708 331.574 139.967 332.58 139.42C333.586 138.872 334.69 138.528 335.829 138.407C336.968 138.286 338.12 138.391 339.218 138.715C340.317 139.039 341.341 139.577 342.232 140.296C343.123 141.016 343.863 141.905 344.41 142.911C344.463 143.016 344.474 143.137 344.441 143.249C344.408 143.362 344.333 143.458 344.232 143.518C344.18 143.546 344.124 143.564 344.065 143.57C344.007 143.577 343.948 143.571 343.891 143.555C343.835 143.538 343.782 143.511 343.737 143.474C343.691 143.437 343.653 143.391 343.625 143.339C342.633 141.516 340.957 140.161 338.966 139.574C336.975 138.986 334.832 139.213 333.009 140.205C331.185 141.198 329.831 142.873 329.243 144.864C328.655 146.855 328.883 148.998 329.875 150.821C329.903 150.873 329.921 150.93 329.927 150.988C329.934 151.047 329.928 151.106 329.912 151.162C329.895 151.219 329.868 151.271 329.831 151.317C329.794 151.363 329.748 151.401 329.696 151.429C329.63 151.463 329.557 151.481 329.482 151.482Z" fill="#263238"/>
<path d="M321.428 188.143C319.814 188.136 318.234 187.682 316.862 186.832C315.49 185.981 314.381 184.767 313.658 183.324C312.934 181.881 312.625 180.266 312.764 178.658C312.903 177.05 313.486 175.511 314.446 174.214C315.131 173.297 315.99 172.524 316.973 171.939C317.957 171.354 319.046 170.968 320.178 170.804C320.236 170.793 320.295 170.795 320.352 170.809C320.409 170.823 320.463 170.848 320.51 170.883C320.556 170.918 320.596 170.962 320.625 171.013C320.654 171.064 320.672 171.12 320.678 171.179C320.694 171.294 320.663 171.412 320.593 171.505C320.523 171.599 320.419 171.661 320.303 171.679C318.25 171.979 316.401 173.083 315.162 174.748C313.923 176.412 313.396 178.501 313.696 180.554C313.997 182.607 315.101 184.456 316.765 185.695C318.43 186.934 320.518 187.461 322.571 187.161C322.69 187.142 322.811 187.171 322.908 187.241C323.005 187.311 323.07 187.417 323.089 187.536C323.108 187.654 323.079 187.775 323.009 187.872C322.939 187.969 322.833 188.035 322.714 188.054C322.288 188.11 321.858 188.14 321.428 188.143Z" fill="#263238"/>
<path d="M366.446 201.643C364.771 201.64 363.133 201.15 361.732 200.232C361.632 200.166 361.562 200.065 361.535 199.948C361.509 199.832 361.528 199.71 361.589 199.607C361.658 199.511 361.761 199.444 361.877 199.421C361.993 199.397 362.114 199.419 362.214 199.482C363.955 200.612 366.073 201.004 368.102 200.572C370.131 200.14 371.906 198.919 373.036 197.179C374.165 195.438 374.557 193.32 374.125 191.291C373.693 189.261 372.472 187.487 370.732 186.357C370.632 186.291 370.562 186.19 370.535 186.073C370.509 185.957 370.528 185.835 370.589 185.732C370.658 185.636 370.761 185.569 370.877 185.546C370.993 185.522 371.114 185.544 371.214 185.607C373.15 186.868 374.507 188.844 374.989 191.103C375.471 193.362 375.038 195.72 373.786 197.661C373.167 198.626 372.362 199.459 371.418 200.109C370.473 200.759 369.408 201.214 368.286 201.446C367.681 201.574 367.064 201.639 366.446 201.643Z" fill="#263238"/>
<path d="M331.5 176.125C337.97 176.125 343.214 170.88 343.214 164.411C343.214 157.941 337.97 152.696 331.5 152.696C325.03 152.696 319.786 157.941 319.786 164.411C319.786 170.88 325.03 176.125 331.5 176.125Z" fill="#263238"/>
<path d="M342.495 191.165C348.562 185.098 348.562 175.261 342.495 169.194C336.428 163.127 326.591 163.127 320.524 169.194C314.457 175.261 314.457 185.098 320.524 191.165C326.591 197.232 336.428 197.232 342.495 191.165Z" fill="#263238"/>
<path d="M333.143 217.107C342.63 217.107 350.321 209.416 350.321 199.929C350.321 190.441 342.63 182.75 333.143 182.75C323.655 182.75 315.964 190.441 315.964 199.929C315.964 209.416 323.655 217.107 333.143 217.107Z" fill="#263238"/>
<path d="M367.048 205.04C369.227 195.806 363.509 186.554 354.275 184.375C345.041 182.195 335.789 187.914 333.61 197.148C331.43 206.382 337.149 215.634 346.383 217.813C355.617 219.993 364.869 214.274 367.048 205.04Z" fill="#263238"/>
<path d="M407.303 236.536C407.303 237.929 407.303 239.696 407.428 241.304C407.553 242.911 407.553 244.625 407.66 246.286C407.893 249.607 408.125 252.964 408.482 256.304C409.125 263.006 410.024 269.679 411.178 276.321C411.482 277.964 411.75 279.643 412.089 281.286L412.875 285.339C413.071 285.982 412.875 285.857 412.625 285.839C412.375 285.821 412.625 286.161 413.678 286.161C416.375 285.89 419.001 285.134 421.428 283.929C422.857 283.286 424.321 282.589 425.786 281.839C427.25 281.089 428.732 280.232 430.071 279.482L435.285 285.5C434.042 286.925 432.718 288.278 431.321 289.554C429.946 290.863 428.491 292.085 426.964 293.214C425.364 294.418 423.675 295.499 421.911 296.446C419.903 297.542 417.751 298.348 415.518 298.839C414.14 299.14 412.73 299.26 411.321 299.196C409.602 299.097 407.918 298.673 406.357 297.946C404.697 297.167 403.218 296.048 402.018 294.661C400.987 293.455 400.144 292.101 399.518 290.643C399.033 289.528 398.639 288.375 398.339 287.196L397.643 284.589C397.143 282.804 396.732 281.107 396.303 279.357C394.633 272.337 393.345 265.231 392.446 258.071C392 254.5 391.643 250.929 391.428 247.268C391.321 245.482 391.232 243.696 391.178 241.804C391.125 239.911 391.178 238.232 391.178 236.107L407.303 236.536Z" fill="#FFB573"/>
<path d="M398.643 217.286C413.875 228.946 413.268 250.929 413.268 250.929L386.018 257.446C386.018 257.446 377.661 235.339 381.053 227.25C384.589 218.821 390.071 210.714 398.643 217.286Z" fill="#407BFF"/>
<path opacity="0.7" d="M398.643 217.286C413.875 228.946 413.268 250.929 413.268 250.929L386.018 257.446C386.018 257.446 377.661 235.339 381.053 227.25C384.589 218.821 390.071 210.714 398.643 217.286Z" fill="white"/>
<path d="M429.053 281.536L433.553 273.964L444.839 286.036C444.839 286.036 436.75 291.214 428.357 287.518L429.053 281.536Z" fill="#FFB573"/>
<path d="M439.107 270.339L453.589 278.875L444.839 286.036L433.553 273.964L439.107 270.339Z" fill="#FFB573"/>
<path d="M313.375 631.893L328.946 633.393L338.625 596.911L323.036 595.411L313.375 631.893Z" fill="#FFB573"/>
<path d="M233.553 601.232L247.536 608.554L264.161 575.589L250.178 568.268L233.553 601.232Z" fill="#FFB573"/>
<path d="M251.268 602.143L238.768 589.447C238.56 589.224 238.277 589.086 237.974 589.06C237.67 589.033 237.368 589.12 237.125 589.304L225.643 597.75C225.364 597.974 225.136 598.254 224.973 598.572C224.809 598.89 224.714 599.239 224.694 599.595C224.674 599.952 224.729 600.309 224.855 600.644C224.982 600.978 225.177 601.282 225.428 601.536C229.857 605.893 232.214 607.768 237.714 613.357C241.107 616.786 248.071 624.875 252.75 629.625C257.428 634.375 262.357 630 260.839 627.607C254.018 616.893 252.875 610.161 252.446 604.714C252.369 603.745 251.951 602.834 251.268 602.143Z" fill="#263238"/>
<path d="M331.375 628.661H312.5C312.162 628.664 311.835 628.778 311.567 628.984C311.3 629.19 311.107 629.478 311.018 629.804L306.982 644.643C306.881 644.995 306.865 645.367 306.934 645.727C307.003 646.087 307.156 646.426 307.38 646.716C307.604 647.007 307.893 647.24 308.224 647.398C308.555 647.556 308.919 647.634 309.286 647.625C315.911 647.625 319.054 647.625 327.321 647.625H352.625C359.5 647.625 360.946 640.679 358.089 640.036C345.339 637.214 337.982 633.321 334.054 629.607C333.309 628.97 332.354 628.633 331.375 628.661Z" fill="#263238"/>
<path opacity="0.2" d="M338.607 596.929L333.625 615.732H317.643L323.018 595.429L338.607 596.929Z" fill="black"/>
<path opacity="0.2" d="M250.161 568.268L264.161 575.607L255.589 592.589L241.589 585.25L250.161 568.268Z" fill="black"/>
<path d="M394.036 215.036C394.036 215.036 400.928 218.054 377.821 309.482L313.643 303.929C316.982 277.911 318.393 261.804 310.553 207.107C319.703 206.036 328.917 205.624 338.125 205.875C347.887 206.023 357.625 206.864 367.268 208.393C376.297 210.154 385.231 212.371 394.036 215.036Z" fill="#407BFF"/>
<path opacity="0.7" d="M394.036 215.036C394.036 215.036 400.928 218.054 377.821 309.482L313.643 303.929C316.982 277.911 318.393 261.804 310.553 207.107C319.703 206.036 328.917 205.624 338.125 205.875C347.887 206.023 357.625 206.864 367.268 208.393C376.297 210.154 385.231 212.371 394.036 215.036Z" fill="white"/>
<path d="M338.125 205.357C338.125 205.357 334.553 205.357 330.178 205.357C327.589 209.339 338.518 220.964 352.411 232.393C355.768 221.982 361.053 222.018 361.053 222.018L338.125 205.357Z" fill="white"/>
<path d="M367.25 208.161C367.25 208.161 368.875 208.393 372.768 209.286C375.339 213.268 376.786 223.232 369.196 231.911C366.214 221.196 361.071 222.161 361.071 222.161L367.25 208.161Z" fill="white"/>
<path d="M343.839 173.304C344.875 182.839 345.214 200.089 338.125 205.875C338.125 205.875 345.696 213.625 361.054 222.161C372.196 214.446 367.268 208.393 367.268 208.393C357.018 205 357.964 197.268 360.411 190.125L343.839 173.304Z" fill="#FFB573"/>
<path opacity="0.2" d="M350.607 180.179L360.411 190.125C359.809 191.778 359.355 193.481 359.053 195.214C355.125 194.304 349.411 190.196 349.339 185.982C349.408 183.987 349.837 182.021 350.607 180.179Z" fill="black"/>
<path d="M380.661 142.196C387.232 148.018 389.161 162.196 382.911 171.821C381.034 162.064 380.279 152.125 380.661 142.196Z" fill="#263238"/>
<path d="M341.839 153.286C340.696 168.982 339.893 175.607 346.679 184.661C356.893 198.286 376.429 196.232 382.232 181.196C387.464 167.643 388.446 144.25 374.036 136C370.869 134.152 367.281 133.147 363.615 133.081C359.949 133.016 356.327 133.892 353.097 135.627C349.866 137.361 347.135 139.896 345.164 142.987C343.193 146.079 342.048 149.625 341.839 153.286Z" fill="#FFB573"/>
<path d="M339.75 165.929C351.357 165.482 357.786 150.304 354.875 143.893C368.036 150.75 387.964 156.143 385.75 147.321C382.768 135.411 368.357 126.679 350.625 133.036C340.357 137.5 331.571 147.321 339.75 165.929Z" fill="#263238"/>
<path d="M336.214 165.911C336.71 168.912 338.364 171.599 340.821 173.393C344.107 175.732 347.107 173.125 347.339 169.321C347.553 165.875 346.107 160.518 342.25 159.696C341.405 159.529 340.532 159.575 339.71 159.831C338.888 160.087 338.142 160.545 337.542 161.163C336.942 161.78 336.507 162.538 336.275 163.368C336.043 164.197 336.022 165.071 336.214 165.911Z" fill="#FFB573"/>
<path d="M377.821 309.482C377.821 309.482 392.339 404.214 384.25 465.071C378.125 511.054 338.607 610.268 338.607 610.268L312.946 609.571C312.946 609.571 339.446 513.411 344.928 475.643C354.303 410.964 330.821 305.482 330.821 305.482L377.821 309.482Z" fill="#263238"/>
<path opacity="0.2" d="M352.786 328.893L339.089 350.482C343.213 376.08 345.831 401.899 346.928 427.804C366.178 393.339 357.143 347.125 352.786 328.893Z" fill="black"/>
<path d="M342.607 611.696L310.357 610.821L312.321 600.446L345.643 600.643L342.607 611.696Z" fill="#407BFF"/>
<path d="M363.786 308.464C363.786 308.464 353.071 413.357 328.589 470.429C308.786 516.5 261.571 590.196 261.571 590.196L242.714 579.161C242.714 579.161 273.071 497.214 288.053 466.5C324.607 391.196 290.607 330.786 313.643 304L363.786 308.464Z" fill="#263238"/>
<path d="M263.625 591.804L239.571 578.607L243.482 568.322L269.107 582.786L263.625 591.804Z" fill="#407BFF"/>
<path d="M313 300.089L309.607 305.589C309.357 306 309.839 306.518 310.589 306.571L377.893 312.393C378.464 312.393 378.982 312.196 379.036 311.839L380.125 306.143C380.125 305.75 379.714 305.375 379.089 305.321L314.089 299.696C313.889 299.666 313.685 299.686 313.495 299.755C313.304 299.823 313.134 299.938 313 300.089Z" fill="#407BFF"/>
<path d="M321.107 308.107L319.321 307.964C318.982 307.964 318.732 307.732 318.768 307.518L320.232 300.125C320.232 299.893 320.607 299.75 320.946 299.786L322.732 299.929C323.089 299.929 323.339 300.161 323.286 300.375L321.839 307.768C321.768 307.982 321.429 308.143 321.107 308.107Z" fill="#263238"/>
<path d="M372.946 312.589L371.161 312.446C370.804 312.446 370.554 312.214 370.607 312L372.071 304.607C372.071 304.393 372.429 304.232 372.768 304.268L374.554 304.411C374.893 304.411 375.143 304.643 375.107 304.857L373.643 312.25C373.607 312.5 373.214 312.625 372.946 312.589Z" fill="#263238"/>
<path d="M347.018 310.357L345.232 310.196C344.893 310.196 344.643 309.964 344.678 309.75L346.143 302.357C346.143 302.143 346.5 301.982 346.857 302.018L348.643 302.179C348.982 302.179 349.232 302.411 349.196 302.625L347.732 310.018C347.696 310.232 347.375 310.375 347.018 310.357Z" fill="#263238"/>
<path d="M366.428 161.089C366.25 162.357 366.786 163.482 367.607 163.589C368.428 163.696 369.25 162.768 369.393 161.5C369.536 160.232 369.018 159.107 368.196 159C367.375 158.893 366.589 159.821 366.428 161.089Z" fill="#263238"/>
<path d="M380.75 163.018C380.589 164.286 381.125 165.411 381.946 165.518C382.768 165.625 383.589 164.696 383.732 163.429C383.875 162.161 383.375 161.036 382.553 160.929C381.732 160.821 380.928 161.75 380.75 163.018Z" fill="#263238"/>
<path d="M382.143 160.946L385.321 160.482C385.321 160.482 383.464 162.643 382.143 160.946Z" fill="#263238"/>
<path d="M375.125 164.411C375.869 167.451 377.023 170.377 378.553 173.107C377.847 173.483 377.067 173.7 376.269 173.743C375.47 173.786 374.671 173.654 373.928 173.357L375.125 164.411Z" fill="#ED893E"/>
<path d="M366.5 177.143C363.988 176.324 361.882 174.582 360.607 172.268C360.575 172.194 360.572 172.111 360.598 172.035C360.625 171.959 360.679 171.895 360.75 171.857C360.826 171.82 360.913 171.814 360.993 171.841C361.074 171.867 361.14 171.925 361.178 172C361.972 173.391 363.082 174.576 364.42 175.457C365.757 176.338 367.283 176.891 368.875 177.071C368.955 177.071 369.033 177.103 369.089 177.16C369.146 177.217 369.178 177.294 369.178 177.375C369.178 177.456 369.146 177.533 369.089 177.59C369.033 177.647 368.955 177.679 368.875 177.679C368.066 177.589 367.269 177.41 366.5 177.143Z" fill="#263238"/>
<path d="M359.911 153.75C359.807 153.707 359.715 153.64 359.643 153.554C359.584 153.497 359.537 153.429 359.505 153.354C359.473 153.279 359.457 153.198 359.457 153.116C359.457 153.034 359.473 152.954 359.505 152.878C359.537 152.803 359.584 152.735 359.643 152.679C360.518 151.896 361.57 151.338 362.708 151.052C363.847 150.765 365.037 150.76 366.178 151.036C366.256 151.058 366.329 151.096 366.392 151.147C366.455 151.198 366.508 151.261 366.546 151.333C366.584 151.404 366.608 151.483 366.615 151.564C366.623 151.645 366.614 151.726 366.589 151.804C366.543 151.962 366.437 152.096 366.293 152.176C366.15 152.256 365.98 152.276 365.821 152.232C364.882 152.023 363.906 152.04 362.975 152.283C362.043 152.525 361.183 152.985 360.464 153.625C360.386 153.685 360.297 153.727 360.201 153.748C360.105 153.77 360.006 153.77 359.911 153.75Z" fill="#263238"/>
<path d="M386.768 157.554C386.675 157.517 386.59 157.463 386.518 157.393C385.892 156.658 385.102 156.081 384.211 155.709C383.321 155.337 382.355 155.179 381.393 155.25C381.311 155.268 381.227 155.269 381.145 155.252C381.064 155.235 380.987 155.201 380.919 155.152C380.852 155.103 380.795 155.04 380.754 154.968C380.712 154.895 380.687 154.815 380.679 154.732C380.653 154.569 380.693 154.402 380.79 154.268C380.887 154.134 381.033 154.044 381.196 154.018C382.362 153.913 383.536 154.088 384.62 154.529C385.704 154.971 386.667 155.665 387.429 156.554C387.515 156.657 387.566 156.785 387.574 156.92C387.582 157.054 387.546 157.188 387.472 157.3C387.397 157.413 387.289 157.498 387.162 157.544C387.035 157.589 386.897 157.593 386.768 157.554Z" fill="#263238"/>
<path d="M400.893 292.286C402.049 288.684 403.903 285.345 406.35 282.459C408.796 279.574 411.787 277.199 415.152 275.469C418.516 273.74 422.188 272.69 425.958 272.38C429.729 272.069 433.523 272.505 437.125 273.661C440.727 274.817 444.066 276.671 446.951 279.118C449.837 281.564 452.212 284.555 453.941 287.919C455.671 291.284 456.721 294.956 457.031 298.726C457.341 302.496 456.906 306.291 455.75 309.893L444.643 344.643L389.786 327.018L400.893 292.286Z" fill="#407BFF"/>
<path opacity="0.3" d="M400.893 292.286C402.049 288.684 403.903 285.345 406.35 282.459C408.796 279.574 411.787 277.199 415.152 275.469C418.516 273.74 422.188 272.69 425.958 272.38C429.729 272.069 433.523 272.505 437.125 273.661C440.727 274.817 444.066 276.671 446.951 279.118C449.837 281.564 452.212 284.555 453.941 287.919C455.671 291.284 456.721 294.956 457.031 298.726C457.341 302.496 456.906 306.291 455.75 309.893L444.643 344.643L389.786 327.018L400.893 292.286Z" fill="black"/>
<path d="M346.768 274.893L336.732 306.143C336.585 306.592 336.529 307.065 336.566 307.536C336.603 308.007 336.734 308.466 336.95 308.886C337.165 309.307 337.463 309.68 337.824 309.984C338.185 310.289 338.603 310.519 339.053 310.661L389.768 326.946L400.911 292.268C403.249 285 408.376 278.958 415.167 275.469C421.957 271.98 429.855 271.33 437.125 273.661L383 256.268C375.725 253.942 367.825 254.597 361.033 258.088C354.24 261.58 349.11 267.623 346.768 274.893Z" fill="#407BFF"/>
<path d="M373.982 298.589L387.964 255.071C388.012 254.915 388.026 254.751 388.005 254.588C387.984 254.426 387.929 254.271 387.842 254.132C387.756 253.993 387.641 253.874 387.505 253.784C387.369 253.693 387.215 253.633 387.053 253.607L372.768 251.5L370.982 257.143L381.393 260.482L369.607 297.161L373.982 298.589Z" fill="#263238"/>
<path d="M366.554 296.196C366.231 297.205 366.214 298.286 366.506 299.304C366.797 300.322 367.384 301.231 368.191 301.916C368.999 302.601 369.992 303.031 371.044 303.152C372.096 303.273 373.16 303.079 374.102 302.596C375.044 302.112 375.822 301.36 376.337 300.435C376.852 299.51 377.081 298.453 376.995 297.397C376.91 296.342 376.514 295.336 375.857 294.505C375.2 293.675 374.311 293.058 373.304 292.732C372.633 292.515 371.926 292.433 371.224 292.49C370.521 292.547 369.837 292.742 369.21 293.063C368.583 293.385 368.025 293.828 367.569 294.365C367.114 294.903 366.768 295.525 366.554 296.196Z" fill="#263238"/>
<path d="M392.41 332.143L462.768 354.732C463.023 354.815 463.293 354.847 463.561 354.826C463.829 354.804 464.09 354.73 464.329 354.607C464.568 354.484 464.78 354.315 464.953 354.11C465.127 353.905 465.258 353.667 465.339 353.411C465.425 353.155 465.459 352.885 465.438 352.617C465.418 352.348 465.344 352.086 465.221 351.846C465.098 351.607 464.928 351.394 464.721 351.221C464.514 351.048 464.275 350.918 464.018 350.839L389.768 327C389.436 328.032 389.529 329.154 390.024 330.119C390.52 331.083 391.378 331.811 392.41 332.143Z" fill="#407BFF"/>
<path opacity="0.2" d="M392.41 332.143L421.16 341.375C421.417 341.459 421.688 341.491 421.957 341.469C422.226 341.448 422.489 341.374 422.729 341.251C422.97 341.129 423.184 340.96 423.359 340.754C423.534 340.549 423.667 340.31 423.75 340.054C423.913 339.537 423.866 338.977 423.618 338.496C423.371 338.014 422.943 337.65 422.428 337.482L389.768 327C389.436 328.032 389.529 329.154 390.024 330.119C390.52 331.083 391.378 331.811 392.41 332.143Z" fill="black"/>
<path d="M318.107 232.321L317.125 233.411L316.018 234.679C315.268 235.536 314.518 236.464 313.803 237.339C312.339 239.125 310.946 241.036 309.643 242.964C304.247 250.602 300 258.988 297.036 267.857C296.321 270.071 295.661 272.286 295.143 274.554C294.964 275.214 294.946 275.482 294.857 275.786C294.843 276.047 294.843 276.31 294.857 276.571C294.828 276.85 294.828 277.132 294.857 277.411C294.857 277.732 295.464 278.482 296.928 279.196C298.689 279.988 300.543 280.552 302.446 280.875C307.039 281.605 311.69 281.91 316.339 281.786C321.196 281.786 326.125 281.357 331.053 280.839C335.982 280.321 340.982 279.679 345.821 278.946L347.768 286.679C337.801 289.922 327.545 292.201 317.143 293.482C311.666 294.195 306.128 294.315 300.625 293.839C297.479 293.544 294.389 292.811 291.446 291.661C289.681 290.953 288.022 290.003 286.518 288.839C284.746 287.45 283.286 285.704 282.232 283.714C280.418 279.982 279.933 275.742 280.857 271.696C281.286 268.964 281.911 266.339 282.643 263.589C284.044 258.31 285.908 253.165 288.214 248.214C290.526 243.252 293.219 238.475 296.268 233.929C297.803 231.661 299.446 229.464 301.161 227.304C302.036 226.232 302.946 225.179 303.839 224.125L305.286 222.571C305.803 222.018 306.214 221.571 306.928 220.893L318.107 232.321Z" fill="#FFB573"/>
<path d="M341.928 280.589L354.428 273.964L354.982 287.393C354.982 287.393 346.053 291.089 340.946 287.018L341.928 280.589Z" fill="#FFB573"/>
<path d="M364.732 272.946L362.857 285.321L355 287.393L354.446 273.964L364.732 272.946Z" fill="#FFB573"/>
<path d="M310.554 207.143C302.679 208.536 291.661 231.107 291.661 231.107L311.5 248.964C311.5 248.964 327.268 231.75 326.429 221.5C325.714 212.839 320.571 205.357 310.554 207.143Z" fill="#407BFF"/>
<path opacity="0.7" d="M310.554 207.143C302.679 208.536 291.661 231.107 291.661 231.107L311.5 248.964C311.5 248.964 327.268 231.75 326.429 221.5C325.714 212.839 320.571 205.357 310.554 207.143Z" fill="white"/>
<path d="M257.411 609.036C257.203 609.063 256.993 609.063 256.786 609.036C254.803 608.929 252.696 605.893 251.607 604.107C251.573 604.057 251.555 603.998 251.555 603.938C251.555 603.877 251.573 603.818 251.607 603.768C251.64 603.715 251.689 603.674 251.747 603.651C251.805 603.629 251.869 603.626 251.928 603.643C252.571 603.768 258.125 605.018 258.821 606.893C258.894 607.097 258.912 607.316 258.874 607.528C258.837 607.741 258.745 607.941 258.607 608.107C258.321 608.54 257.901 608.866 257.411 609.036ZM252.536 604.5C254.125 606.947 255.696 608.411 256.821 608.482C257.078 608.487 257.331 608.426 257.556 608.304C257.781 608.182 257.971 608.003 258.107 607.786C258.184 607.707 258.237 607.608 258.259 607.501C258.281 607.393 258.272 607.281 258.232 607.179C257.803 606.036 254.464 604.964 252.536 604.5Z" fill="#407BFF"/>
<path d="M256.839 604.107C255.193 604.56 253.465 604.633 251.786 604.321C251.733 604.305 251.685 604.274 251.648 604.234C251.61 604.193 251.584 604.143 251.571 604.089C251.546 604.043 251.533 603.99 251.533 603.938C251.533 603.885 251.546 603.832 251.571 603.786C251.714 603.661 254.964 600.482 257.232 600.643C257.512 600.647 257.788 600.717 258.036 600.847C258.284 600.978 258.498 601.165 258.661 601.393C258.856 601.602 258.976 601.87 259.001 602.154C259.027 602.439 258.958 602.724 258.803 602.964C258.291 603.549 257.601 603.95 256.839 604.107ZM252.536 603.821C254.321 604.071 257.661 603.625 258.357 602.607C258.464 602.446 258.553 602.196 258.232 601.786C258.124 601.629 257.98 601.5 257.813 601.41C257.645 601.32 257.458 601.271 257.268 601.268C255.714 601.161 253.464 602.982 252.536 603.821Z" fill="#407BFF"/>
<path d="M338.036 631.054C336.309 631.012 334.591 630.791 332.911 630.393C332.852 630.372 332.801 630.333 332.765 630.282C332.729 630.231 332.71 630.17 332.71 630.107C332.71 630.045 332.729 629.984 332.765 629.932C332.801 629.881 332.852 629.843 332.911 629.821C333.679 629.446 340.518 626.25 342.232 627.464C342.387 627.57 342.51 627.715 342.588 627.885C342.667 628.055 342.698 628.243 342.679 628.429C342.67 628.777 342.582 629.12 342.421 629.429C342.26 629.739 342.031 630.007 341.75 630.214C340.63 630.875 339.331 631.168 338.036 631.054ZM333.982 629.982C336 630.357 339.75 630.857 341.304 629.696C341.503 629.54 341.666 629.342 341.783 629.118C341.9 628.893 341.968 628.646 341.982 628.393C341.998 628.314 341.989 628.233 341.957 628.16C341.925 628.086 341.872 628.024 341.804 627.982C340.839 627.321 336.804 628.732 333.929 629.982H333.982Z" fill="#407BFF"/>
<path d="M332.964 630.357C332.9 630.375 332.832 630.375 332.768 630.357C332.725 630.317 332.692 630.266 332.674 630.21C332.655 630.154 332.65 630.094 332.661 630.036C332.661 629.75 334.286 623.018 338.018 623.446C338.946 623.571 339.196 624.018 339.25 624.393C339.482 626.179 335.178 629.554 333.125 630.411L332.964 630.357ZM337.643 623.982C335.286 623.982 333.911 627.911 333.446 629.482C335.678 628.304 338.803 625.5 338.607 624.411C338.607 624.321 338.607 624.071 337.911 624L337.643 623.982Z" fill="#407BFF"/>
<path d="M367.857 159.018L371.018 158.554C371.018 158.554 369.143 160.714 367.857 159.018Z" fill="#263238"/>
<path d="M477.732 308.411L408.589 322.696C407.407 322.919 406.184 322.669 405.183 322.002C404.182 321.334 403.482 320.302 403.232 319.125L400 304.125L398.839 298.589L400.875 292.268C401.158 291.361 401.498 290.472 401.893 289.607C401.937 289.47 401.997 289.338 402.071 289.214C403.212 286.613 404.748 284.204 406.625 282.071L410.196 281.321L469.482 269.018C470.665 268.796 471.887 269.045 472.888 269.713C473.889 270.38 474.59 271.412 474.839 272.589L481.143 302.946C481.401 304.122 481.189 305.353 480.551 306.374C479.914 307.395 478.902 308.126 477.732 308.411Z" fill="#407BFF"/>
<path opacity="0.3" d="M474.304 270.982L440.946 304.911L433.804 302.018L406.018 290.75L402.107 289.161C403.248 286.559 404.784 284.15 406.661 282.018L410.232 281.268L469.518 268.964C470.426 268.783 471.368 268.878 472.221 269.238C473.074 269.598 473.8 270.205 474.304 270.982Z" fill="black"/>
<path d="M474.304 270.982L433.804 302.072L431.161 304.107L405.714 291.482L401.929 289.697C401.973 289.559 402.033 289.427 402.107 289.304C403.248 286.702 404.784 284.293 406.661 282.161L410.232 281.411L469.518 269.107C470.412 268.911 471.343 268.985 472.195 269.319C473.047 269.652 473.781 270.231 474.304 270.982Z" fill="#407BFF"/>
<path opacity="0.2" d="M474.304 270.982L433.804 302.072L431.161 304.107L405.714 291.482L401.929 289.697C401.973 289.559 402.033 289.427 402.107 289.304C403.248 286.702 404.784 284.293 406.661 282.161L410.232 281.411L469.518 269.107C470.412 268.911 471.343 268.985 472.195 269.319C473.047 269.652 473.781 270.231 474.304 270.982Z" fill="white"/>
<path d="M562.143 371.036L541.071 393.75C540.24 394.635 539.092 395.157 537.878 395.2C536.664 395.244 535.482 394.806 534.589 393.982L482.911 345.857C482.021 345.028 481.497 343.88 481.453 342.664C481.41 341.449 481.851 340.266 482.679 339.375L503.822 316.661C504.231 316.215 504.725 315.856 505.274 315.603C505.824 315.35 506.418 315.208 507.023 315.187C507.628 315.165 508.23 315.264 508.797 315.477C509.363 315.69 509.881 316.014 510.321 316.429L561.982 364.554C562.652 365.176 563.12 365.985 563.327 366.876C563.534 367.767 563.47 368.699 563.143 369.554C562.919 370.113 562.578 370.619 562.143 371.036Z" fill="#407BFF"/>
<path opacity="0.3" d="M563.072 369.643L516.072 361.982L505.161 315.554C505.994 315.17 506.921 315.042 507.827 315.185C508.733 315.328 509.576 315.736 510.25 316.357L561.911 364.482C562.613 365.118 563.102 365.955 563.31 366.879C563.517 367.803 563.434 368.768 563.072 369.643Z" fill="black"/>
<path d="M563.072 369.643L517.304 356L505.161 315.714C505.994 315.331 506.921 315.202 507.827 315.345C508.733 315.488 509.576 315.896 510.25 316.518L561.911 364.643C562.581 365.266 563.049 366.075 563.256 366.965C563.462 367.856 563.398 368.789 563.072 369.643Z" fill="#407BFF"/>
<path opacity="0.2" d="M563.072 369.643L517.304 356L505.161 315.714C505.994 315.331 506.921 315.202 507.827 315.345C508.733 315.488 509.576 315.896 510.25 316.518L561.911 364.643C562.581 365.266 563.049 366.075 563.256 366.965C563.462 367.856 563.398 368.789 563.072 369.643Z" fill="white"/>
<path d="M580.518 408.447L603.732 435.554C604.176 436.072 604.509 436.676 604.711 437.327C604.914 437.979 604.981 438.665 604.909 439.344C604.837 440.023 604.628 440.679 604.293 441.274C603.959 441.869 603.507 442.39 602.964 442.804L552.536 482.089C551.688 482.6 550.681 482.776 549.711 482.585C548.74 482.393 547.876 481.848 547.286 481.054L529.125 460.339C528.784 459.941 528.501 459.496 528.286 459.018C527.949 458.361 527.808 457.621 527.881 456.886C527.954 456.151 528.237 455.453 528.696 454.875L573.339 408.25C574.036 407.495 574.957 406.984 575.966 406.791C576.976 406.598 578.02 406.734 578.946 407.179C579.546 407.498 580.079 407.928 580.518 408.447Z" fill="#407BFF"/>
<path opacity="0.3" d="M578.947 407.232L567.857 456.554L528.357 459.071C528.02 458.415 527.879 457.674 527.952 456.94C528.025 456.205 528.308 455.507 528.768 454.929L573.411 408.304C574.103 407.564 575.011 407.063 576.005 406.87C576.999 406.678 578.029 406.804 578.947 407.232Z" fill="black"/>
<path d="M578.946 407.232L560.357 459.572L528.321 459.072C527.984 458.415 527.844 457.674 527.916 456.94C527.989 456.205 528.272 455.507 528.732 454.929L573.375 408.304C574.07 407.557 574.984 407.05 575.986 406.858C576.987 406.665 578.024 406.796 578.946 407.232Z" fill="#407BFF"/>
<path opacity="0.2" d="M578.946 407.232L560.357 459.572L528.321 459.072C527.984 458.415 527.844 457.674 527.916 456.94C527.989 456.205 528.272 455.507 528.732 454.929L573.375 408.304C574.07 407.557 574.984 407.05 575.986 406.858C576.987 406.665 578.024 406.796 578.946 407.232Z" fill="white"/>
</svg>
