<svg width="327" height="327" viewBox="0 0 327 327" fill="none" xmlns="http://www.w3.org/2000/svg">
<path d="M84.0258 229.737C76.5898 217.18 83.3718 195.487 89.7352 185.697C97.06 174.435 109.963 169.628 122.01 165.979C137.209 161.401 145.907 157.934 151.649 141.493C156.705 127.02 158.752 111.625 165.266 97.7861C178.581 69.4875 200.418 40.7704 234.021 51.0709C264.837 60.5212 283.332 92.2729 266.44 122.357C252.182 147.752 218.58 127.19 213.851 161.695C209.443 193.833 246.028 221.516 225.12 251.947C204.323 282.221 175.828 236.983 153.572 224.629C139.282 216.696 137.104 235.747 125.758 242.359C112.05 250.332 93.4303 245.629 84.0258 229.737Z" fill="#407BFF"/>
<path opacity="0.9" d="M84.0258 229.737C76.5898 217.18 83.3718 195.487 89.7352 185.697C97.06 174.435 109.963 169.628 122.01 165.979C137.209 161.401 145.907 157.934 151.649 141.493C156.705 127.02 158.752 111.625 165.266 97.7861C178.581 69.4875 200.418 40.7704 234.021 51.0709C264.837 60.5212 283.332 92.2729 266.44 122.357C252.182 147.752 218.58 127.19 213.851 161.695C209.443 193.833 246.028 221.516 225.12 251.947C204.323 282.221 175.828 236.983 153.572 224.629C139.282 216.696 137.104 235.747 125.758 242.359C112.05 250.332 93.4303 245.629 84.0258 229.737Z" fill="white"/>
<path d="M163.5 279.624C93.4682 279.624 36.6961 276.31 36.6961 272.221C36.6961 268.132 93.4682 264.818 163.5 264.818C233.532 264.818 290.304 268.132 290.304 272.221C290.304 276.31 233.532 279.624 163.5 279.624Z" fill="#F5F5F5"/>
<path d="M176.495 270.507C176.429 270.709 176.413 270.924 176.449 271.133C176.484 271.342 176.57 271.54 176.699 271.708C176.827 271.877 176.995 272.012 177.188 272.101C177.38 272.19 177.591 272.231 177.803 272.221H268.905C271.75 272.221 271.75 253.693 268.905 253.693H177.777C177.566 253.683 177.355 253.724 177.164 253.813C176.972 253.902 176.805 254.036 176.676 254.204C176.547 254.372 176.461 254.568 176.425 254.777C176.389 254.985 176.404 255.199 176.469 255.4C177.607 258.932 177.607 266.982 176.495 270.507Z" fill="#407BFF"/>
<path opacity="0.8" d="M176.626 255.858H231.909C234.086 255.858 234.086 270.056 231.909 270.056H176.626C177.561 266.492 177.561 259.416 176.626 255.858Z" fill="white"/>
<path opacity="0.2" d="M234.662 270.507C234.596 270.709 234.58 270.924 234.615 271.133C234.651 271.342 234.737 271.54 234.865 271.708C234.994 271.877 235.162 272.012 235.354 272.101C235.547 272.19 235.758 272.231 235.97 272.221H268.905C271.75 272.221 271.75 253.693 268.905 253.693H235.944C235.733 253.683 235.522 253.724 235.33 253.813C235.139 253.902 234.971 254.036 234.843 254.204C234.714 254.372 234.628 254.568 234.592 254.777C234.556 254.985 234.571 255.199 234.636 255.4C235.774 258.932 235.774 266.982 234.662 270.507Z" fill="black"/>
<path d="M254.857 253.693H262.385C265.23 253.693 265.23 272.221 262.385 272.221H254.857C257.676 272.221 257.676 253.693 254.857 253.693Z" fill="#407BFF"/>
<path d="M248.925 253.693H251.881C254.726 253.693 254.726 272.221 251.881 272.221H248.925C251.79 272.221 251.79 253.693 248.925 253.693Z" fill="#407BFF"/>
<path d="M274.216 252.156C274.53 252.915 273.758 253.693 272.711 253.693H190.778C187.436 253.693 187.436 237.036 190.778 237.036H272.718C273.764 237.036 274.536 237.807 274.222 238.573C272.914 241.745 272.914 248.984 274.216 252.156Z" fill="#263238"/>
<path opacity="0.2" d="M274.216 252.156C274.53 252.915 273.758 253.693 272.711 253.693H232.536C229.194 253.693 229.194 237.036 232.536 237.036H272.718C273.764 237.036 274.536 237.807 274.222 238.573C272.914 241.745 272.914 248.984 274.216 252.156Z" fill="black"/>
<path opacity="0.8" d="M274.072 238.978H234.178C231.621 238.978 231.621 251.744 234.178 251.744H274.072C272.973 248.52 272.973 242.183 274.072 238.978Z" fill="white"/>
<path opacity="0.2" d="M220.928 240.75C221.176 240.011 220.457 239.292 219.463 239.292H196.527C194.094 239.292 194.094 251.43 196.527 251.43H219.463C220.457 251.43 221.176 250.717 220.928 249.978C220.143 246.952 220.143 243.776 220.928 240.75Z" fill="white"/>
<path d="M55.1128 244.72C55.0404 244.941 55.0197 245.176 55.0522 245.407C55.0847 245.637 55.1695 245.857 55.3002 246.05C55.4309 246.242 55.604 246.402 55.8062 246.518C56.0084 246.633 56.2343 246.701 56.4666 246.715H152.735C155.744 246.715 155.744 225.133 152.735 225.133H56.4666C56.2381 225.149 56.016 225.216 55.817 225.329C55.618 225.442 55.4471 225.599 55.317 225.788C55.1869 225.976 55.101 226.192 55.0656 226.418C55.0303 226.644 55.0464 226.876 55.1128 227.095C56.2835 231.248 56.2835 240.62 55.1128 244.72Z" fill="#407BFF"/>
<path opacity="0.5" d="M55.1128 244.72C55.0404 244.941 55.0197 245.176 55.0522 245.407C55.0847 245.637 55.1695 245.857 55.3002 246.05C55.4309 246.242 55.604 246.402 55.8062 246.518C56.0084 246.633 56.2343 246.701 56.4666 246.715H152.735C155.744 246.715 155.744 225.133 152.735 225.133H56.4666C56.2381 225.149 56.016 225.216 55.817 225.329C55.618 225.442 55.4471 225.599 55.317 225.788C55.1869 225.976 55.101 226.192 55.0656 226.418C55.0303 226.644 55.0464 226.876 55.1128 227.095C56.2835 231.248 56.2835 240.62 55.1128 244.72Z" fill="white"/>
<path opacity="0.8" d="M55.2436 227.67H113.652C115.954 227.67 115.954 244.191 113.652 244.191H55.2436C56.2442 240.051 56.2442 231.817 55.2436 227.67Z" fill="white"/>
<path opacity="0.6" d="M116.563 244.72C116.49 244.941 116.47 245.176 116.502 245.407C116.535 245.637 116.619 245.857 116.75 246.05C116.881 246.242 117.054 246.402 117.256 246.518C117.458 246.633 117.684 246.701 117.916 246.715H152.735C155.744 246.715 155.744 225.133 152.735 225.133H117.916C117.688 225.149 117.466 225.216 117.267 225.329C117.068 225.442 116.897 225.599 116.767 225.788C116.637 225.976 116.551 226.192 116.515 226.418C116.48 226.644 116.496 226.876 116.563 227.095C117.72 231.248 117.72 240.62 116.563 244.72Z" fill="#407BFF"/>
<path opacity="0.5" d="M130.689 226.748C130.62 226.579 130.593 226.397 130.608 226.215C130.623 226.034 130.681 225.858 130.776 225.703C130.872 225.548 131.002 225.417 131.158 225.321C131.313 225.226 131.488 225.168 131.67 225.153H144.946C147.954 225.153 147.954 246.735 144.946 246.735H131.67C131.488 246.718 131.312 246.659 131.157 246.563C131.002 246.467 130.872 246.336 130.777 246.18C130.681 246.024 130.624 245.848 130.608 245.667C130.593 245.485 130.621 245.302 130.689 245.132C132.029 241.123 132.029 230.744 130.689 226.748Z" fill="white"/>
<path d="M62.019 269.847C61.9415 270.134 61.9335 270.435 61.9956 270.725C62.0577 271.016 62.1881 271.288 62.376 271.518C62.564 271.748 62.804 271.93 63.0763 272.049C63.3486 272.168 63.6452 272.22 63.9417 272.201H163.965C168.235 272.201 168.242 246.695 163.965 246.695H63.9025C63.606 246.677 63.3093 246.729 63.037 246.848C62.7648 246.967 62.5247 247.149 62.3368 247.379C62.1489 247.609 62.0185 247.881 61.9564 248.171C61.8943 248.462 61.9023 248.763 61.9797 249.05C63.6867 253.909 63.6801 264.994 62.019 269.847Z" fill="#407BFF"/>
<path opacity="0.2" d="M62.019 269.847C61.9415 270.134 61.9335 270.435 61.9956 270.725C62.0577 271.016 62.1881 271.288 62.376 271.518C62.564 271.748 62.804 271.93 63.0763 272.049C63.3486 272.168 63.6452 272.22 63.9417 272.201H163.965C168.235 272.201 168.242 246.695 163.965 246.695H63.9025C63.606 246.677 63.3093 246.729 63.037 246.848C62.7648 246.967 62.5247 247.149 62.3368 247.379C62.1489 247.609 62.0185 247.881 61.9564 248.171C61.8943 248.462 61.9023 248.763 61.9797 249.05C63.6867 253.909 63.6801 264.994 62.019 269.847Z" fill="white"/>
<path opacity="0.8" d="M62.2152 249.678H122.691C125.961 249.678 125.961 269.219 122.691 269.219H62.2086C63.6082 264.321 63.6082 254.583 62.2152 249.678Z" fill="white"/>
<path opacity="0.6" d="M126.824 269.86C126.745 270.146 126.736 270.447 126.797 270.738C126.858 271.029 126.988 271.301 127.175 271.531C127.363 271.761 127.603 271.943 127.875 272.062C128.147 272.181 128.444 272.233 128.74 272.214H163.965C168.235 272.214 168.242 246.708 163.965 246.708H128.74C128.444 246.69 128.147 246.742 127.875 246.861C127.602 246.98 127.362 247.162 127.174 247.392C126.986 247.622 126.856 247.894 126.794 248.184C126.732 248.475 126.74 248.776 126.817 249.063C128.485 253.922 128.485 265.001 126.824 269.86Z" fill="#407BFF"/>
<path opacity="0.5" d="M147.922 247.598C147.867 247.504 147.84 247.398 147.842 247.29C147.844 247.182 147.876 247.076 147.934 246.985C147.992 246.894 148.074 246.82 148.171 246.773C148.268 246.725 148.377 246.705 148.484 246.715H154.468C158.733 246.715 158.733 272.221 154.468 272.221H148.458C148.35 272.231 148.242 272.211 148.145 272.163C148.048 272.116 147.966 272.042 147.908 271.951C147.849 271.86 147.818 271.754 147.816 271.646C147.813 271.538 147.841 271.431 147.896 271.338C150.492 267.394 150.492 251.535 147.922 247.598Z" fill="white"/>
<path opacity="0.5" d="M138.583 247.598C138.529 247.504 138.501 247.397 138.504 247.289C138.506 247.181 138.538 247.075 138.596 246.984C138.654 246.892 138.735 246.818 138.832 246.77C138.929 246.721 139.037 246.7 139.145 246.708H145.129C149.393 246.708 149.393 272.214 145.129 272.214H139.145C139.038 272.223 138.93 272.202 138.834 272.154C138.738 272.106 138.657 272.032 138.6 271.941C138.542 271.85 138.511 271.745 138.509 271.638C138.507 271.53 138.535 271.424 138.589 271.331C141.153 267.394 141.153 251.528 138.583 247.598Z" fill="white"/>
<path d="M63 211.582C63.1159 209.766 63.5428 207.983 64.2622 206.311L63.6736 206.023C62.926 207.766 62.4836 209.624 62.3656 211.517L63 211.582Z" fill="#407BFF"/>
<path d="M67.1003 203.479H83.3457V204.133H67.1003V203.479Z" fill="#407BFF"/>
<path d="M172.976 223.367C173.31 224.257 172.492 225.153 171.387 225.153H67.1003C63.5753 225.153 63.5753 205.768 67.1003 205.768H171.387C172.492 205.768 173.31 206.671 172.976 207.56C171.603 211.242 171.603 219.672 172.976 223.367Z" fill="#407BFF"/>
<path opacity="0.2" d="M172.976 223.367C173.31 224.257 172.492 225.153 171.387 225.153H111.219C107.688 225.153 107.688 205.768 111.219 205.768H171.387C172.492 205.768 173.31 206.671 172.976 207.56C171.603 211.242 171.603 219.672 172.976 223.367Z" fill="black"/>
<path opacity="0.8" d="M172.819 208.037H112.965C110.258 208.037 110.258 222.89 112.965 222.89H172.819C171.662 219.162 171.662 211.765 172.819 208.037Z" fill="white"/>
<path opacity="0.2" d="M98.9568 210.091C99.2184 209.234 98.4598 208.404 97.4134 208.404H73.1762C70.6059 208.404 70.6059 222.523 73.1762 222.523H97.4134C98.4598 222.523 99.2184 221.693 98.9568 220.83C98.1001 218.116 98.1001 212.812 98.9568 210.091Z" fill="white"/>
<path d="M182.728 64.092C185.677 67.2508 192.878 64.092 193.976 72.7902C195.167 82.1686 190.654 86.6746 196.481 89.1402C205.637 92.9661 212.177 108.257 199.463 113.992C186.75 119.728 159.674 113.718 162.722 102.031C165.769 90.3436 165.168 84.0717 161.571 78.565C156.829 71.286 157.843 61.9338 161.708 58.5461C167.725 53.2487 176.037 56.898 182.728 64.092Z" fill="#263238"/>
<path d="M166.993 101.717C167.042 101.719 167.091 101.701 167.129 101.669C167.167 101.636 167.19 101.59 167.195 101.54C167.2 101.514 167.199 101.487 167.193 101.461C167.187 101.435 167.175 101.41 167.16 101.389C167.144 101.368 167.124 101.35 167.1 101.336C167.077 101.323 167.052 101.314 167.025 101.311C164.501 100.965 162.997 100.343 162.29 99.3491C161.414 98.1131 161.793 96.2753 162.29 93.9471C163.062 90.1604 164.128 84.9742 160.727 78.4211C156.6 70.475 158.111 61.7638 161.976 58.9123C162.019 58.8809 162.048 58.8337 162.057 58.7811C162.066 58.7285 162.053 58.6746 162.022 58.6311C161.99 58.5876 161.941 58.5584 161.888 58.5499C161.834 58.5414 161.779 58.5541 161.734 58.5853C157.706 61.5349 156.149 70.4816 160.368 78.6108C163.696 85.0331 162.65 90.1408 161.891 93.8686C161.394 96.2884 161.002 98.2046 161.983 99.5846C162.755 100.677 164.344 101.35 166.986 101.717H166.993Z" fill="#263238"/>
<path d="M199.967 90.3894C200.381 90.3876 200.793 90.3614 201.203 90.3109C201.23 90.3077 201.256 90.2992 201.279 90.2859C201.303 90.2726 201.323 90.2547 201.34 90.2334C201.356 90.2121 201.368 90.1878 201.375 90.1618C201.382 90.1358 201.384 90.1087 201.38 90.082C201.377 90.0553 201.368 90.0295 201.355 90.0061C201.342 89.9827 201.324 89.9622 201.302 89.9457C201.281 89.9293 201.257 89.9173 201.231 89.9103C201.205 89.9034 201.178 89.9017 201.151 89.9054C199.294 90.1343 197.946 89.8596 197.037 89.0617C195.337 87.5641 195.311 84.4314 195.291 80.8017C195.291 76.6946 195.232 72.0447 192.571 68.8728C192.553 68.8522 192.532 68.8351 192.509 68.8227C192.485 68.8102 192.459 68.8025 192.432 68.8001C192.405 68.7977 192.378 68.8005 192.353 68.8085C192.327 68.8165 192.303 68.8294 192.283 68.8466C192.262 68.8638 192.245 68.8849 192.233 68.9086C192.22 68.9324 192.213 68.9583 192.21 68.9851C192.208 69.0118 192.211 69.0387 192.219 69.0643C192.227 69.09 192.239 69.1138 192.257 69.1344C194.827 72.1951 194.873 76.7665 194.873 80.8083C194.873 84.5295 194.918 87.7472 196.756 89.3691C197.662 90.097 198.807 90.4608 199.967 90.3894Z" fill="#263238"/>
<path d="M135.777 205.755C140.139 205.703 141.853 205.428 143.861 205.461C145.869 205.493 146.346 205.847 148.439 205.755C149.851 205.696 149.858 204.015 149.315 202.864C148.89 201.962 148.367 201.053 147.883 199.928L142.35 200.333C141.604 202.439 137.903 203.342 134.659 204.087C133.371 204.395 134.031 205.775 135.777 205.755Z" fill="#407BFF"/>
<path d="M164.625 125.411C164.625 125.411 149.989 138.001 135.195 151.355C128.943 157.012 142.056 200.144 142.056 200.144C142.33 201.066 147.209 199.751 147.942 199.025C147.942 199.025 148.687 165.547 145.515 158.804C178.32 150.512 183.447 134.404 183.447 134.404L181.093 124.41L164.625 125.411Z" fill="#263238"/>
<path opacity="0.2" d="M181.282 138.373C179.446 140.94 177.27 143.246 174.814 145.227C171.544 141.401 172.46 135.221 172.46 135.221L181.282 138.373Z" fill="black"/>
<path d="M140.917 198.28C141.009 198.934 141.166 200.091 141.251 200.948C141.264 201.087 141.33 201.215 141.434 201.308C141.538 201.4 141.674 201.449 141.813 201.445C144.002 201.273 146.17 200.897 148.288 200.32C148.39 200.292 148.48 200.232 148.545 200.148C148.61 200.064 148.646 199.962 148.648 199.856L148.693 197.469C148.694 197.391 148.678 197.314 148.647 197.243C148.616 197.172 148.57 197.108 148.513 197.056C148.455 197.004 148.388 196.964 148.314 196.939C148.24 196.915 148.162 196.906 148.085 196.913L141.336 197.73C141.272 197.738 141.21 197.758 141.153 197.789C141.097 197.821 141.048 197.864 141.009 197.916C140.97 197.967 140.942 198.026 140.926 198.088C140.91 198.151 140.907 198.216 140.917 198.28Z" fill="#263238"/>
<path opacity="0.3" d="M140.917 198.28C141.009 198.934 141.166 200.091 141.251 200.948C141.264 201.087 141.33 201.215 141.434 201.308C141.538 201.4 141.674 201.449 141.813 201.445C144.002 201.273 146.17 200.897 148.288 200.32C148.39 200.292 148.48 200.232 148.545 200.148C148.61 200.064 148.646 199.962 148.648 199.856L148.693 197.469C148.694 197.391 148.678 197.314 148.647 197.243C148.616 197.172 148.57 197.108 148.513 197.056C148.455 197.004 148.388 196.964 148.314 196.939C148.24 196.915 148.162 196.906 148.085 196.913L141.336 197.73C141.272 197.738 141.21 197.758 141.153 197.789C141.097 197.821 141.048 197.864 141.009 197.916C140.97 197.967 140.942 198.026 140.926 198.088C140.91 198.151 140.907 198.216 140.917 198.28Z" fill="white"/>
<path d="M199.817 237.036C204.251 237.036 205.703 235.368 208.181 234.91C210.274 234.518 210.83 234.701 212.517 234.407C213.93 234.158 214.041 233.19 213.171 231.758C212.604 230.768 212.123 229.731 211.733 228.658L205.01 229.103C204.31 230.901 202.694 234.557 200.229 234.989C197.907 235.44 198.051 237.036 199.817 237.036Z" fill="#407BFF"/>
<path d="M165.639 125.372C165.639 125.372 181.106 152.873 187.332 169.883C193.872 187.75 204.284 216.971 205.036 229.103C206.147 229.632 209.797 229.43 211.759 228.658C211.759 228.658 213.577 186.802 200.987 170.033C197.986 134.122 193.002 128.38 187.705 124.005L165.639 125.372Z" fill="#263238"/>
<path d="M204.225 226.624C204.305 227.452 204.327 228.285 204.29 229.116C204.281 229.261 204.33 229.403 204.425 229.512C204.521 229.621 204.656 229.688 204.8 229.698C207.305 229.927 210.797 229.122 211.903 228.848C212.005 228.822 212.097 228.763 212.163 228.681C212.229 228.598 212.266 228.496 212.269 228.39L212.354 226.049C212.355 225.972 212.34 225.895 212.31 225.824C212.28 225.753 212.236 225.689 212.18 225.637C212.124 225.584 212.058 225.543 211.985 225.517C211.913 225.491 211.836 225.481 211.759 225.486L204.669 226.094C204.605 226.099 204.543 226.117 204.485 226.146C204.428 226.176 204.377 226.216 204.336 226.266C204.294 226.315 204.263 226.372 204.244 226.434C204.225 226.495 204.218 226.56 204.225 226.624Z" fill="#263238"/>
<path opacity="0.3" d="M204.225 226.624C204.305 227.452 204.327 228.285 204.29 229.116C204.281 229.261 204.33 229.403 204.425 229.512C204.521 229.621 204.656 229.688 204.8 229.698C207.305 229.927 210.797 229.122 211.903 228.848C212.005 228.822 212.097 228.763 212.163 228.681C212.229 228.598 212.266 228.496 212.269 228.39L212.354 226.049C212.355 225.972 212.34 225.895 212.31 225.824C212.28 225.753 212.236 225.689 212.18 225.637C212.124 225.584 212.058 225.543 211.985 225.517C211.913 225.491 211.836 225.481 211.759 225.486L204.669 226.094C204.605 226.099 204.543 226.117 204.485 226.146C204.428 226.176 204.377 226.216 204.336 226.266C204.294 226.315 204.263 226.372 204.244 226.434C204.225 226.495 204.218 226.56 204.225 226.624Z" fill="white"/>
<path d="M161.538 98.3943C160.884 99.6304 160.178 101.01 159.459 102.318C158.739 103.626 158.013 104.934 157.281 106.21C155.803 108.78 154.259 111.298 152.605 113.672L153.494 112.88C152.838 113.342 152.114 113.699 151.349 113.94C150.423 114.25 149.474 114.487 148.511 114.646C147.504 114.829 146.457 114.954 145.391 115.052C144.325 115.15 143.207 115.209 142.187 115.274H142.049C141.624 115.298 141.221 115.47 140.909 115.759C140.597 116.049 140.396 116.437 140.339 116.859C140.283 117.281 140.375 117.709 140.6 118.07C140.825 118.431 141.168 118.703 141.572 118.838C142.74 119.227 143.936 119.529 145.149 119.741C146.368 119.958 147.601 120.091 148.838 120.14C150.15 120.19 151.465 120.111 152.762 119.904C154.226 119.684 155.641 119.215 156.947 118.518C157.219 118.37 157.461 118.172 157.66 117.936L157.837 117.727C158.877 116.484 159.89 115.215 160.819 113.914C161.748 112.612 162.657 111.298 163.5 109.99C164.344 108.682 165.162 107.289 165.933 105.909C166.705 104.529 167.437 103.162 168.137 101.651C168.505 100.793 168.53 99.8264 168.209 98.9497C167.887 98.073 167.243 97.3521 166.408 96.9345C165.573 96.5169 164.61 96.4341 163.716 96.703C162.821 96.9719 162.064 97.5722 161.597 98.3812L161.538 98.3943Z" fill="#FFB573"/>
<path d="M165.148 93.1166C160.878 94.5227 160.184 96.4389 157.843 103.515C159.4 107.76 165.691 109.911 165.691 109.911C165.691 109.911 173.121 97.8123 165.148 93.1166Z" fill="#407BFF"/>
<path d="M159.301 102.325C159.543 104.666 160.145 107.459 161.407 112.946C162.388 117.602 162.401 126.68 163.971 127.157C166.986 128.648 174.533 128.073 187.705 124.005C187.286 117.203 186.495 112.586 188.758 96.9817C188.9 96.1636 188.858 95.3241 188.635 94.5242C188.412 93.7244 188.014 92.9843 187.469 92.3578C186.924 91.7313 186.246 91.2343 185.485 90.9028C184.723 90.5714 183.898 90.4138 183.068 90.4417C182.113 90.4417 181.106 90.5202 180.079 90.6117C176.457 90.8296 172.855 91.3083 169.301 92.044C168.143 92.3056 166.947 92.613 165.809 92.9269C163.805 93.4993 162.061 94.7486 160.874 96.4622C159.688 98.1757 159.132 100.248 159.301 102.325Z" fill="#407BFF"/>
<path d="M205.408 129.374L204.1 128.178C203.857 127.955 203.67 127.677 203.557 127.368C203.443 127.058 203.405 126.726 203.446 126.399L203.806 123.279C203.875 122.666 204.089 122.078 204.43 121.564C204.771 121.05 205.23 120.624 205.768 120.323L206.422 119.95C208.757 121.788 209.927 125.49 209.927 125.49L210.379 126.51C210.478 126.716 210.535 126.94 210.547 127.169C210.559 127.397 210.525 127.626 210.448 127.841C210.371 128.057 210.251 128.255 210.097 128.423C209.942 128.592 209.756 128.729 209.548 128.825L207.54 129.741C207.187 129.891 206.799 129.937 206.42 129.872C206.042 129.807 205.691 129.634 205.408 129.374Z" fill="#FFB573"/>
<path d="M136.758 113.665L138.433 113.011C138.742 112.894 139.076 112.853 139.405 112.892C139.734 112.931 140.048 113.048 140.323 113.234L142.939 114.986C143.452 115.332 143.875 115.795 144.172 116.338C144.469 116.881 144.631 117.487 144.646 118.106V118.884C141.944 120.114 138.106 119.447 138.106 119.447L136.994 119.381C136.765 119.374 136.54 119.321 136.332 119.226C136.123 119.131 135.936 118.995 135.78 118.828C135.625 118.66 135.504 118.463 135.425 118.248C135.346 118.033 135.31 117.805 135.319 117.576L135.424 115.372C135.454 114.988 135.597 114.621 135.834 114.318C136.071 114.014 136.393 113.787 136.758 113.665Z" fill="#FFB573"/>
<path d="M184.86 99.0875L185.697 99.4734L186.613 99.892C187.221 100.186 187.823 100.494 188.424 100.808C189.634 101.462 190.811 102.116 191.969 102.802C193.127 103.489 194.245 104.254 195.331 105.032C196.416 105.811 197.423 106.661 198.404 107.531L197.973 106.981C198.292 107.45 198.572 107.945 198.81 108.459C199.098 109.054 199.366 109.702 199.627 110.362C200.151 111.67 200.661 113.07 201.131 114.476C201.602 115.882 202.08 117.308 202.544 118.734L203.957 123.03C204.094 123.453 204.379 123.811 204.76 124.038C205.141 124.265 205.592 124.346 206.028 124.267C206.465 124.187 206.858 123.951 207.133 123.603C207.409 123.256 207.549 122.82 207.528 122.376C207.456 120.8 207.312 119.27 207.135 117.727C206.959 116.183 206.736 114.646 206.481 113.103C206.226 111.559 205.893 110.009 205.468 108.44C205.258 107.655 205.029 106.87 204.742 106.046C204.438 105.139 204.048 104.263 203.577 103.43C203.495 103.294 203.401 103.165 203.296 103.044L203.139 102.881C202.062 101.693 200.909 100.577 199.686 99.5388C198.482 98.5149 197.219 97.5607 195.906 96.6808C194.61 95.8023 193.267 94.9945 191.884 94.261C191.191 93.8948 190.491 93.5482 189.778 93.2081C189.418 93.0446 189.065 92.8745 188.692 92.7176C188.32 92.5606 187.98 92.4233 187.515 92.2467C186.625 91.8906 185.63 91.8989 184.745 92.2696C183.86 92.6403 183.157 93.3439 182.786 94.2285C182.416 95.1132 182.407 96.108 182.764 96.9986C183.12 97.8893 183.812 98.6042 184.69 98.9894L184.86 99.0875Z" fill="#FFB573"/>
<path d="M178.542 92.1421C181.747 89.8466 183.695 89.598 191.452 92.9661C192.374 97.845 189.353 105.006 189.353 105.006C189.353 105.006 179.032 99.6304 178.542 92.1421Z" fill="#407BFF"/>
<path d="M177.705 78.5519C177.228 82.1424 176.92 88.6497 179.484 90.664C179.484 90.664 176.135 90.6052 169.733 95.8437C167.333 93.2277 168.706 92.0963 168.706 92.0963C172.519 90.6509 172.251 87.7668 171.42 85.1312L177.705 78.5519Z" fill="#FFB573"/>
<path d="M171.086 94.7843C173.421 94.7843 174.605 98.1785 174.605 98.1785C174.605 98.1785 180.216 93.7052 180.981 90.5594C180.237 90.259 179.507 89.9207 178.797 89.5457C178.797 89.5457 172.251 93.2801 171.086 94.7843Z" fill="white"/>
<path d="M168.85 94.6992C168.85 94.6992 167.084 95.3532 166.502 97.9692C165.305 92.9857 167.64 92.2009 167.64 92.2009C168.225 91.7623 168.953 91.5571 169.681 91.6254C169.203 91.9587 168.858 92.4493 168.707 93.0113C168.555 93.5734 168.605 94.1709 168.85 94.6992Z" fill="white"/>
<path opacity="0.2" d="M175.141 81.2333L171.427 85.1573C171.629 85.7707 171.776 86.4011 171.865 87.0409C173.33 86.6288 175.266 84.7257 175.331 83.1169C175.384 82.4827 175.32 81.8441 175.141 81.2333Z" fill="black"/>
<path d="M181.734 73.3265C180.426 78.9117 179.948 81.2988 176.593 83.8494C171.551 87.6818 165.004 85.1966 164.651 79.4152C164.337 74.1832 166.574 65.9428 172.499 64.3732C173.755 63.9958 175.089 63.9604 176.362 64.2707C177.636 64.581 178.804 65.2258 179.745 66.1385C180.687 67.0511 181.367 68.1985 181.717 69.4621C182.066 70.7258 182.072 72.0598 181.734 73.3265Z" fill="#FFB573"/>
<path d="M180.642 77.3421C178.588 76.3349 176.41 71.3841 179.334 69.0428C176.92 69.4941 174.154 68.8466 171.597 66.8715C168.261 64.2555 163.35 70.7498 164.965 66.9369C167.293 61.4433 174.311 60.0699 180.661 64.6349C187.011 69.1998 186.56 74.7522 180.642 77.3421Z" fill="#263238"/>
<path d="M182.381 76.2237C182.403 76.2215 182.424 76.2122 182.441 76.1971C182.457 76.1821 182.469 76.1621 182.473 76.1401C182.477 76.1182 182.475 76.0954 182.465 76.0751C182.456 76.0548 182.44 76.0382 182.42 76.0275C180.785 75.3212 173.846 73.8432 173.552 73.7843C173.539 73.7804 173.525 73.7794 173.511 73.7814C173.497 73.7833 173.484 73.7881 173.472 73.7956C173.46 73.803 173.45 73.8128 173.443 73.8244C173.435 73.836 173.43 73.8491 173.428 73.8628C173.424 73.8887 173.429 73.9151 173.444 73.9369C173.459 73.9587 173.481 73.9743 173.506 73.9805C173.578 73.9805 180.7 75.5174 182.342 76.2172L182.381 76.2237Z" fill="white"/>
<path opacity="0.2" d="M173.964 73.902C174.665 73.5938 175.46 73.575 176.175 73.8497C175.448 74.0105 174.698 74.0283 173.964 73.902Z" fill="black"/>
<path opacity="0.2" d="M174.023 74.3991C174.363 74.3273 174.715 74.3304 175.054 74.4084C175.392 74.4863 175.71 74.6371 175.985 74.8503C175.306 74.8395 174.638 74.6857 174.023 74.3991Z" fill="black"/>
<path d="M172.748 73.8235C172.656 74.3009 172.336 74.6541 172.028 74.6149C171.721 74.5756 171.551 74.1636 171.642 73.6862C171.734 73.2088 172.061 72.8621 172.362 72.8948C172.663 72.9275 172.839 73.3526 172.748 73.8235Z" fill="#263238"/>
<path d="M167.006 73.2022C166.914 73.6731 166.587 74.0263 166.286 73.9936C165.985 73.9609 165.809 73.5358 165.9 73.0649C165.992 72.594 166.312 72.2343 166.62 72.2736C166.927 72.3128 167.097 72.7248 167.006 73.2022Z" fill="#263238"/>
<path d="M166.77 72.3193L165.711 71.8484C165.711 71.8484 166.116 72.8098 166.77 72.3193Z" fill="#263238"/>
<path d="M168.078 74.1113C167.512 75.1783 166.813 76.1693 165.998 77.0609C166.221 77.2481 166.483 77.3834 166.765 77.4569C167.046 77.5304 167.341 77.5404 167.627 77.486L168.078 74.1113Z" fill="#ED893E"/>
<path d="M170.138 79.5983C169.875 79.6208 169.61 79.6208 169.347 79.5983C169.329 79.596 169.312 79.59 169.296 79.5807C169.281 79.5714 169.268 79.559 169.257 79.5442C169.247 79.5295 169.239 79.5127 169.236 79.495C169.232 79.4773 169.232 79.4591 169.236 79.4414C169.242 79.4038 169.263 79.3701 169.293 79.347C169.324 79.3239 169.362 79.3133 169.399 79.3171C169.991 79.3888 170.592 79.328 171.157 79.1392C171.723 78.9503 172.239 78.638 172.669 78.2249C172.682 78.2119 172.698 78.2015 172.714 78.1944C172.731 78.1874 172.749 78.1837 172.768 78.1837C172.786 78.1837 172.804 78.1874 172.821 78.1944C172.838 78.2015 172.853 78.2119 172.866 78.2249C172.891 78.2516 172.904 78.2866 172.904 78.323C172.904 78.3595 172.891 78.3945 172.866 78.4211C172.13 79.1322 171.16 79.5508 170.138 79.5983Z" fill="#263238"/>
<path d="M183.061 78.3296C182.746 78.7793 182.341 79.1586 181.871 79.4434C181.402 79.7283 180.878 79.9124 180.334 79.9842C178.974 80.0954 178.679 78.5127 179.373 77.1066C179.994 75.8444 181.452 74.2552 182.643 74.8046C183.833 75.3539 183.944 77.172 183.061 78.3296Z" fill="#FFB573"/>
<path d="M174.585 70.22C174.549 70.22 174.513 70.2118 174.48 70.1959C174.447 70.1801 174.419 70.157 174.396 70.1284C174.186 69.8591 173.912 69.6458 173.599 69.5078C173.287 69.3697 172.945 69.3111 172.604 69.3371C172.568 69.3426 172.532 69.3408 172.498 69.3318C172.463 69.3228 172.431 69.3067 172.402 69.2846C172.374 69.2626 172.351 69.2349 172.334 69.2035C172.317 69.172 172.306 69.1373 172.303 69.1017C172.3 69.0266 172.324 68.9529 172.371 68.8941C172.418 68.8353 172.484 68.7952 172.558 68.7812C172.988 68.7431 173.421 68.8121 173.819 68.9822C174.216 69.1522 174.565 69.4179 174.834 69.7557C174.866 69.8003 174.884 69.8528 174.888 69.9074C174.891 69.962 174.879 70.0165 174.853 70.0647C174.828 70.1129 174.789 70.153 174.742 70.1804C174.694 70.2079 174.64 70.2216 174.585 70.22Z" fill="#263238"/>
<path d="M165.946 69.978C165.911 69.9819 165.876 69.9787 165.842 69.9686C165.808 69.9585 165.777 69.9417 165.75 69.9192C165.724 69.8936 165.703 69.8631 165.689 69.8294C165.675 69.7957 165.668 69.7595 165.668 69.723C165.668 69.6864 165.675 69.6503 165.689 69.6166C165.703 69.5829 165.724 69.5523 165.75 69.5268C166.033 69.1719 166.393 68.8869 166.804 68.6941C167.214 68.5013 167.664 68.4058 168.118 68.415C168.154 68.4179 168.189 68.4285 168.221 68.4461C168.252 68.4636 168.28 68.4878 168.302 68.5169C168.323 68.546 168.338 68.5793 168.346 68.6148C168.354 68.6502 168.354 68.6869 168.346 68.7224C168.335 68.7963 168.297 68.8634 168.239 68.9105C168.181 68.9577 168.107 68.9815 168.033 68.9774C167.673 68.9736 167.317 69.0523 166.993 69.2077C166.669 69.363 166.384 69.5908 166.162 69.8734C166.136 69.9057 166.103 69.9318 166.066 69.9499C166.029 69.968 165.988 69.9776 165.946 69.978Z" fill="#263238"/>
<path d="M170.975 76.7862C172.355 76.7862 173.552 75.3212 173.683 73.4442C173.762 72.5602 173.558 71.6739 173.101 70.9133C172.92 70.5908 172.665 70.3163 172.357 70.1127C172.049 69.909 171.696 69.7821 171.329 69.7426C169.883 69.6445 168.614 71.1422 168.477 73.0845C168.34 75.0269 169.406 76.6815 170.838 76.7796L170.975 76.7862ZM171.191 69.978H171.309C171.645 70.0166 171.968 70.1346 172.25 70.3222C172.532 70.5098 172.765 70.7617 172.931 71.0571C173.365 71.7806 173.558 72.6236 173.48 73.4639C173.356 75.2885 172.172 76.6946 170.864 76.6096C169.556 76.5246 168.569 74.955 168.693 73.1303C168.817 71.3057 169.916 69.978 171.191 69.978Z" fill="white"/>
<path d="M164.861 76.433C166.241 76.433 167.444 74.9746 167.575 73.0976C167.651 72.2138 167.447 71.3284 166.993 70.5666C166.811 70.2441 166.554 69.9696 166.245 69.766C165.936 69.5624 165.582 69.4356 165.214 69.396C163.782 69.2979 162.5 70.7955 162.369 72.7314C162.293 73.6152 162.496 74.5006 162.951 75.2624C163.132 75.5856 163.388 75.8606 163.698 76.0644C164.007 76.2681 164.361 76.3945 164.73 76.433H164.861ZM165.076 69.5987H165.201C165.537 69.6373 165.86 69.7553 166.142 69.9429C166.424 70.1305 166.657 70.3824 166.823 70.6778C167.251 71.4036 167.443 72.2447 167.372 73.0845C167.248 74.8503 166.136 76.2303 164.861 76.2303H164.743C164.406 76.1933 164.083 76.0759 163.801 75.8882C163.518 75.7004 163.285 75.4477 163.121 75.1512C162.69 74.4287 162.498 73.5889 162.572 72.751C162.696 70.9787 163.808 69.5987 165.076 69.5987Z" fill="white"/>
<path d="M167.424 73.3658C167.442 73.3648 167.459 73.3595 167.473 73.3504C167.488 73.3412 167.501 73.3285 167.509 73.3134C167.758 72.921 168.484 73.3461 168.49 73.3461C168.501 73.3532 168.514 73.358 168.527 73.3602C168.54 73.3624 168.553 73.362 168.566 73.3589C168.579 73.3559 168.591 73.3503 168.601 73.3425C168.612 73.3347 168.621 73.3248 168.628 73.3134C168.644 73.2944 168.653 73.27 168.653 73.2448C168.653 73.2195 168.644 73.1951 168.628 73.1761C168.588 73.1761 167.725 72.6398 167.372 73.1761C167.364 73.1869 167.358 73.1993 167.355 73.2125C167.353 73.2257 167.353 73.2393 167.356 73.2525C167.359 73.2656 167.365 73.2779 167.373 73.2884C167.382 73.2989 167.393 73.3075 167.405 73.3134C167.404 73.323 167.406 73.3326 167.409 73.3416C167.413 73.3506 167.418 73.3588 167.424 73.3658Z" fill="white"/>
<path d="M172.493 72.9407L171.44 72.4763C171.44 72.4763 171.839 73.4377 172.493 72.9407Z" fill="#263238"/>
</svg>
