<svg width="253" height="231" viewBox="0 0 253 231" fill="none" xmlns="http://www.w3.org/2000/svg">
<g clip-path="url(#clip0_206_6540)">
<path d="M47.0258 180.737C39.5898 168.18 46.3718 146.487 52.7352 136.697C60.06 125.435 72.9635 120.628 85.0101 116.979C100.209 112.401 108.907 108.934 114.649 92.4929C119.705 78.0199 121.752 62.6247 128.266 48.7861C141.581 20.4875 163.418 -8.22964 197.021 2.07086C227.837 11.5212 246.332 43.2729 229.44 73.3568C215.182 98.7517 181.58 78.1899 176.851 112.695C172.443 144.833 209.028 172.516 188.12 202.947C167.323 233.221 138.828 187.983 116.572 175.629C102.282 167.696 100.104 186.747 88.7576 193.359C75.0497 201.332 56.4303 196.629 47.0258 180.737Z" fill="#407BFF"/>
<path opacity="0.9" d="M47.0258 180.737C39.5898 168.18 46.3718 146.487 52.7352 136.697C60.06 125.435 72.9635 120.628 85.0101 116.979C100.209 112.401 108.907 108.934 114.649 92.4929C119.705 78.0199 121.752 62.6247 128.266 48.7861C141.581 20.4875 163.418 -8.22964 197.021 2.07086C227.837 11.5212 246.332 43.2729 229.44 73.3568C215.182 98.7517 181.58 78.1899 176.851 112.695C172.443 144.833 209.028 172.516 188.12 202.947C167.323 233.221 138.828 187.983 116.572 175.629C102.282 167.696 100.104 186.747 88.7576 193.359C75.0497 201.332 56.4303 196.629 47.0258 180.737Z" fill="white"/>
<path d="M126.5 230.624C56.4682 230.624 -0.30394 227.31 -0.30394 223.221C-0.30394 219.132 56.4682 215.818 126.5 215.818C196.532 215.818 253.304 219.132 253.304 223.221C253.304 227.31 196.532 230.624 126.5 230.624Z" fill="#F5F5F5"/>
<path d="M139.495 221.507C139.429 221.709 139.413 221.924 139.449 222.133C139.484 222.342 139.57 222.54 139.699 222.708C139.827 222.877 139.995 223.012 140.188 223.101C140.38 223.19 140.591 223.231 140.803 223.221H231.905C234.75 223.221 234.75 204.693 231.905 204.693H140.777C140.566 204.683 140.355 204.724 140.164 204.813C139.972 204.902 139.805 205.036 139.676 205.204C139.547 205.372 139.461 205.568 139.425 205.777C139.389 205.985 139.404 206.199 139.469 206.4C140.607 209.932 140.607 217.982 139.495 221.507Z" fill="#407BFF"/>
<path opacity="0.8" d="M139.626 206.858H194.909C197.086 206.858 197.086 221.056 194.909 221.056H139.626C140.561 217.492 140.561 210.416 139.626 206.858Z" fill="white"/>
<path opacity="0.2" d="M197.662 221.507C197.596 221.709 197.58 221.924 197.615 222.133C197.651 222.342 197.737 222.54 197.865 222.708C197.994 222.877 198.162 223.012 198.354 223.101C198.547 223.19 198.758 223.231 198.97 223.221H231.905C234.75 223.221 234.75 204.693 231.905 204.693H198.944C198.733 204.683 198.522 204.724 198.33 204.813C198.139 204.902 197.971 205.036 197.843 205.204C197.714 205.372 197.628 205.568 197.592 205.777C197.556 205.985 197.571 206.199 197.636 206.4C198.774 209.932 198.774 217.982 197.662 221.507Z" fill="black"/>
<path d="M217.857 204.693H225.385C228.23 204.693 228.23 223.221 225.385 223.221H217.857C220.676 223.221 220.676 204.693 217.857 204.693Z" fill="#407BFF"/>
<path d="M211.925 204.693H214.881C217.726 204.693 217.726 223.221 214.881 223.221H211.925C214.79 223.221 214.79 204.693 211.925 204.693Z" fill="#407BFF"/>
<path d="M237.216 203.156C237.53 203.915 236.758 204.693 235.711 204.693H153.778C150.436 204.693 150.436 188.036 153.778 188.036H235.718C236.764 188.036 237.536 188.807 237.222 189.573C235.914 192.745 235.914 199.984 237.216 203.156Z" fill="#263238"/>
<path opacity="0.2" d="M237.216 203.156C237.53 203.915 236.758 204.693 235.711 204.693H195.536C192.194 204.693 192.194 188.036 195.536 188.036H235.718C236.764 188.036 237.536 188.807 237.222 189.573C235.914 192.745 235.914 199.984 237.216 203.156Z" fill="black"/>
<path opacity="0.8" d="M237.072 189.978H197.178C194.621 189.978 194.621 202.744 197.178 202.744H237.072C235.973 199.52 235.973 193.183 237.072 189.978Z" fill="white"/>
<path opacity="0.2" d="M183.928 191.75C184.176 191.011 183.457 190.292 182.463 190.292H159.527C157.094 190.292 157.094 202.43 159.527 202.43H182.463C183.457 202.43 184.176 201.717 183.928 200.978C183.143 197.952 183.143 194.776 183.928 191.75Z" fill="white"/>
<path d="M18.1128 195.72C18.0404 195.941 18.0197 196.176 18.0522 196.407C18.0847 196.637 18.1695 196.857 18.3002 197.05C18.4309 197.242 18.604 197.402 18.8062 197.518C19.0084 197.633 19.2343 197.701 19.4666 197.715H115.735C118.744 197.715 118.744 176.133 115.735 176.133H19.4666C19.2381 176.149 19.016 176.216 18.817 176.329C18.618 176.442 18.4471 176.599 18.317 176.788C18.1869 176.976 18.101 177.192 18.0656 177.418C18.0303 177.644 18.0464 177.876 18.1128 178.095C19.2835 182.248 19.2835 191.62 18.1128 195.72Z" fill="#407BFF"/>
<path opacity="0.5" d="M18.1128 195.72C18.0404 195.941 18.0197 196.176 18.0522 196.407C18.0847 196.637 18.1695 196.857 18.3002 197.05C18.4309 197.242 18.604 197.402 18.8062 197.518C19.0084 197.633 19.2343 197.701 19.4666 197.715H115.735C118.744 197.715 118.744 176.133 115.735 176.133H19.4666C19.2381 176.149 19.016 176.216 18.817 176.329C18.618 176.442 18.4471 176.599 18.317 176.788C18.1869 176.976 18.101 177.192 18.0656 177.418C18.0303 177.644 18.0464 177.876 18.1128 178.095C19.2835 182.248 19.2835 191.62 18.1128 195.72Z" fill="white"/>
<path opacity="0.8" d="M18.2436 178.67H76.6523C78.9544 178.67 78.9544 195.191 76.6523 195.191H18.2436C19.2442 191.051 19.2442 182.817 18.2436 178.67Z" fill="white"/>
<path opacity="0.6" d="M79.5627 195.72C79.4903 195.941 79.4696 196.176 79.502 196.407C79.5345 196.637 79.6194 196.857 79.7501 197.05C79.8808 197.242 80.0539 197.402 80.256 197.518C80.4582 197.633 80.6841 197.701 80.9164 197.715H115.735C118.744 197.715 118.744 176.133 115.735 176.133H80.9164C80.6879 176.149 80.4659 176.216 80.2668 176.329C80.0678 176.442 79.8969 176.599 79.7668 176.788C79.6367 176.976 79.5508 177.192 79.5155 177.418C79.4801 177.644 79.4963 177.876 79.5627 178.095C80.7202 182.248 80.7202 191.62 79.5627 195.72Z" fill="#407BFF"/>
<path opacity="0.5" d="M93.6886 177.748C93.6204 177.579 93.5928 177.397 93.6081 177.215C93.6233 177.034 93.681 176.858 93.7764 176.703C93.8718 176.548 94.0024 176.417 94.1575 176.321C94.3127 176.226 94.4881 176.168 94.6696 176.153H107.946C110.954 176.153 110.954 197.735 107.946 197.735H94.6696C94.4878 197.718 94.3124 197.659 94.1573 197.563C94.0022 197.467 93.8718 197.336 93.7765 197.18C93.6812 197.024 93.6236 196.848 93.6084 196.667C93.5931 196.485 93.6206 196.302 93.6886 196.132C95.0293 192.123 95.0293 181.744 93.6886 177.748Z" fill="white"/>
<path d="M25.019 220.847C24.9415 221.134 24.9335 221.435 24.9956 221.725C25.0577 222.016 25.1881 222.288 25.376 222.518C25.564 222.748 25.804 222.93 26.0763 223.049C26.3486 223.168 26.6452 223.22 26.9417 223.201H126.965C131.235 223.201 131.242 197.695 126.965 197.695H26.9025C26.606 197.677 26.3093 197.729 26.037 197.848C25.7648 197.967 25.5247 198.149 25.3368 198.379C25.1489 198.609 25.0185 198.881 24.9564 199.171C24.8943 199.462 24.9023 199.763 24.9797 200.05C26.6867 204.909 26.6801 215.994 25.019 220.847Z" fill="#407BFF"/>
<path opacity="0.2" d="M25.019 220.847C24.9415 221.134 24.9335 221.435 24.9956 221.725C25.0577 222.016 25.1881 222.288 25.376 222.518C25.564 222.748 25.804 222.93 26.0763 223.049C26.3486 223.168 26.6452 223.22 26.9417 223.201H126.965C131.235 223.201 131.242 197.695 126.965 197.695H26.9025C26.606 197.677 26.3093 197.729 26.037 197.848C25.7648 197.967 25.5247 198.149 25.3368 198.379C25.1489 198.609 25.0185 198.881 24.9564 199.171C24.8943 199.462 24.9023 199.763 24.9797 200.05C26.6867 204.909 26.6801 215.994 25.019 220.847Z" fill="white"/>
<path opacity="0.8" d="M25.2152 200.678H85.6906C88.9606 200.678 88.9606 220.219 85.6906 220.219H25.2086C26.6082 215.321 26.6082 205.583 25.2152 200.678Z" fill="white"/>
<path opacity="0.6" d="M89.8238 220.86C89.7451 221.146 89.7359 221.447 89.797 221.738C89.8582 222.029 89.9879 222.301 90.1754 222.531C90.3629 222.761 90.6027 222.943 90.8748 223.062C91.147 223.181 91.4437 223.233 91.7401 223.214H126.965C131.235 223.214 131.242 197.708 126.965 197.708H91.7401C91.4435 197.69 91.1469 197.742 90.8746 197.861C90.6023 197.98 90.3623 198.162 90.1743 198.392C89.9864 198.622 89.856 198.894 89.7939 199.184C89.7318 199.475 89.7398 199.776 89.8173 200.063C91.485 204.922 91.485 216.001 89.8238 220.86Z" fill="#407BFF"/>
<path opacity="0.5" d="M110.922 198.598C110.867 198.504 110.84 198.398 110.842 198.29C110.844 198.182 110.876 198.076 110.934 197.985C110.992 197.894 111.074 197.82 111.171 197.773C111.268 197.725 111.377 197.705 111.484 197.715H117.468C121.733 197.715 121.733 223.221 117.468 223.221H111.458C111.35 223.231 111.242 223.211 111.145 223.163C111.048 223.116 110.966 223.042 110.908 222.951C110.849 222.86 110.818 222.754 110.816 222.646C110.813 222.538 110.841 222.431 110.896 222.338C113.492 218.394 113.492 202.535 110.922 198.598Z" fill="white"/>
<path opacity="0.5" d="M101.583 198.598C101.529 198.504 101.501 198.397 101.504 198.289C101.506 198.181 101.538 198.075 101.596 197.984C101.654 197.892 101.735 197.818 101.832 197.77C101.929 197.721 102.037 197.7 102.145 197.708H108.129C112.393 197.708 112.393 223.214 108.129 223.214H102.145C102.038 223.223 101.93 223.202 101.834 223.154C101.738 223.106 101.657 223.032 101.6 222.941C101.542 222.85 101.511 222.745 101.509 222.638C101.507 222.53 101.535 222.424 101.589 222.331C104.153 218.394 104.153 202.528 101.583 198.598Z" fill="white"/>
<path d="M26 162.582C26.1159 160.766 26.5428 158.983 27.2622 157.311L26.6736 157.023C25.926 158.766 25.4836 160.624 25.3656 162.517L26 162.582Z" fill="#407BFF"/>
<path d="M30.1003 154.479H46.3457V155.133H30.1003V154.479Z" fill="#407BFF"/>
<path d="M135.976 174.367C136.31 175.257 135.492 176.153 134.387 176.153H30.1003C26.5753 176.153 26.5753 156.768 30.1003 156.768H134.387C135.492 156.768 136.31 157.671 135.976 158.56C134.603 162.242 134.603 170.672 135.976 174.367Z" fill="#407BFF"/>
<path opacity="0.2" d="M135.976 174.367C136.31 175.257 135.492 176.153 134.387 176.153H74.2192C70.6876 176.153 70.6876 156.768 74.2192 156.768H134.387C135.492 156.768 136.31 157.671 135.976 158.56C134.603 162.242 134.603 170.672 135.976 174.367Z" fill="black"/>
<path opacity="0.8" d="M135.819 159.037H75.9653C73.2577 159.037 73.2577 173.89 75.9653 173.89H135.819C134.662 170.162 134.662 162.765 135.819 159.037Z" fill="white"/>
<path opacity="0.2" d="M61.9568 161.091C62.2184 160.234 61.4598 159.404 60.4134 159.404H36.1762C33.6059 159.404 33.6059 173.523 36.1762 173.523H60.4134C61.4598 173.523 62.2184 172.693 61.9568 171.83C61.1001 169.116 61.1001 163.812 61.9568 161.091Z" fill="white"/>
<path d="M145.728 15.092C148.677 18.2508 155.878 15.092 156.976 23.7902C158.167 33.1686 153.654 37.6746 159.481 40.1402C168.637 43.9661 175.177 59.2566 162.463 64.9922C149.75 70.7278 122.674 64.7175 125.722 53.0306C128.769 41.3436 128.168 35.0717 124.571 29.565C119.829 22.286 120.843 12.9338 124.708 9.5461C130.725 4.2487 139.037 7.89802 145.728 15.092Z" fill="#263238"/>
<path d="M129.993 52.7166C130.042 52.7185 130.091 52.7013 130.129 52.6685C130.167 52.6357 130.19 52.5897 130.195 52.54C130.2 52.5137 130.199 52.4868 130.193 52.4608C130.187 52.4348 130.175 52.4104 130.16 52.389C130.144 52.3675 130.124 52.3496 130.1 52.3362C130.077 52.3228 130.052 52.3143 130.025 52.3111C127.501 51.9645 125.997 51.3432 125.29 50.3491C124.414 49.1131 124.793 47.2753 125.29 44.9471C126.062 41.1604 127.128 35.9742 123.727 29.4211C119.6 21.475 121.111 12.7638 124.976 9.91232C125.019 9.88089 125.048 9.83374 125.057 9.78111C125.066 9.72847 125.053 9.67457 125.022 9.6311C124.99 9.58757 124.941 9.55845 124.888 9.5499C124.834 9.54136 124.779 9.55406 124.734 9.58532C120.706 12.5349 119.149 21.4816 123.368 29.6108C126.696 36.0331 125.65 41.1408 124.891 44.8686C124.394 47.2884 124.002 49.2046 124.983 50.5846C125.755 51.6768 127.344 52.3504 129.986 52.7166H129.993Z" fill="#263238"/>
<path d="M162.967 41.3894C163.381 41.3876 163.793 41.3614 164.203 41.3109C164.23 41.3077 164.256 41.2992 164.279 41.2859C164.303 41.2726 164.323 41.2547 164.34 41.2334C164.356 41.2121 164.368 41.1878 164.375 41.1618C164.382 41.1358 164.384 41.1087 164.38 41.082C164.377 41.0553 164.368 41.0295 164.355 41.0061C164.342 40.9827 164.324 40.9622 164.302 40.9457C164.281 40.9293 164.257 40.9173 164.231 40.9103C164.205 40.9034 164.178 40.9017 164.151 40.9054C162.294 41.1343 160.946 40.8596 160.037 40.0617C158.337 38.5641 158.311 35.4314 158.291 31.8017C158.291 27.6946 158.232 23.0447 155.571 19.8728C155.553 19.8522 155.532 19.8351 155.509 19.8227C155.485 19.8102 155.459 19.8025 155.432 19.8001C155.405 19.7977 155.378 19.8005 155.353 19.8085C155.327 19.8165 155.303 19.8294 155.283 19.8466C155.262 19.8638 155.245 19.8849 155.233 19.9086C155.22 19.9324 155.213 19.9583 155.21 19.9851C155.208 20.0118 155.211 20.0387 155.219 20.0643C155.227 20.09 155.239 20.1138 155.257 20.1344C157.827 23.1951 157.873 27.7665 157.873 31.8083C157.873 35.5295 157.918 38.7472 159.756 40.3691C160.662 41.097 161.807 41.4608 162.967 41.3894Z" fill="#263238"/>
<path d="M98.7773 156.755C103.139 156.703 104.853 156.428 106.861 156.461C108.869 156.493 109.346 156.847 111.439 156.755C112.851 156.696 112.858 155.015 112.315 153.864C111.89 152.962 111.367 152.053 110.883 150.928L105.35 151.333C104.604 153.439 100.903 154.342 97.659 155.087C96.3706 155.395 97.0311 156.775 98.7773 156.755Z" fill="#407BFF"/>
<path d="M127.625 76.4111C127.625 76.4111 112.989 89.0006 98.1951 102.355C91.9429 108.012 105.056 151.144 105.056 151.144C105.33 152.066 110.209 150.751 110.942 150.025C110.942 150.025 111.687 116.547 108.515 109.804C141.32 101.512 146.447 85.4036 146.447 85.4036L144.093 75.4105L127.625 76.4111Z" fill="#263238"/>
<path opacity="0.2" d="M144.282 89.3734C142.446 91.9399 140.27 94.2455 137.814 96.2273C134.544 92.4014 135.46 86.2211 135.46 86.2211L144.282 89.3734Z" fill="black"/>
<path d="M103.917 149.28C104.009 149.934 104.166 151.091 104.251 151.948C104.264 152.087 104.33 152.215 104.434 152.308C104.538 152.4 104.674 152.449 104.813 152.445C107.002 152.273 109.17 151.897 111.288 151.32C111.39 151.292 111.48 151.232 111.545 151.148C111.61 151.064 111.646 150.962 111.648 150.856L111.693 148.469C111.694 148.391 111.678 148.314 111.647 148.243C111.616 148.172 111.57 148.108 111.513 148.056C111.455 148.004 111.388 147.964 111.314 147.939C111.24 147.915 111.162 147.906 111.085 147.913L104.336 148.73C104.272 148.738 104.21 148.758 104.153 148.789C104.097 148.821 104.048 148.864 104.009 148.916C103.97 148.967 103.942 149.026 103.926 149.088C103.91 149.151 103.907 149.216 103.917 149.28Z" fill="#263238"/>
<path opacity="0.3" d="M103.917 149.28C104.009 149.934 104.166 151.091 104.251 151.948C104.264 152.087 104.33 152.215 104.434 152.308C104.538 152.4 104.674 152.449 104.813 152.445C107.002 152.273 109.17 151.897 111.288 151.32C111.39 151.292 111.48 151.232 111.545 151.148C111.61 151.064 111.646 150.962 111.648 150.856L111.693 148.469C111.694 148.391 111.678 148.314 111.647 148.243C111.616 148.172 111.57 148.108 111.513 148.056C111.455 148.004 111.388 147.964 111.314 147.939C111.24 147.915 111.162 147.906 111.085 147.913L104.336 148.73C104.272 148.738 104.21 148.758 104.153 148.789C104.097 148.821 104.048 148.864 104.009 148.916C103.97 148.967 103.942 149.026 103.926 149.088C103.91 149.151 103.907 149.216 103.917 149.28Z" fill="white"/>
<path d="M162.817 188.036C167.251 188.036 168.703 186.368 171.181 185.91C173.274 185.518 173.83 185.701 175.517 185.407C176.93 185.158 177.041 184.19 176.171 182.758C175.604 181.768 175.123 180.731 174.733 179.658L168.01 180.103C167.31 181.901 165.694 185.557 163.229 185.989C160.907 186.44 161.051 188.036 162.817 188.036Z" fill="#407BFF"/>
<path d="M128.639 76.3718C128.639 76.3718 144.106 103.873 150.332 120.883C156.872 138.75 167.284 167.971 168.036 180.103C169.147 180.632 172.797 180.43 174.759 179.658C174.759 179.658 176.577 137.802 163.987 121.033C160.986 85.1223 156.002 79.3802 150.705 75.0049L128.639 76.3718Z" fill="#263238"/>
<path d="M167.225 177.624C167.305 178.452 167.327 179.285 167.29 180.116C167.281 180.261 167.33 180.403 167.425 180.512C167.521 180.621 167.656 180.688 167.8 180.698C170.305 180.927 173.797 180.122 174.903 179.848C175.005 179.822 175.097 179.763 175.163 179.681C175.229 179.598 175.266 179.496 175.269 179.39L175.354 177.049C175.355 176.972 175.34 176.895 175.31 176.824C175.28 176.753 175.236 176.689 175.18 176.637C175.124 176.584 175.058 176.543 174.985 176.517C174.913 176.491 174.836 176.481 174.759 176.486L167.669 177.094C167.605 177.099 167.543 177.117 167.485 177.146C167.428 177.176 167.377 177.216 167.336 177.266C167.294 177.315 167.263 177.372 167.244 177.434C167.225 177.495 167.218 177.56 167.225 177.624Z" fill="#263238"/>
<path opacity="0.3" d="M167.225 177.624C167.305 178.452 167.327 179.285 167.29 180.116C167.281 180.261 167.33 180.403 167.425 180.512C167.521 180.621 167.656 180.688 167.8 180.698C170.305 180.927 173.797 180.122 174.903 179.848C175.005 179.822 175.097 179.763 175.163 179.681C175.229 179.598 175.266 179.496 175.269 179.39L175.354 177.049C175.355 176.972 175.34 176.895 175.31 176.824C175.28 176.753 175.236 176.689 175.18 176.637C175.124 176.584 175.058 176.543 174.985 176.517C174.913 176.491 174.836 176.481 174.759 176.486L167.669 177.094C167.605 177.099 167.543 177.117 167.485 177.146C167.428 177.176 167.377 177.216 167.336 177.266C167.294 177.315 167.263 177.372 167.244 177.434C167.225 177.495 167.218 177.56 167.225 177.624Z" fill="white"/>
<path d="M124.538 49.3943C123.884 50.6304 123.178 52.0103 122.459 53.3183C121.739 54.6263 121.013 55.9343 120.281 57.2096C118.803 59.7798 117.259 62.2977 115.605 64.6718L116.494 63.8804C115.838 64.3418 115.114 64.6991 114.349 64.9399C113.423 65.2504 112.474 65.4866 111.511 65.6462C110.504 65.8293 109.457 65.9536 108.391 66.0517C107.325 66.1498 106.207 66.2087 105.187 66.2741H105.049C104.624 66.2985 104.221 66.47 103.909 66.7593C103.597 67.0485 103.396 67.4374 103.339 67.8591C103.283 68.2809 103.375 68.7091 103.6 69.0703C103.825 69.4315 104.168 69.703 104.572 69.8384C105.74 70.2272 106.936 70.5288 108.149 70.7409C109.368 70.9577 110.601 71.091 111.838 71.1398C113.15 71.1902 114.465 71.1114 115.762 70.9044C117.226 70.6838 118.641 70.2149 119.947 69.5179C120.219 69.3696 120.461 69.1722 120.66 68.9359L120.837 68.7266C121.877 67.484 122.89 66.2152 123.819 64.9137C124.748 63.6123 125.657 62.2977 126.5 60.9897C127.344 59.6817 128.162 58.2887 128.933 56.9088C129.705 55.5288 130.437 54.162 131.137 52.6512C131.505 51.7928 131.53 50.8264 131.209 49.9497C130.887 49.073 130.243 48.3521 129.408 47.9345C128.573 47.5169 127.61 47.4341 126.716 47.703C125.821 47.9719 125.064 48.5722 124.597 49.3812L124.538 49.3943Z" fill="#FFB573"/>
<path d="M128.148 44.1166C123.878 45.5227 123.184 47.4389 120.843 54.5152C122.4 58.7596 128.691 60.9113 128.691 60.9113C128.691 60.9113 136.121 48.8123 128.148 44.1166Z" fill="#407BFF"/>
<path d="M122.301 53.3249C122.543 55.6662 123.145 58.4588 124.407 63.9458C125.388 68.6023 125.401 77.6798 126.971 78.1572C129.986 79.6484 137.533 79.0728 150.705 75.005C150.286 68.2034 149.495 63.5861 151.758 47.9817C151.9 47.1636 151.858 46.3241 151.635 45.5242C151.412 44.7244 151.014 43.9843 150.469 43.3578C149.924 42.7313 149.246 42.2343 148.485 41.9028C147.723 41.5714 146.898 41.4138 146.068 41.4417C145.113 41.4417 144.106 41.5202 143.079 41.6117C139.457 41.8296 135.855 42.3083 132.301 43.044C131.143 43.3056 129.947 43.613 128.809 43.9269C126.805 44.4993 125.061 45.7486 123.874 47.4622C122.688 49.1757 122.132 51.2475 122.301 53.3249Z" fill="#407BFF"/>
<path d="M168.408 80.3743L167.1 79.1775C166.857 78.955 166.67 78.6773 166.557 78.3678C166.443 78.0582 166.405 77.7258 166.446 77.3986L166.806 74.2791C166.875 73.6659 167.089 73.078 167.43 72.5639C167.771 72.0499 168.23 71.6245 168.768 71.323L169.422 70.9502C171.757 72.7879 172.927 76.4896 172.927 76.4896L173.379 77.5098C173.478 77.7161 173.535 77.94 173.547 78.1686C173.559 78.3971 173.525 78.6258 173.448 78.8412C173.371 79.0566 173.251 79.2545 173.097 79.4234C172.942 79.5923 172.756 79.7288 172.548 79.825L170.54 80.7406C170.187 80.8911 169.799 80.9365 169.42 80.8716C169.042 80.8066 168.691 80.634 168.408 80.3743Z" fill="#FFB573"/>
<path d="M99.7582 64.6652L101.433 64.0112C101.742 63.8941 102.076 63.8532 102.405 63.8919C102.734 63.9306 103.048 64.0478 103.323 64.2336L105.939 65.9863C106.452 66.3317 106.875 66.7953 107.172 67.3381C107.469 67.881 107.631 68.4872 107.646 69.1059V69.8841C104.944 71.1137 101.106 70.4466 101.106 70.4466L99.9937 70.3812C99.7649 70.3736 99.5399 70.3208 99.3317 70.2258C99.1234 70.1308 98.936 69.9954 98.7804 69.8276C98.6247 69.6598 98.5038 69.4628 98.4247 69.248C98.3456 69.0332 98.3098 68.8048 98.3195 68.5761L98.4241 66.3722C98.4543 65.9881 98.597 65.6214 98.8342 65.3178C99.0715 65.0143 99.3928 64.7873 99.7582 64.6652Z" fill="#FFB573"/>
<path d="M147.86 50.0875L148.697 50.4734L149.613 50.892C150.221 51.1863 150.823 51.4936 151.424 51.8076C152.634 52.4616 153.811 53.1156 154.969 53.8023C156.127 54.489 157.245 55.2541 158.331 56.0324C159.416 56.8107 160.423 57.6609 161.404 58.5307L160.973 57.9813C161.292 58.4504 161.572 58.9447 161.81 59.4594C162.098 60.0545 162.366 60.702 162.627 61.3625C163.151 62.6705 163.661 64.0701 164.131 65.4762C164.602 66.8823 165.08 68.308 165.544 69.7337L166.957 74.0305C167.094 74.4525 167.379 74.8105 167.76 75.0378C168.141 75.2652 168.592 75.3465 169.028 75.2665C169.465 75.1866 169.858 74.9509 170.133 74.6033C170.409 74.2556 170.549 73.8197 170.528 73.3765C170.456 71.8003 170.312 70.27 170.135 68.7265C169.959 67.1831 169.736 65.6462 169.481 64.1028C169.226 62.5593 168.893 61.0093 168.468 59.4397C168.258 58.6549 168.029 57.8701 167.742 57.0461C167.438 56.1391 167.048 55.2631 166.577 54.4301C166.495 54.2936 166.401 54.1645 166.296 54.0442L166.139 53.8807C165.062 52.693 163.909 51.5766 162.686 50.5388C161.482 49.5149 160.219 48.5607 158.906 47.6808C157.61 46.8023 156.267 45.9945 154.884 45.261C154.191 44.8948 153.491 44.5482 152.778 44.2081C152.418 44.0446 152.065 43.8745 151.692 43.7176C151.32 43.5606 150.98 43.4233 150.515 43.2467C149.625 42.8906 148.63 42.8989 147.745 43.2696C146.86 43.6403 146.157 44.3439 145.786 45.2285C145.416 46.1132 145.407 47.108 145.764 47.9986C146.12 48.8893 146.812 49.6042 147.69 49.9894L147.86 50.0875Z" fill="#FFB573"/>
<path d="M141.542 43.1421C144.747 40.8466 146.695 40.598 154.452 43.9661C155.374 48.845 152.353 56.0063 152.353 56.0063C152.353 56.0063 142.032 50.6304 141.542 43.1421Z" fill="#407BFF"/>
<path d="M140.705 29.5519C140.228 33.1424 139.92 39.6497 142.484 41.664C142.484 41.664 139.135 41.6052 132.733 46.8437C130.333 44.2277 131.706 43.0963 131.706 43.0963C135.519 41.6509 135.251 38.7668 134.42 36.1312L140.705 29.5519Z" fill="#FFB573"/>
<path d="M134.086 45.7843C136.421 45.7843 137.605 49.1785 137.605 49.1785C137.605 49.1785 143.216 44.7052 143.981 41.5594C143.237 41.259 142.507 40.9207 141.797 40.5457C141.797 40.5457 135.251 44.2801 134.086 45.7843Z" fill="white"/>
<path d="M131.85 45.6992C131.85 45.6992 130.084 46.3532 129.502 48.9692C128.305 43.9857 130.64 43.2009 130.64 43.2009C131.225 42.7623 131.953 42.5571 132.681 42.6254C132.203 42.9587 131.858 43.4493 131.707 44.0113C131.555 44.5734 131.605 45.1709 131.85 45.6992Z" fill="white"/>
<path opacity="0.2" d="M138.141 32.2333L134.427 36.1573C134.629 36.7707 134.776 37.4011 134.865 38.0409C136.33 37.6288 138.266 35.7257 138.331 34.1169C138.384 33.4827 138.32 32.8441 138.141 32.2333Z" fill="black"/>
<path d="M144.734 24.3265C143.426 29.9117 142.948 32.2988 139.593 34.8494C134.551 38.6818 128.004 36.1966 127.651 30.4152C127.337 25.1832 129.574 16.9428 135.499 15.3732C136.755 14.9958 138.089 14.9604 139.362 15.2707C140.636 15.581 141.804 16.2258 142.745 17.1385C143.687 18.0511 144.367 19.1985 144.717 20.4621C145.066 21.7258 145.072 23.0598 144.734 24.3265Z" fill="#FFB573"/>
<path d="M143.642 28.3421C141.588 27.3349 139.41 22.3841 142.334 20.0428C139.92 20.4941 137.154 19.8466 134.597 17.8715C131.261 15.2555 126.35 21.7498 127.965 17.9369C130.293 12.4433 137.311 11.0699 143.661 15.6349C150.011 20.1998 149.56 25.7522 143.642 28.3421Z" fill="#263238"/>
<path d="M145.381 27.2237C145.403 27.2215 145.424 27.2122 145.441 27.1971C145.457 27.1821 145.469 27.1621 145.473 27.1401C145.477 27.1182 145.475 27.0954 145.465 27.0751C145.456 27.0548 145.44 27.0382 145.42 27.0275C143.785 26.3212 136.846 24.8432 136.552 24.7843C136.539 24.7804 136.525 24.7794 136.511 24.7814C136.497 24.7833 136.484 24.7881 136.472 24.7956C136.46 24.803 136.45 24.8128 136.443 24.8244C136.435 24.836 136.43 24.8491 136.428 24.8628C136.424 24.8887 136.429 24.9151 136.444 24.9369C136.459 24.9587 136.481 24.9743 136.506 24.9805C136.578 24.9805 143.7 26.5174 145.342 27.2172L145.381 27.2237Z" fill="white"/>
<path opacity="0.2" d="M136.964 24.902C137.665 24.5938 138.46 24.575 139.175 24.8497C138.448 25.0105 137.698 25.0283 136.964 24.902Z" fill="black"/>
<path opacity="0.2" d="M137.023 25.3991C137.363 25.3273 137.715 25.3304 138.054 25.4084C138.392 25.4863 138.71 25.6371 138.985 25.8503C138.306 25.8395 137.638 25.6857 137.023 25.3991Z" fill="black"/>
<path d="M135.748 24.8235C135.656 25.3009 135.336 25.6541 135.028 25.6149C134.721 25.5756 134.551 25.1636 134.642 24.6862C134.734 24.2088 135.061 23.8621 135.362 23.8948C135.663 23.9275 135.839 24.3526 135.748 24.8235Z" fill="#263238"/>
<path d="M130.006 24.2022C129.914 24.6731 129.587 25.0263 129.286 24.9936C128.985 24.9609 128.809 24.5358 128.9 24.0649C128.992 23.594 129.312 23.2343 129.62 23.2736C129.927 23.3128 130.097 23.7248 130.006 24.2022Z" fill="#263238"/>
<path d="M129.77 23.3193L128.711 22.8484C128.711 22.8484 129.116 23.8098 129.77 23.3193Z" fill="#263238"/>
<path d="M131.078 25.1113C130.512 26.1783 129.813 27.1693 128.998 28.0609C129.221 28.2481 129.483 28.3834 129.765 28.4569C130.046 28.5304 130.341 28.5404 130.627 28.486L131.078 25.1113Z" fill="#ED893E"/>
<path d="M133.138 30.5983C132.875 30.6208 132.61 30.6208 132.347 30.5983C132.329 30.596 132.312 30.59 132.296 30.5807C132.281 30.5714 132.268 30.559 132.257 30.5442C132.247 30.5295 132.239 30.5127 132.236 30.495C132.232 30.4773 132.232 30.4591 132.236 30.4414C132.242 30.4038 132.263 30.3701 132.293 30.347C132.324 30.3239 132.362 30.3133 132.399 30.3171C132.991 30.3888 133.592 30.328 134.157 30.1392C134.723 29.9503 135.239 29.638 135.669 29.2249C135.682 29.2119 135.698 29.2015 135.714 29.1944C135.731 29.1874 135.749 29.1837 135.768 29.1837C135.786 29.1837 135.804 29.1874 135.821 29.1944C135.838 29.2015 135.853 29.2119 135.866 29.2249C135.891 29.2516 135.904 29.2866 135.904 29.323C135.904 29.3595 135.891 29.3945 135.866 29.4211C135.13 30.1322 134.16 30.5508 133.138 30.5983Z" fill="#263238"/>
<path d="M146.061 29.3296C145.746 29.7793 145.341 30.1586 144.871 30.4434C144.402 30.7283 143.878 30.9124 143.334 30.9842C141.974 31.0954 141.679 29.5127 142.373 28.1066C142.994 26.8444 144.452 25.2552 145.643 25.8046C146.833 26.3539 146.944 28.172 146.061 29.3296Z" fill="#FFB573"/>
<path d="M137.585 21.22C137.549 21.22 137.513 21.2118 137.48 21.1959C137.447 21.1801 137.419 21.157 137.396 21.1284C137.186 20.8591 136.912 20.6458 136.599 20.5078C136.287 20.3697 135.945 20.3111 135.604 20.3371C135.568 20.3426 135.532 20.3408 135.498 20.3318C135.463 20.3228 135.431 20.3067 135.402 20.2846C135.374 20.2626 135.351 20.2349 135.334 20.2035C135.317 20.172 135.306 20.1373 135.303 20.1017C135.3 20.0266 135.324 19.9529 135.371 19.8941C135.418 19.8353 135.484 19.7952 135.558 19.7812C135.988 19.7431 136.421 19.8121 136.819 19.9822C137.216 20.1522 137.565 20.4179 137.834 20.7557C137.866 20.8003 137.884 20.8528 137.888 20.9074C137.891 20.962 137.879 21.0165 137.853 21.0647C137.828 21.1129 137.789 21.153 137.742 21.1804C137.694 21.2079 137.64 21.2216 137.585 21.22Z" fill="#263238"/>
<path d="M128.946 20.978C128.911 20.9819 128.876 20.9787 128.842 20.9686C128.808 20.9585 128.777 20.9417 128.75 20.9192C128.724 20.8936 128.703 20.8631 128.689 20.8294C128.675 20.7957 128.668 20.7595 128.668 20.723C128.668 20.6864 128.675 20.6503 128.689 20.6166C128.703 20.5829 128.724 20.5523 128.75 20.5268C129.033 20.1719 129.393 19.8869 129.804 19.6941C130.214 19.5013 130.664 19.4058 131.118 19.415C131.154 19.4179 131.189 19.4285 131.221 19.4461C131.252 19.4636 131.28 19.4878 131.302 19.5169C131.323 19.546 131.338 19.5793 131.346 19.6148C131.354 19.6502 131.354 19.6869 131.346 19.7224C131.335 19.7963 131.297 19.8634 131.239 19.9105C131.181 19.9577 131.107 19.9815 131.033 19.9774C130.673 19.9736 130.317 20.0523 129.993 20.2077C129.669 20.363 129.384 20.5908 129.162 20.8734C129.136 20.9057 129.103 20.9318 129.066 20.9499C129.029 20.968 128.988 20.9776 128.946 20.978Z" fill="#263238"/>
<path d="M133.975 27.7862C135.355 27.7862 136.552 26.3212 136.683 24.4442C136.762 23.5602 136.558 22.6739 136.101 21.9133C135.92 21.5908 135.665 21.3163 135.357 21.1127C135.049 20.909 134.696 20.7821 134.329 20.7426C132.883 20.6445 131.614 22.1422 131.477 24.0845C131.34 26.0269 132.406 27.6815 133.838 27.7796L133.975 27.7862ZM134.191 20.978H134.309C134.645 21.0166 134.968 21.1346 135.25 21.3222C135.532 21.5098 135.765 21.7617 135.931 22.0571C136.365 22.7806 136.558 23.6236 136.48 24.4639C136.356 26.2885 135.172 27.6946 133.864 27.6096C132.556 27.5246 131.569 25.955 131.693 24.1303C131.817 22.3057 132.916 20.978 134.191 20.978Z" fill="white"/>
<path d="M127.861 27.433C129.241 27.433 130.444 25.9746 130.575 24.0976C130.651 23.2138 130.447 22.3284 129.993 21.5666C129.811 21.2441 129.554 20.9696 129.245 20.766C128.936 20.5624 128.582 20.4356 128.214 20.396C126.782 20.2979 125.5 21.7955 125.369 23.7314C125.293 24.6152 125.496 25.5006 125.951 26.2624C126.132 26.5856 126.388 26.8606 126.698 27.0644C127.007 27.2681 127.361 27.3945 127.73 27.433H127.861ZM128.076 20.5987H128.201C128.537 20.6373 128.86 20.7553 129.142 20.9429C129.424 21.1305 129.657 21.3824 129.823 21.6778C130.251 22.4036 130.443 23.2447 130.372 24.0845C130.248 25.8503 129.136 27.2303 127.861 27.2303H127.743C127.406 27.1933 127.083 27.0759 126.801 26.8882C126.518 26.7004 126.285 26.4477 126.121 26.1512C125.69 25.4287 125.498 24.5889 125.572 23.751C125.696 21.9787 126.808 20.5987 128.076 20.5987Z" fill="white"/>
<path d="M130.424 24.3658C130.442 24.3648 130.459 24.3595 130.473 24.3504C130.488 24.3412 130.501 24.3285 130.509 24.3134C130.758 23.921 131.484 24.3461 131.49 24.3461C131.501 24.3532 131.514 24.358 131.527 24.3602C131.54 24.3624 131.553 24.362 131.566 24.3589C131.579 24.3559 131.591 24.3503 131.601 24.3425C131.612 24.3347 131.621 24.3248 131.628 24.3134C131.644 24.2944 131.653 24.27 131.653 24.2448C131.653 24.2195 131.644 24.1951 131.628 24.1761C131.588 24.1761 130.725 23.6398 130.372 24.1761C130.364 24.1869 130.358 24.1993 130.355 24.2125C130.353 24.2257 130.353 24.2393 130.356 24.2525C130.359 24.2656 130.365 24.2779 130.373 24.2884C130.382 24.2989 130.393 24.3075 130.405 24.3134C130.404 24.323 130.406 24.3326 130.409 24.3416C130.413 24.3506 130.418 24.3588 130.424 24.3658Z" fill="white"/>
<path d="M135.493 23.9407L134.44 23.4763C134.44 23.4763 134.839 24.4377 135.493 23.9407Z" fill="#263238"/>
</g>
<defs>
<clipPath id="clip0_206_6540">
<rect width="253" height="231" fill="white" transform="matrix(-1 0 0 1 253 0)"/>
</clipPath>
</defs>
</svg>
