<svg width="32" height="38" viewBox="0 0 32 38" fill="none" xmlns="http://www.w3.org/2000/svg">
<path fill-rule="evenodd" clip-rule="evenodd" d="M26.9154 5.2239C23.9586 2.26067 19.9483 0.595947 15.7667 0.595947C11.5851 0.595947 7.5748 2.26067 4.61795 5.2239C1.66113 8.18716 0 12.2062 0 16.3967C0 22.9384 4.97528 29.7924 14.7156 37.1136C15.0188 37.3414 15.3876 37.4646 15.7667 37.4646C16.1457 37.4646 16.5146 37.3414 16.8178 37.1136C26.5581 29.7924 31.5334 22.9384 31.5334 16.3967C31.5334 12.2062 29.8724 8.18716 26.9154 5.2239ZM15.7667 29.1252C22.878 29.1252 28.6427 23.348 28.6427 16.2212C28.6427 9.09453 22.878 3.31721 15.7667 3.31721C8.65541 3.31721 2.89055 9.09453 2.89055 16.2212C2.89055 23.348 8.65541 29.1252 15.7667 29.1252Z" fill="#1D4FD7"/>
<mask id="mask0_486_1263" style="mask-type:luminance" maskUnits="userSpaceOnUse" x="5" y="10" width="21" height="14">
<path d="M25.9537 10.1919H5.79541V23.5757H25.9537V10.1919Z" fill="white"/>
</mask>
<g mask="url(#mask0_486_1263)">
<path d="M21.3166 16.3611L21.4741 19.1144C21.4974 19.5154 21.2583 19.8871 20.7567 20.2298C20.2551 20.5725 19.5697 20.8442 18.7006 21.0444C17.8315 21.2449 16.8895 21.3452 15.8746 21.3452C14.8597 21.3452 13.9177 21.2449 13.0486 21.0444C12.1795 20.8442 11.4941 20.5725 10.9925 20.2298C10.4909 19.8871 10.2517 19.5154 10.275 19.1144L10.4325 16.3611L15.4546 17.9381C15.5829 17.9788 15.7229 17.9992 15.8746 17.9992C16.0262 17.9992 16.1662 17.9788 16.2946 17.9381L21.3166 16.3611ZM25.9537 13.5379C25.9537 13.6715 25.8895 13.7615 25.7612 13.808L15.9621 16.875C15.9387 16.8808 15.9096 16.8838 15.8746 16.8838C15.8396 16.8838 15.8104 16.8808 15.7871 16.875L10.0826 15.0801C9.83174 15.2776 9.62469 15.6015 9.46136 16.0517C9.29805 16.502 9.19887 17.0204 9.16389 17.607C9.53135 17.8161 9.7151 18.1328 9.7151 18.5568C9.7151 18.9576 9.54594 19.2684 9.20764 19.4891L9.7151 23.2621C9.72676 23.3434 9.70343 23.4159 9.6451 23.4798C9.59259 23.5437 9.52261 23.5757 9.4351 23.5757H7.75525C7.66777 23.5757 7.59777 23.5437 7.54525 23.4798C7.48695 23.4159 7.46361 23.3434 7.47528 23.2621L7.98274 19.4891C7.64443 19.2684 7.47528 18.9576 7.47528 18.5568C7.47528 18.1328 7.66484 17.8103 8.04397 17.5896C8.10813 16.3871 8.39395 15.4287 8.90141 14.7142L5.9879 13.808C5.85956 13.7615 5.79541 13.6715 5.79541 13.5379C5.79541 13.4042 5.85956 13.3142 5.9879 13.2677L15.7871 10.2006C15.8104 10.1948 15.8396 10.1919 15.8746 10.1919C15.9096 10.1919 15.9387 10.1948 15.9621 10.2006L25.7612 13.2677C25.8895 13.3142 25.9537 13.4042 25.9537 13.5379Z" fill="#1D4FD7"/>
</g>
</svg>
