<svg width="5674" height="5270" viewBox="0 0 5674 5270" fill="none" xmlns="http://www.w3.org/2000/svg">
<path d="M4829 4521.5C4828.01 4521.74 4826.99 4521.74 4826 4521.5L4742.13 4489.37C4740.95 4488.93 4739.91 4488.19 4739.1 4487.23C4738.29 4486.26 4737.74 4485.11 4737.5 4483.87C4736.88 4481.5 4684.25 4242 4874.13 3945.5C5009.63 3734 5201.88 3608 5311.63 3658C5332.63 3666.76 5351 3680.82 5364.94 3698.81C5378.87 3716.8 5387.9 3738.1 5391.13 3760.62C5393.53 3786.57 5389.29 3812.7 5378.82 3836.55C5368.35 3860.41 5351.98 3881.21 5331.25 3897C5321.5 3905 5306.25 3915.62 5287.38 3929.25C5169.38 4013 4893 4209.12 4835.63 4515.5C4835.42 4516.58 4834.99 4517.6 4834.37 4518.51C4833.74 4519.41 4832.94 4520.18 4832 4520.75C4831.06 4521.21 4830.04 4521.46 4829 4521.5ZM4751.5 4475.87L4823.25 4503.5C4885.75 4196.12 5160.75 4000.37 5279.38 3916C5298.25 3902.62 5313.13 3892 5322.5 3884.37C5341.03 3870.24 5355.69 3851.66 5365.13 3830.36C5374.57 3809.06 5378.48 3785.72 5376.5 3762.5C5373.68 3742.53 5365.64 3723.66 5353.2 3707.8C5340.75 3691.93 5324.34 3679.62 5305.63 3672.12C5202.25 3624.62 5018.13 3748.25 4886.5 3953.75C4714 4223.37 4745.38 4443.87 4751.5 4475.87Z" fill="#1D4FD7"/>
<path d="M4781.38 4503.25H4780.38C4778.36 4503.03 4776.52 4502.03 4775.23 4500.46C4773.95 4498.9 4773.33 4496.89 4773.5 4494.87C4802 4132.37 5077.5 3811.12 5247.38 3757.37C5248.33 3757.07 5249.33 3756.96 5250.33 3757.06C5251.32 3757.15 5252.28 3757.45 5253.16 3757.93C5254.04 3758.41 5254.81 3759.06 5255.43 3759.85C5256.04 3760.63 5256.49 3761.53 5256.75 3762.5C5257.35 3764.42 5257.17 3766.5 5256.26 3768.3C5255.35 3770.1 5253.78 3771.47 5251.88 3772.12C5083.88 3825 4815.38 4153 4789 4496.25C4788.87 4498.17 4788.01 4499.97 4786.59 4501.28C4785.17 4502.58 4783.3 4503.29 4781.38 4503.25Z" fill="#1D4FD7"/>
<path d="M4745.12 4489.37C4744.06 4489.62 4742.94 4489.62 4741.87 4489.37L4685.25 4464.37C4684.1 4463.9 4683.09 4463.15 4682.31 4462.19C4681.52 4461.23 4680.99 4460.09 4680.75 4458.87C4680.75 4455.37 4610.5 4099 4730.75 3642.25C4792.12 3409.62 4948.12 3193.12 5101.5 3127.5C5175.25 3095.87 5244.5 3098.5 5307.25 3135.12C5342.75 3155.75 5363.62 3182.87 5369.75 3215.75C5385.37 3306.25 5284.37 3427.62 5177.37 3556.12C5102.37 3646 5025.25 3739 4985.75 3824.12C4985.35 3825.03 4984.76 3825.85 4984.04 3826.53C4983.31 3827.2 4982.46 3827.73 4981.52 3828.07C4980.59 3828.41 4979.6 3828.55 4978.6 3828.5C4977.61 3828.44 4976.64 3828.19 4975.75 3827.75C4973.97 3826.81 4972.61 3825.23 4971.96 3823.32C4971.31 3821.42 4971.41 3819.33 4972.25 3817.5C5012.5 3730 5090.62 3636.62 5166.12 3546C5270.62 3420.37 5369.5 3301.75 5355.12 3218.25C5350.25 3190 5332.37 3167.12 5300.5 3148.5C5241.87 3114.37 5177 3112 5107.75 3141.75C4957.75 3205.75 4806 3418 4745.25 3646.5C4632.75 4073.75 4687.25 4411.75 4694.5 4451.87L4747.37 4474.75C4749.22 4475.6 4750.66 4477.12 4751.41 4479.01C4752.15 4480.9 4752.14 4483 4751.37 4484.87C4750.85 4486.13 4749.99 4487.21 4748.88 4488.01C4747.78 4488.8 4746.48 4489.27 4745.12 4489.37Z" fill="#1D4FD7"/>
<path d="M4751.5 4268C4750.5 4267.95 4749.52 4267.71 4748.61 4267.28C4747.7 4266.85 4746.89 4266.25 4746.22 4265.5C4745.54 4264.76 4745.02 4263.89 4744.68 4262.95C4744.35 4262 4744.2 4261 4744.25 4260C4754.13 3696.37 5099 3281.75 5195.75 3214.63C5196.57 3214.07 5197.49 3213.68 5198.45 3213.49C5199.42 3213.29 5200.42 3213.29 5201.39 3213.49C5202.36 3213.69 5203.27 3214.08 5204.09 3214.64C5204.9 3215.2 5205.59 3215.92 5206.13 3216.75C5207.22 3218.46 5207.62 3220.52 5207.25 3222.52C5206.88 3224.52 5205.76 3226.3 5204.13 3227.5C5108.75 3293.63 4768.88 3702.5 4759.13 4260.37C4759.14 4261.38 4758.96 4262.38 4758.58 4263.31C4758.2 4264.25 4757.64 4265.09 4756.93 4265.8C4756.22 4266.52 4755.37 4267.08 4754.44 4267.45C4753.51 4267.83 4752.51 4268.02 4751.5 4268Z" fill="#1D4FD7"/>
<path d="M2814.62 4092.63C2348.37 4361.88 2348.37 4798.37 2814.62 5067.62C3280.87 5336.87 4037 5336.75 4503.38 5067.62C4969.75 4798.5 4969.63 4361.88 4503.38 4092.63C4037.13 3823.37 3281 3823.37 2814.62 4092.63Z" fill="#E0E0E0"/>
<path d="M3167.37 4950.75C3167.37 4950.75 2821.63 4825.75 2709 4643.5C2719.37 4441 2738.87 4077.38 2741.87 4079.88L3393.5 4147.25L3256 4718.62L3167.37 4950.75Z" fill="#37474F"/>
<path d="M3167.37 4870.12V4950.75C3409.5 5050 3860.62 5052 4153.37 4956.38C4352.12 4891.5 4524.87 4781.37 4584 4713.5L4561.75 4147.38H2799.25C2799.25 4233.75 2852.5 4487.75 2913.5 4593.5C2974.5 4699.25 3167.37 4870.12 3167.37 4870.12Z" fill="#455A64"/>
<path d="M2951.5 1974.12C2779.62 1974.12 2676.5 2005.63 2526.5 2006.25C2141.12 2007.88 1928.12 2030.38 1928.12 2030.38C1928.12 2030.38 1428.12 2171.75 1463.5 2294.5C1509.5 2455.63 1817.5 2564.38 2219.87 2622.88C2635.5 2683.25 2892.75 2715.88 2892.75 2715.88L2951.5 1974.12Z" fill="#37474F"/>
<path d="M3052.25 917.25C3065.87 862.25 3080.12 807.5 3093.75 752.5C3100.52 729.664 3104.71 706.143 3106.25 682.375C3107.78 658.435 3101.46 634.649 3088.25 614.625C3078.37 600.875 3058.12 589.625 3045.12 601C3041.38 604.523 3038.4 608.778 3036.38 613.5C2992.88 696.834 2949.42 780.167 2906 863.5C2892.5 890.859 2877.13 917.255 2860 942.5C2842.87 966.75 2821.63 989.5 2811 1017.5C2800.38 1045.5 2759.5 1121.38 2745.75 1147.88C2716.37 1204.75 2667.88 1269.13 2566.63 1338.75C2408.25 1447.5 2161.38 1528.5 1781.38 1726.25C1656.38 1791 1561.63 1934.75 1501.75 2060.75C1398 2278.88 1471.38 2389 1633.13 2387.25C1762.25 2385.75 1939.13 2351.63 2123 2217.5C2426.5 1995.5 2617.88 1740.25 2776.5 1639C2815.75 1610.13 2884.88 1593.38 2909.5 1572.5C2957.75 1531.5 2979.62 1487.75 2991.25 1425.63C3002.87 1363.5 2998.88 1299.5 3001.63 1236.5C3004 1185 3002.63 1136.5 3013.38 1085.75C3025 1029.38 3039 973.25 3052.25 917.25Z" fill="#FFA8A7"/>
<path d="M2894.12 885.501L2905.75 863.376L3036.12 613.376C3038.15 608.653 3041.13 604.399 3044.87 600.876C3057.37 590.001 3078.12 600.876 3088 614.501C3101.21 634.524 3107.53 658.31 3106 682.251C3104.46 706.018 3100.27 729.539 3093.5 752.376C3079.87 807.376 3065.62 862.126 3052 917.126C3038.37 972.126 3024.75 1029.63 3012.87 1085.63C3002.12 1136.5 3003.5 1184.88 3001.12 1236.38C2998.37 1298.88 3002.37 1363.25 2990.75 1425.5C2979.12 1487.75 2957.25 1531.38 2909 1572.38C2889.57 1585.3 2868.57 1595.68 2846.5 1603.25C2795.5 1500.38 2822.37 1330.75 2844.37 1178.25C2862.87 1051 2819.62 995.875 2894.12 885.501Z" fill="#F28F8F"/>
<path d="M2742 2750.88C2745.38 2201.88 2985.13 2046.13 3080.13 2004.38L3467.63 1918.12C3586.88 1928.75 4096.87 2069.62 4237.25 2101.12C4327.62 2121.5 4475.87 2173.75 4527.5 2460.87C4569.5 2694.12 4575.63 2788.25 4548.13 3212.25C4520.89 3585.34 4530.1 3960.2 4575.63 4331.5C3963.13 4533.12 3286.25 4615.25 2820.75 4274C2829.88 4196.75 2769.25 3555.87 2761.25 3366.62C2753.25 3177.37 2741 2900 2742 2750.88Z" fill="#FAFAFA"/>
<path d="M3300.5 1987.5C3249.75 2014.25 3019.12 2237.5 2989.25 2607.25C2934.5 3288.25 2935.63 3890.75 2935.63 4480C2854.5 4440.5 2721.75 4346.63 2682.5 4240.38C2695 4008.25 2695 3530.5 2698.75 3367.25C2704.63 3134.75 2711.25 2757.62 2725.38 2608.12C2743.75 2409.25 2787 2113.62 2950.38 1974.75C3126.25 1957 3293 1943.25 3293 1943.25L3300.5 1987.5Z" fill="#1D4FD7"/>
<path d="M3798.5 1753.25C3820.75 1620.25 3952.63 1481.25 4012 1365.75C4069.13 1253.25 4103.13 1167 4096.25 1062C4092.25 999.5 4052.88 915.5 4006.63 898C4059.5 666.5 3885.63 559.625 3793.38 537.875C3750.09 529.044 3707.46 517.309 3665.75 502.75C3615.75 481.875 3604.13 441.625 3563.63 407.375C3494 348.5 3376.13 347.5 3332.38 437C3286 377.25 3223.13 378.875 3150.63 397.5C3081.5 415.375 3048.88 474 3056.13 537.75C2959 483.75 2870.13 552.5 2861.38 609.5C2854.88 651.625 2863.88 687.125 2836.38 724.875C2805.5 767.375 2746.88 766.875 2729 732.625C2719.13 792.375 2742.5 837.875 2807.38 834.375C2796.4 851.014 2789.23 869.863 2786.35 889.586C2783.48 909.309 2784.98 929.422 2790.75 948.5C2798.6 972.46 2813.58 993.451 2833.68 1008.66C2853.79 1023.88 2878.06 1032.59 2903.25 1033.63C2910.13 1066.5 2911.63 1096.13 2932.38 1124.75C2951.93 1153.45 2978.13 1177 3008.75 1193.38C3107 1239.88 3215.63 1254.75 3321.25 1276.38L3446.25 1302.13C3453.63 1303.5 3491.5 1305.75 3496.25 1312.25L3798.5 1753.25Z" fill="#263238"/>
<path d="M3959.12 1580.88C3865.87 1637 3822.88 1576.25 3822.88 1576.25L3833.5 2061.75C3833.5 2061.75 3633.5 2320 3275.38 2337.88C3249.63 2259.5 3250.38 2121.63 3269.75 2078.63L3265.5 1883.63C3212.71 1884.71 3159.89 1882.5 3107.38 1877C3003.13 1863 2914.88 1780.75 2884.75 1668C2853.38 1550.13 2844.38 1357.25 2869.63 1215.75C2876.53 1179.68 2878.34 1142.82 2875 1106.25C2864.63 1009.38 2882 952.876 2906.75 871.376C3021.25 778.751 3345.75 758.876 3593.5 908.876C3540.75 1035.13 3574.38 1163.38 3681.63 1219.13C3676.75 1258.88 3672 1359.38 3737.38 1356.63C3784.5 1355.25 3787.38 1296.13 3835.63 1244.13C3883.88 1192.13 3996.5 1177.75 4040.37 1254.25C4101.5 1361.38 4061.37 1519.5 3959.12 1580.88Z" fill="#FFA8A7"/>
<path d="M3265.5 1883.63C3430.87 1863.63 3556.38 1845.37 3642.25 1725.37C3696 1650.37 3741.38 1529.12 3741.38 1529.12C3741.38 1529.12 3724.88 1675 3671.13 1775C3629.75 1851.62 3527.62 1915.62 3268.5 1938.62L3265.5 1883.63Z" fill="#F28F8F"/>
<path d="M3328.5 1229.25C3329.07 1239.3 3332.58 1248.95 3338.6 1257.02C3344.62 1265.08 3352.88 1271.2 3362.35 1274.6C3371.82 1278 3382.08 1278.53 3391.86 1276.14C3401.63 1273.75 3410.49 1268.53 3417.31 1261.14C3424.14 1253.75 3428.64 1244.51 3430.26 1234.57C3431.87 1224.64 3430.52 1214.45 3426.38 1205.28C3422.24 1196.11 3415.5 1188.36 3406.98 1183C3398.47 1177.63 3388.56 1174.9 3378.5 1175.12C3371.65 1175.37 3364.92 1176.96 3358.7 1179.82C3352.47 1182.67 3346.87 1186.73 3342.22 1191.77C3337.57 1196.8 3333.97 1202.7 3331.61 1209.14C3329.26 1215.57 3328.2 1222.41 3328.5 1229.25Z" fill="#263238"/>
<path d="M3455.75 1095.25L3356.38 1019.38C3346.48 1033.1 3342.25 1050.12 3344.58 1066.88C3346.91 1083.65 3355.61 1098.87 3368.88 1109.37C3375.45 1114.32 3382.95 1117.88 3390.93 1119.84C3398.91 1121.81 3407.21 1122.15 3415.32 1120.83C3423.44 1119.51 3431.2 1116.56 3438.15 1112.17C3445.1 1107.77 3451.08 1102.02 3455.75 1095.25Z" fill="#263238"/>
<path d="M3050.38 1006L2953.13 1086.12C2958.03 1092.77 2964.23 1098.34 2971.37 1102.49C2978.5 1106.65 2986.41 1109.3 2994.61 1110.28C3002.8 1111.27 3011.11 1110.56 3019.03 1108.21C3026.94 1105.86 3034.29 1101.92 3040.63 1096.62C3053.54 1085.64 3061.75 1070.11 3063.56 1053.26C3065.38 1036.4 3060.66 1019.48 3050.38 1006Z" fill="#263238"/>
<path d="M2951.5 1218.25C2952.09 1228.29 2955.62 1237.93 2961.66 1245.98C2967.69 1254.03 2975.96 1260.12 2985.43 1263.5C2994.9 1266.88 3005.16 1267.4 3014.92 1265C3024.69 1262.59 3033.53 1257.36 3040.35 1249.97C3047.16 1242.57 3051.65 1233.34 3053.26 1223.41C3054.86 1213.48 3053.51 1203.3 3049.36 1194.13C3045.22 1184.97 3038.48 1177.22 3029.97 1171.87C3021.45 1166.51 3011.55 1163.77 3001.5 1164C2994.65 1164.26 2987.91 1165.87 2981.69 1168.74C2975.46 1171.61 2969.86 1175.68 2965.21 1180.72C2960.57 1185.76 2956.96 1191.68 2954.61 1198.12C2952.25 1204.56 2951.2 1211.4 2951.5 1218.25Z" fill="#263238"/>
<path d="M3039 1382L3201.5 1453.38L3250.63 1135.88C3189 1114.5 3112.25 1260.63 3039 1382Z" fill="#F28F8F"/>
<path d="M3197.5 1627.5C3224 1645 3240.12 1618.5 3286.5 1599.25C3332.87 1580 3376.63 1602.87 3370.38 1564.37C3363.88 1523.62 3292.25 1500.12 3246 1519.37C3199.75 1538.62 3167.37 1607.5 3197.5 1627.5Z" fill="#B16668"/>
<path d="M3282.88 1595.38C3278.58 1597.29 3274.41 1599.46 3270.38 1601.87C3268.97 1587.14 3273.29 1572.43 3282.44 1560.8C3291.58 1549.16 3304.85 1541.49 3319.5 1539.37C3326.41 1537.86 3333.56 1537.92 3340.44 1539.55C3347.32 1541.17 3353.75 1544.31 3359.25 1548.75C3361.89 1552.58 3363.92 1556.79 3365.25 1561.25C3374.88 1598.75 3329.25 1576.13 3282.88 1595.38Z" fill="#F28F8F"/>
<path d="M4482.5 2148.25L4211.38 1974.12L3831.13 1952.5C3831.13 1952.5 3731.13 2178.88 3724.75 2953.88C3717.88 3796.88 3740.5 4691.38 3740.5 4691.38C3740.5 4691.38 4384 4690 4625.5 4328.88C4625.5 4328.88 4598.38 4072 4584.38 3647.38C4576.13 3396.5 4564.88 3228.37 4592 3013.62C4642.63 2614.5 4601.5 2360.63 4482.5 2148.25Z" fill="#1D4FD7"/>
<path d="M3755.62 2345.25L3757.88 1981C3757.88 1981 3819.25 1910.25 3829.25 1869.38L3827.87 1805C3827.87 1805 3860.75 1804.38 3865.37 1850C3870 1895.63 3873.13 1970.13 3873.13 1970.13L3755.62 2345.25Z" fill="#37474F"/>
<path d="M3065 2300L3108 1995.25C3108 1995.25 3183 1914.13 3229.25 1883.88H3265.5L3268.38 2013C3185.51 2097.04 3116.83 2193.96 3065 2300Z" fill="#37474F"/>
<path d="M3110.25 992C3107.01 985.932 3102.78 980.442 3097.75 975.75C3093 971.094 3087.34 967.461 3081.12 965.074C3074.91 962.688 3068.27 961.599 3061.63 961.875C3055.63 961.875 3059.25 971.125 3063.63 971.75C3068 972.375 3069.63 973.125 3072.5 973.875L3074.38 974.625L3076 975.375H3076.75C3078.88 976.5 3080.88 977.75 3083 979.125L3084.63 980.375L3087.38 983L3088.25 983.875L3089.13 984.875C3089.94 985.777 3090.7 986.738 3091.38 987.75L3093.38 990.625L3094 991.75L3094.75 993.25L3096.25 996.625L3097 998.5C3097 998.5 3097.63 1000.37 3097 999.625V1000.75C3096.94 1001.37 3096.94 1002 3097 1002.62C3097.5 1005.52 3098.25 1008.36 3099.25 1011.12C3100.07 1012.8 3101.32 1014.22 3102.88 1015.25C3104.25 1016.75 3106.88 1018.62 3108.63 1017C3118.75 1011.37 3114 1000 3110.25 992Z" fill="#F28F8F"/>
<path d="M3346.5 978C3339.87 980.666 3334.02 984.966 3329.5 990.5C3325.26 995.025 3321.49 999.966 3318.25 1005.25C3314.91 1010.52 3312.14 1016.14 3310 1022C3308.76 1025.1 3307.88 1028.33 3307.38 1031.62C3307.25 1033.16 3307.25 1034.71 3307.38 1036.25C3307.31 1037.29 3307.31 1038.33 3307.38 1039.37C3307.77 1041.3 3308.35 1043.19 3309.13 1045C3309.88 1047.87 3315.13 1052.5 3317.5 1048.5C3318.81 1046.59 3319.98 1044.58 3321 1042.5C3321 1040.75 3322.38 1039.12 3323 1037.37C3323.63 1035.62 3324.88 1031.75 3326 1029C3327.92 1023.71 3330.3 1018.61 3333.13 1013.75C3335.95 1009.33 3339.13 1005.15 3342.63 1001.25C3347.37 997.041 3351.57 992.253 3355.13 987C3357.38 981.5 3350.75 976.75 3346.5 978Z" fill="#F28F8F"/>
<path d="M4211.37 1974.12C4534.62 1970.25 4646.5 2008.37 4890.62 2075.12C5006.37 2106.75 5351.37 2189.25 5351.37 2189.25L5667.5 2539.88L5588 2725C5477.62 2785.88 5178 2746.88 4850.5 2783.38C4719.75 2798 4639.87 2847.87 4599.87 2940.87C4586.12 2973 4366.25 2999.87 4262.37 2740.87C4168.37 2506.25 4149 2211.62 4211.37 1974.12Z" fill="#37474F"/>
<path d="M4352.87 1417.63C4340.37 1350.75 4350.75 1256.63 4342.5 1192.63C4334.25 1128.63 4298.5 1028.88 4292.5 948C4286.5 867.125 4275.12 859 4244.25 865.75C4219.25 871.25 4185.62 926 4197.87 1011.88C4206.37 1075 4258.12 1373.5 4352.87 1417.63Z" fill="#F28F8F"/>
<path d="M4170.25 918C4191.63 962.625 4229.38 1005.5 4248.5 1051.25C4268.63 1098.88 4266.75 1121.75 4284 1215C4297.5 1287.63 4296.5 1352.5 4382.88 1440C4536.38 1595.75 5085.38 1813 5415.13 2080.75C5541 2182.75 5610.63 2276.13 5654.38 2430.75C5712 2634.75 5631.25 2747.63 5507.75 2739.88C5359 2730.5 5098.38 2654.88 4910.63 2471.5C4600.13 2168.25 4305.88 1867.63 4141.88 1725.88C4101.88 1686.5 4047.87 1640 4023.25 1612.13C3977.12 1560 3958.62 1482.88 3951.75 1413.63C3940.25 1299 3894.25 1211.63 3898.13 1159.5C3889.63 1110.38 3860.63 1034.5 3835 955.875C3820.13 911.25 3803.88 872.625 3822.5 849.875C3826.93 845.425 3831.99 841.637 3837.5 838.625C3837.5 838.625 3835.88 832.75 3835.5 830.25C3831.37 813.878 3828.94 797.122 3828.25 780.25C3826.77 763.878 3831.5 747.547 3841.5 734.5C3845.47 730.29 3850.28 726.967 3855.62 724.75C3855.62 724.75 3854 720.25 3852.12 714.25C3846.81 698.153 3845.02 681.101 3846.88 664.25C3847.75 655.737 3850.37 647.494 3854.56 640.033C3858.75 632.572 3864.43 626.051 3871.25 620.875C3878.23 615.941 3886.57 613.292 3895.12 613.292C3903.68 613.292 3912.02 615.941 3919 620.875C3923.81 625.072 3928.01 629.909 3931.5 635.25L3960 674.25C3980 658.875 3993 668.875 4010.75 684.125C4032.5 702.875 4050.88 725.125 4070.75 745.625C4089.05 762.524 4103.5 783.157 4113.13 806.125C4132 842.875 4152.13 880.25 4170.25 918Z" fill="#FFA8A7"/>
<path d="M4023.25 1612.5C3966.5 1554.63 3951.5 1469 3943.25 1392C3935 1315 3897 1239.38 3898.13 1159.88C3899.09 1179.58 3902.79 1199.06 3909.12 1217.75C3926.75 1274.5 3946.62 1330.25 3954.62 1390.38C3962.25 1468.13 3974.25 1548.75 4023.25 1612.5Z" fill="#B16668"/>
<path d="M3960.62 673C3984.25 702.75 4038.38 767.75 4060.62 798C4092 841.125 4103.25 896.375 4122.12 945.75L4138.38 995.75C4140.26 1004.18 4143.42 1012.27 4147.75 1019.75C4153.79 1026 4160.5 1031.58 4167.75 1036.38C4159.63 1032.54 4152.1 1027.57 4145.37 1021.63C4134.25 1007.25 4121.5 965.125 4113.75 948.25C4097.63 907.25 4083 865.5 4065.75 825.125C4034.13 775.125 3991.5 725.125 3961.12 673.125L3960.62 673Z" fill="#B16668"/>
<path d="M3856 725C3864.23 721.114 3873.56 720.23 3882.37 722.5C3891.62 725.25 3897.25 735 3901.87 741.125C3911.87 755.25 3922.62 769.25 3933.12 783.25C3955.61 810.779 3973.97 841.433 3987.63 874.25C4010.25 931.375 4035 988.375 4048.5 1048.5C4050.79 1057.05 4051.55 1065.94 4050.75 1074.75C4048.59 1057.49 4043.92 1040.65 4036.87 1024.75C4003.12 944.25 3977.75 860 3925.88 788.625C3916.25 774 3906.38 759.5 3897 744.5C3892.63 736.375 3889.12 729 3881.25 725.625C3873.12 723.047 3864.38 723.047 3856.25 725.625L3856 725Z" fill="#B16668"/>
<path d="M3837.88 838.751C3866.25 829.376 3880.13 867.751 3892.25 886.501C3925.13 942.126 3943 1004.75 3962.37 1066C3965.74 1078.69 3966.21 1091.98 3963.75 1104.88C3965 1078.63 3951.25 1056.38 3942.37 1032.25C3933.5 1008.13 3924 984.376 3914.88 960.376C3905.75 936.376 3894.5 913.751 3884.25 890.501C3873.62 871.626 3865.25 834.501 3837.88 838.751Z" fill="#B16668"/>
<path d="M2394.63 4011.37C2320.75 3903.37 2094.62 3869.62 1970.75 3957C1840.04 3883.83 1692.54 3845.96 1542.75 3847.12C1137.63 3847.12 809.25 4108.62 809.25 4431.25C809.25 4753.87 1137.63 5015.37 1542.75 5015.37C1947.88 5015.37 2276.5 4753.87 2276.5 4431.25C2275.16 4314.32 2232.92 4201.55 2157.13 4112.5C2181.63 4025 2282.63 3987.5 2394.63 4011.37Z" fill="#F5F5F5"/>
<path d="M1432.63 4252.62C1430.87 4252.77 1429.11 4252.55 1427.45 4251.96C1425.79 4251.38 1424.28 4250.46 1423 4249.25C1421.33 4247.63 1419.74 4245.91 1418.25 4244.12L1315 4090.75V4242.62C1315 4243.92 1314.75 4245.21 1314.26 4246.41C1313.77 4247.61 1313.04 4248.7 1312.13 4249.62C1311.22 4250.57 1310.14 4251.33 1308.93 4251.85C1307.73 4252.36 1306.43 4252.63 1305.13 4252.62H1275.25C1272.62 4252.56 1270.11 4251.49 1268.25 4249.63C1266.39 4247.76 1265.31 4245.26 1265.25 4242.62V4005.12C1265.22 4003.81 1265.48 4002.51 1266 4001.3C1266.51 4000.09 1267.28 3999.01 1268.25 3998.12C1269.15 3997.17 1270.23 3996.41 1271.44 3995.89C1272.64 3995.38 1273.94 3995.11 1275.25 3995.12H1301.5C1303.25 3994.98 1305.01 3995.2 1306.67 3995.79C1308.33 3996.37 1309.85 3997.29 1311.13 3998.5C1312.83 4000.1 1314.41 4001.81 1315.88 4003.62L1419.13 4156.87V4004.62C1419.13 4001.99 1420.16 3999.47 1422.01 3997.6C1423.86 3995.73 1426.37 3994.66 1429 3994.62H1458.88C1460.19 3994.61 1461.48 3994.88 1462.69 3995.39C1463.89 3995.91 1464.98 3996.67 1465.88 3997.62C1466.84 3998.51 1467.61 3999.59 1468.13 4000.8C1468.65 4002.01 1468.9 4003.31 1468.88 4004.62V4242.12C1468.81 4244.76 1467.74 4247.26 1465.88 4249.13C1464.01 4250.99 1461.51 4252.06 1458.88 4252.12L1432.63 4252.62Z" fill="white"/>
<path d="M1597.62 4057.25C1610.15 4057.09 1622.6 4059.21 1634.38 4063.5C1644.84 4067.46 1654.46 4073.36 1662.75 4080.87C1670.68 4088.18 1677.17 4096.92 1681.87 4106.62C1686.75 4116.54 1689.6 4127.34 1690.25 4138.37C1690.25 4140.5 1690.25 4143.37 1690.25 4146.87V4167.25C1690.25 4170.62 1690.25 4173.37 1690.25 4175.62C1689.32 4186.59 1686.44 4197.3 1681.75 4207.25C1677.16 4216.95 1670.7 4225.66 1662.75 4232.87C1654.45 4240.31 1644.82 4246.12 1634.38 4250C1610.63 4258.34 1584.75 4258.34 1561 4250C1550.55 4246.12 1540.92 4240.31 1532.63 4232.87C1524.68 4225.66 1518.22 4216.95 1513.62 4207.25C1508.92 4197.31 1506.08 4186.59 1505.25 4175.62C1505.25 4173.37 1505.25 4170.62 1504.62 4167.25C1504 4163.87 1504.62 4160.62 1504.62 4157.12C1504.62 4153.62 1504.62 4150.25 1504.62 4146.87C1504.62 4143.5 1504.62 4140.5 1505.25 4138.37C1505.86 4127.35 1508.66 4116.55 1513.5 4106.62C1518.2 4096.92 1524.69 4088.18 1532.63 4080.87C1540.91 4073.36 1550.54 4067.46 1561 4063.5C1572.73 4059.22 1585.14 4057.1 1597.62 4057.25ZM1642.25 4140.25C1641.78 4133.63 1639.99 4127.17 1637 4121.25C1634.52 4116.29 1630.87 4112 1626.38 4108.75C1622.31 4105.79 1617.67 4103.7 1612.75 4102.62C1602.83 4100.46 1592.55 4100.46 1582.63 4102.62C1577.71 4103.7 1573.07 4105.79 1569 4108.75C1564.5 4111.97 1560.89 4116.27 1558.5 4121.25C1555.39 4127.14 1553.56 4133.61 1553.13 4140.25C1553.13 4142.12 1553.13 4144.62 1553.13 4147.5C1553.13 4150.37 1553.13 4153.62 1553.13 4156.75C1553.13 4159.87 1553.13 4163.12 1553.13 4166.12C1553 4168.54 1553 4170.96 1553.13 4173.37C1553.58 4180.01 1555.41 4186.48 1558.5 4192.37C1561 4197.12 1564.6 4201.19 1569 4204.25C1573.07 4207.21 1577.71 4209.3 1582.63 4210.37C1592.55 4212.54 1602.83 4212.54 1612.75 4210.37C1617.67 4209.3 1622.31 4207.21 1626.38 4204.25C1630.78 4201.16 1634.41 4197.09 1637 4192.37C1639.99 4186.45 1641.78 4179.99 1642.25 4173.37C1642.41 4170.96 1642.41 4168.54 1642.25 4166.12V4147.5C1642.4 4145.09 1642.4 4142.66 1642.25 4140.25Z" fill="white"/>
<path d="M1721.5 4211C1722.06 4207.33 1723.67 4203.91 1726.13 4201.13C1727.54 4199.58 1729.29 4198.37 1731.24 4197.59C1733.19 4196.82 1735.28 4196.48 1737.37 4196.63H1769.37C1770.45 4196.6 1771.51 4196.8 1772.5 4197.21C1773.49 4197.62 1774.38 4198.23 1775.12 4199C1775.89 4199.72 1776.49 4200.6 1776.9 4201.56C1777.31 4202.53 1777.51 4203.57 1777.5 4204.62C1777.64 4205.49 1777.64 4206.38 1777.5 4207.25L1753.25 4268.38C1752.06 4271.23 1750.36 4273.86 1748.25 4276.13C1746.85 4277.57 1745.15 4278.69 1743.27 4279.41C1741.39 4280.12 1739.38 4280.41 1737.37 4280.25H1720.75C1719.7 4280.26 1718.66 4280.05 1717.69 4279.64C1716.73 4279.23 1715.85 4278.63 1715.12 4277.88C1714.34 4277.14 1713.71 4276.25 1713.28 4275.26C1712.85 4274.27 1712.63 4273.2 1712.62 4272.12V4271.37L1721.5 4211Z" fill="white"/>
<path d="M1242.75 4542.62C1242.78 4543.93 1242.55 4545.22 1242.05 4546.43C1241.56 4547.63 1240.81 4548.72 1239.88 4549.62C1238.97 4550.57 1237.89 4551.33 1236.68 4551.85C1235.48 4552.36 1234.18 4552.63 1232.88 4552.62H1204.88C1203.56 4552.65 1202.26 4552.4 1201.05 4551.88C1199.85 4551.36 1198.76 4550.59 1197.88 4549.62C1196.92 4548.73 1196.16 4547.64 1195.64 4546.44C1195.13 4545.23 1194.87 4543.94 1194.88 4542.62V4449C1195.53 4436.39 1191.92 4423.93 1184.63 4413.62C1180.77 4409.04 1175.88 4405.45 1170.36 4403.14C1164.84 4400.84 1158.84 4399.89 1152.88 4400.37C1147.07 4400.05 1141.28 4401.08 1135.94 4403.38C1130.6 4405.68 1125.87 4409.18 1122.13 4413.62C1114.22 4423.67 1110.23 4436.24 1110.88 4449V4542.62C1110.88 4543.94 1110.62 4545.23 1110.11 4546.44C1109.59 4547.64 1108.83 4548.73 1107.88 4549.62C1106.99 4550.59 1105.91 4551.36 1104.7 4551.88C1103.49 4552.4 1102.19 4552.65 1100.88 4552.62H1072.88C1071.57 4552.63 1070.27 4552.36 1069.07 4551.85C1067.86 4551.33 1066.78 4550.57 1065.88 4549.62C1064.96 4548.7 1064.23 4547.61 1063.74 4546.41C1063.25 4545.21 1063 4543.92 1063 4542.62V4370.87C1063 4369.58 1063.26 4368.29 1063.75 4367.1C1064.25 4365.9 1064.98 4364.81 1065.89 4363.89C1066.81 4362.98 1067.9 4362.25 1069.1 4361.75C1070.29 4361.26 1071.58 4361 1072.88 4361H1101.5C1104.13 4361 1106.66 4362.04 1108.53 4363.88C1110.4 4365.73 1111.47 4368.24 1111.5 4370.87V4379.37C1118.07 4372.88 1125.68 4367.52 1134 4363.5C1143.61 4359.14 1154.08 4357 1164.63 4357.25C1177.48 4356.86 1190.27 4359.25 1202.13 4364.25C1211.64 4368.5 1220 4374.98 1226.5 4383.12C1232.59 4391.24 1236.86 4400.58 1239 4410.5C1241.64 4421.3 1242.94 4432.38 1242.88 4443.5L1242.75 4542.62Z" fill="white"/>
<path d="M1367 4357.25C1379.49 4357.09 1391.9 4359.21 1403.63 4363.5C1424.43 4371.25 1441.48 4386.68 1451.25 4406.62C1456.03 4416.57 1458.83 4427.36 1459.5 4438.37C1459.66 4441.21 1459.66 4444.04 1459.5 4446.87V4467.25C1459.65 4470.04 1459.65 4472.83 1459.5 4475.62C1458.57 4486.59 1455.69 4497.3 1451 4507.25C1446.45 4516.98 1439.99 4525.69 1432 4532.87C1423.72 4540.34 1414.09 4546.15 1403.63 4550C1379.92 4558.34 1354.08 4558.34 1330.38 4550C1319.9 4546.18 1310.26 4540.37 1302 4532.87C1294.01 4525.69 1287.55 4516.98 1283 4507.25C1278.25 4497.32 1275.37 4486.6 1274.5 4475.62C1274.5 4473.37 1274.5 4470.62 1274.5 4467.25C1274.5 4463.87 1274.5 4460.62 1274.5 4457.12C1274.5 4453.62 1274.5 4450.25 1274.5 4446.87C1274.5 4443.5 1274.5 4440.5 1274.5 4438.37C1275.17 4427.36 1277.97 4416.57 1282.75 4406.62C1287.54 4396.94 1294.06 4388.21 1302 4380.87C1310.25 4373.3 1319.88 4367.4 1330.38 4363.5C1342.1 4359.21 1354.51 4357.09 1367 4357.25ZM1411.63 4440.25C1411.19 4433.61 1409.36 4427.14 1406.25 4421.25C1403.77 4416.32 1400.18 4412.04 1395.75 4408.75C1391.65 4405.83 1387.03 4403.75 1382.13 4402.62C1377.16 4401.52 1372.09 4400.98 1367 4401C1361.91 4400.97 1356.84 4401.52 1351.88 4402.62C1346.97 4403.73 1342.34 4405.82 1338.25 4408.75C1333.79 4412.01 1330.19 4416.3 1327.75 4421.25C1324.64 4427.14 1322.81 4433.61 1322.38 4440.25C1322.38 4442.12 1322.38 4444.62 1322.38 4447.5C1322.38 4450.37 1322.38 4453.62 1322.38 4456.75C1322.38 4459.87 1322.38 4463.12 1322.38 4466.12C1322.38 4469.12 1322.38 4471.62 1322.38 4473.37C1322.83 4480.01 1324.66 4486.48 1327.75 4492.37C1330.29 4497.09 1333.88 4501.15 1338.25 4504.25C1342.34 4507.18 1346.97 4509.27 1351.88 4510.37C1356.84 4511.48 1361.91 4512.03 1367 4512C1372.09 4512.02 1377.16 4511.48 1382.13 4510.37C1387.03 4509.25 1391.65 4507.17 1395.75 4504.25C1400.09 4501.12 1403.67 4497.06 1406.25 4492.37C1409.34 4486.48 1411.17 4480.01 1411.63 4473.37C1411.79 4470.96 1411.79 4468.54 1411.63 4466.12V4447.5C1411.78 4445.09 1411.78 4442.66 1411.63 4440.25Z" fill="white"/>
<path d="M1490.87 4511C1491.39 4507.34 1492.95 4503.91 1495.37 4501.12C1496.8 4499.59 1498.55 4498.39 1500.49 4497.61C1502.44 4496.83 1504.53 4496.49 1506.62 4496.63H1539C1540.07 4496.61 1541.13 4496.81 1542.12 4497.22C1543.11 4497.63 1544 4498.23 1544.75 4499C1546.24 4500.49 1547.09 4502.51 1547.12 4504.62C1547.26 4505.49 1547.26 4506.38 1547.12 4507.25L1522.75 4568.37C1521.56 4571.23 1519.86 4573.86 1517.75 4576.12C1516.37 4577.59 1514.67 4578.73 1512.79 4579.44C1510.9 4580.16 1508.88 4580.43 1506.87 4580.25H1490.37C1488.22 4580.24 1486.16 4579.39 1484.62 4577.88C1483.85 4577.13 1483.24 4576.24 1482.83 4575.25C1482.43 4574.26 1482.23 4573.2 1482.25 4572.12V4571.37L1490.87 4511Z" fill="white"/>
<path d="M1836.13 4542.62C1836.14 4543.94 1835.87 4545.23 1835.36 4546.44C1834.84 4547.64 1834.08 4548.73 1833.13 4549.62C1832.24 4550.59 1831.16 4551.36 1829.95 4551.88C1828.74 4552.4 1827.44 4552.65 1826.13 4552.62H1798.13C1796.82 4552.63 1795.52 4552.36 1794.32 4551.85C1793.11 4551.33 1792.03 4550.57 1791.13 4549.62C1790.19 4548.72 1789.45 4547.63 1788.95 4546.43C1788.46 4545.22 1788.22 4543.93 1788.25 4542.62V4449C1788.87 4436.38 1785.22 4423.91 1777.88 4413.62C1774.02 4409.04 1769.13 4405.45 1763.61 4403.14C1758.09 4400.84 1752.09 4399.89 1746.13 4400.37C1740.32 4400.05 1734.53 4401.08 1729.19 4403.38C1723.85 4405.68 1719.12 4409.18 1715.38 4413.62C1707.47 4423.67 1703.48 4436.24 1704.13 4449V4542.62C1704.16 4543.93 1703.92 4545.22 1703.43 4546.43C1702.93 4547.63 1702.19 4548.72 1701.25 4549.62C1700.35 4550.57 1699.26 4551.33 1698.06 4551.85C1696.86 4552.36 1695.56 4552.63 1694.25 4552.62H1666.25C1664.94 4552.65 1663.63 4552.4 1662.43 4551.88C1661.22 4551.36 1660.14 4550.59 1659.25 4549.62C1658.29 4548.73 1657.53 4547.64 1657.02 4546.44C1656.5 4545.23 1656.24 4543.94 1656.25 4542.62V4370.88C1656.28 4368.24 1657.35 4365.73 1659.22 4363.88C1661.09 4362.04 1663.62 4361 1666.25 4361H1694.25C1696.87 4361 1699.38 4362.04 1701.25 4363.87C1702.18 4364.78 1702.92 4365.87 1703.41 4367.08C1703.91 4368.28 1704.15 4369.57 1704.13 4370.88V4379.38C1710.72 4372.91 1718.32 4367.55 1726.63 4363.5C1736.24 4359.15 1746.7 4357.02 1757.25 4357.25C1770.11 4356.88 1782.89 4359.27 1794.75 4364.25C1804.21 4368.54 1812.52 4375.01 1819 4383.12C1825.26 4391.22 1829.73 4400.55 1832.13 4410.5C1834.76 4421.3 1836.07 4432.38 1836 4443.5L1836.13 4542.62Z" fill="white"/>
<path d="M1960.25 4357.25C1972.78 4357.1 1985.23 4359.22 1997 4363.5C2007.46 4367.46 2017.09 4373.36 2025.38 4380.87C2041.62 4395.76 2051.43 4416.38 2052.75 4438.37C2052.91 4441.21 2052.91 4444.04 2052.75 4446.87V4467.25C2052.9 4470.04 2052.9 4472.83 2052.75 4475.62C2051.86 4486.58 2049.02 4497.29 2044.37 4507.25C2039.78 4516.95 2033.32 4525.66 2025.38 4532.87C2017.08 4540.31 2007.45 4546.12 1997 4550C1973.25 4558.34 1947.37 4558.34 1923.63 4550C1913.18 4546.12 1903.55 4540.31 1895.25 4532.87C1887.3 4525.66 1880.84 4516.95 1876.25 4507.25C1871.56 4497.3 1868.68 4486.59 1867.75 4475.62C1867.75 4473.37 1867.75 4470.62 1867.75 4467.25C1867.75 4463.87 1867.75 4460.62 1867.75 4457.12C1867.75 4453.62 1867.75 4450.25 1867.75 4446.87C1867.75 4443.5 1867.75 4440.5 1867.75 4438.37C1868.4 4427.34 1871.25 4416.54 1876.12 4406.62C1880.83 4396.92 1887.32 4388.18 1895.25 4380.87C1903.54 4373.36 1913.16 4367.46 1923.63 4363.5C1935.35 4359.22 1947.76 4357.1 1960.25 4357.25ZM2004.88 4440.25C2004.44 4433.61 2002.61 4427.14 1999.5 4421.25C1997.11 4416.27 1993.5 4411.97 1989 4408.75C1984.93 4405.79 1980.29 4403.7 1975.38 4402.62C1965.45 4400.46 1955.17 4400.46 1945.25 4402.62C1940.3 4403.72 1935.62 4405.8 1931.5 4408.75C1927.07 4412.04 1923.48 4416.32 1921 4421.25C1918.01 4427.17 1916.22 4433.63 1915.75 4440.25C1915.75 4442.12 1915.75 4444.62 1915.75 4447.5C1915.75 4450.37 1915.75 4453.62 1915.75 4456.75C1915.75 4459.87 1915.75 4463.12 1915.75 4466.12C1915.63 4468.54 1915.63 4470.96 1915.75 4473.37C1916.22 4479.99 1918.01 4486.45 1921 4492.37C1923.58 4497.06 1927.16 4501.12 1931.5 4504.25C1935.62 4507.2 1940.3 4509.28 1945.25 4510.37C1955.17 4512.54 1965.45 4512.54 1975.38 4510.37C1980.29 4509.3 1984.93 4507.21 1989 4504.25C1993.4 4501.19 1997 4497.12 1999.5 4492.37C2002.59 4486.48 2004.42 4480.01 2004.88 4473.37C2005.04 4470.96 2005.04 4468.54 2004.88 4466.12V4447.5C2005.03 4445.09 2005.03 4442.66 2004.88 4440.25Z" fill="white"/>
<path d="M1494.38 4842.62C1494.31 4845.26 1493.24 4847.76 1491.38 4849.63C1489.51 4851.49 1487.01 4852.56 1484.38 4852.62H1456.38C1453.74 4852.56 1451.24 4851.49 1449.37 4849.63C1447.51 4847.76 1446.44 4845.26 1446.38 4842.62V4749C1447.03 4736.39 1443.42 4723.93 1436.13 4713.62C1432.27 4709.04 1427.38 4705.45 1421.86 4703.14C1416.34 4700.84 1410.34 4699.89 1404.38 4700.37C1398.57 4700.05 1392.78 4701.08 1387.44 4703.38C1382.1 4705.68 1377.37 4709.18 1373.63 4713.62C1365.72 4723.67 1361.73 4736.24 1362.38 4749V4842.62C1362.38 4843.92 1362.13 4845.21 1361.63 4846.41C1361.14 4847.61 1360.42 4848.7 1359.5 4849.62C1358.6 4850.57 1357.51 4851.33 1356.31 4851.85C1355.11 4852.36 1353.81 4852.63 1352.5 4852.62H1324.38C1323.07 4852.63 1321.77 4852.36 1320.57 4851.85C1319.36 4851.33 1318.28 4850.57 1317.38 4849.62C1316.46 4848.7 1315.73 4847.61 1315.24 4846.41C1314.75 4845.21 1314.5 4843.92 1314.5 4842.62V4670.87C1314.5 4668.26 1315.54 4665.74 1317.39 4663.89C1319.24 4662.04 1321.76 4661 1324.38 4661H1352.5C1355.12 4661 1357.63 4662.04 1359.48 4663.89C1361.33 4665.74 1362.38 4668.26 1362.38 4670.87V4679.37C1368.95 4672.88 1376.55 4667.52 1384.88 4663.5C1394.48 4659.14 1404.95 4657 1415.5 4657.25C1428.36 4656.85 1441.15 4659.24 1453 4664.25C1462.52 4668.5 1470.87 4674.98 1477.38 4683.12C1483.64 4691.22 1488.11 4700.55 1490.5 4710.5C1493.08 4721.31 1494.38 4732.39 1494.38 4743.5V4842.62Z" fill="white"/>
<path d="M1618.5 4657.25C1630.99 4657.09 1643.4 4659.21 1655.12 4663.5C1665.62 4667.4 1675.25 4673.3 1683.5 4680.87C1691.43 4688.21 1697.96 4696.94 1702.75 4706.62C1707.53 4716.57 1710.33 4727.36 1711 4738.37C1711.16 4741.21 1711.16 4744.04 1711 4746.87V4767.25C1711.15 4770.04 1711.15 4772.83 1711 4775.62C1710.13 4786.6 1707.25 4797.32 1702.5 4807.25C1697.95 4816.98 1691.49 4825.69 1683.5 4832.87C1675.24 4840.37 1665.6 4846.18 1655.12 4850C1631.42 4858.34 1605.58 4858.34 1581.87 4850C1571.41 4846.15 1561.78 4840.34 1553.5 4832.87C1545.51 4825.69 1539.05 4816.98 1534.5 4807.25C1529.81 4797.3 1526.93 4786.59 1526 4775.62C1526 4773.37 1526 4770.62 1526 4767.25C1526 4763.87 1526 4760.62 1526 4757.12C1526 4753.62 1526 4750.25 1526 4746.87C1526 4743.5 1526 4740.5 1526 4738.37C1526.67 4727.36 1529.47 4716.57 1534.25 4706.62C1544.02 4686.68 1561.07 4671.25 1581.87 4663.5C1593.6 4659.21 1606.01 4657.09 1618.5 4657.25ZM1663.12 4740.25C1662.69 4733.61 1660.86 4727.14 1657.75 4721.25C1655.27 4716.32 1651.68 4712.04 1647.25 4708.75C1643.17 4705.82 1638.53 4703.73 1633.63 4702.62C1623.66 4700.46 1613.34 4700.46 1603.37 4702.62C1598.47 4703.75 1593.84 4705.83 1589.75 4708.75C1585.32 4712.04 1581.73 4716.32 1579.25 4721.25C1576.14 4727.14 1574.31 4733.61 1573.87 4740.25C1573.87 4742.12 1573.87 4744.62 1573.87 4747.5C1573.87 4750.37 1573.87 4753.62 1573.87 4756.75C1573.87 4759.87 1573.87 4763.12 1573.87 4766.12C1573.87 4769.12 1573.87 4771.62 1573.87 4773.37C1574.33 4780.01 1576.16 4786.48 1579.25 4792.37C1581.83 4797.06 1585.41 4801.12 1589.75 4804.25C1593.84 4807.17 1598.47 4809.25 1603.37 4810.37C1613.34 4812.54 1623.66 4812.54 1633.63 4810.37C1638.53 4809.27 1643.17 4807.18 1647.25 4804.25C1651.59 4801.12 1655.17 4797.06 1657.75 4792.37C1660.84 4786.48 1662.67 4780.01 1663.12 4773.37C1663.29 4770.96 1663.29 4768.54 1663.12 4766.12V4747.5C1663.28 4745.09 1663.28 4742.66 1663.12 4740.25Z" fill="white"/>
<path d="M1784.38 4800C1787.01 4800.03 1789.52 4801.1 1791.37 4802.97C1793.21 4804.84 1794.25 4807.37 1794.25 4810V4842.37C1794.25 4843.67 1794 4844.96 1793.51 4846.16C1793.02 4847.36 1792.29 4848.45 1791.38 4849.37C1790.47 4850.32 1789.39 4851.08 1788.18 4851.6C1786.98 4852.11 1785.68 4852.38 1784.38 4852.37H1752.63C1751.32 4852.38 1750.02 4852.11 1748.82 4851.6C1747.61 4851.08 1746.53 4850.32 1745.63 4849.37C1744.69 4848.47 1743.95 4847.38 1743.45 4846.18C1742.95 4844.97 1742.72 4843.68 1742.75 4842.37V4810C1742.7 4808.69 1742.93 4807.4 1743.43 4806.19C1743.92 4804.98 1744.67 4803.89 1745.63 4803C1746.53 4802.05 1747.61 4801.29 1748.82 4800.78C1750.02 4800.26 1751.32 4800 1752.63 4800H1784.38ZM1792.5 4768C1792.5 4769.31 1792.24 4770.61 1791.72 4771.81C1791.21 4773.01 1790.45 4774.1 1789.5 4775C1788.58 4775.92 1787.49 4776.64 1786.29 4777.13C1785.09 4777.63 1783.8 4777.88 1782.5 4777.87H1754.5C1753.2 4777.88 1751.91 4777.63 1750.71 4777.13C1749.51 4776.64 1748.42 4775.92 1747.5 4775C1746.55 4774.1 1745.79 4773.01 1745.28 4771.81C1744.76 4770.61 1744.5 4769.31 1744.5 4768V4604.62C1744.47 4603.31 1744.73 4602.01 1745.25 4600.8C1745.76 4599.59 1746.53 4598.51 1747.5 4597.62C1748.4 4596.67 1749.48 4595.91 1750.69 4595.39C1751.89 4594.88 1753.19 4594.61 1754.5 4594.62H1782.5C1783.81 4594.61 1785.11 4594.88 1786.31 4595.39C1787.52 4595.91 1788.6 4596.67 1789.5 4597.62C1790.47 4598.51 1791.24 4599.59 1791.75 4600.8C1792.27 4602.01 1792.53 4603.31 1792.5 4604.62V4768Z" fill="white"/>
<path d="M172.25 3201.25C140.875 3163.75 81.75 3149.75 17.75 3163.75C71.25 3084.38 233.25 3059 325 3120.88C393.356 3097.28 465.187 3085.32 537.5 3085.5C834.5 3085.5 1075 3279.88 1075 3519.63C1075 3759.38 834.25 3953.63 537.5 3953.63C240.75 3953.63 0 3759.38 0 3519.63C0 3393.75 66.375 3280.5 172.25 3201.25Z" fill="#F5F5F5"/>
<path d="M669.625 3316.13L537.75 3448L405.875 3316.13C401.284 3311.02 395.702 3306.9 389.469 3304.02C383.235 3301.14 376.481 3299.55 369.616 3299.37C362.752 3299.18 355.921 3300.39 349.539 3302.92C343.157 3305.46 337.357 3309.26 332.493 3314.11C327.629 3318.96 323.801 3324.74 321.244 3331.12C318.687 3337.49 317.453 3344.32 317.617 3351.18C317.781 3358.05 319.341 3364.81 322.2 3371.05C325.06 3377.29 329.159 3382.89 334.25 3387.5L466.125 3519.37L334.25 3651.5C324.752 3661 319.416 3673.88 319.416 3687.31C319.416 3700.74 324.752 3713.63 334.25 3723.13C343.748 3732.62 356.63 3737.96 370.063 3737.96C383.495 3737.96 396.377 3732.62 405.875 3723.13L537.75 3591.25L669.625 3723.13C679.123 3732.62 692.005 3737.96 705.438 3737.96C718.87 3737.96 731.752 3732.62 741.25 3723.13C750.748 3713.63 756.084 3700.74 756.084 3687.31C756.084 3673.88 750.748 3661 741.25 3651.5L609.375 3519.63L741.25 3387.5C745.953 3382.8 749.684 3377.21 752.229 3371.07C754.774 3364.92 756.084 3358.34 756.084 3351.69C756.084 3345.04 754.774 3338.45 752.229 3332.31C749.684 3326.16 745.953 3320.58 741.25 3315.87C736.547 3311.17 730.964 3307.44 724.819 3304.9C718.674 3302.35 712.089 3301.04 705.438 3301.04C698.787 3301.04 692.201 3302.35 686.056 3304.9C679.911 3307.44 674.328 3311.17 669.625 3315.87V3316.13Z" fill="white"/>
<path d="M2230.25 2987.5C2257.12 2955.5 2307.37 2943.62 2362 2955.62C2316.37 2888 2178.37 2866.37 2100.25 2919.12C2041.95 2898.99 1980.68 2888.81 1919 2889C1666.12 2889 1461.12 3054.5 1461.12 3258.62C1461.12 3462.75 1666.12 3628.25 1919 3628.25C2171.87 3628.25 2376.5 3462.5 2376.5 3258.37C2376.5 3151.25 2320.5 3054.75 2230.25 2987.5Z" fill="#EBEBEB"/>
<path d="M1534 3234.37C1534.47 3224.8 1536.41 3215.36 1539.75 3206.37C1542.91 3197.81 1547.85 3190.01 1554.25 3183.5C1561.01 3176.72 1569.16 3171.48 1578.12 3168.12C1588.98 3164.05 1600.53 3162.09 1612.12 3162.37C1623.63 3162.12 1635.08 3164.03 1645.87 3168C1654.91 3171.29 1663.11 3176.54 1669.87 3183.37C1676.23 3189.92 1681.17 3197.71 1684.37 3206.25C1687.85 3215.24 1689.83 3224.74 1690.25 3234.37C1690.25 3237.75 1690.25 3241.5 1690.25 3245.5C1690.25 3249.5 1690.25 3253.87 1690.25 3258C1690.25 3262.12 1690.25 3266.62 1690.25 3270.5C1690.25 3274.37 1690.25 3278.37 1690.25 3281.75C1689.82 3291.32 1687.92 3300.76 1684.62 3309.75C1681.42 3318.29 1676.48 3326.08 1670.12 3332.62C1663.26 3339.37 1655.04 3344.57 1646 3347.87C1624 3355.37 1600.13 3355.37 1578.12 3347.87C1569.16 3344.57 1561.02 3339.36 1554.25 3332.62C1547.85 3326.11 1542.91 3318.32 1539.75 3309.75C1536.41 3300.77 1534.47 3291.32 1534 3281.75C1534 3278.42 1534 3274.67 1534 3270.5C1534 3266.5 1534 3262.25 1534 3258C1534 3253.75 1534 3249.5 1534 3245.5C1534 3241.5 1533.87 3237.5 1534 3234.37ZM1654.37 3235.75C1654.39 3230.23 1653.29 3224.75 1651.14 3219.66C1648.99 3214.57 1645.84 3209.97 1641.87 3206.12C1635.98 3200.23 1628.48 3196.21 1620.3 3194.57C1612.13 3192.94 1603.66 3193.75 1595.95 3196.92C1588.24 3200.08 1581.64 3205.46 1576.97 3212.37C1572.31 3219.28 1569.8 3227.41 1569.75 3235.75C1569.75 3242.5 1569.75 3249.87 1569.75 3258.12C1569.75 3266.37 1569.75 3273.87 1569.75 3280.62C1569.78 3286.12 1570.9 3291.56 1573.05 3296.63C1575.19 3301.69 1578.32 3306.28 1582.25 3310.12C1590.76 3316.84 1601.29 3320.49 1612.12 3320.49C1622.96 3320.49 1633.49 3316.84 1642 3310.12C1645.97 3306.31 1649.13 3301.73 1651.28 3296.66C1653.43 3291.59 1654.52 3286.13 1654.5 3280.62C1654.5 3273.87 1654.5 3266.37 1654.5 3258.12C1654.5 3249.87 1654.75 3242.5 1654.37 3235.75Z" fill="white"/>
<path d="M1846 3343.87C1846.01 3344.81 1845.83 3345.74 1845.46 3346.6C1845.1 3347.46 1844.56 3348.23 1843.87 3348.87C1843.24 3349.57 1842.47 3350.12 1841.61 3350.48C1840.74 3350.85 1839.81 3351.03 1838.87 3351H1818.62C1816.75 3350.97 1814.95 3350.21 1813.62 3348.88C1812.29 3347.55 1811.53 3345.75 1811.5 3343.87V3276.37C1811.85 3267.44 1809.21 3258.64 1804 3251.37C1801.09 3248.33 1797.6 3245.91 1793.73 3244.26C1789.87 3242.61 1785.71 3241.76 1781.5 3241.76C1777.29 3241.76 1773.13 3242.61 1769.26 3244.26C1765.4 3245.91 1761.91 3248.33 1759 3251.37C1753.42 3258.49 1750.54 3267.34 1750.87 3276.37V3343.87C1750.89 3344.81 1750.7 3345.74 1750.34 3346.6C1749.97 3347.46 1749.43 3348.23 1748.75 3348.87C1748.12 3349.57 1747.35 3350.12 1746.48 3350.48C1745.62 3350.85 1744.69 3351.03 1743.75 3351H1723.5C1721.62 3350.97 1719.83 3350.21 1718.5 3348.88C1717.17 3347.55 1716.41 3345.75 1716.37 3343.87V3169.5C1716.35 3168.56 1716.52 3167.63 1716.89 3166.77C1717.26 3165.9 1717.81 3165.13 1718.5 3164.5C1719.14 3163.82 1719.92 3163.28 1720.78 3162.91C1721.64 3162.55 1722.56 3162.36 1723.5 3162.37H1743.75C1745.63 3162.41 1747.42 3163.17 1748.75 3164.5C1750.08 3165.83 1750.84 3167.62 1750.87 3169.5V3226.12C1755.6 3221.43 1761.1 3217.59 1767.12 3214.75C1774.02 3211.6 1781.55 3210.06 1789.12 3210.25C1798.42 3209.93 1807.68 3211.64 1816.25 3215.25C1823.08 3218.28 1829.08 3222.91 1833.75 3228.75C1838.29 3234.63 1841.53 3241.4 1843.25 3248.62C1845.13 3256.4 1846.05 3264.38 1846 3272.37V3343.87Z" fill="white"/>
<path d="M2058.38 3343.87C2058.34 3345.78 2057.56 3347.59 2056.21 3348.92C2054.85 3350.25 2053.03 3351 2051.13 3351H2031C2029.1 3351 2027.27 3350.25 2025.92 3348.92C2024.56 3347.59 2023.78 3345.78 2023.75 3343.87V3276.37C2024.14 3267.45 2021.55 3258.66 2016.38 3251.37C2013.59 3248.08 2010.07 3245.49 2006.09 3243.82C2002.12 3242.15 1997.8 3241.44 1993.5 3241.75C1989.31 3241.58 1985.13 3242.35 1981.27 3244.02C1977.42 3245.68 1973.99 3248.2 1971.25 3251.37C1965.72 3258.5 1962.88 3267.36 1963.25 3276.37V3343.87C1963.22 3345.78 1962.44 3347.59 1961.08 3348.92C1959.73 3350.25 1957.9 3351 1956 3351H1935.88C1933.97 3351 1932.15 3350.25 1930.79 3348.92C1929.44 3347.59 1928.66 3345.78 1928.62 3343.87V3220C1928.63 3219.07 1928.82 3218.14 1929.18 3217.29C1929.55 3216.43 1930.08 3215.65 1930.75 3215C1932.11 3213.64 1933.95 3212.88 1935.88 3212.87H1956C1957.92 3212.88 1959.77 3213.64 1961.13 3215C1961.79 3215.65 1962.33 3216.43 1962.69 3217.29C1963.06 3218.14 1963.25 3219.07 1963.25 3220V3226.12C1967.96 3221.46 1973.41 3217.62 1979.37 3214.75C1986.32 3211.6 1993.88 3210.07 2001.5 3210.25C2010.8 3209.94 2020.05 3211.65 2028.63 3215.25C2035.46 3218.28 2041.46 3222.91 2046.13 3228.75C2050.63 3234.63 2053.82 3241.41 2055.5 3248.62C2057.42 3256.39 2058.39 3264.37 2058.38 3272.37V3343.87Z" fill="white"/>
<path d="M2147.88 3210.25C2156.91 3210.12 2165.89 3211.65 2174.37 3214.75C2181.92 3217.54 2188.85 3221.79 2194.75 3227.25C2200.54 3232.49 2205.26 3238.82 2208.63 3245.87C2212.15 3252.97 2214.19 3260.71 2214.62 3268.62C2214.62 3270.25 2214.62 3272.25 2214.62 3274.75V3289.5C2214.62 3291.87 2214.62 3293.87 2214.62 3295.5C2213.95 3303.43 2211.88 3311.17 2208.5 3318.37C2205.22 3325.41 2200.54 3331.7 2194.75 3336.87C2188.78 3342.26 2181.88 3346.5 2174.37 3349.37C2157.26 3355.38 2138.61 3355.38 2121.5 3349.37C2113.96 3346.5 2107.01 3342.26 2101 3336.87C2095.25 3331.67 2090.58 3325.38 2087.25 3318.37C2083.91 3311.16 2081.88 3303.42 2081.25 3295.5C2081.25 3293.87 2081.25 3291.87 2081.25 3289.5C2081.25 3287.12 2081.25 3284.75 2081.25 3282.25C2081.25 3279.75 2081.25 3277.25 2081.25 3274.75C2081.25 3272.25 2081.25 3270.25 2081.25 3268.62C2081.71 3260.73 2083.7 3253 2087.13 3245.87C2094.17 3231.48 2106.47 3220.33 2121.5 3214.75C2129.94 3211.65 2138.88 3210.12 2147.88 3210.25ZM2180 3270C2179.71 3265.25 2178.43 3260.61 2176.25 3256.37C2174.39 3252.93 2171.79 3249.94 2168.62 3247.62C2165.65 3245.54 2162.29 3244.06 2158.75 3243.25C2151.58 3241.75 2144.17 3241.75 2137 3243.25C2133.46 3244.08 2130.12 3245.56 2127.12 3247.62C2123.98 3249.92 2121.41 3252.91 2119.62 3256.37C2117.35 3260.58 2116.02 3265.23 2115.75 3270C2115.66 3271.75 2115.66 3273.5 2115.75 3275.25C2115.75 3277.37 2115.75 3279.62 2115.75 3282C2115.75 3284.37 2115.75 3286.5 2115.75 3288.75C2115.65 3290.46 2115.65 3292.17 2115.75 3293.87C2116.02 3298.69 2117.34 3303.38 2119.62 3307.62C2121.43 3311.04 2123.99 3313.99 2127.12 3316.25C2130.09 3318.36 2133.45 3319.85 2137 3320.62C2144.15 3322.29 2151.6 3322.29 2158.75 3320.62C2162.31 3319.87 2165.68 3318.38 2168.62 3316.25C2171.75 3313.95 2174.35 3311.01 2176.25 3307.62C2178.43 3303.35 2179.7 3298.67 2180 3293.87C2180.16 3292.17 2180.16 3290.45 2180 3288.75V3275C2180.14 3273.34 2180.14 3271.66 2180 3270Z" fill="white"/>
<path d="M2267.5 3313.37C2269.38 3313.41 2271.17 3314.17 2272.5 3315.5C2273.83 3316.83 2274.59 3318.62 2274.63 3320.5V3343.87C2274.59 3345.75 2273.83 3347.55 2272.5 3348.88C2271.17 3350.21 2269.38 3350.97 2267.5 3351H2244.62C2242.75 3350.97 2240.95 3350.21 2239.62 3348.88C2238.29 3347.55 2237.53 3345.75 2237.5 3343.87V3320.5C2237.53 3318.62 2238.29 3316.83 2239.62 3315.5C2240.95 3314.17 2242.75 3313.41 2244.62 3313.37H2267.5ZM2273.37 3290.25C2273.37 3291.18 2273.18 3292.11 2272.82 3292.96C2272.45 3293.82 2271.92 3294.6 2271.25 3295.25C2269.89 3296.61 2268.05 3297.37 2266.12 3297.37H2246C2244.08 3297.37 2242.23 3296.61 2240.87 3295.25C2240.21 3294.6 2239.67 3293.82 2239.31 3292.96C2238.94 3292.11 2238.75 3291.18 2238.75 3290.25V3172.25C2238.75 3170.33 2239.51 3168.48 2240.87 3167.12C2242.23 3165.76 2244.08 3165 2246 3165H2266.12C2268.05 3165 2269.89 3165.76 2271.25 3167.12C2272.61 3168.48 2273.37 3170.33 2273.37 3172.25V3290.25Z" fill="white"/>
<path d="M1091.25 2732C1214.38 2639.88 1291.25 2508.38 1291.25 2362.13C1291.25 2083.5 1011.38 1857.75 666.25 1857.75C321.125 1857.75 41.25 2083.5 41.25 2362.13C41.25 2640.75 321 2866.5 666.25 2866.5C750.578 2866.68 834.334 2852.65 914 2825C1020.5 2897 1208.75 2867.5 1271 2775C1196.37 2791.88 1127.75 2775.75 1091.25 2732Z" fill="#F0F0F0"/>
<path d="M169.875 2339.12C170.525 2326.61 173.053 2314.26 177.375 2302.5C181.491 2291.32 187.923 2281.14 196.25 2272.62C205.182 2263.85 215.818 2257 227.5 2252.5C256.167 2242.58 287.333 2242.58 316 2252.5C327.768 2256.83 338.438 2263.7 347.25 2272.62C355.583 2281.14 362.091 2291.26 366.375 2302.37C370.884 2314.18 373.459 2326.63 374 2339.25C374 2343.62 374 2348.5 374 2353.87C374 2359.25 374 2364.62 374 2370.25C374 2375.87 374 2381.5 374 2386.75C374 2392 374 2397 374 2401.37C373.464 2413.9 370.932 2426.27 366.5 2438C362.405 2449.19 355.97 2459.37 347.625 2467.87C338.662 2476.55 327.971 2483.24 316.25 2487.5C287.48 2497.31 256.27 2497.31 227.5 2487.5C215.81 2483.13 205.165 2476.36 196.25 2467.62C187.92 2459.01 181.49 2448.75 177.375 2437.5C173.053 2425.74 170.525 2413.39 169.875 2400.87C169.875 2396.5 169.875 2391.62 169.875 2386.25C169.875 2380.87 169.875 2375.5 169.875 2369.75C169.875 2364 169.875 2358.62 169.875 2353.37C169.875 2348.12 169.75 2343.5 169.875 2339.12ZM327.125 2340.87C327.152 2333.67 325.74 2326.53 322.971 2319.87C320.202 2313.22 316.132 2307.18 311 2302.12C303.289 2294.44 293.479 2289.2 282.802 2287.08C272.126 2284.95 261.058 2286.02 250.989 2290.16C240.92 2294.3 232.299 2301.32 226.207 2310.34C220.116 2319.37 216.826 2329.99 216.75 2340.87C216.75 2349.62 216.75 2359.37 216.75 2370.12C216.75 2380.87 216.75 2390.75 216.75 2399.5C216.948 2413.79 222.736 2427.43 232.875 2437.5C243.96 2446.37 257.737 2451.21 271.937 2451.21C286.138 2451.21 299.915 2446.37 311 2437.5C321.12 2427.62 326.917 2414.14 327.125 2400C327.125 2391.25 327.875 2381.37 327.875 2370.62C327.875 2359.87 327.625 2350 327.125 2340.87Z" fill="white"/>
<path d="M577.375 2482.13C577.388 2483.36 577.151 2484.58 576.678 2485.72C576.206 2486.86 575.507 2487.89 574.625 2488.75C572.869 2490.51 570.486 2491.5 568 2491.5H541.625C540.413 2491.5 539.214 2491.25 538.098 2490.78C536.982 2490.31 535.972 2489.62 535.125 2488.75C534.226 2487.9 533.508 2486.87 533.014 2485.73C532.52 2484.59 532.26 2483.37 532.25 2482.13V2394.63C532.824 2382.74 529.439 2371 522.625 2361.25C518.812 2357.29 514.24 2354.14 509.182 2351.99C504.124 2349.84 498.684 2348.73 493.188 2348.73C487.691 2348.73 482.252 2349.84 477.194 2351.99C472.136 2354.14 467.563 2357.29 463.75 2361.25C456.3 2370.73 452.527 2382.58 453.125 2394.63V2482.13C453.138 2483.36 452.901 2484.58 452.428 2485.72C451.956 2486.86 451.257 2487.89 450.375 2488.75C448.619 2490.51 446.236 2491.5 443.75 2491.5H417.375C414.889 2491.5 412.504 2490.51 410.746 2488.75C408.988 2487 408 2484.61 408 2482.13V2254.38C408.004 2253.16 408.249 2251.96 408.721 2250.85C409.193 2249.73 409.883 2248.72 410.75 2247.87C411.605 2246.98 412.632 2246.26 413.77 2245.76C414.909 2245.27 416.134 2245.01 417.375 2245H443.75C444.993 2245 446.223 2245.25 447.364 2245.74C448.504 2246.24 449.529 2246.96 450.375 2247.87C451.266 2248.7 451.971 2249.71 452.445 2250.83C452.919 2251.95 453.151 2253.16 453.125 2254.38V2328.38C459.335 2322.24 466.515 2317.17 474.375 2313.38C483.391 2309.27 493.221 2307.26 503.125 2307.5C515.256 2307.13 527.323 2309.39 538.5 2314.13C547.487 2318.1 555.378 2324.19 561.5 2331.88C567.463 2339.46 571.726 2348.25 574 2357.62C576.495 2367.81 577.713 2378.26 577.625 2388.75L577.375 2482.13Z" fill="white"/>
<path d="M854.75 2482.13C854.763 2483.36 854.526 2484.58 854.053 2485.72C853.581 2486.86 852.882 2487.89 852 2488.75C850.229 2490.49 847.855 2491.47 845.375 2491.5H819C816.514 2491.5 814.132 2490.51 812.375 2488.75C811.493 2487.89 810.794 2486.86 810.322 2485.72C809.849 2484.58 809.612 2483.36 809.625 2482.13V2394.63C810.221 2382.72 806.786 2370.96 799.875 2361.25C796.073 2357.3 791.511 2354.15 786.463 2352C781.416 2349.85 775.986 2348.74 770.5 2348.74C765.014 2348.74 759.584 2349.85 754.537 2352C749.489 2354.15 744.927 2357.3 741.125 2361.25C733.675 2370.73 729.902 2382.58 730.5 2394.63V2482.13C730.5 2484.61 729.512 2487 727.754 2488.75C725.996 2490.51 723.611 2491.5 721.125 2491.5H694.75C692.264 2491.5 689.881 2490.51 688.125 2488.75C687.243 2487.89 686.544 2486.86 686.072 2485.72C685.599 2484.58 685.362 2483.36 685.375 2482.13V2320.38C685.362 2319.14 685.599 2317.92 686.072 2316.78C686.544 2315.64 687.243 2314.61 688.125 2313.75C688.977 2312.86 690.007 2312.15 691.147 2311.68C692.288 2311.2 693.515 2310.97 694.75 2311H721.125C722.358 2310.99 723.58 2311.22 724.719 2311.7C725.858 2312.17 726.889 2312.87 727.75 2313.75C729.486 2315.52 730.471 2317.89 730.5 2320.38V2328.38C736.665 2322.24 743.804 2317.17 751.625 2313.38C760.69 2309.28 770.557 2307.27 780.5 2307.5C792.631 2307.13 804.698 2309.39 815.875 2314.13C824.845 2318.07 832.703 2324.17 838.75 2331.88C844.658 2339.5 848.915 2348.27 851.25 2357.63C853.684 2367.82 854.901 2378.27 854.875 2388.75L854.75 2482.13Z" fill="white"/>
<path d="M971.75 2307.5C983.511 2307.35 995.201 2309.34 1006.25 2313.38C1016.13 2317.08 1025.21 2322.64 1033 2329.75C1048.26 2343.8 1057.52 2363.18 1058.88 2383.88C1059.02 2386.54 1059.02 2389.21 1058.88 2391.88V2411.12C1059.02 2413.71 1059.02 2416.29 1058.88 2418.87C1058 2429.23 1055.29 2439.35 1050.88 2448.75C1046.58 2457.9 1040.51 2466.1 1033 2472.87C1025.2 2479.91 1016.11 2485.38 1006.25 2489C995.226 2493.14 983.524 2495.17 971.75 2495C959.936 2495.16 948.196 2493.13 937.125 2489C927.298 2485.38 918.259 2479.91 910.5 2472.87C902.958 2466.14 896.875 2457.93 892.625 2448.75C888.105 2439.38 885.391 2429.25 884.625 2418.87C884.463 2416.29 884.463 2413.71 884.625 2411.12C884.625 2408 884.625 2404.88 884.625 2401.63C884.625 2398.38 884.625 2395.13 884.625 2391.88C884.464 2389.21 884.464 2386.54 884.625 2383.88C885.824 2363.14 895.116 2343.7 910.5 2329.75C918.247 2322.64 927.285 2317.08 937.125 2313.38C948.22 2309.35 959.949 2307.36 971.75 2307.5ZM1013.75 2385.63C1013.3 2379.37 1011.56 2373.29 1008.63 2367.75C1006.27 2363.27 1002.88 2359.42 998.75 2356.5C995.01 2353.77 990.759 2351.81 986.25 2350.75C976.874 2348.58 967.126 2348.58 957.75 2350.75C953.254 2351.85 949.01 2353.8 945.25 2356.5C941.152 2359.46 937.776 2363.3 935.375 2367.75C932.484 2373.3 930.781 2379.38 930.375 2385.63C930.217 2387.91 930.217 2390.21 930.375 2392.5C930.375 2395.37 930.375 2398.25 930.375 2401.25C930.375 2404.25 930.375 2407.25 930.375 2410.12C930.202 2412.37 930.202 2414.63 930.375 2416.88C930.781 2423.12 932.484 2429.2 935.375 2434.75C937.776 2439.2 941.152 2443.04 945.25 2446C949.01 2448.7 953.254 2450.65 957.75 2451.75C967.145 2453.75 976.856 2453.75 986.25 2451.75C990.759 2450.69 995.01 2448.73 998.75 2446C1002.88 2443.08 1006.27 2439.23 1008.63 2434.75C1011.56 2429.21 1013.3 2423.13 1013.75 2416.88C1013.75 2415.25 1013.75 2413 1013.75 2410.12V2392.5C1014 2389.75 1014 2387.5 1014 2385.63H1013.75Z" fill="white"/>
<path d="M1127.88 2442.25C1130.36 2442.25 1132.75 2443.24 1134.5 2445C1136.26 2446.75 1137.25 2449.14 1137.25 2451.62V2482.13C1137.26 2483.36 1137.03 2484.58 1136.55 2485.72C1136.08 2486.86 1135.38 2487.89 1134.5 2488.75C1132.74 2490.51 1130.36 2491.5 1127.88 2491.5H1098C1096.79 2491.5 1095.59 2491.25 1094.47 2490.78C1093.36 2490.31 1092.35 2489.62 1091.5 2488.75C1090.6 2487.89 1089.88 2486.87 1089.39 2485.73C1088.9 2484.59 1088.64 2483.37 1088.63 2482.13V2451.62C1088.62 2450.38 1088.87 2449.15 1089.37 2448.01C1089.86 2446.87 1090.59 2445.85 1091.5 2445C1092.33 2444.11 1093.34 2443.4 1094.46 2442.93C1095.58 2442.46 1096.78 2442.22 1098 2442.25H1127.88ZM1135.5 2412C1135.51 2413.23 1135.28 2414.46 1134.8 2415.59C1134.33 2416.73 1133.63 2417.76 1132.75 2418.63C1131.9 2419.52 1130.87 2420.23 1129.73 2420.7C1128.59 2421.17 1127.36 2421.4 1126.13 2421.38H1099.75C1098.53 2421.4 1097.33 2421.17 1096.21 2420.7C1095.09 2420.22 1094.08 2419.52 1093.25 2418.63C1092.35 2417.77 1091.63 2416.74 1091.14 2415.6C1090.65 2414.47 1090.39 2413.24 1090.38 2412V2257.88C1090.39 2256.63 1090.65 2255.41 1091.14 2254.27C1091.63 2253.13 1092.35 2252.11 1093.25 2251.25C1094.1 2250.38 1095.11 2249.69 1096.22 2249.22C1097.34 2248.75 1098.54 2248.5 1099.75 2248.5H1126.5C1128.99 2248.5 1131.37 2249.49 1133.13 2251.25C1134.01 2252.11 1134.71 2253.14 1135.18 2254.28C1135.65 2255.42 1135.89 2256.64 1135.88 2257.88L1135.5 2412Z" fill="white"/>
<path d="M2171.38 1378.13C2363.5 1234.38 2483.88 1028.87 2483.88 800.75C2483.88 365.875 2047.13 13.25 1508.88 13.25C970.625 13.25 533.875 365.75 533.875 800.75C533.875 1235.75 970.5 1588.25 1508.88 1588.25C1640.22 1588.62 1770.7 1566.95 1894.88 1524.12C2061.13 1636.62 2355.13 1590.25 2452.13 1446.38C2335.5 1471.5 2228.5 1446.38 2171.38 1378.13Z" fill="white"/>
<path d="M1508.5 1600C963.75 1600 521 1241.25 521 800C521 358.75 964.125 0 1508.5 0C2052.87 0 2496 358.875 2496 800C2496 1018.25 2384.38 1228.63 2189.25 1379.13C2244.63 1435.63 2342.5 1456.38 2448.63 1433.25C2451.01 1432.86 2453.46 1433.18 2455.67 1434.15C2457.89 1435.13 2459.77 1436.73 2461.09 1438.75C2462.41 1440.77 2463.12 1443.14 2463.13 1445.56C2463.13 1447.98 2462.44 1450.34 2461.13 1452.38C2413.25 1523.38 2315.5 1575.88 2199.87 1592.63C2084.25 1609.38 1972.5 1589.13 1891.75 1537C1768.33 1578.92 1638.84 1600.2 1508.5 1600ZM1508.5 25C977.5 25 546 372.625 546 800C546 1227.37 977.875 1575 1508.5 1575C1638.4 1575.72 1767.49 1554.59 1890.38 1512.5C1892.21 1511.85 1894.17 1511.63 1896.1 1511.87C1898.03 1512.11 1899.88 1512.8 1901.5 1513.88C1976.5 1563.88 2087 1585.12 2197.25 1569.12C2291.63 1555.37 2372.25 1517.12 2421.37 1464.62C2313.25 1479.75 2215.63 1451 2161.75 1386.5C2160.67 1385.19 2159.87 1383.67 2159.4 1382.03C2158.92 1380.4 2158.79 1378.69 2159 1377C2159.2 1375.33 2159.73 1373.71 2160.57 1372.25C2161.41 1370.79 2162.53 1369.52 2163.88 1368.5C2359.38 1222.25 2471.5 1015.37 2471.5 801.125C2471.5 373.5 2039 25.875 1508.5 25.875V25Z" fill="#455A64"/>
<path d="M691.5 741.375C692.514 720.602 696.731 700.11 704 680.625C710.686 661.869 721.395 644.803 735.375 630.625C750.094 615.994 767.726 604.623 787.125 597.25C810.655 588.465 835.639 584.224 860.75 584.75C885.686 584.383 910.476 588.621 933.875 597.25C953.367 604.511 971.062 615.896 985.75 630.625C999.528 645.01 1010.28 662.012 1017.37 680.625C1024.76 700.163 1028.98 720.756 1029.87 741.625C1029.87 748.875 1029.87 757 1030.75 765.875C1031.62 774.75 1030.75 783.75 1030.75 793.125C1030.75 802.5 1030.75 811.625 1030.75 820.5C1030.75 829.375 1030.75 837.375 1029.87 844.625C1028.86 865.397 1024.64 885.889 1017.37 905.375C1010.64 924.106 999.936 941.161 986 955.375C971.227 969.998 953.497 981.292 934 988.5C886.263 1004.5 834.612 1004.5 786.875 988.5C767.467 981.261 749.825 969.968 735.125 955.375C721.145 941.196 710.436 924.13 703.75 905.375C696.481 885.889 692.264 865.397 691.25 844.625C691.25 837.375 690.5 829.375 690.375 820.5C690.25 811.625 690.375 802.5 690.375 793.125C690.375 783.75 690.375 774.625 690.375 765.875C690.375 757.125 691.125 748.625 691.5 741.375ZM952.25 744.25C952.619 732.304 950.468 720.415 945.938 709.355C941.407 698.296 934.599 688.315 925.956 680.061C917.313 671.807 907.029 665.465 895.773 661.449C884.516 657.433 872.541 655.831 860.625 656.75C848.71 655.81 836.731 657.397 825.472 661.407C814.214 665.417 803.929 671.76 795.291 680.02C786.653 688.281 779.857 698.272 775.348 709.34C770.839 720.409 768.718 732.305 769.125 744.25C768.375 758.875 768 775.125 768 792.875C768 810.625 768 827 769.125 841.5C769.138 853.386 771.509 865.153 776.101 876.117C780.693 887.081 787.414 897.026 795.875 905.375C814.308 919.954 837.123 927.886 860.625 927.886C884.127 927.886 906.942 919.954 925.375 905.375C933.876 897.049 940.631 887.111 945.245 876.144C949.86 865.176 952.241 853.398 952.25 841.5C953 827 953.375 810.75 953.375 792.875C953.375 775 953 758.875 952.25 744.25Z" fill="#1D4FD7"/>
<path d="M1367.12 978.5C1367.09 982.601 1365.45 986.524 1362.55 989.424C1359.65 992.324 1355.73 993.967 1351.62 994H1307.87C1303.77 993.967 1299.85 992.324 1296.95 989.424C1294.05 986.524 1292.41 982.601 1292.38 978.5V832.375C1293.38 812.667 1287.7 793.196 1276.25 777.125C1270.2 769.902 1262.49 764.245 1253.79 760.633C1245.08 757.021 1235.64 755.56 1226.25 756.375C1217.18 755.94 1208.13 757.583 1199.79 761.179C1191.45 764.775 1184.04 770.229 1178.12 777.125C1165.82 792.83 1159.61 812.451 1160.63 832.375V978.5C1160.66 980.553 1160.26 982.591 1159.46 984.484C1158.67 986.377 1157.49 988.085 1156 989.5C1154.58 990.933 1152.88 992.069 1151.01 992.841C1149.15 993.614 1147.15 994.008 1145.12 994H1101.5C1097.38 994 1093.42 992.371 1090.5 989.468C1087.57 986.565 1085.91 982.622 1085.88 978.5V601C1085.91 596.866 1087.56 592.911 1090.49 589.988C1093.41 587.064 1097.37 585.408 1101.5 585.375H1145.25C1147.28 585.391 1149.28 585.807 1151.15 586.601C1153.02 587.395 1154.71 588.55 1156.13 590C1157.61 591.415 1158.79 593.123 1159.59 595.016C1160.38 596.909 1160.78 598.947 1160.75 601V723.5C1171.01 713.305 1182.88 704.86 1195.88 698.5C1210.85 691.671 1227.17 688.337 1243.62 688.75C1263.78 688.097 1283.83 691.851 1302.38 699.75C1317.05 706.342 1329.91 716.376 1339.88 729C1349.68 741.669 1356.67 756.287 1360.38 771.875C1364.44 788.78 1366.46 806.113 1366.38 823.5L1367.12 978.5Z" fill="#1D4FD7"/>
<path d="M1826.5 978.5C1826.47 982.601 1824.82 986.525 1821.92 989.424C1819.02 992.324 1815.1 993.968 1811 994H1767.25C1765.21 994.017 1763.19 993.628 1761.3 992.854C1759.41 992.081 1757.7 990.94 1756.25 989.498C1754.81 988.055 1753.67 986.34 1752.9 984.452C1752.12 982.564 1751.73 980.541 1751.75 978.5V832.375C1752.76 812.667 1747.08 793.197 1735.63 777.125C1729.57 769.903 1721.87 764.246 1713.16 760.634C1704.46 757.022 1695.01 755.561 1685.63 756.375C1676.55 755.94 1667.5 757.583 1659.16 761.18C1650.82 764.776 1643.41 770.23 1637.5 777.125C1625.2 792.83 1618.98 812.451 1620 832.375V978.5C1620.03 980.554 1619.64 982.591 1618.84 984.485C1618.04 986.378 1616.86 988.086 1615.38 989.5C1613.95 990.934 1612.26 992.069 1610.39 992.842C1608.52 993.614 1606.52 994.008 1604.5 994H1560.75C1558.71 994.025 1556.68 993.639 1554.79 992.866C1552.9 992.093 1551.19 990.949 1549.75 989.5C1548.26 988.086 1547.08 986.378 1546.29 984.485C1545.49 982.591 1545.09 980.554 1545.13 978.5V710.25C1545.19 706.138 1546.86 702.215 1549.78 699.318C1552.7 696.422 1556.64 694.783 1560.75 694.75H1604.5C1608.59 694.815 1612.5 696.469 1615.39 699.362C1618.28 702.255 1619.94 706.16 1620 710.25V723.5C1630.26 713.305 1642.13 704.86 1655.12 698.5C1670.1 691.672 1686.43 688.337 1702.88 688.75C1723.03 688.097 1743.08 691.851 1761.63 699.75C1776.3 706.343 1789.16 716.377 1799.13 729C1808.93 741.669 1815.92 756.287 1819.63 771.875C1823.69 788.78 1825.71 806.114 1825.62 823.5L1826.5 978.5Z" fill="#1D4FD7"/>
<path d="M2021 689C2040.52 688.728 2059.92 692.032 2078.25 698.75C2094.62 704.906 2109.68 714.11 2122.62 725.875C2135 737.321 2145.13 750.97 2152.5 766.125C2159.88 781.818 2164.13 798.803 2165 816.125C2165.22 820.539 2165.22 824.961 2165 829.375V861.375C2165.21 865.539 2165.21 869.711 2165 873.875C2163.58 891.195 2159.09 908.125 2151.75 923.875C2144.57 939.008 2134.51 952.596 2122.12 963.875C2109.16 975.523 2094.1 984.601 2077.75 990.625C2040.69 1003.62 2000.31 1003.62 1963.25 990.625C1946.9 984.601 1931.84 975.523 1918.87 963.875C1906.42 952.662 1896.34 939.059 1889.25 923.875C1881.85 908.147 1877.36 891.206 1876 873.875C1876 870.5 1875.37 866.125 1875.12 861.375C1874.87 856.625 1875.12 850.875 1875.12 845.5C1875.12 840.125 1875.12 834.75 1875.12 829.375C1875.12 824 1875.12 819.625 1876 816.125C1876.81 798.794 1881.06 781.798 1888.5 766.125C1895.83 750.944 1905.97 737.287 1918.37 725.875C1931.69 713.974 1947.18 704.763 1964 698.75C1982.25 692.051 2001.56 688.747 2021 689ZM2090.62 818.5C2089.96 808.144 2087.11 798.047 2082.25 788.875C2078.27 781.473 2072.67 775.064 2065.87 770.125C2059.46 765.632 2052.25 762.407 2044.62 760.625C2036.86 758.977 2028.94 758.14 2021 758.125C2013.06 758.122 2005.14 758.96 1997.37 760.625C1989.75 762.407 1982.54 765.632 1976.12 770.125C1969.29 775.059 1963.65 781.467 1959.62 788.875C1954.86 798.074 1952.05 808.161 1951.37 818.5C1951.37 821.625 1950.62 825.375 1950.5 830C1950.37 834.625 1950.5 839.375 1950.5 844.375C1950.5 849.375 1950.5 854.25 1950.5 859.125C1950.59 862.888 1950.88 866.644 1951.37 870.375C1952.05 880.714 1954.86 890.801 1959.62 900C1963.65 907.372 1969.29 913.739 1976.12 918.625C1982.51 923.168 1989.73 926.398 1997.37 928.125C2005.13 929.889 2013.05 930.77 2021 930.75C2028.95 930.756 2036.87 929.876 2044.62 928.125C2052.27 926.398 2059.49 923.168 2065.87 918.625C2072.67 913.731 2078.27 907.364 2082.25 900C2087.11 890.828 2089.96 880.731 2090.62 870.375C2091.08 866.643 2091.29 862.885 2091.25 859.125V830C2091.27 826.158 2091.06 822.317 2090.62 818.5Z" fill="#1D4FD7"/>
<path d="M2280 912.5C2284.1 912.533 2288.02 914.176 2290.92 917.076C2293.82 919.976 2295.47 923.899 2295.5 928V978C2295.47 982.101 2293.82 986.024 2290.92 988.924C2288.02 991.824 2284.1 993.467 2280 993.5H2230C2225.88 993.5 2221.92 991.871 2219 988.968C2216.07 986.065 2214.41 982.122 2214.38 978V928C2214.41 923.878 2216.07 919.935 2219 917.032C2221.92 914.129 2225.88 912.5 2230 912.5H2280ZM2292.5 862.5C2292.47 866.601 2290.82 870.524 2287.92 873.424C2285.02 876.324 2281.1 877.967 2277 878H2233.25C2229.15 877.967 2225.23 876.324 2222.33 873.424C2219.43 870.524 2217.78 866.601 2217.75 862.5V606.75C2217.78 602.616 2219.44 598.661 2222.36 595.738C2225.29 592.814 2229.24 591.158 2233.38 591.125H2277.13C2279.16 591.127 2281.16 591.537 2283.03 592.331C2284.9 593.126 2286.59 594.289 2288 595.75C2289.49 597.165 2290.67 598.873 2291.46 600.766C2292.26 602.659 2292.66 604.697 2292.62 606.75L2292.5 862.5Z" fill="#1D4FD7"/>
<path d="M4806.5 678.75C4810.88 664.5 4788.88 663.875 4781.5 667.375C4753.88 679.875 4732.12 712.25 4712.25 734.25C4687.25 762.25 4661.71 790.083 4635.63 817.75C4588.5 868.5 4539.63 917.75 4491.5 967.75C4489.16 970.415 4487.67 973.721 4487.22 977.241C4486.77 980.762 4487.39 984.335 4489 987.5C4490.36 990.425 4492.31 993.042 4494.71 995.191C4497.12 997.34 4499.94 998.976 4503 1000C4507.53 1002.13 4512.6 1002.86 4517.55 1002.08C4522.5 1001.3 4527.1 999.05 4530.75 995.625C4579.63 944 4626.75 890.875 4674.37 838.125C4697.87 812.125 4721.21 786 4744.38 759.75C4765.63 736.375 4797 709.25 4806.5 678.75ZM4886.13 1059.12C4916.75 1051.62 4957.88 1046.62 4983 1027.5C4994.75 1018.37 4977 1005.37 4968.63 1003.75C4939 998 4902.5 1012.37 4873.63 1019.12C4836.75 1027.62 4800 1036 4763.13 1044.12C4695.38 1058.87 4627.13 1071.5 4559.25 1084.87C4555.79 1085.92 4552.74 1088 4550.5 1090.84C4548.26 1093.68 4546.95 1097.14 4546.75 1100.75C4546.25 1103.9 4546.39 1107.12 4547.16 1110.21C4547.93 1113.3 4549.32 1116.21 4551.25 1118.75C4553.7 1123.09 4557.39 1126.59 4561.84 1128.82C4566.29 1131.05 4571.31 1131.89 4576.25 1131.25C4645.88 1116.75 4714.87 1100 4784.12 1083.87C4818 1075.62 4852.13 1067.37 4886.13 1059.12ZM4578.13 1275C4645.88 1296.75 4714.13 1316.25 4782.38 1336.37C4815.88 1346.37 4849.5 1356 4883.25 1365.62C4913.5 1374.12 4951.5 1390.62 4983.25 1386C4998 1383.75 4989 1363.75 4982.5 1358.12C4959.63 1338.5 4920 1333.12 4892.25 1324.62C4856 1313.87 4819.87 1303 4783.75 1291.75C4717.62 1271.25 4652 1248.5 4586.38 1226.62C4582.78 1225.73 4579 1225.97 4575.56 1227.31C4572.11 1228.66 4569.16 1231.04 4567.13 1234.12C4565.17 1236.63 4563.73 1239.5 4562.89 1242.57C4562.06 1245.64 4561.84 1248.85 4562.25 1252C4562.3 1256.98 4563.85 1261.83 4566.67 1265.93C4569.5 1270.02 4573.49 1273.18 4578.13 1275Z" fill="#E0E0E0"/>
</svg>
