<svg width="3286" height="2449" viewBox="0 0 3286 2449" fill="none" xmlns="http://www.w3.org/2000/svg">
<path d="M3285.72 2151.49H0V2153.13H3285.72V2151.49Z" fill="#EBEBEB"/>
<path d="M1557.43 1858.4H288.552C278.612 1858.39 269.084 1854.42 262.062 1847.39C255.039 1840.35 251.095 1830.82 251.095 1820.88V37.1943C251.181 27.3111 255.164 17.861 262.177 10.8969C269.19 3.93273 278.668 0.0169306 288.552 0H1557.43C1567.38 0 1576.93 3.9533 1583.96 10.9902C1591 18.0271 1594.95 27.5712 1594.95 37.5229V1820.88C1594.95 1830.83 1591 1840.38 1583.96 1847.41C1576.93 1854.45 1567.38 1858.4 1557.43 1858.4ZM288.552 1.31429C279.047 1.3317 269.938 5.11958 263.223 11.8465C256.509 18.5734 252.738 27.6897 252.738 37.1943V1820.88C252.738 1830.38 256.509 1839.5 263.223 1846.23C269.938 1852.95 279.047 1856.74 288.552 1856.76H1557.43C1566.94 1856.74 1576.06 1852.96 1582.78 1846.23C1589.51 1839.51 1593.29 1830.39 1593.31 1820.88V37.1943C1593.29 27.6837 1589.51 18.5675 1582.78 11.8425C1576.06 5.11744 1566.94 1.33166 1557.43 1.31429H288.552Z" fill="#EBEBEB"/>
<path d="M2978.9 1858.4H1709.95C1700.01 1858.39 1690.47 1854.43 1683.44 1847.39C1676.41 1840.36 1672.45 1830.83 1672.43 1820.88V37.1943C1672.54 27.3051 1676.53 17.8551 1683.56 10.8928C1690.58 3.93043 1700.06 0.0167459 1709.95 0H2978.9C2988.77 0.034201 2998.23 3.95764 3005.23 10.9199C3012.23 17.8822 3016.2 27.3224 3016.29 37.1943V1820.88C3016.29 1830.81 3012.36 1840.33 3005.35 1847.37C2998.34 1854.4 2988.83 1858.37 2978.9 1858.4ZM1709.95 1.31429C1700.44 1.33166 1691.33 5.11744 1684.6 11.8425C1677.88 18.5675 1674.09 27.6837 1674.07 37.1943V1820.88C1674.09 1830.39 1677.88 1839.51 1684.6 1846.23C1691.33 1852.96 1700.44 1856.74 1709.95 1856.76H2978.9C2988.41 1856.74 2997.53 1852.96 3004.25 1846.23C3010.98 1839.51 3014.76 1830.39 3014.78 1820.88V37.1943C3014.76 27.6837 3010.98 18.5675 3004.25 11.8425C2997.53 5.11744 2988.41 1.33166 2978.9 1.31429H1709.95Z" fill="#EBEBEB"/>
<path d="M1317.18 2214.05H1146.32V2215.69H1317.18V2214.05Z" fill="#EBEBEB"/>
<path d="M700.253 2196.24H344.738V2197.88H700.253V2196.24Z" fill="#EBEBEB"/>
<path d="M1139.75 2275.1H966.79V2276.74H1139.75V2275.1Z" fill="#EBEBEB"/>
<path d="M1952.11 2264.06H1696.94V2265.7H1952.11V2264.06Z" fill="#EBEBEB"/>
<path d="M2080.85 2264.06H2010.6V2265.7H2080.85V2264.06Z" fill="#EBEBEB"/>
<path d="M2956.56 2236.33H2598.02V2237.97H2956.56V2236.33Z" fill="#EBEBEB"/>
<path d="M1480.54 238.215H505.475V1267.17H1480.54V238.215Z" fill="#E6E6E6"/>
<path d="M1585.1 204.897H442.389C439.81 204.897 437.336 205.922 435.512 207.746C433.688 209.57 432.664 212.044 432.664 214.623C432.664 215.897 432.916 217.159 433.405 218.335C433.895 219.511 434.612 220.579 435.516 221.477C436.42 222.375 437.493 223.085 438.672 223.567C439.852 224.048 441.115 224.292 442.389 224.283H1585.1C1587.66 224.283 1590.12 223.265 1591.93 221.454C1593.74 219.642 1594.76 217.185 1594.76 214.623C1594.77 213.349 1594.52 212.086 1594.04 210.906C1593.56 209.727 1592.85 208.654 1591.95 207.75C1591.05 206.846 1589.99 206.129 1588.81 205.639C1587.63 205.149 1586.37 204.897 1585.1 204.897Z" fill="#E6E6E6"/>
<path d="M1522.01 238.215H524.86V1267.17H1522.01V238.215Z" fill="#F0F0F0"/>
<path d="M1480.54 1267.17H505.475V1305.61H1480.54V1267.17Z" fill="#E6E6E6"/>
<path d="M1590.88 1267.17H593.729V1305.61H1590.88V1267.17Z" fill="#F0F0F0"/>
<path d="M1464.05 1209.28V296.175L582.755 296.175V1209.28H1464.05Z" fill="#FAFAFA"/>
<path d="M782.79 1209.28L1122.8 296.109H1283.27L943.33 1209.28H782.79Z" fill="white"/>
<path d="M977.765 1209.28L1317.77 296.109H1380.33L1040.32 1209.28H977.765Z" fill="white"/>
<path d="M1464.05 1209.21V296.109H1456.69V1209.21H1464.05Z" fill="#E6E6E6"/>
<g opacity="0.6">
<path d="M558.835 1117.01H436.409L502.386 187.614H624.812L558.835 1117.01Z" fill="#F0F0F0"/>
<path d="M606.543 1117.01H511.126L577.103 187.614H672.52L606.543 1117.01Z" fill="#E6E6E6"/>
<path d="M681.261 1117.01H558.835L624.812 187.614H747.238L681.261 1117.01Z" fill="#F0F0F0"/>
<path d="M728.97 1117.01H633.553L699.596 187.614H794.947L728.97 1117.01Z" fill="#E6E6E6"/>
<path d="M803.687 1117.01H681.261L747.238 187.614H869.73L803.687 1117.01Z" fill="#F0F0F0"/>
</g>
<g opacity="0.6">
<path d="M1501.77 1117.01H1570.97L1533.71 187.614H1464.51L1501.77 1117.01Z" fill="#F0F0F0"/>
<path d="M1474.83 1117.01H1528.71L1491.45 187.614H1437.5L1474.83 1117.01Z" fill="#E6E6E6"/>
<path d="M1432.57 1117.01H1501.77L1464.51 187.614H1395.31L1432.57 1117.01Z" fill="#F0F0F0"/>
<path d="M1405.63 1117.01H1459.52L1422.26 187.614H1368.3L1405.63 1117.01Z" fill="#E6E6E6"/>
<path d="M1363.38 1117.01H1432.57L1395.31 187.614H1326.12L1363.38 1117.01Z" fill="#F0F0F0"/>
</g>
<path d="M2803.77 187.614H2129.47V1084.09H2803.77V187.614Z" fill="#E6E6E6"/>
<path d="M2854.96 187.614H2150.5V1084.09H2854.96V187.614Z" fill="#F5F5F5"/>
<path d="M2241.77 224.215L2179.07 1000.14L2763.6 1047.37L2826.3 271.451L2241.77 224.215Z" fill="white"/>
<path d="M2811.85 270.275L2749.15 1046.2L2763.56 1047.36L2826.26 271.439L2811.85 270.275Z" fill="#E6E6E6"/>
<path d="M2892.16 1418.97H2515.55V2151.49H2892.16V1418.97Z" fill="#F5F5F5"/>
<path d="M2892.16 1418.97H2861.07V2151.49H2892.16V1418.97Z" fill="#F0F0F0"/>
<path d="M1677.43 1749.78H2544.59V1439.8H1677.43V1749.78Z" fill="#E6E6E6"/>
<path d="M1719.15 1473.84L2892.09 1473.84V1418.9L1719.15 1418.9V1473.84Z" fill="#F0F0F0"/>
<path d="M1719.22 1418.97H1342.61V2151.49H1719.22V1418.97Z" fill="#F5F5F5"/>
<path d="M1356.21 1652.32H1357.92C1381.96 1652.32 1405.01 1661.87 1422 1678.86C1439 1695.86 1448.54 1718.91 1448.54 1742.94V2151.49H1265.59V1742.94C1265.59 1718.91 1275.14 1695.86 1292.14 1678.86C1309.13 1661.87 1332.18 1652.32 1356.21 1652.32Z" fill="#E6E6E6"/>
<path d="M1719.22 1418.97H1688.14V2151.49H1719.22V1418.97Z" fill="#F0F0F0"/>
<path d="M2143.08 1418.97H2061.85L2081.57 1260.8H2162.86L2143.08 1418.97Z" fill="#F0F0F0"/>
<path d="M2161.08 1418.97H2079.79L2099.58 1260.8H2180.8L2161.08 1418.97Z" fill="#F5F5F5"/>
<path d="M2170.94 1339.85H2089.72L2099.57 1260.8H2180.8L2170.94 1339.85Z" fill="#F0F0F0"/>
<path d="M1872.4 1320.86H2447.14C2448.26 1320.86 2449.38 1320.62 2450.41 1320.15C2451.43 1319.69 2452.35 1319.01 2453.1 1318.17C2453.84 1317.32 2454.4 1316.33 2454.73 1315.25C2455.06 1314.18 2455.16 1313.04 2455.02 1311.92L2410.73 957.59C2410.49 955.667 2409.56 953.899 2408.11 952.616C2406.65 951.333 2404.78 950.625 2402.85 950.624H1828.11C1827 950.646 1825.91 950.896 1824.91 951.36C1823.9 951.823 1823.01 952.489 1822.27 953.316C1821.54 954.143 1820.98 955.113 1820.64 956.165C1820.3 957.218 1820.18 958.329 1820.29 959.43L1864.45 1314.29C1864.79 1316.14 1865.77 1317.82 1867.23 1319.02C1868.68 1320.22 1870.51 1320.87 1872.4 1320.86Z" fill="#F0F0F0"/>
<path d="M1880.94 1320.86H2455.68C2456.81 1320.86 2457.92 1320.62 2458.95 1320.15C2459.98 1319.69 2460.89 1319.01 2461.64 1318.17C2462.38 1317.32 2462.94 1316.33 2463.27 1315.25C2463.61 1314.18 2463.71 1313.04 2463.57 1311.92L2419.27 957.59C2419.03 955.667 2418.1 953.899 2416.65 952.616C2415.2 951.333 2413.33 950.625 2411.39 950.624H1836.65C1835.52 950.626 1834.41 950.866 1833.38 951.329C1832.35 951.793 1831.42 952.468 1830.67 953.312C1829.92 954.156 1829.36 955.149 1829.02 956.226C1828.68 957.303 1828.57 958.439 1828.7 959.561L1872.86 1314.29C1873.2 1316.17 1874.21 1317.86 1875.69 1319.06C1877.17 1320.27 1879.03 1320.91 1880.94 1320.86Z" fill="#F5F5F5"/>
<path d="M2445.03 1301.14L2403.57 969.484C2403.49 968.95 2403.22 968.463 2402.81 968.112C2402.4 967.762 2401.87 967.572 2401.33 967.578H1849.33C1849.02 967.576 1848.7 967.641 1848.41 967.77C1848.12 967.898 1847.86 968.087 1847.65 968.323C1847.44 968.559 1847.28 968.837 1847.19 969.139C1847.09 969.442 1847.06 969.761 1847.1 970.075L1888.57 1301.74C1888.64 1302.27 1888.91 1302.76 1889.33 1303.11C1889.74 1303.46 1890.26 1303.65 1890.8 1303.64H2442.8C2443.12 1303.64 2443.43 1303.58 2443.72 1303.45C2444.01 1303.32 2444.27 1303.13 2444.48 1302.9C2444.69 1302.66 2444.85 1302.38 2444.95 1302.08C2445.04 1301.78 2445.07 1301.46 2445.03 1301.14Z" fill="#E6E6E6"/>
<path d="M2386.15 1303.9L2240.27 967.775H2112.32L2258.21 1303.9H2386.15Z" fill="#EBEBEB"/>
<path d="M2233.57 1303.9L2087.68 967.775H2041.61L2187.5 1303.9H2233.57Z" fill="#EBEBEB"/>
<path d="M2234.81 1418.97H2102.47V1417.33C2102.47 1413.84 2103.85 1410.5 2106.32 1408.03C2108.78 1405.57 2112.12 1404.18 2115.61 1404.18H2221.67C2225.16 1404.18 2228.5 1405.57 2230.97 1408.03C2233.43 1410.5 2234.81 1413.84 2234.81 1417.33V1418.97Z" fill="#F5F5F5"/>
<path d="M2117.97 1418.97H2028.21V1417.33C2028.21 1413.84 2029.59 1410.5 2032.06 1408.03C2034.52 1405.57 2037.87 1404.18 2041.35 1404.18H2104.77C2108.25 1404.18 2111.59 1405.57 2114.06 1408.03C2116.52 1410.5 2117.91 1413.84 2117.91 1417.33V1418.97H2117.97Z" fill="#F0F0F0"/>
<path d="M2381.23 1418.97H1972.09L1961.05 1386.11H2328L2381.23 1418.97Z" fill="#F5F5F5"/>
<path d="M2017.1 1418.97H1949.48L1940.35 1386.11H2007.97L2017.1 1418.97Z" fill="#F0F0F0"/>
<path d="M1886.92 1418.91H1770.48C1770.48 1411.62 1773.37 1404.63 1778.52 1399.48C1783.67 1394.33 1790.66 1391.44 1797.95 1391.44H1859.45C1866.74 1391.44 1873.73 1394.33 1878.88 1399.48C1884.03 1404.63 1886.92 1411.62 1886.92 1418.91Z" fill="#F0F0F0"/>
<path d="M586.303 2151.49H700.449L700.449 1620.98H586.303L586.303 2151.49Z" fill="#E0E0E0"/>
<path d="M1093.09 2151.49H631.647L574.606 1524.57H1036.05L1093.09 2151.49Z" fill="#E6E6E6"/>
<path d="M1117.01 2151.49H655.567L598.461 1524.57H1059.97L1117.01 2151.49Z" fill="#F0F0F0"/>
<path d="M718.653 2082.09L674.164 1593.97H996.887L1041.31 2082.09H718.653Z" fill="white"/>
<path d="M1642.86 2448.25C2346.55 2448.25 2917 2414.95 2917 2373.87C2917 2332.78 2346.55 2299.48 1642.86 2299.48C939.174 2299.48 368.724 2332.78 368.724 2373.87C368.724 2414.95 939.174 2448.25 1642.86 2448.25Z" fill="#F5F5F5"/>
<path d="M651.051 801.685L644.483 801.899L647.342 889.45L653.91 889.236L651.051 801.685Z" fill="#1D4FD7"/>
<path d="M648.589 726.127L642.021 726.342L643.381 767.983L649.949 767.768L648.589 726.127Z" fill="#1D4FD7"/>
<path d="M737.316 1359.43H1991.54C1998.24 1359.46 2004.89 1358.14 2011.06 1355.54C2017.24 1352.93 2022.83 1349.11 2027.49 1344.29C2032.15 1339.47 2035.79 1333.75 2038.18 1327.49C2040.57 1321.23 2041.67 1314.55 2041.42 1307.85L2013.49 452.049C2012.93 438.262 2007.1 425.217 1997.19 415.615C1987.28 406.012 1974.06 400.587 1960.26 400.463H706.036C699.329 400.432 692.685 401.758 686.503 404.36C680.321 406.962 674.73 410.788 670.064 415.607C665.399 420.426 661.756 426.138 659.355 432.401C656.954 438.663 655.844 445.347 656.093 452.049L684.021 1307.72C684.561 1321.53 690.397 1334.61 700.32 1344.24C710.242 1353.87 723.49 1359.31 737.316 1359.43Z" fill="#1D4FD7"/>
<path d="M741.324 1359.43H1995.55C2002.26 1359.46 2008.9 1358.14 2015.08 1355.54C2021.26 1352.93 2026.85 1349.11 2031.52 1344.29C2036.19 1339.47 2039.83 1333.76 2042.23 1327.5C2044.63 1321.23 2045.74 1314.55 2045.49 1307.85L2017.43 452.049C2016.86 438.256 2011.01 425.211 2001.09 415.61C1991.17 406.009 1977.94 400.586 1964.14 400.463H710.044C703.34 400.432 696.698 401.758 690.52 404.361C684.342 406.964 678.754 410.791 674.094 415.61C669.434 420.43 665.798 426.143 663.404 432.405C661.011 438.668 659.909 445.35 660.166 452.049L688.095 1307.72C688.618 1321.53 694.44 1334.6 704.352 1344.23C714.264 1353.87 727.504 1359.31 741.324 1359.43Z" fill="#1D4FD7"/>
<path opacity="0.5" d="M741.324 1359.43H1995.55C2002.26 1359.46 2008.9 1358.14 2015.08 1355.54C2021.26 1352.93 2026.85 1349.11 2031.52 1344.29C2036.19 1339.47 2039.83 1333.76 2042.23 1327.5C2044.63 1321.23 2045.74 1314.55 2045.49 1307.85L2017.43 452.049C2016.86 438.256 2011.01 425.211 2001.09 415.61C1991.17 406.009 1977.94 400.586 1964.14 400.463H710.044C703.34 400.432 696.698 401.758 690.52 404.361C684.342 406.964 678.754 410.791 674.094 415.61C669.434 420.43 665.798 426.143 663.404 432.405C661.011 438.668 659.909 445.35 660.166 452.049L688.095 1307.72C688.618 1321.53 694.44 1334.6 704.352 1344.23C714.264 1353.87 727.504 1359.31 741.324 1359.43Z" fill="white"/>
<path opacity="0.5" d="M1961.11 426.224H706.824H702.618C670.484 428.852 675.084 477.612 707.481 477.612H1963.87C1996.21 477.612 1997.65 428.852 1965.32 426.224C1963.94 426.289 1962.49 426.224 1961.11 426.224Z" fill="#1D4FD7"/>
<path d="M738.499 452.05C738.552 453.581 738.295 455.107 737.743 456.537C737.192 457.966 736.357 459.27 735.289 460.368C734.221 461.467 732.942 462.338 731.528 462.93C730.115 463.522 728.596 463.822 727.064 463.812C723.906 463.798 720.874 462.569 718.598 460.378C716.322 458.188 714.976 455.205 714.841 452.05C714.779 450.513 715.029 448.979 715.577 447.542C716.124 446.105 716.958 444.794 718.027 443.688C719.096 442.582 720.378 441.705 721.796 441.109C723.214 440.513 724.738 440.211 726.276 440.221C729.45 440.219 732.501 441.453 734.782 443.66C737.063 445.868 738.396 448.877 738.499 452.05Z" fill="#FAFAFA"/>
<path d="M778.715 452.05C778.778 453.583 778.527 455.114 777.979 456.547C777.431 457.981 776.596 459.288 775.527 460.389C774.457 461.489 773.174 462.361 771.756 462.949C770.339 463.538 768.816 463.832 767.281 463.812C764.127 463.782 761.104 462.547 758.832 460.36C756.559 458.173 755.209 455.2 755.058 452.05C754.996 450.513 755.246 448.979 755.794 447.542C756.341 446.105 757.175 444.794 758.244 443.688C759.312 442.582 760.595 441.705 762.013 441.109C763.43 440.513 764.954 440.211 766.492 440.221C769.667 440.219 772.718 441.453 774.999 443.66C777.28 445.868 778.613 448.877 778.715 452.05Z" fill="#FAFAFA"/>
<path d="M815.739 460.51C820.243 455.929 820.054 448.44 815.318 443.784C810.581 439.128 803.091 439.068 798.588 443.649C794.084 448.23 794.273 455.718 799.009 460.374C803.746 465.03 811.236 465.091 815.739 460.51Z" fill="#FAFAFA"/>
<path d="M765.638 1274H1965.71C1968.14 1274.02 1970.55 1273.55 1972.79 1272.61C1975.03 1271.67 1977.06 1270.29 1978.75 1268.54C1980.44 1266.8 1981.76 1264.73 1982.62 1262.46C1983.49 1260.19 1983.88 1257.77 1983.79 1255.34L1960.79 551.475C1960.52 546.498 1958.38 541.806 1954.8 538.344C1951.21 534.881 1946.45 532.905 1941.47 532.812H741.455C739.026 532.792 736.618 533.266 734.378 534.205C732.137 535.143 730.111 536.527 728.421 538.272C726.731 540.017 725.414 542.087 724.548 544.357C723.682 546.626 723.286 549.048 723.384 551.475L746.318 1255.14C746.535 1260.16 748.653 1264.9 752.243 1268.4C755.832 1271.91 760.623 1273.91 765.638 1274Z" fill="white"/>
<g opacity="0.3">
<path d="M1646.34 1186.93H1624.39V1180.69H1639.9L1639.38 1165.18L1645.62 1164.98L1646.34 1186.93Z" fill="#1D4FD7"/>
<path d="M1589.5 1186.93H1554.6V1180.36H1589.5V1186.93ZM1519.71 1186.93H1485.14V1180.36H1520.04L1519.71 1186.93ZM1449.92 1186.93H1415.03V1180.36H1449.92V1186.93ZM1380.13 1186.93H1345.24V1180.36H1380L1380.13 1186.93ZM1310.41 1186.93H1275.45V1180.36H1310.41V1186.93ZM1240.62 1186.93H1205.73V1180.36H1240.62V1186.93ZM1170.83 1186.93H1135.94V1180.36H1170.83V1186.93Z" fill="#1D4FD7"/>
<path d="M1101.04 1186.93H1079.29L1078.64 1165.18L1084.81 1164.98L1085.34 1180.69H1101.04V1186.93Z" fill="#1D4FD7"/>
<path d="M1077.72 1130.29L1076.6 1095.39H1083.17L1084.29 1130.29H1077.72ZM1075.48 1060.5L1074.3 1025.6H1080.54L1081.66 1060.5H1075.48ZM1073.18 990.71L1072.06 955.816H1078.24L1079.42 990.71H1073.18ZM1070.88 920.987L1069.76 886.093H1076.01L1077.12 920.987H1070.88ZM1068.65 851.198L1067.46 816.304H1073.71L1074.82 851.198H1068.65ZM1066.35 781.344L1065.23 746.515H1071.41L1072.59 781.41L1066.35 781.344ZM1064.05 711.621L1062.93 676.727H1069.17L1070.29 711.621H1064.05Z" fill="#1D4FD7"/>
<path d="M1061.55 641.767L1060.83 619.884H1082.71V626.127H1067.27L1067.73 641.57L1061.55 641.767Z" fill="#1D4FD7"/>
<path d="M1571.23 626.127H1536.34V619.884H1571.23V626.127ZM1501.44 626.127H1466.55V619.884H1501.44V626.127ZM1431.65 626.127H1396.76V619.884H1431.65V626.127ZM1361.86 626.127H1326.97V619.884H1361.86V626.127ZM1292.08 626.127H1257.18V619.884H1292.08V626.127ZM1222.29 626.127H1187.39V619.884H1222.29V626.127ZM1152.5 626.127H1117.6V619.884H1152.5V626.127Z" fill="#1D4FD7"/>
<path d="M1622.29 641.767L1621.76 626.127H1606.12V619.884H1627.81L1628.53 641.57L1622.29 641.767Z" fill="#1D4FD7"/>
<path d="M1638.26 1130.29L1637.14 1095.39H1643.32L1644.5 1130.29H1638.26ZM1636.29 1060.5L1635.17 1025.6H1641.41L1642.53 1060.5H1636.29ZM1634.05 990.776L1632.87 955.881H1639.11L1640.23 990.776H1634.05ZM1631.75 920.987L1630.64 886.093H1636.81L1638 920.987H1631.75ZM1629.45 851.198L1628.34 816.304H1634.58L1635.7 851.198H1629.45ZM1627.22 781.41L1626.04 746.515H1632.61L1633.73 781.41H1627.22ZM1624.92 711.621L1623.8 676.727H1629.98L1631.16 711.621H1624.92Z" fill="#1D4FD7"/>
</g>
<path d="M1477.39 992.287H1247.98C1226.7 992.118 1206.31 983.764 1191.03 968.959C1175.74 954.154 1166.75 934.034 1165.9 912.773C1165.16 893.67 1171.54 874.973 1183.83 860.323C1196.11 845.673 1213.4 836.119 1232.34 833.521C1237.31 814.535 1248.43 797.736 1263.98 785.759C1279.52 773.782 1298.61 767.305 1318.23 767.347C1334.38 767.372 1350.26 771.557 1364.32 779.499C1378.39 787.441 1390.17 798.871 1398.53 812.69C1405.75 810.453 1413.26 809.323 1420.81 809.338C1440.38 809.521 1459.2 816.861 1473.73 829.972C1488.26 843.084 1497.49 861.06 1499.67 880.507C1509.69 885.293 1518.23 892.712 1524.36 901.972C1530.49 911.231 1534 921.983 1534.5 933.079C1534.8 940.754 1533.54 948.412 1530.81 955.589C1528.07 962.767 1523.91 969.316 1518.57 974.843C1513.24 980.369 1506.84 984.757 1499.76 987.744C1492.68 990.731 1485.07 992.254 1477.39 992.222V992.287ZM1318.23 782.658C1301.18 782.555 1284.63 788.407 1271.43 799.205C1258.23 810.002 1249.22 825.068 1245.94 841.801L1244.83 847.65L1238.91 848.044C1222.81 849.028 1207.74 856.278 1196.91 868.242C1186.09 880.205 1180.39 895.931 1181.02 912.05C1181.69 929.347 1189.01 945.718 1201.44 957.76C1213.88 969.803 1230.48 976.591 1247.78 976.713H1477.19C1482.81 976.762 1488.38 975.669 1493.57 973.499C1498.75 971.329 1503.44 968.127 1507.35 964.089C1511.26 960.052 1514.31 955.261 1516.31 950.009C1518.31 944.757 1519.22 939.154 1518.99 933.539C1518.57 924.604 1515.56 915.986 1510.32 908.738C1505.08 901.49 1497.84 895.927 1489.48 892.73L1484.75 890.89V885.83C1483.91 869.38 1476.83 853.87 1464.95 842.463C1453.07 831.057 1437.28 824.616 1420.81 824.453C1412.97 824.435 1405.2 825.953 1397.94 828.921L1391.37 831.55L1388.15 825.373C1381.51 812.555 1371.48 801.806 1359.15 794.297C1346.82 786.788 1332.67 782.808 1318.23 782.79V782.658Z" fill="#1D4FD7"/>
<path d="M1411.28 917.898L1348 856.587L1288.72 917.898H1323.42L1325.52 981.247H1378.69L1376.58 917.898H1411.28Z" fill="#1D4FD7"/>
<path d="M2411.72 668.972C2417.76 677.712 2422.63 685.072 2427.62 693.22C2432.62 701.369 2437.35 709.255 2441.95 717.469C2451.15 733.766 2459.69 750.326 2467.51 767.675C2475.56 784.977 2482.67 802.702 2488.8 820.772C2495.35 839.316 2500.53 858.315 2504.31 877.615L2506.81 892.598L2507.14 894.503L2507.53 896.869C2507.53 899.169 2508.06 901.141 2508.12 903.441C2508.25 906.024 2508.25 908.612 2508.12 911.195L2507.79 915.335L2507.07 919.935C2506.51 923.199 2505.68 926.409 2504.57 929.529C2503.37 933 2501.83 936.345 2499.97 939.518C2496.28 945.951 2491.35 951.582 2485.45 956.078C2476.77 962.677 2466.59 967.013 2455.81 968.695C2448.73 969.854 2441.55 970.207 2434.39 969.746C2428.54 969.475 2422.73 968.794 2416.98 967.709C2406.82 965.755 2396.79 963.187 2386.94 960.021C2368.95 953.991 2351.38 946.746 2334.37 938.335C2317.59 930.244 2301.31 921.159 2285.61 911.129L2304.54 869.203C2337.18 878.029 2370.26 885.18 2403.64 890.626C2411.01 891.741 2418.45 892.378 2425.91 892.532C2430.68 892.942 2435.48 892.406 2440.04 890.955C2440.44 890.626 2438.92 890.166 2434.59 893.058C2430.99 895.689 2428.25 899.324 2426.7 903.506C2426.29 904.53 2425.96 905.585 2425.72 906.661L2425.32 908.763C2425.34 909.136 2425.34 909.509 2425.32 909.881V909.026V907.646L2422.36 896.606C2412.84 865.761 2400.47 835.865 2385.43 807.3C2378.01 792.449 2369.86 777.795 2361.58 763.272C2357.44 755.977 2353.17 748.815 2348.9 741.652C2344.62 734.489 2340.02 726.997 2336.21 721.017L2411.72 668.972Z" fill="#FFB573"/>
<path d="M2311.77 872.753L2283.25 844.364L2254.92 907.516C2254.92 907.516 2281.74 922.433 2305.59 911.59L2311.77 872.753Z" fill="#FFB573"/>
<path d="M2241.12 821.692L2220.09 875.053L2254.86 907.515L2283.25 844.364L2241.12 821.692Z" fill="#FFB573"/>
<path d="M2337.34 690.107L1790.21 593.732L1693.84 1140.86L2240.97 1237.23L2337.34 690.107Z" fill="#1D4FD7"/>
<path opacity="0.6" d="M2337.34 690.107L1790.21 593.732L1693.84 1140.86L2240.97 1237.23L2337.34 690.107Z" fill="white"/>
<path d="M2305.99 712.009L1812.13 625.017L1725.13 1118.88L2219 1205.87L2305.99 712.009Z" fill="white"/>
<path opacity="0.3" d="M2044.57 877.34C2086.46 848.002 2096.63 790.265 2067.29 748.381C2037.95 706.497 1980.21 696.327 1938.33 725.666C1896.45 755.004 1886.28 812.741 1915.61 854.624C1944.95 896.508 2002.69 906.678 2044.57 877.34Z" fill="#1D4FD7"/>
<path opacity="0.2" d="M2107.2 936.298L1941.66 1052.22L1865.57 943.526L1740.64 1030.99L1725.13 1118.98L2218.98 1205.92L2234.49 1118L2107.2 936.298Z" fill="#1D4FD7"/>
<path d="M2134.34 469.923C2134.34 474.326 2132.24 477.94 2129.34 478.006C2126.45 478.072 2124.09 474.523 2124.02 470.186C2123.96 465.849 2126.19 462.169 2129.02 462.169C2131.84 462.169 2134.27 465.586 2134.34 469.923Z" fill="#263238"/>
<path d="M2132.63 477.875C2127.67 491.343 2120.9 504.077 2112.52 515.726C2115.55 517.792 2119 519.174 2122.62 519.776C2126.24 520.377 2129.95 520.184 2133.48 519.209L2132.63 477.875Z" fill="#FF5652"/>
<path d="M2149.78 445.346C2149.1 445.481 2148.39 445.339 2147.81 444.952C2145.24 443.002 2142.23 441.712 2139.04 441.197C2135.86 440.681 2132.6 440.955 2129.54 441.995C2128.9 442.256 2128.19 442.254 2127.56 441.989C2126.92 441.724 2126.42 441.218 2126.16 440.582C2125.9 439.946 2125.9 439.232 2126.16 438.597C2126.43 437.963 2126.93 437.459 2127.57 437.198C2131.44 435.91 2135.56 435.56 2139.6 436.177C2143.63 436.794 2147.46 438.36 2150.77 440.746C2151.32 441.132 2151.7 441.721 2151.83 442.385C2151.95 443.05 2151.8 443.736 2151.42 444.295C2151.03 444.843 2150.44 445.219 2149.78 445.346Z" fill="#263238"/>
<path d="M2261.04 486.614C2258.28 526.963 2261.43 608.383 2292.25 631.186C2292.25 631.186 2284.69 664.043 2211.55 673.309C2131.18 683.363 2168.11 638.217 2168.11 638.217C2210.7 622.183 2205.51 589.786 2194.01 560.149L2261.04 486.614Z" fill="#FFB573"/>
<path d="M2460.28 2231.46H2459.82C2458.85 2230.95 2458.06 2230.16 2457.57 2229.18C2457.07 2228.2 2456.89 2227.09 2457.06 2226.01C2457.08 2225.14 2457.29 2224.3 2457.68 2223.52C2458.06 2222.75 2458.62 2222.07 2459.29 2221.54C2465.47 2216.28 2483.48 2218.58 2484.27 2218.65C2484.51 2218.69 2484.73 2218.8 2484.92 2218.97C2485.1 2219.13 2485.24 2219.34 2485.32 2219.57C2485.39 2219.8 2485.39 2220.05 2485.32 2220.28C2485.25 2220.52 2485.11 2220.73 2484.92 2220.88C2480.72 2224.3 2466.79 2233.7 2460.28 2231.46ZM2480.85 2220.69C2474.74 2220.23 2464.62 2220.16 2461.13 2223.25C2460.74 2223.57 2460.42 2223.97 2460.19 2224.42C2459.97 2224.87 2459.84 2225.37 2459.82 2225.88C2459.82 2228.31 2460.74 2228.77 2461.07 2228.97C2464.29 2230.61 2474.21 2225.61 2480.85 2220.69Z" fill="#1D4FD7"/>
<path d="M2475 2219.04C2468.43 2216.87 2461.86 2213.13 2460.87 2209.32C2460.61 2208.39 2460.68 2207.4 2461.06 2206.51C2461.45 2205.63 2462.12 2204.9 2462.98 2204.45C2463.78 2203.9 2464.7 2203.53 2465.66 2203.36C2466.63 2203.19 2467.61 2203.23 2468.56 2203.47C2476.51 2205.11 2484.79 2218.52 2485.19 2219.04C2485.32 2219.24 2485.39 2219.47 2485.39 2219.7C2485.39 2219.93 2485.32 2220.16 2485.19 2220.36C2485.09 2220.56 2484.93 2220.74 2484.73 2220.85C2484.53 2220.97 2484.3 2221.03 2484.07 2221.01C2480.97 2220.78 2477.92 2220.12 2475 2219.04ZM2468.96 2206.23H2468.04C2467.42 2206.07 2466.78 2206.04 2466.16 2206.16C2465.53 2206.27 2464.94 2206.52 2464.42 2206.89C2463.04 2207.81 2463.24 2208.53 2463.3 2208.86C2464.36 2212.34 2474.61 2217.2 2481.51 2218.45C2478.49 2213.33 2474.15 2209.11 2468.96 2206.23Z" fill="#1D4FD7"/>
<path d="M2061.26 2321.29C2054.3 2321.29 2047.59 2320.31 2045.29 2317.22C2044.72 2316.39 2044.4 2315.41 2044.4 2314.39C2044.4 2313.38 2044.72 2312.4 2045.29 2311.57C2045.75 2310.83 2046.34 2310.19 2047.04 2309.68C2047.74 2309.18 2048.53 2308.81 2049.37 2308.61C2058.37 2306.11 2077.36 2316.89 2078.15 2317.35C2078.38 2317.49 2078.56 2317.7 2078.66 2317.95C2078.77 2318.2 2078.8 2318.47 2078.74 2318.73C2078.71 2318.99 2078.59 2319.23 2078.42 2319.41C2078.24 2319.6 2078.01 2319.73 2077.76 2319.78C2072.31 2320.75 2066.79 2321.25 2061.26 2321.29ZM2052.65 2310.78C2051.83 2310.67 2050.99 2310.67 2050.16 2310.78C2049.64 2310.9 2049.15 2311.12 2048.72 2311.44C2048.29 2311.76 2047.93 2312.16 2047.66 2312.62C2046.74 2314.2 2047.07 2314.99 2047.66 2315.45C2050.16 2318.93 2063.89 2318.99 2073.95 2317.61C2067.37 2313.95 2060.13 2311.63 2052.65 2310.78Z" fill="#1D4FD7"/>
<path d="M2077.63 2319.72H2077.1C2070.53 2316.83 2057.39 2305.06 2058.57 2298.95C2058.57 2297.51 2059.82 2295.73 2063.37 2295.34C2064.64 2295.21 2065.92 2295.34 2067.14 2295.73C2068.36 2296.11 2069.49 2296.74 2070.46 2297.57C2077.36 2303.22 2078.87 2317.81 2078.87 2318.47C2078.9 2318.69 2078.86 2318.9 2078.77 2319.1C2078.68 2319.3 2078.53 2319.47 2078.35 2319.59C2078.13 2319.72 2077.87 2319.77 2077.63 2319.72ZM2064.48 2297.7H2063.43C2061.13 2297.7 2061 2298.89 2060.93 2299.15C2060.34 2302.83 2069.15 2312.29 2075.79 2316.04C2075.2 2309.87 2072.72 2304.04 2068.69 2299.35C2067.48 2298.35 2065.98 2297.8 2064.42 2297.77L2064.48 2297.7Z" fill="#1D4FD7"/>
<path d="M2137.23 2318.47H2083.01L2077.63 2192.95H2131.84L2137.23 2318.47Z" fill="#FFB573"/>
<path d="M2542.62 2203.99L2492.35 2217.79L2428.02 2100.1L2478.29 2086.3L2542.62 2203.99Z" fill="#FFB573"/>
<path d="M2484.79 2212.34L2539.07 2184.54C2540.04 2184.07 2541.13 2183.94 2542.18 2184.17C2543.23 2184.4 2544.17 2184.97 2544.86 2185.79L2576.33 2223.77C2577.09 2224.71 2577.62 2225.8 2577.9 2226.97C2578.17 2228.14 2578.18 2229.36 2577.92 2230.53C2577.66 2231.71 2577.14 2232.81 2576.4 2233.75C2575.66 2234.7 2574.72 2235.47 2573.64 2236C2554.58 2245.33 2544.79 2249.14 2521.07 2261.17C2506.41 2268.66 2462.78 2301.12 2440.76 2307.17C2418.75 2313.21 2410.21 2291.85 2418.68 2287.45C2446.5 2273.15 2467.9 2248.89 2478.62 2219.5C2479.71 2216.43 2481.92 2213.88 2484.79 2212.34Z" fill="#263238"/>
<path d="M2083.15 2312.23H2142.29C2143.36 2312.23 2144.4 2312.59 2145.23 2313.26C2146.07 2313.93 2146.65 2314.86 2146.89 2315.91L2157.6 2364.14C2157.87 2365.3 2157.87 2366.51 2157.6 2367.68C2157.33 2368.84 2156.8 2369.93 2156.05 2370.86C2155.29 2371.78 2154.33 2372.53 2153.25 2373.02C2152.16 2373.52 2150.98 2373.77 2149.78 2373.73C2128.42 2373.41 2097.54 2372.16 2070.92 2372.16C2039.51 2372.16 2012.44 2373.87 1975.64 2373.87C1953.36 2373.87 1947.18 2351.33 1956.51 2349.29C1998.9 2340.02 2033.53 2339.04 2070.2 2316.43C2074.05 2313.86 2078.53 2312.41 2083.15 2312.23Z" fill="#263238"/>
<path d="M2316.3 731.598C2321.95 746.121 2328.19 760.315 2334.5 773.655C2345.28 796.721 2356.06 816.83 2363.88 830.695C2370.84 843.247 2375.44 850.41 2375.44 850.41L2493.73 791.661C2493.73 791.661 2446.02 654.515 2396.21 639.204C2345.28 624.286 2290.74 666.212 2316.3 731.598Z" fill="#263238"/>
<path opacity="0.2" d="M2368.81 745.135C2358.49 752.692 2351.13 773.129 2345.87 797.115C2352.44 810.258 2359.01 821.758 2363.88 830.695C2370.84 843.246 2375.44 850.409 2375.44 850.409L2388.98 843.838C2388.72 809.94 2381.86 776.417 2368.81 745.135Z" fill="black"/>
<path d="M2065.93 819.064C2065.93 837.464 2066.39 857.77 2067.37 880.178C2070.07 940.964 2076.71 1016.73 2089.39 1110.9H2379.32C2381.36 1066.41 2353.36 849.227 2396.34 639.467C2364.26 633.322 2331.82 629.239 2299.21 627.244C2258.16 624.877 2216.99 624.877 2175.93 627.244C2147.8 630.139 2119.92 635.17 2092.54 642.292C2092.54 642.292 2065.86 672.455 2065.93 819.064Z" fill="#263238"/>
<path d="M2140.52 732.978C2136.21 741.999 2131.4 750.774 2126.12 759.264C2121.33 767.018 2116.46 774.51 2111.47 781.738C2101.48 796.196 2091.03 810.127 2080.06 823.73C2057.97 851.342 2033.49 876.959 2006.92 900.287C1992.75 912.709 1977.56 923.92 1961.51 933.801L1954.94 937.613L1953.23 938.533L1950.86 939.716L1946.07 942.016C1939.89 944.927 1933.41 947.131 1926.75 948.587C1914.94 950.959 1902.85 951.579 1890.87 950.427C1870.86 948.046 1851.43 942.197 1833.43 933.144C1825.11 929.066 1817.05 924.456 1809.31 919.344C1801.48 914.265 1793.99 908.667 1786.91 902.587L1810.17 863.158C1838.62 870.65 1870.69 877.353 1892.77 874.198C1897.34 873.763 1901.79 872.517 1905.91 870.518C1907.27 869.854 1908.55 869.038 1909.73 868.087L1910.32 867.496H1910.71L1911.63 866.773L1915.64 864.013C1926.89 855.442 1937.56 846.134 1947.58 836.15C1969.03 814.438 1988.99 791.297 2007.31 766.887C2016.71 754.598 2025.78 741.981 2034.52 729.298C2038.79 722.727 2043.06 716.681 2047 710.438C2050.95 704.195 2054.89 697.821 2056.93 693.812L2140.52 732.978Z" fill="#FFB573"/>
<path d="M1821.73 868.612L1771.73 844.89L1767.19 911.984C1767.19 911.984 1806.09 918.555 1826.66 903.507L1821.73 868.612Z" fill="#FFB573"/>
<path d="M1708.71 856.324L1727.96 907.45L1767.19 911.984L1771.73 844.89L1708.71 856.324Z" fill="#FFB573"/>
<path d="M2176.33 697.427C2174.62 749.275 2067.9 868.613 2067.9 868.613L1955.2 795.144C1955.2 795.144 1991.15 728.115 2037.15 679.684C2107.39 606.741 2178.37 635.261 2176.33 697.427Z" fill="#263238"/>
<path opacity="0.2" d="M2077.63 2192.95L2080.39 2257.68H2134.67L2131.91 2192.95H2077.63Z" fill="black"/>
<path opacity="0.2" d="M2478.29 2086.3L2428.02 2100.17L2461.2 2160.82L2511.47 2146.95L2478.29 2086.3Z" fill="black"/>
<path d="M2280.29 457.635C2278.12 511.389 2279.63 543.064 2253.08 571.124C2213.13 613.378 2146.36 590.181 2132.43 536.886C2119.88 488.849 2125.53 409.006 2177.64 386.532C2189.11 381.512 2201.67 379.51 2214.13 380.717C2226.59 381.923 2238.53 386.299 2248.82 393.426C2259.11 400.553 2267.4 410.196 2272.91 421.435C2278.42 432.674 2280.96 445.136 2280.29 457.635Z" fill="#FFB573"/>
<path d="M2172.98 483.263C2153.59 469.463 2134.6 441.009 2136.11 419.849C2118.17 419.126 2106.15 389.555 2116 368C2122.18 381.866 2143.54 371.68 2151.88 360.706C2147.41 350.126 2148.14 332.58 2178.83 320.16C2176.26 329.097 2177.58 344.146 2208.4 333.303C2245.79 320.16 2311.5 328.966 2292.25 373.455C2318.54 378.252 2352.77 432.597 2323.73 461.183C2294.68 489.769 2288.7 535.966 2263.86 540.698C2239.02 545.429 2174.42 547.072 2172.98 483.263Z" fill="#263238"/>
<path d="M2274.77 371.68C2285.22 367.331 2296.83 366.632 2307.73 369.697C2318.63 372.761 2328.18 379.41 2334.83 388.569C2315.93 379.543 2295.61 373.83 2274.77 371.68Z" fill="#263238"/>
<path d="M2187.11 480.964C2186.57 492.905 2182.11 504.337 2174.42 513.492C2164.17 525.452 2152.93 518.487 2150.63 504.358C2148.6 491.675 2151.49 470.121 2164.24 463.352C2176.99 456.584 2187.57 466.572 2187.11 480.964Z" fill="#FFB573"/>
<path d="M2192.23 1110.9C2192.23 1110.9 2166.67 1521.16 2215.17 1672.43C2291.92 1912.03 2428.87 2156.81 2428.87 2156.81L2526.78 2127.37C2526.78 2127.37 2419.08 1868.98 2383.66 1667.37C2351.85 1486.06 2379.32 1259.22 2379.32 1111.1L2192.23 1110.9Z" fill="#1D4FD7"/>
<path opacity="0.2" d="M2188.29 1202.57C2215.63 1194.62 2236.98 1197.64 2242.5 1221.96C2256.96 1285.5 2213.59 1453.14 2191.97 1529.83C2183.03 1419.43 2185.07 1288 2188.29 1202.57Z" fill="black"/>
<path d="M2401.2 2128.75C2400.81 2128.75 2426.77 2159.05 2426.77 2159.05L2533.75 2126.85L2520.15 2090.7L2401.2 2128.75Z" fill="#263238"/>
<path d="M2089.72 1110.9C2089.72 1110.9 2008.03 1457.02 2002.25 1622.36C1995.68 1807.8 2060.54 2245.13 2060.54 2245.13H2152.54C2152.54 2245.13 2163.84 1804.39 2167.92 1635.5C2172.39 1451.5 2280.42 1110.9 2280.42 1110.9H2089.72Z" fill="#1D4FD7"/>
<path d="M2042.53 2208.59C2042.14 2208.59 2047.73 2246.71 2047.73 2246.71H2159.44L2162.46 2212.67L2042.53 2208.59Z" fill="#263238"/>
<path d="M2129.93 614.561C2142.42 610.224 2237.11 598.198 2305.85 601.878C2345.28 603.981 2367.23 608.449 2383.26 616.006C2399.3 623.564 2370.58 662.795 2357.31 667.592C2362.69 682.575 2332.79 701.698 2315.77 710.767C2309.2 724.829 2241.71 737.841 2202.29 707.612C2171.99 684.349 2094.51 626.849 2129.93 614.561Z" fill="#1D4FD7"/>
</svg>
