<svg width="24" height="24" viewBox="0 0 24 24" fill="none" xmlns="http://www.w3.org/2000/svg">
<g clip-path="url(#clip0_205_6053)">
<path d="M6.99994 24C6.86833 24.0008 6.73787 23.9756 6.61603 23.9258C6.4942 23.876 6.38338 23.8027 6.28994 23.71C6.19621 23.6171 6.12182 23.5065 6.07105 23.3846C6.02028 23.2628 5.99414 23.132 5.99414 23C5.99414 22.868 6.02028 22.7373 6.07105 22.6155C6.12182 22.4936 6.19621 22.383 6.28994 22.29L14.4599 14.12C15.0217 13.5575 15.3373 12.7951 15.3373 12C15.3373 11.205 15.0217 10.4426 14.4599 9.88005L6.28994 1.71006C6.10164 1.52176 5.99585 1.26636 5.99585 1.00006C5.99585 0.733761 6.10164 0.478366 6.28994 0.290063C6.47824 0.101759 6.73364 -0.00402832 6.99994 -0.00402832C7.26624 -0.00402832 7.52164 0.101759 7.70994 0.290063L15.8799 8.46005C16.3456 8.92451 16.715 9.47626 16.9671 10.0837C17.2191 10.6912 17.3489 11.3424 17.3489 12C17.3489 12.6577 17.2191 13.3089 16.9671 13.9164C16.715 14.5238 16.3456 15.0756 15.8799 15.54L7.70994 23.71C7.6165 23.8027 7.50568 23.876 7.38385 23.9258C7.26201 23.9756 7.13155 24.0008 6.99994 24Z" fill="#15181E"/>
</g>
<defs>
<clipPath id="clip0_205_6053">
<rect width="24" height="24" fill="white"/>
</clipPath>
</defs>
</svg>
