<svg width="32" height="32" viewBox="0 0 32 32" fill="none" xmlns="http://www.w3.org/2000/svg">
<g clip-path="url(#clip0_198_1443)">
<path d="M30.6667 14.6663H1.33333C0.596954 14.6663 0 15.2632 0 15.9996C0 16.736 0.596954 17.3329 1.33333 17.3329H30.6667C31.403 17.3329 32 16.736 32 15.9996C32 15.2632 31.403 14.6663 30.6667 14.6663Z" fill="#15181E"/>
<path d="M30.6667 5.33374H1.33333C0.596954 5.33374 0 5.93069 0 6.66707C0 7.40345 0.596954 8.0004 1.33333 8.0004H30.6667C31.403 8.0004 32 7.40345 32 6.66707C32 5.93069 31.403 5.33374 30.6667 5.33374Z" fill="#15181E"/>
<path d="M30.6667 24H1.33333C0.596954 24 0 24.597 0 25.3333C0 26.0697 0.596954 26.6667 1.33333 26.6667H30.6667C31.403 26.6667 32 26.0697 32 25.3333C32 24.597 31.403 24 30.6667 24Z" fill="#15181E"/>
</g>
<defs>
<clipPath id="clip0_198_1443">
<rect width="32" height="32" fill="white"/>
</clipPath>
</defs>
</svg>
