<svg width="24" height="24" viewBox="0 0 24 24" fill="none" xmlns="http://www.w3.org/2000/svg">
<g clip-path="url(#clip0_205_6052)">
<path d="M17.1697 24C17.0381 24.0008 16.9077 23.9756 16.7858 23.9258C16.664 23.876 16.5532 23.8027 16.4597 23.71L8.28974 15.54C7.82411 15.0756 7.45468 14.5238 7.20261 13.9164C6.95055 13.3089 6.8208 12.6577 6.8208 12C6.8208 11.3424 6.95055 10.6912 7.20261 10.0837C7.45468 9.47626 7.82411 8.92451 8.28974 8.46005L16.4597 0.290063C16.553 0.196825 16.6637 0.122864 16.7855 0.0724035C16.9073 0.0219432 17.0379 -0.00402832 17.1697 -0.00402832C17.3016 -0.00402832 17.4322 0.0219432 17.554 0.0724035C17.6758 0.122864 17.7865 0.196825 17.8797 0.290063C17.973 0.383301 18.0469 0.493991 18.0974 0.615813C18.1479 0.737635 18.1738 0.868203 18.1738 1.00006C18.1738 1.13192 18.1479 1.26249 18.0974 1.38431C18.0469 1.50613 17.973 1.61682 17.8797 1.71006L9.70974 9.88005C9.14794 10.4426 8.83238 11.205 8.83238 12C8.83238 12.7951 9.14794 13.5575 9.70974 14.12L17.8797 22.29C17.9735 22.383 18.0479 22.4936 18.0986 22.6155C18.1494 22.7373 18.1755 22.868 18.1755 23C18.1755 23.132 18.1494 23.2628 18.0986 23.3846C18.0479 23.5065 17.9735 23.6171 17.8797 23.71C17.7863 23.8027 17.6755 23.876 17.5536 23.9258C17.4318 23.9756 17.3013 24.0008 17.1697 24Z" fill="#FEFFFF"/>
</g>
<defs>
<clipPath id="clip0_205_6052">
<rect width="24" height="24" fill="white"/>
</clipPath>
</defs>
</svg>
