<svg width="864" height="900" viewBox="0 0 864 900" fill="none" xmlns="http://www.w3.org/2000/svg">
<path d="M0 0H824C846.091 0 864 17.9086 864 40V860C864 882.091 846.091 900 824 900H0V0Z" fill="#F0F4FD"/>
<path fill-rule="evenodd" clip-rule="evenodd" d="M81.6797 67.6508C78.4192 64.3903 73.997 62.5586 69.386 62.5586C64.7749 62.5586 60.3527 64.3903 57.0922 67.6508C53.8317 70.9113 52 75.3335 52 79.9446C52 87.1424 57.4862 94.684 68.2269 102.74C68.5613 102.99 68.968 103.126 69.386 103.126C69.804 103.126 70.2107 102.99 70.545 102.74C81.2857 94.684 86.772 87.1424 86.772 79.9446C86.772 75.3335 84.9402 70.9113 81.6797 67.6508ZM69.3861 93.9499C77.2277 93.9499 83.5846 87.593 83.5846 79.7513C83.5846 71.9097 77.2277 65.5528 69.3861 65.5528C61.5444 65.5528 55.1875 71.9097 55.1875 79.7513C55.1875 87.593 61.5444 93.9499 69.3861 93.9499Z" fill="#1D4FD7"/>
<g clip-path="url(#clip0_41_238)">
<path d="M75.5062 79.9052L75.6798 82.9348C75.7055 83.3759 75.4418 83.7849 74.8887 84.1621C74.3356 84.5392 73.5798 84.838 72.6215 85.0585C71.6631 85.279 70.6243 85.3893 69.5052 85.3893C68.386 85.3893 67.3473 85.279 66.3889 85.0585C65.4306 84.838 64.6748 84.5392 64.1217 84.1621C63.5686 83.7849 63.3048 83.3759 63.3306 82.9348L63.5042 79.9052L69.0421 81.6405C69.1836 81.6853 69.338 81.7076 69.5052 81.7076C69.6724 81.7076 69.8268 81.6853 69.9683 81.6405L75.5062 79.9052ZM80.6195 76.7988C80.6195 76.9458 80.5488 77.0449 80.4073 77.096L69.6017 80.4708C69.5759 80.4772 69.5438 80.4804 69.5052 80.4804C69.4666 80.4804 69.4344 80.4772 69.4087 80.4708L63.1183 78.4958C62.8417 78.7131 62.6134 79.0695 62.4333 79.5648C62.2532 80.0602 62.1439 80.6306 62.1053 81.2762C62.5105 81.5063 62.7131 81.8546 62.7131 82.3212C62.7131 82.7623 62.5266 83.1042 62.1535 83.3471L62.7131 87.4985C62.726 87.588 62.7002 87.6679 62.6359 87.7382C62.578 87.8085 62.5009 87.8437 62.4044 87.8437H60.552C60.4555 87.8437 60.3783 87.8085 60.3204 87.7382C60.2561 87.6679 60.2304 87.588 60.2433 87.4985L60.8028 83.3471C60.4298 83.1042 60.2433 82.7623 60.2433 82.3212C60.2433 81.8546 60.4523 81.4999 60.8704 81.257C60.9411 79.9339 61.2563 78.8793 61.8159 78.0931L58.6031 77.096C58.4616 77.0449 58.3909 76.9458 58.3909 76.7988C58.3909 76.6518 58.4616 76.5527 58.6031 76.5016L69.4087 73.1268C69.4344 73.1204 69.4666 73.1172 69.5052 73.1172C69.5438 73.1172 69.5759 73.1204 69.6017 73.1268L80.4073 76.5016C80.5488 76.5527 80.6195 76.6518 80.6195 76.7988Z" fill="#1D4FD7"/>
</g>
<path d="M99.9111 86.3668C98.1995 86.3668 96.5592 86.1426 94.9903 85.6944C93.4213 85.2257 92.158 84.6246 91.2003 83.8911L92.8813 80.1622C93.7983 80.8142 94.8782 81.3542 96.1212 81.7821C97.3845 82.1896 98.658 82.3934 99.9417 82.3934C100.92 82.3934 101.704 82.3017 102.295 82.1183C102.906 81.9146 103.355 81.6395 103.64 81.2931C103.925 80.9467 104.068 80.5493 104.068 80.1011C104.068 79.5305 103.844 79.0823 103.395 78.7562C102.947 78.4098 102.356 78.1348 101.623 77.931C100.889 77.7069 100.074 77.5031 99.1776 77.3197C98.3014 77.1159 97.415 76.8714 96.5185 76.5862C95.6423 76.3009 94.8374 75.9341 94.1039 75.4858C93.3704 75.0376 92.7693 74.4467 92.3006 73.7131C91.8523 72.9796 91.6282 72.0423 91.6282 70.9012C91.6282 69.6786 91.9542 68.5681 92.6062 67.5697C93.2787 66.5509 94.2771 65.746 95.6016 65.1551C96.9464 64.5438 98.6274 64.2381 100.645 64.2381C101.99 64.2381 103.314 64.4012 104.618 64.7272C105.922 65.0328 107.073 65.5015 108.072 66.1331L106.544 69.8926C105.545 69.322 104.547 68.9043 103.548 68.6394C102.55 68.3542 101.572 68.2115 100.614 68.2115C99.6564 68.2115 98.8719 68.3236 98.2607 68.5477C97.6494 68.7719 97.2113 69.0673 96.9464 69.4341C96.6815 69.7805 96.5491 70.188 96.5491 70.6567C96.5491 71.2068 96.7732 71.6551 97.2215 72.0015C97.6698 72.3275 98.2607 72.5924 98.9942 72.7962C99.7278 72.9999 100.533 73.2037 101.409 73.4075C102.305 73.6112 103.192 73.8456 104.068 74.1104C104.964 74.3753 105.78 74.7319 106.513 75.1802C107.247 75.6285 107.838 76.2194 108.286 76.9529C108.754 77.6865 108.989 78.6136 108.989 79.7343C108.989 80.9365 108.653 82.0368 107.98 83.0353C107.308 84.0337 106.299 84.8386 104.954 85.4498C103.63 86.0611 101.949 86.3668 99.9111 86.3668ZM122.733 86.3668C121.063 86.3668 119.504 86.0917 118.057 85.5415C116.631 84.9914 115.388 84.2171 114.328 83.2186C113.289 82.2202 112.474 81.0486 111.883 79.7037C111.313 78.3589 111.027 76.8918 111.027 75.3025C111.027 73.7131 111.313 72.246 111.883 70.9012C112.474 69.5564 113.299 68.3847 114.359 67.3863C115.418 66.3878 116.661 65.6135 118.088 65.0634C119.514 64.5132 121.063 64.2381 122.733 64.2381C124.425 64.2381 125.973 64.5132 127.379 65.0634C128.806 65.6135 130.038 66.3878 131.078 67.3863C132.137 68.3643 132.962 69.5258 133.553 70.8706C134.144 72.2155 134.44 73.6927 134.44 75.3025C134.44 76.8918 134.144 78.3691 133.553 79.7343C132.962 81.0791 132.137 82.2508 131.078 83.2492C130.038 84.2273 128.806 84.9914 127.379 85.5415C125.973 86.0917 124.425 86.3668 122.733 86.3668ZM129.733 90.9209C128.897 90.9209 128.103 90.8292 127.349 90.6458C126.615 90.4624 125.882 90.1669 125.148 89.7594C124.435 89.3519 123.681 88.8017 122.886 88.1089C122.112 87.4162 121.266 86.5603 120.349 85.5415L125.545 84.2273C126.096 84.9812 126.605 85.5823 127.074 86.0306C127.542 86.4788 127.991 86.7947 128.418 86.9781C128.867 87.1614 129.335 87.2531 129.824 87.2531C131.128 87.2531 132.29 86.7234 133.309 85.6638L135.509 88.2923C134.063 90.0447 132.137 90.9209 129.733 90.9209ZM122.733 82.1489C123.691 82.1489 124.567 81.9859 125.362 81.6599C126.177 81.3338 126.89 80.8652 127.501 80.2539C128.113 79.6426 128.581 78.9192 128.907 78.0838C129.254 77.228 129.427 76.3009 129.427 75.3025C129.427 74.2836 129.254 73.3565 128.907 72.5211C128.581 71.6857 128.113 70.9623 127.501 70.351C126.89 69.7397 126.177 69.2711 125.362 68.9451C124.567 68.619 123.691 68.456 122.733 68.456C121.776 68.456 120.889 68.619 120.074 68.9451C119.259 69.2711 118.546 69.7397 117.935 70.351C117.344 70.9623 116.875 71.6857 116.529 72.5211C116.203 73.3565 116.04 74.2836 116.04 75.3025C116.04 76.3009 116.203 77.228 116.529 78.0838C116.875 78.9192 117.344 79.6426 117.935 80.2539C118.546 80.8652 119.259 81.3338 120.074 81.6599C120.889 81.9859 121.776 82.1489 122.733 82.1489ZM138.161 86V64.6049H143.112V81.9655H153.84V86H138.161ZM155.659 79.3064V75.4858H164.309V79.3064H155.659ZM171.694 86V68.6394H164.848V64.6049H183.492V68.6394H176.646V86H171.694ZM190.873 86L183.874 64.6049H189.009L195.091 83.5548H192.524L198.881 64.6049H203.466L209.579 83.5548H207.103L213.338 64.6049H218.076L211.076 86H205.758L200.348 69.373H201.754L196.192 86H190.873ZM230.993 86.3668C229.302 86.3668 227.733 86.0917 226.286 85.5415C224.86 84.9914 223.617 84.2171 222.557 83.2186C221.518 82.2202 220.703 81.0486 220.112 79.7037C219.542 78.3589 219.256 76.8918 219.256 75.3025C219.256 73.7131 219.542 72.246 220.112 70.9012C220.703 69.5564 221.528 68.3847 222.588 67.3863C223.647 66.3878 224.89 65.6135 226.317 65.0634C227.743 64.5132 229.292 64.2381 230.962 64.2381C232.654 64.2381 234.202 64.5132 235.608 65.0634C237.035 65.6135 238.267 66.3878 239.307 67.3863C240.366 68.3847 241.191 69.5564 241.782 70.9012C242.373 72.2256 242.669 73.6927 242.669 75.3025C242.669 76.8918 242.373 78.3691 241.782 79.7343C241.191 81.0791 240.366 82.2508 239.307 83.2492C238.267 84.2273 237.035 84.9914 235.608 85.5415C234.202 86.0917 232.664 86.3668 230.993 86.3668ZM230.962 82.1489C231.92 82.1489 232.796 81.9859 233.591 81.6599C234.406 81.3338 235.119 80.8652 235.73 80.2539C236.342 79.6426 236.81 78.9192 237.136 78.0838C237.483 77.2484 237.656 76.3213 237.656 75.3025C237.656 74.2836 237.483 73.3565 237.136 72.5211C236.81 71.6857 236.342 70.9623 235.73 70.351C235.14 69.7397 234.437 69.2711 233.622 68.9451C232.806 68.619 231.92 68.456 230.962 68.456C230.005 68.456 229.118 68.619 228.303 68.9451C227.509 69.2711 226.806 69.7397 226.194 70.351C225.583 70.9623 225.104 71.6857 224.758 72.5211C224.432 73.3565 224.269 74.2836 224.269 75.3025C224.269 76.3009 224.432 77.228 224.758 78.0838C225.104 78.9192 225.573 79.6426 226.164 80.2539C226.775 80.8652 227.488 81.3338 228.303 81.6599C229.118 81.9859 230.005 82.1489 230.962 82.1489Z" fill="#1D4FD7"/>
<path d="M94.2956 103.112C93.3353 103.112 92.5818 102.842 92.035 102.301C91.4948 101.761 91.2247 100.981 91.2247 99.9607V96.0095H92.5251V99.9107C92.5251 100.631 92.6785 101.154 92.9852 101.481C93.2987 101.808 93.7388 101.971 94.3056 101.971C94.8725 101.971 95.3093 101.808 95.616 101.481C95.9228 101.154 96.0761 100.631 96.0761 99.9107V96.0095H97.3565V99.9607C97.3565 100.981 97.0831 101.761 96.5363 102.301C95.9961 102.842 95.2492 103.112 94.2956 103.112ZM102.097 97.61C102.524 97.61 102.904 97.6934 103.237 97.8601C103.577 98.0268 103.844 98.2835 104.037 98.6303C104.231 98.9704 104.327 99.4105 104.327 99.9507V103.012H103.077V100.111C103.077 99.6373 102.964 99.2838 102.737 99.0504C102.517 98.817 102.207 98.7003 101.807 98.7003C101.513 98.7003 101.253 98.7603 101.027 98.8804C100.8 99.0004 100.623 99.1805 100.496 99.4205C100.376 99.6539 100.316 99.9507 100.316 100.311V103.012H99.066V97.67H100.256V99.1104L100.046 98.6703C100.233 98.3302 100.503 98.0701 100.856 97.8901C101.217 97.7034 101.63 97.61 102.097 97.61ZM105.922 103.012V95.5894H107.172V103.012H105.922ZM111.222 103.082C110.676 103.082 110.189 102.965 109.762 102.731C109.335 102.491 108.999 102.165 108.752 101.751C108.505 101.338 108.382 100.868 108.382 100.341C108.382 99.8073 108.505 99.3372 108.752 98.9304C108.999 98.5169 109.335 98.1935 109.762 97.9601C110.189 97.7267 110.676 97.61 111.222 97.61C111.776 97.61 112.266 97.7267 112.693 97.9601C113.126 98.1935 113.463 98.5136 113.703 98.9204C113.95 99.3272 114.073 99.8006 114.073 100.341C114.073 100.868 113.95 101.338 113.703 101.751C113.463 102.165 113.126 102.491 112.693 102.731C112.266 102.965 111.776 103.082 111.222 103.082ZM111.222 102.011C111.529 102.011 111.803 101.945 112.043 101.811C112.283 101.678 112.47 101.484 112.603 101.231C112.743 100.978 112.813 100.681 112.813 100.341C112.813 99.994 112.743 99.6973 112.603 99.4505C112.47 99.1971 112.283 99.0037 112.043 98.8704C111.803 98.737 111.533 98.6703 111.232 98.6703C110.926 98.6703 110.652 98.737 110.412 98.8704C110.179 99.0037 109.992 99.1971 109.852 99.4505C109.712 99.6973 109.642 99.994 109.642 100.341C109.642 100.681 109.712 100.978 109.852 101.231C109.992 101.484 110.179 101.678 110.412 101.811C110.652 101.945 110.922 102.011 111.222 102.011ZM117.728 103.082C117.168 103.082 116.668 102.965 116.228 102.731C115.794 102.491 115.454 102.165 115.207 101.751C114.961 101.338 114.837 100.868 114.837 100.341C114.837 99.8073 114.961 99.3372 115.207 98.9304C115.454 98.5169 115.794 98.1935 116.228 97.9601C116.668 97.7267 117.168 97.61 117.728 97.61C118.248 97.61 118.705 97.7167 119.098 97.9301C119.499 98.1368 119.802 98.4436 120.009 98.8504L119.048 99.4105C118.888 99.1571 118.692 98.9704 118.458 98.8504C118.231 98.7303 117.985 98.6703 117.718 98.6703C117.411 98.6703 117.134 98.737 116.888 98.8704C116.641 99.0037 116.448 99.1971 116.308 99.4505C116.168 99.6973 116.098 99.994 116.098 100.341C116.098 100.688 116.168 100.988 116.308 101.241C116.448 101.488 116.641 101.678 116.888 101.811C117.134 101.945 117.411 102.011 117.718 102.011C117.985 102.011 118.231 101.951 118.458 101.831C118.692 101.711 118.888 101.524 119.048 101.271L120.009 101.831C119.802 102.231 119.499 102.541 119.098 102.761C118.705 102.975 118.248 103.082 117.728 103.082ZM122.069 101.821L122.099 100.251L124.89 97.67H126.391L124.02 100.051L123.36 100.601L122.069 101.821ZM121.049 103.012V95.5894H122.299V103.012H121.049ZM125.08 103.012L123.13 100.601L123.92 99.6006L126.601 103.012H125.08ZM130.63 105.022C130.369 105.022 130.109 104.979 129.849 104.892C129.589 104.805 129.373 104.685 129.199 104.532L129.699 103.612C129.826 103.725 129.969 103.815 130.129 103.882C130.289 103.949 130.453 103.982 130.62 103.982C130.846 103.982 131.03 103.925 131.17 103.812C131.31 103.698 131.44 103.508 131.56 103.242L131.87 102.541L131.97 102.391L133.991 97.67H135.191L132.69 103.442C132.523 103.842 132.337 104.159 132.13 104.392C131.93 104.625 131.703 104.789 131.45 104.882C131.203 104.975 130.93 105.022 130.63 105.022ZM131.73 103.202L129.319 97.67H130.62L132.58 102.281L131.73 103.202ZM138.235 103.082C137.688 103.082 137.201 102.965 136.774 102.731C136.348 102.491 136.011 102.165 135.764 101.751C135.517 101.338 135.394 100.868 135.394 100.341C135.394 99.8073 135.517 99.3372 135.764 98.9304C136.011 98.5169 136.348 98.1935 136.774 97.9601C137.201 97.7267 137.688 97.61 138.235 97.61C138.788 97.61 139.278 97.7267 139.705 97.9601C140.139 98.1935 140.475 98.5136 140.716 98.9204C140.962 99.3272 141.086 99.8006 141.086 100.341C141.086 100.868 140.962 101.338 140.716 101.751C140.475 102.165 140.139 102.491 139.705 102.731C139.278 102.965 138.788 103.082 138.235 103.082ZM138.235 102.011C138.542 102.011 138.815 101.945 139.055 101.811C139.295 101.678 139.482 101.484 139.615 101.231C139.755 100.978 139.825 100.681 139.825 100.341C139.825 99.994 139.755 99.6973 139.615 99.4505C139.482 99.1971 139.295 99.0037 139.055 98.8704C138.815 98.737 138.545 98.6703 138.245 98.6703C137.938 98.6703 137.665 98.737 137.425 98.8704C137.191 99.0037 137.004 99.1971 136.864 99.4505C136.724 99.6973 136.654 99.994 136.654 100.341C136.654 100.681 136.724 100.978 136.864 101.231C137.004 101.484 137.191 101.678 137.425 101.811C137.665 101.945 137.935 102.011 138.235 102.011ZM144.55 103.082C144.097 103.082 143.697 102.998 143.35 102.832C143.003 102.658 142.733 102.398 142.54 102.051C142.346 101.698 142.25 101.254 142.25 100.721V97.67H143.5V100.551C143.5 101.031 143.607 101.391 143.82 101.631C144.04 101.865 144.35 101.981 144.75 101.981C145.044 101.981 145.297 101.921 145.511 101.801C145.731 101.681 145.901 101.501 146.021 101.261C146.147 101.021 146.211 100.724 146.211 100.371V97.67H147.461V103.012H146.271V101.571L146.481 102.011C146.301 102.358 146.037 102.625 145.691 102.812C145.344 102.992 144.964 103.082 144.55 103.082ZM149.107 103.012V97.67H150.297V99.1404L150.157 98.7103C150.317 98.3502 150.567 98.0768 150.907 97.8901C151.254 97.7034 151.684 97.61 152.198 97.61V98.8003C152.144 98.787 152.094 98.7803 152.047 98.7803C152.001 98.7737 151.954 98.7703 151.907 98.7703C151.434 98.7703 151.057 98.9104 150.777 99.1905C150.497 99.4639 150.357 99.874 150.357 100.421V103.012H149.107ZM159.049 103.082C158.616 103.082 158.219 102.982 157.859 102.781C157.505 102.581 157.222 102.281 157.008 101.881C156.802 101.474 156.698 100.961 156.698 100.341C156.698 99.7139 156.798 99.2005 156.998 98.8003C157.205 98.4002 157.485 98.1035 157.839 97.9101C158.192 97.71 158.596 97.61 159.049 97.61C159.576 97.61 160.039 97.7234 160.439 97.9501C160.846 98.1768 161.166 98.4936 161.4 98.9004C161.64 99.3072 161.76 99.7873 161.76 100.341C161.76 100.894 161.64 101.378 161.4 101.791C161.166 102.198 160.846 102.515 160.439 102.741C160.039 102.968 159.576 103.082 159.049 103.082ZM156.088 104.952V97.67H157.279V98.9304L157.239 100.351L157.339 101.771V104.952H156.088ZM158.909 102.011C159.209 102.011 159.476 101.945 159.709 101.811C159.949 101.678 160.139 101.484 160.279 101.231C160.419 100.978 160.489 100.681 160.489 100.341C160.489 99.994 160.419 99.6973 160.279 99.4505C160.139 99.1971 159.949 99.0037 159.709 98.8704C159.476 98.737 159.209 98.6703 158.909 98.6703C158.609 98.6703 158.339 98.737 158.099 98.8704C157.859 99.0037 157.669 99.1971 157.529 99.4505C157.389 99.6973 157.319 99.994 157.319 100.341C157.319 100.681 157.389 100.978 157.529 101.231C157.669 101.484 157.859 101.678 158.099 101.811C158.339 101.945 158.609 102.011 158.909 102.011ZM165.355 103.082C164.808 103.082 164.321 102.965 163.894 102.731C163.467 102.491 163.131 102.165 162.884 101.751C162.637 101.338 162.514 100.868 162.514 100.341C162.514 99.8073 162.637 99.3372 162.884 98.9304C163.131 98.5169 163.467 98.1935 163.894 97.9601C164.321 97.7267 164.808 97.61 165.355 97.61C165.908 97.61 166.398 97.7267 166.825 97.9601C167.259 98.1935 167.595 98.5136 167.835 98.9204C168.082 99.3272 168.206 99.8006 168.206 100.341C168.206 100.868 168.082 101.338 167.835 101.751C167.595 102.165 167.259 102.491 166.825 102.731C166.398 102.965 165.908 103.082 165.355 103.082ZM165.355 102.011C165.661 102.011 165.935 101.945 166.175 101.811C166.415 101.678 166.602 101.484 166.735 101.231C166.875 100.978 166.945 100.681 166.945 100.341C166.945 99.994 166.875 99.6973 166.735 99.4505C166.602 99.1971 166.415 99.0037 166.175 98.8704C165.935 98.737 165.665 98.6703 165.365 98.6703C165.058 98.6703 164.785 98.737 164.544 98.8704C164.311 99.0037 164.124 99.1971 163.984 99.4505C163.844 99.6973 163.774 99.994 163.774 100.341C163.774 100.681 163.844 100.978 163.984 101.231C164.124 101.484 164.311 101.678 164.544 101.811C164.785 101.945 165.055 102.011 165.355 102.011ZM171.42 103.082C170.833 103.082 170.38 102.932 170.06 102.631C169.74 102.325 169.58 101.875 169.58 101.281V96.4897H170.83V101.251C170.83 101.504 170.893 101.701 171.02 101.841C171.153 101.981 171.337 102.051 171.57 102.051C171.85 102.051 172.084 101.978 172.27 101.831L172.62 102.721C172.474 102.842 172.294 102.932 172.08 102.992C171.867 103.052 171.647 103.082 171.42 103.082ZM168.699 98.7103V97.71H172.26V98.7103H168.699ZM175.992 103.082C175.399 103.082 174.879 102.965 174.432 102.731C173.992 102.491 173.648 102.165 173.401 101.751C173.161 101.338 173.041 100.868 173.041 100.341C173.041 99.8073 173.158 99.3372 173.391 98.9304C173.632 98.5169 173.958 98.1935 174.372 97.9601C174.792 97.7267 175.269 97.61 175.802 97.61C176.322 97.61 176.786 97.7234 177.193 97.9501C177.599 98.1768 177.919 98.4969 178.153 98.9104C178.386 99.3238 178.503 99.8106 178.503 100.371C178.503 100.424 178.5 100.484 178.493 100.551C178.493 100.618 178.49 100.681 178.483 100.741H174.032V99.9107H177.823L177.333 100.171C177.339 99.864 177.276 99.5939 177.143 99.3605C177.009 99.1271 176.826 98.9437 176.592 98.8104C176.366 98.677 176.102 98.6103 175.802 98.6103C175.495 98.6103 175.225 98.677 174.992 98.8104C174.765 98.9437 174.585 99.1304 174.452 99.3705C174.325 99.6039 174.262 99.8807 174.262 100.201V100.401C174.262 100.721 174.335 101.004 174.482 101.251C174.629 101.498 174.835 101.688 175.102 101.821C175.369 101.955 175.675 102.021 176.022 102.021C176.322 102.021 176.592 101.975 176.832 101.881C177.073 101.788 177.286 101.641 177.473 101.441L178.143 102.211C177.903 102.491 177.599 102.708 177.233 102.862C176.872 103.008 176.459 103.082 175.992 103.082ZM182.743 97.61C183.17 97.61 183.55 97.6934 183.884 97.8601C184.224 98.0268 184.49 98.2835 184.684 98.6303C184.877 98.9704 184.974 99.4105 184.974 99.9507V103.012H183.724V100.111C183.724 99.6373 183.61 99.2838 183.383 99.0504C183.163 98.817 182.853 98.7003 182.453 98.7003C182.16 98.7003 181.9 98.7603 181.673 98.8804C181.446 99.0004 181.269 99.1805 181.143 99.4205C181.023 99.6539 180.963 99.9507 180.963 100.311V103.012H179.712V97.67H180.903V99.1104L180.693 98.6703C180.879 98.3302 181.149 98.0701 181.503 97.8901C181.863 97.7034 182.276 97.61 182.743 97.61ZM188.579 103.082C187.992 103.082 187.539 102.932 187.219 102.631C186.898 102.325 186.738 101.875 186.738 101.281V96.4897H187.989V101.251C187.989 101.504 188.052 101.701 188.179 101.841C188.312 101.981 188.496 102.051 188.729 102.051C189.009 102.051 189.242 101.978 189.429 101.831L189.779 102.721C189.633 102.842 189.453 102.932 189.239 102.992C189.026 103.052 188.806 103.082 188.579 103.082ZM185.858 98.7103V97.71H189.419V98.7103H185.858ZM190.816 103.012V97.67H192.067V103.012H190.816ZM191.446 96.7898C191.213 96.7898 191.02 96.7164 190.866 96.5697C190.72 96.423 190.646 96.2463 190.646 96.0395C190.646 95.8262 190.72 95.6494 190.866 95.5094C191.02 95.3627 191.213 95.2893 191.446 95.2893C191.68 95.2893 191.87 95.3594 192.017 95.4994C192.17 95.6328 192.247 95.8028 192.247 96.0095C192.247 96.2296 192.173 96.4163 192.027 96.5697C191.88 96.7164 191.686 96.7898 191.446 96.7898ZM197.007 103.012V101.931L196.937 101.701V99.8106C196.937 99.4439 196.827 99.1605 196.607 98.9604C196.387 98.7537 196.053 98.6503 195.607 98.6503C195.306 98.6503 195.01 98.697 194.716 98.7903C194.43 98.8837 194.186 99.0137 193.986 99.1805L193.496 98.2702C193.783 98.0501 194.123 97.8867 194.516 97.7801C194.916 97.6667 195.33 97.61 195.757 97.61C196.53 97.61 197.127 97.7967 197.547 98.1702C197.974 98.5369 198.187 99.1071 198.187 99.8807V103.012H197.007ZM195.326 103.082C194.926 103.082 194.576 103.015 194.276 102.882C193.976 102.741 193.743 102.551 193.576 102.311C193.416 102.065 193.336 101.788 193.336 101.481C193.336 101.181 193.406 100.911 193.546 100.671C193.693 100.431 193.929 100.241 194.256 100.101C194.583 99.9607 195.016 99.8907 195.557 99.8907H197.107V100.721H195.647C195.22 100.721 194.933 100.791 194.786 100.931C194.64 101.064 194.566 101.231 194.566 101.431C194.566 101.658 194.656 101.838 194.836 101.971C195.016 102.105 195.266 102.171 195.587 102.171C195.893 102.171 196.167 102.101 196.407 101.961C196.654 101.821 196.83 101.614 196.937 101.341L197.147 102.091C197.027 102.405 196.81 102.648 196.497 102.822C196.19 102.995 195.8 103.082 195.326 103.082ZM199.8 103.012V95.5894H201.051V103.012H199.8ZM207.484 103.082C206.897 103.082 206.443 102.932 206.123 102.631C205.803 102.325 205.643 101.875 205.643 101.281V96.4897H206.893V101.251C206.893 101.504 206.957 101.701 207.083 101.841C207.217 101.981 207.4 102.051 207.634 102.051C207.914 102.051 208.147 101.978 208.334 101.831L208.684 102.721C208.537 102.842 208.357 102.932 208.144 102.992C207.93 103.052 207.71 103.082 207.484 103.082ZM204.763 98.7103V97.71H208.324V98.7103H204.763ZM211.946 103.082C211.399 103.082 210.912 102.965 210.485 102.731C210.058 102.491 209.722 102.165 209.475 101.751C209.228 101.338 209.105 100.868 209.105 100.341C209.105 99.8073 209.228 99.3372 209.475 98.9304C209.722 98.5169 210.058 98.1935 210.485 97.9601C210.912 97.7267 211.399 97.61 211.946 97.61C212.499 97.61 212.989 97.7267 213.416 97.9601C213.85 98.1935 214.186 98.5136 214.426 98.9204C214.673 99.3272 214.796 99.8006 214.796 100.341C214.796 100.868 214.673 101.338 214.426 101.751C214.186 102.165 213.85 102.491 213.416 102.731C212.989 102.965 212.499 103.082 211.946 103.082ZM211.946 102.011C212.252 102.011 212.526 101.945 212.766 101.811C213.006 101.678 213.193 101.484 213.326 101.231C213.466 100.978 213.536 100.681 213.536 100.341C213.536 99.994 213.466 99.6973 213.326 99.4505C213.193 99.1971 213.006 99.0037 212.766 98.8704C212.526 98.737 212.256 98.6703 211.956 98.6703C211.649 98.6703 211.375 98.737 211.135 98.8704C210.902 99.0037 210.715 99.1971 210.575 99.4505C210.435 99.6973 210.365 99.994 210.365 100.341C210.365 100.681 210.435 100.978 210.575 101.231C210.715 101.484 210.902 101.678 211.135 101.811C211.375 101.945 211.646 102.011 211.946 102.011ZM218.261 103.082C217.748 103.082 217.284 102.968 216.871 102.741C216.464 102.508 216.144 102.188 215.91 101.781C215.677 101.374 215.56 100.894 215.56 100.341C215.56 99.7873 215.677 99.3072 215.91 98.9004C216.144 98.4936 216.464 98.1768 216.871 97.9501C217.284 97.7234 217.748 97.61 218.261 97.61C218.708 97.61 219.108 97.71 219.461 97.9101C219.815 98.1035 220.095 98.4002 220.302 98.8003C220.508 99.2005 220.612 99.7139 220.612 100.341C220.612 100.961 220.512 101.474 220.312 101.881C220.112 102.281 219.835 102.581 219.481 102.781C219.128 102.982 218.721 103.082 218.261 103.082ZM218.411 102.011C218.711 102.011 218.978 101.945 219.211 101.811C219.451 101.678 219.642 101.484 219.782 101.231C219.928 100.978 220.002 100.681 220.002 100.341C220.002 99.994 219.928 99.6973 219.782 99.4505C219.642 99.1971 219.451 99.0037 219.211 98.8704C218.978 98.737 218.711 98.6703 218.411 98.6703C218.111 98.6703 217.841 98.737 217.601 98.8704C217.368 99.0037 217.177 99.1971 217.031 99.4505C216.891 99.6973 216.821 99.994 216.821 100.341C216.821 100.681 216.891 100.978 217.031 101.231C217.177 101.484 217.368 101.678 217.601 101.811C217.841 101.945 218.111 102.011 218.411 102.011ZM220.032 103.012V101.751L220.082 100.331L219.982 98.9104V95.5894H221.222V103.012H220.032ZM226.167 103.012V101.931L226.097 101.701V99.8106C226.097 99.4439 225.987 99.1605 225.767 98.9604C225.547 98.7537 225.213 98.6503 224.767 98.6503C224.466 98.6503 224.17 98.697 223.876 98.7903C223.59 98.8837 223.346 99.0137 223.146 99.1805L222.656 98.2702C222.943 98.0501 223.283 97.8867 223.676 97.7801C224.076 97.6667 224.49 97.61 224.917 97.61C225.69 97.61 226.287 97.7967 226.707 98.1702C227.134 98.5369 227.347 99.1071 227.347 99.8807V103.012H226.167ZM224.486 103.082C224.086 103.082 223.736 103.015 223.436 102.882C223.136 102.741 222.903 102.551 222.736 102.311C222.576 102.065 222.496 101.788 222.496 101.481C222.496 101.181 222.566 100.911 222.706 100.671C222.853 100.431 223.089 100.241 223.416 100.101C223.743 99.9607 224.176 99.8907 224.717 99.8907H226.267V100.721H224.807C224.38 100.721 224.093 100.791 223.946 100.931C223.8 101.064 223.726 101.231 223.726 101.431C223.726 101.658 223.816 101.838 223.996 101.971C224.176 102.105 224.426 102.171 224.747 102.171C225.053 102.171 225.327 102.101 225.567 101.961C225.814 101.821 225.99 101.614 226.097 101.341L226.307 102.091C226.187 102.405 225.97 102.648 225.657 102.822C225.35 102.995 224.96 103.082 224.486 103.082ZM229.303 105.022C229.043 105.022 228.783 104.979 228.523 104.892C228.262 104.805 228.046 104.685 227.872 104.532L228.372 103.612C228.499 103.725 228.643 103.815 228.803 103.882C228.963 103.949 229.126 103.982 229.293 103.982C229.519 103.982 229.703 103.925 229.843 103.812C229.983 103.698 230.113 103.508 230.233 103.242L230.543 102.541L230.643 102.391L232.664 97.67H233.864L231.363 103.442C231.197 103.842 231.01 104.159 230.803 104.392C230.603 104.625 230.376 104.789 230.123 104.882C229.876 104.975 229.603 105.022 229.303 105.022ZM230.403 103.202L227.992 97.67H229.293L231.253 102.281L230.403 103.202Z" fill="#15181E"/>
<path d="M826 659.427H37V659.822H826V659.427Z" fill="#EBEBEB"/>
<path d="M410.986 589.048H106.29C103.903 589.044 101.615 588.093 99.9289 586.404C98.2425 584.714 97.2954 582.425 97.2954 580.038V151.721C97.3162 149.348 98.2725 147.079 99.9566 145.407C101.641 143.734 103.917 142.794 106.29 142.79H410.986C413.376 142.79 415.668 143.739 417.357 145.429C419.047 147.119 419.996 149.411 419.996 151.8V580.038C419.996 582.428 419.047 584.72 417.357 586.409C415.668 588.099 413.376 589.048 410.986 589.048ZM106.29 143.106C104.008 143.11 101.82 144.019 100.208 145.635C98.5955 147.25 97.6899 149.439 97.6899 151.721V580.038C97.6899 582.32 98.5955 584.509 100.208 586.125C101.82 587.74 104.008 588.65 106.29 588.654H410.986C413.27 588.65 415.459 587.741 417.074 586.126C418.689 584.511 419.598 582.322 419.602 580.038V151.721C419.598 149.438 418.689 147.249 417.074 145.634C415.459 144.019 413.27 143.11 410.986 143.106H106.29Z" fill="#EBEBEB"/>
<path d="M752.323 589.048H447.611C445.223 589.044 442.934 588.094 441.245 586.405C439.556 584.716 438.605 582.426 438.601 580.038V151.721C438.626 149.347 439.586 147.078 441.272 145.406C442.959 143.734 445.237 142.794 447.611 142.79H752.323C754.694 142.798 756.966 143.74 758.646 145.412C760.327 147.084 761.281 149.351 761.302 151.721V580.038C761.302 582.422 760.357 584.709 758.674 586.398C756.991 588.087 754.707 589.04 752.323 589.048ZM447.611 143.106C445.328 143.11 443.139 144.019 441.524 145.634C439.909 147.249 439 149.438 438.996 151.721V580.038C439 582.322 439.909 584.511 441.524 586.126C443.139 587.741 445.328 588.65 447.611 588.654H752.323C754.607 588.65 756.796 587.741 758.411 586.126C760.026 584.511 760.935 582.322 760.939 580.038V151.721C760.935 149.438 760.026 147.249 758.411 145.634C756.796 144.019 754.607 143.11 752.323 143.106H447.611Z" fill="#EBEBEB"/>
<path d="M353.294 674.45H312.266V674.844H353.294V674.45Z" fill="#EBEBEB"/>
<path d="M205.152 670.173H119.782V670.568H205.152V670.173Z" fill="#EBEBEB"/>
<path d="M310.688 689.109H269.155V689.504H310.688V689.109Z" fill="#EBEBEB"/>
<path d="M505.761 686.458H444.487V686.853H505.761V686.458Z" fill="#EBEBEB"/>
<path d="M536.674 686.458H519.805V686.853H536.674V686.458Z" fill="#EBEBEB"/>
<path d="M746.958 679.799H660.862V680.194H746.958V679.799Z" fill="#EBEBEB"/>
<path d="M638.313 645.43H710.349V447.439H638.313V645.43Z" fill="#F0F0F0"/>
<path d="M323.77 659.411H696.509V645.415H323.77V659.411Z" fill="#F0F0F0"/>
<path d="M638.313 447.423H309.947V645.415H638.313V447.423Z" fill="#F5F5F5"/>
<path d="M639.575 460.836H309.947V533.314H639.575V460.836Z" fill="#F0F0F0"/>
<path d="M639.575 546.521H309.947V618.999H639.575V546.521Z" fill="#F0F0F0"/>
<path d="M638.313 533.298H650.779V460.82H638.313V533.298Z" fill="#E6E6E6"/>
<path d="M638.313 618.983H650.779V546.506H638.313V618.983Z" fill="#E6E6E6"/>
<path d="M300.352 447.423L638.312 447.423V435.241L300.352 435.241V447.423Z" fill="#F0F0F0"/>
<path d="M720.416 435.241H638.312V447.423H720.416V435.241Z" fill="#E6E6E6"/>
<path d="M554.821 398H724.345V184.907L554.821 184.907V398Z" fill="#F0F0F0"/>
<path d="M517.39 398H717.844V184.907L517.39 184.907V398Z" fill="#F5F5F5"/>
<path d="M534.181 201.697V381.21H701.054V201.697H534.181Z" fill="white"/>
<path d="M636.088 310.879L667.979 296.093V286.798L636.088 271.981V283.122L655.466 291.469L636.088 299.817V310.879Z" fill="#E6E6E6"/>
<path d="M615.29 267.689H609.467L619.787 315.202H625.594L615.29 267.689Z" fill="#E6E6E6"/>
<path d="M599.131 299.817L579.832 291.469L599.21 283.122V271.981L567.208 286.798V296.093L599.099 310.879L599.131 299.817Z" fill="#E6E6E6"/>
<path d="M221.973 659.427H233.082L233.082 297.781H221.973L221.973 659.427Z" fill="#F0F0F0"/>
<path d="M219.654 656.902L219.354 655.324C220.496 654.957 221.552 654.361 222.455 653.571C223.359 652.782 224.092 651.816 224.609 650.732C227.496 645.62 229.248 634.716 221.216 611.866C208.844 576.645 216.229 548.241 230.952 491.623C233.508 481.76 236.412 470.588 239.426 458.485C250.74 413.243 240.278 385.187 231.867 362.637C225.35 345.137 220.19 331.314 226.786 315.297L228.254 315.897C221.942 331.329 226.944 344.9 233.351 362.085C241.84 384.824 252.397 413.149 240.957 458.848C237.943 470.935 235.039 482.107 232.483 491.986C217.839 548.336 210.485 576.614 222.715 611.456C230.968 634.952 229.027 646.314 225.871 651.695C225.245 652.941 224.37 654.046 223.301 654.941C222.231 655.837 220.99 656.504 219.654 656.902Z" fill="#F0F0F0"/>
<path d="M207.408 659.427H247.631L236.443 652.831H218.596L207.408 659.427Z" fill="#F0F0F0"/>
<path d="M147.949 343.843H307.091L289.575 210.123H165.465L147.949 343.843Z" fill="#F5F5F5"/>
<path d="M383.971 365.888H468.93L457.742 435.241H395.159L383.971 365.888Z" fill="#F0F0F0"/>
<path d="M418.103 388.453C441.268 380.074 459.004 367.481 439.153 341.997C419.302 316.512 388.547 316.638 367.812 327.921C341.396 342.281 346.698 383.861 346.698 383.861C346.698 383.861 394.938 396.848 418.103 388.453Z" fill="#E0E0E0"/>
<path d="M440.621 365.288C422.9 353.216 410.339 339.251 430.9 324.513C451.462 309.774 476.82 317.333 492.064 331.014C511.489 348.467 500.269 379.096 500.269 379.096C500.269 379.096 458.326 377.297 440.621 365.288Z" fill="#E6E6E6"/>
<path d="M409.408 334.659C430.143 333.412 447.533 328 437.717 305.545C427.902 283.09 403.001 276.794 383.576 280.644C358.754 285.552 352.9 316.607 352.9 316.607C352.9 316.607 388.689 335.921 409.408 334.659Z" fill="#F0F0F0"/>
<path d="M435.445 321.42C418.198 315.865 404.674 307.549 417.819 290.68C430.964 273.811 453.324 273.906 468.946 281.354C488.86 290.822 487.093 318.374 487.093 318.374C487.093 318.374 452.693 326.958 435.445 321.42Z" fill="#EBEBEB"/>
<path d="M403.096 292.7C420.312 298.381 436.139 299.612 435.429 278.246C434.719 256.879 416.635 243.782 399.624 240.531C377.927 236.492 363.157 259.767 363.157 259.767C363.157 259.767 385.911 286.972 403.096 292.7Z" fill="#F5F5F5"/>
<path d="M446.791 283.469C434.467 284.321 423.815 282.459 427.855 268.462C431.895 254.465 446.097 248.895 457.837 249.668C472.828 250.662 478.651 268.604 478.651 268.604C478.651 268.604 459.099 282.632 446.791 283.469Z" fill="#FAFAFA"/>
<path d="M431.5 730.69C600.476 730.69 737.458 722.692 737.458 712.827C737.458 702.961 600.476 694.964 431.5 694.964C262.524 694.964 125.542 702.961 125.542 712.827C125.542 722.692 262.524 730.69 431.5 730.69Z" fill="#F5F5F5"/>
<path d="M698.592 452.22H162.467V471.456H698.592V452.22Z" fill="#1D4FD7"/>
<path opacity="0.3" d="M305.954 452.22H162.467V471.456H305.954V452.22Z" fill="white"/>
<path d="M308.242 471.456H295.76L302.293 712.543H308.242H314.192L320.74 471.456H308.242Z" fill="#1D4FD7"/>
<path opacity="0.3" d="M302.293 712.543H308.242V476.632L295.966 478.872L302.293 712.543Z" fill="white"/>
<path d="M189.94 471.456H177.458L183.991 712.543H189.94H195.889L202.422 471.456H189.94Z" fill="#1D4FD7"/>
<path opacity="0.3" d="M183.991 712.543H189.94V476.632L177.647 478.872L183.991 712.543Z" fill="white"/>
<path d="M671.119 471.456H658.637L665.17 712.543H671.119H677.068L683.617 471.456H671.119Z" fill="#1D4FD7"/>
<path opacity="0.3" d="M665.17 712.543H671.119V476.632L658.842 478.872L665.17 712.543Z" fill="white"/>
<path d="M552.816 471.456H540.334L546.867 712.543H552.816H558.766L565.298 471.456H552.816Z" fill="#1D4FD7"/>
<path opacity="0.3" d="M546.868 712.543H552.817V476.632L540.54 478.872L546.868 712.543Z" fill="white"/>
<path d="M416.951 349.24H289.48C288.446 349.199 287.416 349.403 286.476 349.836C285.535 350.269 284.711 350.918 284.069 351.73C283.427 352.543 282.987 353.496 282.784 354.511C282.58 355.526 282.62 356.575 282.9 357.572L299.879 438.602C300.426 440.894 301.704 442.945 303.52 444.446C305.337 445.946 307.593 446.814 309.947 446.918H437.512C438.545 446.958 439.573 446.754 440.511 446.322C441.45 445.89 442.274 445.242 442.915 444.432C443.557 443.621 443.997 442.671 444.202 441.658C444.407 440.645 444.369 439.598 444.093 438.602L427.097 357.572C426.55 355.264 425.262 353.2 423.429 351.695C421.596 350.19 419.321 349.328 416.951 349.24Z" fill="#263238"/>
<path d="M311.051 442.294C309.461 442.187 307.946 441.58 306.721 440.56C305.497 439.539 304.627 438.158 304.234 436.614L287.255 355.583C287.11 355.047 287.087 354.485 287.188 353.939C287.289 353.393 287.511 352.876 287.839 352.427C288.179 352.043 288.6 351.74 289.073 351.541C289.545 351.341 290.057 351.251 290.569 351.275H418.134C419.724 351.383 421.24 351.99 422.464 353.01C423.689 354.03 424.559 355.411 424.951 356.956L441.931 437.986C442.076 438.523 442.099 439.085 441.998 439.631C441.897 440.177 441.674 440.694 441.347 441.142C441.009 441.529 440.588 441.834 440.115 442.034C439.642 442.233 439.129 442.323 438.617 442.294H311.051Z" fill="white"/>
<path opacity="0.4" d="M407.293 435.809L391.198 358.976C391.107 358.521 391.118 358.052 391.23 357.602C391.341 357.152 391.551 356.731 391.843 356.371C392.135 356.011 392.503 355.72 392.921 355.518C393.338 355.317 393.795 355.21 394.259 355.205H414.963C415.68 355.21 416.375 355.46 416.931 355.913C417.488 356.367 417.873 356.996 418.024 357.698L434.119 434.468C434.21 434.922 434.199 435.392 434.088 435.842C433.976 436.292 433.767 436.712 433.474 437.072C433.182 437.432 432.814 437.723 432.396 437.925C431.979 438.127 431.522 438.234 431.058 438.239H410.355C409.646 438.237 408.958 437.996 408.403 437.555C407.847 437.114 407.457 436.499 407.293 435.809Z" fill="#1D4FD7"/>
<path d="M297.875 361.927L297.181 358.597H322.744L323.439 361.927H297.875Z" fill="#1D4FD7"/>
<path d="M309.678 370.196L308.984 366.866H353.784L354.494 370.196H309.678Z" fill="#EBEBEB"/>
<path d="M312.046 378.448L311.335 375.119H361.563L362.257 378.448H312.046Z" fill="#EBEBEB"/>
<path d="M314.397 386.717L313.702 383.388H354.131L354.841 386.717H314.397Z" fill="#EBEBEB"/>
<path d="M305.654 400.114L304.944 396.785H321.119L321.813 400.114H305.654Z" fill="#1D4FD7"/>
<path d="M317.442 408.367L316.748 405.038H336.441L337.151 408.367H317.442Z" fill="#EBEBEB"/>
<path d="M341.87 408.367L341.159 405.038H360.869L361.563 408.367H341.87Z" fill="#EBEBEB"/>
<path d="M319.809 416.636L319.115 413.307H385.706L386.401 416.636H319.809Z" fill="#EBEBEB"/>
<path d="M322.16 424.889L321.466 421.56H372.246L372.94 424.889H322.16Z" fill="#EBEBEB"/>
<path d="M476.504 446.429H308.668C304.092 446.429 301.126 449.032 302.088 452.22H486.572C485.625 449.032 481.081 446.429 476.504 446.429Z" fill="#263238"/>
<path opacity="0.1" d="M253.517 328.757L237.406 251.972C237.318 251.518 237.331 251.051 237.444 250.602C237.556 250.154 237.766 249.736 238.058 249.378C238.35 249.02 238.717 248.73 239.134 248.529C239.55 248.329 240.005 248.222 240.467 248.216H370.81C371.526 248.221 372.218 248.469 372.775 248.919C373.331 249.369 373.718 249.995 373.871 250.694L389.983 327.416C390.073 327.871 390.062 328.34 389.951 328.79C389.839 329.24 389.63 329.661 389.338 330.021C389.045 330.381 388.677 330.672 388.26 330.874C387.842 331.075 387.385 331.182 386.921 331.187H256.579C255.87 331.185 255.182 330.944 254.627 330.503C254.071 330.062 253.68 329.447 253.517 328.757Z" fill="#1D4FD7"/>
<path d="M299.848 250.741H272.485L271.87 247.79H299.232L299.848 250.741Z" fill="#1D4FD7"/>
<path opacity="0.4" d="M295.398 255.443H284.415L283.799 252.493H294.782L295.398 255.443Z" fill="#1D4FD7"/>
<path opacity="0.4" d="M313.671 255.443H296.755L296.139 252.493H313.055L313.671 255.443Z" fill="#1D4FD7"/>
<path opacity="0.4" d="M321.04 260.13H285.393L284.778 257.179H320.44L321.04 260.13Z" fill="#1D4FD7"/>
<path opacity="0.4" d="M316.511 264.833H286.371L285.756 261.882H315.896L316.511 264.833Z" fill="#1D4FD7"/>
<path opacity="0.4" d="M336.504 314.713H317.316L317.931 317.648H337.12L336.504 314.713Z" fill="#1D4FD7"/>
<path d="M312.582 308.275H284.478L283.862 305.324H311.966L312.582 308.275Z" fill="#1D4FD7"/>
<path opacity="0.4" d="M323.88 319.4H297.749L298.364 322.351H324.496L323.88 319.4Z" fill="#1D4FD7"/>
<path opacity="0.4" d="M315.959 314.713H296.77L297.386 317.648H316.574L315.959 314.713Z" fill="#1D4FD7"/>
<path opacity="0.4" d="M334.169 310.011H295.792L296.407 312.962H334.784L334.169 310.011Z" fill="#1D4FD7"/>
<path d="M298.885 228.838H267.925L267.309 225.903H298.269L298.885 228.838Z" fill="#1D4FD7"/>
<path opacity="0.4" d="M314.176 239.979H280.028L280.643 242.93H314.775L314.176 239.979Z" fill="#1D4FD7"/>
<path opacity="0.4" d="M307.343 235.292H279.049L279.665 238.227H307.958L307.343 235.292Z" fill="#1D4FD7"/>
<path opacity="0.4" d="M309.221 230.59H278.071L278.686 233.541H309.836L309.221 230.59Z" fill="#1D4FD7"/>
<path d="M298.538 272.47H277.014L276.398 269.519H297.922L298.538 272.47Z" fill="#1D4FD7"/>
<path opacity="0.4" d="M332.338 283.595H290.285L290.9 286.546H332.938L332.338 283.595Z" fill="#1D4FD7"/>
<path opacity="0.4" d="M306.728 278.908H289.306L289.922 281.859H307.343L306.728 278.908Z" fill="#1D4FD7"/>
<path opacity="0.4" d="M325.632 278.908H308.211L308.826 281.859H326.247L325.632 278.908Z" fill="#1D4FD7"/>
<path opacity="0.4" d="M326.705 274.206H288.328L288.944 277.157H327.305L326.705 274.206Z" fill="#1D4FD7"/>
<path opacity="0.4" d="M326.626 297.686H293.22L293.835 300.622H327.242L326.626 297.686Z" fill="#1D4FD7"/>
<path opacity="0.4" d="M301.962 292.984H292.241L292.857 295.935H302.562L301.962 292.984Z" fill="#1D4FD7"/>
<path opacity="0.4" d="M317.158 292.984H303.288L303.903 295.935H317.774L317.158 292.984Z" fill="#1D4FD7"/>
<path opacity="0.4" d="M329.64 288.297H291.263L291.879 291.232H330.256L329.64 288.297Z" fill="#1D4FD7"/>
<path opacity="0.4" d="M359.859 287.508H346.114L345.499 284.557H359.259L359.859 287.508Z" fill="#1D4FD7"/>
<path opacity="0.4" d="M382.74 287.508H361.563L360.948 284.557H382.125L382.74 287.508Z" fill="#1D4FD7"/>
<path opacity="0.4" d="M391.734 292.211H347.093L346.477 289.26H391.119L391.734 292.211Z" fill="#1D4FD7"/>
<path opacity="0.4" d="M385.801 296.897H348.071L347.456 293.947H385.186L385.801 296.897Z" fill="#1D4FD7"/>
<path opacity="0.4" d="M402.702 268.841H359.954L360.569 271.776H403.317L402.702 268.841Z" fill="#1D4FD7"/>
<path opacity="0.4" d="M394.401 264.138H358.975L359.591 267.089H395.001L394.401 264.138Z" fill="#1D4FD7"/>
<path d="M387.994 259.452H348.986L349.602 262.387H388.61L387.994 259.452Z" fill="#1D4FD7"/>
<path opacity="0.4" d="M404.627 315.676H351.985L352.6 318.627H405.242L404.627 315.676Z" fill="#1D4FD7"/>
<path opacity="0.4" d="M372.814 310.989H351.006L351.622 313.924H373.43L372.814 310.989Z" fill="#1D4FD7"/>
<path opacity="0.4" d="M396.484 310.989H374.676L375.292 313.924H397.1L396.484 310.989Z" fill="#1D4FD7"/>
<path opacity="0.4" d="M398.062 306.287H350.028L350.643 309.237H398.678L398.062 306.287Z" fill="#1D4FD7"/>
<path opacity="0.4" d="M396.737 329.751H354.92L355.535 332.702H397.352L396.737 329.751Z" fill="#1D4FD7"/>
<path opacity="0.4" d="M366.108 325.065H353.941L354.557 328.016H366.723L366.108 325.065Z" fill="#1D4FD7"/>
<path opacity="0.4" d="M385.138 325.065H367.78L368.396 328.016H385.754L385.138 325.065Z" fill="#1D4FD7"/>
<path opacity="0.4" d="M401.013 320.362H352.963L353.578 323.313H401.613L401.013 320.362Z" fill="#1D4FD7"/>
<path opacity="0.4" d="M273.069 333.397H240.341L240.956 336.347H273.684L273.069 333.397Z" fill="#1D4FD7"/>
<path opacity="0.4" d="M263.396 328.71H239.363L239.978 331.645H263.995L263.396 328.71Z" fill="#1D4FD7"/>
<path opacity="0.4" d="M289.101 328.71H265.084L265.7 331.645H289.733L289.101 328.71Z" fill="#1D4FD7"/>
<path opacity="0.4" d="M286.434 324.008H238.384L239 326.958H287.034L286.434 324.008Z" fill="#1D4FD7"/>
<path d="M653.919 421.56H633.658L636.025 452.22H651.552L653.919 421.56Z" fill="#1D4FD7"/>
<path opacity="0.4" d="M653.919 421.56H633.658L636.025 452.22H651.552L653.919 421.56Z" fill="white"/>
<path d="M212.363 400.272H241.493L231.552 452.22H202.422L212.363 400.272Z" fill="#263238"/>
<path d="M249.462 386.354H208.323L219.843 452.22H260.981L249.462 386.354Z" fill="#1D4FD7"/>
<path d="M205.893 386.354H208.323L219.843 452.22H217.413L205.893 386.354Z" fill="#1D4FD7"/>
<path opacity="0.3" d="M205.893 386.354H208.323L219.843 452.22H217.413L205.893 386.354Z" fill="black"/>
<path d="M225.76 445.166L216.703 393.392H243.56L252.602 445.166H225.76Z" fill="white"/>
<path opacity="0.6" d="M251.324 445.166L242.282 393.392H243.56L252.602 445.166H251.324Z" fill="#1D4FD7"/>
<path d="M453.229 302.168C453.813 303.43 453.624 304.772 452.787 305.15C451.951 305.529 450.815 304.819 450.231 303.572C449.647 302.326 449.852 300.969 450.673 300.59C451.493 300.211 452.645 300.842 453.229 302.168Z" fill="#263238"/>
<path d="M453.734 304.661C453.734 304.661 454.239 313.277 452.692 318.264C455.848 319.321 459.257 316.686 459.257 316.686L453.734 304.661Z" fill="#FF5652"/>
<path d="M453.387 291.737C453.252 291.848 453.087 291.914 452.913 291.927C451.886 291.954 450.88 292.224 449.978 292.715C449.075 293.206 448.302 293.904 447.722 294.751C447.67 294.848 447.599 294.934 447.513 295.003C447.428 295.072 447.329 295.124 447.223 295.154C447.117 295.184 447.006 295.193 446.897 295.179C446.788 295.166 446.683 295.13 446.587 295.075C446.492 295.02 446.409 294.947 446.343 294.859C446.276 294.771 446.228 294.67 446.202 294.564C446.175 294.457 446.17 294.346 446.187 294.237C446.204 294.128 446.243 294.024 446.301 293.931C447.016 292.846 447.981 291.948 449.116 291.314C450.25 290.679 451.52 290.327 452.819 290.286C452.991 290.276 453.162 290.321 453.307 290.415C453.453 290.508 453.565 290.645 453.628 290.806C453.691 290.967 453.701 291.144 453.658 291.311C453.615 291.478 453.52 291.627 453.387 291.737Z" fill="#263238"/>
<path d="M499.701 300.211C504.577 317.096 510.021 330.193 516.665 337.673C516.665 337.673 516.791 350.944 494.178 357.256C469.309 364.199 478.84 348.23 478.84 348.23C491.464 341.208 490.265 330.604 480.765 326.564L499.701 300.211Z" fill="#FF8B7B"/>
<path d="M521.935 334.438C521.493 328.268 520.909 321.23 517.106 321.041C512.909 320.852 488.608 331.708 483.416 339.361C478.225 347.015 488.371 354.51 488.371 354.51L521.935 334.438Z" fill="#263238"/>
<path d="M472.196 429.986L451.209 429.292L451.588 446.871C451.588 446.871 469.893 444.977 470.697 440.164L472.196 429.986Z" fill="#FF8B7B"/>
<path d="M440.116 437.923L437.907 446.918L451.588 446.886L451.209 429.307L440.116 437.923Z" fill="#FF8B7B"/>
<path d="M556.43 356.94L555.989 361.453C555.847 362.905 555.657 364.325 555.468 365.761C555.105 368.618 554.647 371.474 554.158 374.314C553.211 380.011 551.98 385.676 550.56 391.372C549.117 397.178 547.368 402.904 545.321 408.525C544.232 411.413 543.096 414.301 541.739 417.236C540.371 420.314 538.789 423.294 537.005 426.151C536.579 426.893 536.043 427.729 535.522 428.424C535.001 429.118 534.496 430.002 533.944 430.728C533.392 431.454 532.808 432.306 532.082 433.047L531.056 434.215C530.689 434.646 530.299 435.057 529.888 435.446C526.726 438.543 523.018 441.031 518.953 442.784C512.716 445.459 506.097 447.136 499.338 447.754C496.261 448.117 493.216 448.259 490.233 448.338C487.251 448.417 484.268 448.338 481.333 448.18C478.398 448.023 475.495 447.77 472.607 447.423C469.719 447.076 466.91 446.618 463.849 446.003L464.354 429.513C474.43 427.751 484.39 425.379 494.178 422.412C496.355 421.704 498.494 420.882 500.585 419.95C502.365 419.199 504.067 418.274 505.666 417.188C506.596 416.628 507.384 415.862 507.97 414.948L508.428 414.222C508.64 413.912 508.835 413.59 509.011 413.259C509.236 412.897 509.442 412.523 509.627 412.139C509.832 411.729 510.053 411.35 510.258 410.892C512.112 406.845 513.637 402.655 514.819 398.363C516.112 393.724 517.328 388.895 518.306 383.893C519.284 378.89 520.231 373.841 521.099 368.744L522.298 361.075L523.387 353.611L556.43 356.94Z" fill="#1D4FD7"/>
<path opacity="0.2" d="M556.43 356.94L555.989 361.453C555.847 362.905 555.657 364.325 555.468 365.761C555.105 368.618 554.647 371.474 554.158 374.314C553.211 380.011 551.98 385.676 550.56 391.372C549.117 397.178 547.368 402.904 545.321 408.525C544.232 411.413 543.096 414.301 541.739 417.236C540.371 420.314 538.789 423.294 537.005 426.151C536.579 426.893 536.043 427.729 535.522 428.424C535.001 429.118 534.496 430.002 533.944 430.728C533.392 431.454 532.808 432.306 532.082 433.047L531.056 434.215C530.689 434.646 530.299 435.057 529.888 435.446C526.726 438.543 523.018 441.031 518.953 442.784C512.716 445.459 506.097 447.136 499.338 447.754C496.261 448.117 493.216 448.259 490.233 448.338C487.251 448.417 484.268 448.338 481.333 448.18C478.398 448.023 475.495 447.77 472.607 447.423C469.719 447.076 466.91 446.618 463.849 446.003L464.354 429.513C474.43 427.751 484.39 425.379 494.178 422.412C496.355 421.704 498.494 420.882 500.585 419.95C502.365 419.199 504.067 418.274 505.666 417.188C506.596 416.628 507.384 415.862 507.97 414.948L508.428 414.222C508.64 413.912 508.835 413.59 509.011 413.259C509.236 412.897 509.442 412.523 509.627 412.139C509.832 411.729 510.053 411.35 510.258 410.892C512.112 406.845 513.637 402.655 514.819 398.363C516.112 393.724 517.328 388.895 518.306 383.893C519.284 378.89 520.231 373.841 521.099 368.744L522.298 361.075L523.387 353.611L556.43 356.94Z" fill="black"/>
<path d="M463.249 377.912C471.074 411.647 475.478 446.085 476.394 480.703H568.786C569.291 469.294 567.366 404.959 558.071 358.487C557.246 354.278 555.588 350.276 553.195 346.716C550.801 343.157 547.721 340.111 544.134 337.759C540.547 335.407 536.526 333.796 532.307 333.019C528.089 332.243 523.758 332.318 519.568 333.239L519.126 333.349C507.591 335.969 491.038 340.198 481.254 343.906L480.86 344.064C474.317 346.608 468.922 351.445 465.682 357.672C462.442 363.9 461.577 371.094 463.249 377.912Z" fill="#1D4FD7"/>
<path opacity="0.2" d="M469.262 407.421C469.988 411.855 470.729 416.557 471.408 421.481C478.966 413.591 481.365 389.416 481.365 389.416L469.262 407.421Z" fill="black"/>
<path d="M392.507 431.138L371.536 429.181L370.842 446.744C374.307 447.701 377.969 447.691 381.43 446.714C384.89 445.738 388.017 443.833 390.472 441.206L392.507 431.138Z" fill="#FF8B7B"/>
<path d="M361.563 434.357L354.841 446.429L370.905 446.744L371.599 429.181L361.563 434.357Z" fill="#FF8B7B"/>
<path d="M497.918 369.817C496.466 372.578 495.172 375.024 493.72 377.549C492.269 380.074 490.88 382.536 489.381 384.981C486.414 389.905 483.337 394.733 480.087 399.515C473.56 409.306 466.33 418.609 458.452 427.351C454.234 432.057 449.648 436.42 444.739 440.401C444.124 440.922 443.398 441.427 442.719 441.979C442.041 442.531 441.441 442.973 440.431 443.557C439.421 444.141 438.569 444.725 437.654 445.229C436.739 445.734 435.792 446.192 434.861 446.602C431.38 448.114 427.738 449.22 424.004 449.9C417.475 451.001 410.82 451.15 404.248 450.342C401.17 449.989 398.114 449.463 395.095 448.764C393.591 448.417 392.108 448.023 390.645 447.581C389.067 447.139 387.789 446.65 386.101 446.003L388.705 429.718C398.614 428.376 409.329 426.656 416.714 423.311C418.353 422.637 419.897 421.751 421.306 420.676C421.873 420.286 422.402 419.842 422.884 419.35C422.994 419.208 423.484 418.782 423.847 418.435C424.21 418.088 424.636 417.757 425.03 417.346C428.408 413.999 431.57 410.442 434.498 406.695C440.851 398.499 446.787 389.988 452.282 381.194C455.123 376.729 457.884 372.184 460.646 367.623L464.717 360.775L468.646 354.037L497.918 369.817Z" fill="#1D4FD7"/>
<path d="M472.56 699.193H455.296L446.602 659.19H463.881L472.56 699.193Z" fill="#FF8B7B"/>
<path d="M454.334 695.5H473.743C474.08 695.512 474.405 695.632 474.669 695.842C474.933 696.053 475.123 696.342 475.211 696.668L478.619 712.038C478.7 712.411 478.696 712.798 478.606 713.169C478.516 713.541 478.343 713.887 478.1 714.181C477.857 714.476 477.55 714.712 477.203 714.871C476.855 715.03 476.476 715.108 476.094 715.099C469.325 714.989 466.027 714.594 457.49 714.594C452.235 714.594 445.497 715.131 438.254 715.131C431.011 715.131 430.048 707.966 433.015 707.319C446.333 704.4 447.217 700.392 451.525 696.558C452.297 695.868 453.298 695.491 454.334 695.5Z" fill="#263238"/>
<g opacity="0.2">
<path d="M463.896 659.206H446.602L451.43 681.361L468.378 679.831L463.896 659.206Z" fill="black"/>
</g>
<path d="M494.162 279.918C500.474 295.888 504.861 304.929 500.695 316.528C494.383 333.965 471.991 335.732 461.103 321.94C451.32 309.521 442.767 285.488 455.123 272.281C457.828 269.353 461.238 267.165 465.028 265.927C468.817 264.689 472.861 264.44 476.773 265.206C480.686 265.971 484.338 267.725 487.382 270.3C490.425 272.875 492.759 276.186 494.162 279.918Z" fill="#FF8B7B"/>
<path d="M463.833 303.841C461.245 307.312 459.257 309.948 459.257 309.948C459.257 309.948 453.939 296.74 455.975 290.68C453.387 285.552 448.164 293.11 446.191 283.122C444.219 273.133 452.756 262.402 455.975 260.177C456.307 261.341 456.456 262.55 456.417 263.759C465.115 256.7 476.17 253.209 487.346 253.992C486.411 255.381 485.817 256.97 485.61 258.631C485.61 258.631 504.341 261.787 508.601 272.391C507.094 271.672 505.504 271.142 503.867 270.813C507.301 275.736 508.661 281.812 507.654 287.729C506.295 296.359 505.589 305.078 505.54 313.814C505.713 318.295 493.421 326.864 485.925 317.711C478.43 308.559 463.833 303.841 463.833 303.841Z" fill="#263238"/>
<path d="M471.644 300.401C472.622 304.12 472.344 308.058 470.855 311.604C468.851 316.338 464.732 315.202 462.697 311.068C460.851 307.36 459.667 300.479 462.934 297.181C466.2 293.883 470.413 295.935 471.644 300.401Z" fill="#FF8B7B"/>
<path d="M504.088 480.64C504.088 480.64 423.862 509.738 421.511 548.225C417.156 619.125 446.144 675.254 446.144 675.254L472.717 672.414C472.717 672.414 467.983 649.596 464.464 585.372C460.03 504.657 597.016 587.265 568.802 480.64H504.088Z" fill="#1D4FD7"/>
<path opacity="0.5" d="M504.088 480.64C504.088 480.64 423.862 509.738 421.511 548.225C417.156 619.125 446.144 675.254 446.144 675.254L472.717 672.414C472.717 672.414 467.983 649.596 464.464 585.372C460.03 504.657 597.016 587.265 568.802 480.64H504.088Z" fill="white"/>
<path d="M438.79 665.471C438.664 665.471 443.019 677.274 443.019 677.274L476.157 674.024L474.5 663.293L438.79 665.471Z" fill="#1D4FD7"/>
<path d="M397.936 701.165H380.657L375.607 661.147H392.886L397.936 701.165Z" fill="#FF8B7B"/>
<path d="M380.531 695.484H399.467C399.808 695.48 400.141 695.594 400.408 695.807C400.676 696.02 400.861 696.318 400.934 696.652L404.374 712.006C404.475 712.382 404.486 712.776 404.408 713.158C404.33 713.539 404.164 713.897 403.924 714.203C403.683 714.509 403.375 714.755 403.023 714.922C402.672 715.088 402.286 715.17 401.897 715.162C395.096 715.052 385.249 714.673 376.649 714.689C366.644 714.689 364.735 715.241 352.979 715.257C345.878 715.257 343.905 708.108 346.872 707.367C360.38 704.4 364.703 704.069 376.365 696.857C377.596 696.015 379.04 695.539 380.531 695.484Z" fill="#263238"/>
<path opacity="0.2" d="M375.623 661.163L378.369 682.955L395.506 681.787L392.902 661.163H375.623Z" fill="black"/>
<path d="M476.394 480.64C476.394 480.64 344.947 492.301 346.367 558.325C347.834 626.999 373.493 673.314 373.493 673.314H399.151C399.151 673.314 394.291 637.682 395.159 570.081C395.411 549.835 436.344 543.144 476.299 540.777C510.826 538.726 543.143 519.048 556.556 487.125L559.318 480.64H476.394Z" fill="#1D4FD7"/>
<path opacity="0.5" d="M476.394 480.64C476.394 480.64 344.947 492.301 346.367 558.325C347.834 626.999 373.493 673.314 373.493 673.314H399.151C399.151 673.314 394.291 637.682 395.159 570.081C395.411 549.835 436.344 543.144 476.299 540.777C510.826 538.726 543.143 519.048 556.556 487.125L559.318 480.64H476.394Z" fill="white"/>
<path d="M367.481 666.418C367.37 666.418 371.883 678.284 371.883 678.284L402.875 676.059L401.06 665.329L367.481 666.418Z" fill="#1D4FD7"/>
<path d="M510.905 406.442L494.226 470.714C489.961 487.18 487.808 504.122 487.819 521.131V551.003C487.819 558.546 493.373 564.668 500.238 564.668H585.734C592.598 564.668 598.153 558.546 598.153 551.003V521.131C598.147 504.121 600.305 487.18 604.575 470.714L619.298 413.906C621.57 405.18 615.605 396.548 607.352 396.548H522.835C520.029 396.636 517.333 397.657 515.173 399.449C513.012 401.241 511.511 403.702 510.905 406.442Z" fill="#263238"/>
<path d="M404.564 533.55L407.357 549.488C408.84 557.867 416.209 564.668 423.831 564.668H518.874C526.496 564.668 531.498 557.867 530.015 549.488L527.222 533.55C525.533 524.003 517.154 516.271 508.475 516.271H417.298C408.556 516.271 402.891 524.003 404.564 533.55Z" fill="#263238"/>
<path d="M528.026 580.669H478.24L473.38 564.668H532.886L528.026 580.669Z" fill="#1D4FD7"/>
<path d="M512.025 580.669H494.241V699.666H512.025V580.669Z" fill="#1D4FD7"/>
<path opacity="0.7" d="M512.025 699.666H494.241V583.525L512.025 585.34V699.666Z" fill="white"/>
<path opacity="0.7" d="M507.686 699.666H503.441V584.456L507.686 584.898V699.666Z" fill="white"/>
<path d="M544.027 718.066H462.224C461.747 718.061 461.283 717.907 460.899 717.625C460.515 717.342 460.229 716.946 460.082 716.492C459.936 716.038 459.935 715.55 460.082 715.096C460.228 714.642 460.514 714.245 460.898 713.963L473.869 704.495C480.105 699.928 487.632 697.463 495.362 697.457H510.905C518.629 697.465 526.151 699.93 532.382 704.495L545.369 713.963C545.754 714.246 546.04 714.644 546.186 715.099C546.332 715.555 546.331 716.045 546.182 716.499C546.033 716.954 545.745 717.35 545.358 717.631C544.971 717.913 544.506 718.065 544.027 718.066Z" fill="#1D4FD7"/>
<defs>
<clipPath id="clip0_41_238">
<rect width="22.2287" height="14.7265" fill="white" transform="translate(58.3909 73.1172)"/>
</clipPath>
</defs>
</svg>
