<svg width="192" height="56" viewBox="0 0 192 56" fill="none" xmlns="http://www.w3.org/2000/svg">
<path fill-rule="evenodd" clip-rule="evenodd" d="M29.6797 15.6508C26.4192 12.3903 21.997 10.5586 17.386 10.5586C12.7749 10.5586 8.35274 12.3903 5.09224 15.6508C1.83173 18.9113 0 23.3335 0 27.9446C0 35.1424 5.48624 42.684 16.2269 50.7395C16.5613 50.9903 16.968 51.1259 17.386 51.1259C17.804 51.1259 18.2107 50.9903 18.545 50.7395C29.2857 42.684 34.772 35.1424 34.772 27.9446C34.772 23.3335 32.9402 18.9113 29.6797 15.6508ZM17.3861 41.9499C25.2277 41.9499 31.5846 35.593 31.5846 27.7513C31.5846 19.9097 25.2277 13.5528 17.3861 13.5528C9.54441 13.5528 3.1875 19.9097 3.1875 27.7513C3.1875 35.593 9.54441 41.9499 17.3861 41.9499Z" fill="#1D4FD7"/>
<g clip-path="url(#clip0_41_239)">
<path d="M23.506 27.9052L23.6797 30.9348C23.7054 31.3759 23.4417 31.7849 22.8886 32.1621C22.3354 32.5392 21.5797 32.838 20.6213 33.0585C19.663 33.279 18.6242 33.3893 17.5051 33.3893C16.3859 33.3893 15.3472 33.279 14.3888 33.0585C13.4305 32.838 12.6747 32.5392 12.1216 32.1621C11.5684 31.7849 11.3047 31.3759 11.3304 30.9348L11.5041 27.9052L17.042 29.6405C17.1835 29.6853 17.3378 29.7076 17.5051 29.7076C17.6723 29.7076 17.8267 29.6853 17.9682 29.6405L23.506 27.9052ZM28.6194 24.7988C28.6194 24.9458 28.5486 25.0449 28.4071 25.096L17.6016 28.4708C17.5758 28.4772 17.5437 28.4804 17.5051 28.4804C17.4665 28.4804 17.4343 28.4772 17.4086 28.4708L11.1182 26.4958C10.8416 26.7131 10.6133 27.0695 10.4332 27.5648C10.2531 28.0602 10.1438 28.6306 10.1052 29.2762C10.5104 29.5063 10.713 29.8546 10.713 30.3212C10.713 30.7623 10.5265 31.1042 10.1534 31.3471L10.713 35.4985C10.7258 35.588 10.7001 35.6679 10.6358 35.7382C10.5779 35.8085 10.5007 35.8437 10.4043 35.8437H8.55187C8.45539 35.8437 8.3782 35.8085 8.32032 35.7382C8.256 35.6679 8.23027 35.588 8.24313 35.4985L8.80271 31.3471C8.42966 31.1042 8.24313 30.7623 8.24313 30.3212C8.24313 29.8546 8.45217 29.4999 8.87025 29.257C8.941 27.9339 9.25616 26.8793 9.81573 26.0931L6.603 25.096C6.4615 25.0449 6.39075 24.9458 6.39075 24.7988C6.39075 24.6518 6.4615 24.5527 6.603 24.5016L17.4086 21.1268C17.4343 21.1204 17.4665 21.1172 17.5051 21.1172C17.5437 21.1172 17.5758 21.1204 17.6016 21.1268L28.4071 24.5016C28.5486 24.5527 28.6194 24.6518 28.6194 24.7988Z" fill="#1D4FD7"/>
</g>
<path d="M47.9111 34.3668C46.1995 34.3668 44.5592 34.1426 42.9903 33.6944C41.4213 33.2257 40.158 32.6246 39.2003 31.8911L40.8813 28.1622C41.7983 28.8142 42.8782 29.3542 44.1212 29.7821C45.3845 30.1896 46.658 30.3934 47.9417 30.3934C48.9198 30.3934 49.7043 30.3017 50.2952 30.1183C50.9065 29.9146 51.3547 29.6395 51.64 29.2931C51.9253 28.9467 52.0679 28.5493 52.0679 28.1011C52.0679 27.5305 51.8438 27.0823 51.3955 26.7562C50.9472 26.4098 50.3563 26.1348 49.6227 25.931C48.8892 25.7069 48.0741 25.5031 47.1776 25.3197C46.3014 25.1159 45.415 24.8714 44.5185 24.5862C43.6423 24.3009 42.8374 23.9341 42.1039 23.4858C41.3704 23.0376 40.7693 22.4467 40.3006 21.7131C39.8523 20.9796 39.6282 20.0423 39.6282 18.9012C39.6282 17.6786 39.9542 16.5681 40.6062 15.5697C41.2787 14.5509 42.2771 13.746 43.6016 13.1551C44.9464 12.5438 46.6274 12.2381 48.6447 12.2381C49.9895 12.2381 51.314 12.4012 52.6181 12.7272C53.9221 13.0328 55.0734 13.5015 56.0718 14.1331L54.5436 17.8926C53.5452 17.322 52.5467 16.9043 51.5483 16.6394C50.5499 16.3542 49.5718 16.2115 48.6141 16.2115C47.6564 16.2115 46.8719 16.3236 46.2607 16.5477C45.6494 16.7719 45.2113 17.0673 44.9464 17.4341C44.6815 17.7805 44.5491 18.188 44.5491 18.6567C44.5491 19.2068 44.7732 19.6551 45.2215 20.0015C45.6698 20.3275 46.2607 20.5924 46.9942 20.7962C47.7278 20.9999 48.5326 21.2037 49.4088 21.4075C50.3054 21.6112 51.1917 21.8456 52.0679 22.1104C52.9645 22.3753 53.7795 22.7319 54.5131 23.1802C55.2466 23.6285 55.8375 24.2194 56.2858 24.9529C56.7544 25.6865 56.9888 26.6136 56.9888 27.7343C56.9888 28.9365 56.6526 30.0368 55.9801 31.0353C55.3077 32.0337 54.2991 32.8386 52.9543 33.4498C51.6298 34.0611 49.9488 34.3668 47.9111 34.3668ZM70.7334 34.3668C69.0626 34.3668 67.5038 34.0917 66.0571 33.5415C64.6307 32.9914 63.3878 32.2171 62.3282 31.2186C61.289 30.2202 60.474 29.0486 59.8831 27.7037C59.3125 26.3589 59.0273 24.8918 59.0273 23.3025C59.0273 21.7131 59.3125 20.246 59.8831 18.9012C60.474 17.5564 61.2992 16.3847 62.3588 15.3863C63.4184 14.3878 64.6613 13.6135 66.0876 13.0634C67.514 12.5132 69.0626 12.2381 70.7334 12.2381C72.4247 12.2381 73.9733 12.5132 75.3792 13.0634C76.8056 13.6135 78.0383 14.3878 79.0775 15.3863C80.1371 16.3643 80.9623 17.5258 81.5532 18.8706C82.1441 20.2155 82.4396 21.6927 82.4396 23.3025C82.4396 24.8918 82.1441 26.3691 81.5532 27.7343C80.9623 29.0791 80.1371 30.2508 79.0775 31.2492C78.0383 32.2273 76.8056 32.9914 75.3792 33.5415C73.9733 34.0917 72.4247 34.3668 70.7334 34.3668ZM77.7327 38.9209C76.8973 38.9209 76.1026 38.8292 75.3487 38.6458C74.6151 38.4624 73.8816 38.1669 73.148 37.7594C72.4349 37.3519 71.6809 36.8017 70.8863 36.1089C70.112 35.4162 69.2663 34.5603 68.3494 33.5415L73.5454 32.2273C74.0955 32.9812 74.6049 33.5823 75.0736 34.0306C75.5422 34.4788 75.9905 34.7947 76.4184 34.9781C76.8667 35.1614 77.3353 35.2531 77.8244 35.2531C79.1285 35.2531 80.2899 34.7234 81.3087 33.6638L83.5094 36.2923C82.0626 38.0447 80.1371 38.9209 77.7327 38.9209ZM70.7334 30.1489C71.6911 30.1489 72.5673 29.9859 73.362 29.6599C74.177 29.3338 74.8902 28.8652 75.5015 28.2539C76.1128 27.6426 76.5814 26.9192 76.9074 26.0838C77.2538 25.228 77.427 24.3009 77.427 23.3025C77.427 22.2836 77.2538 21.3565 76.9074 20.5211C76.5814 19.6857 76.1128 18.9623 75.5015 18.351C74.8902 17.7397 74.177 17.2711 73.362 16.9451C72.5673 16.619 71.6911 16.456 70.7334 16.456C69.7757 16.456 68.8894 16.619 68.0743 16.9451C67.2593 17.2711 66.5461 17.7397 65.9348 18.351C65.3439 18.9623 64.8753 19.6857 64.5289 20.5211C64.2028 21.3565 64.0398 22.2836 64.0398 23.3025C64.0398 24.3009 64.2028 25.228 64.5289 26.0838C64.8753 26.9192 65.3439 27.6426 65.9348 28.2539C66.5461 28.8652 67.2593 29.3338 68.0743 29.6599C68.8894 29.9859 69.7757 30.1489 70.7334 30.1489ZM86.1608 34V12.6049H91.1122V29.9655H101.84V34H86.1608ZM103.659 27.3064V23.4858H112.309V27.3064H103.659ZM119.694 34V16.6394H112.848V12.6049H131.492V16.6394H124.646V34H119.694ZM138.873 34L131.874 12.6049H137.009L143.091 31.5548H140.524L146.881 12.6049H151.466L157.579 31.5548H155.103L161.338 12.6049H166.076L159.076 34H153.758L148.348 17.373H149.754L144.192 34H138.873ZM178.993 34.3668C177.302 34.3668 175.733 34.0917 174.286 33.5415C172.86 32.9914 171.617 32.2171 170.557 31.2186C169.518 30.2202 168.703 29.0486 168.112 27.7037C167.542 26.3589 167.256 24.8918 167.256 23.3025C167.256 21.7131 167.542 20.246 168.112 18.9012C168.703 17.5564 169.528 16.3847 170.588 15.3863C171.647 14.3878 172.89 13.6135 174.317 13.0634C175.743 12.5132 177.292 12.2381 178.962 12.2381C180.654 12.2381 182.202 12.5132 183.608 13.0634C185.035 13.6135 186.267 14.3878 187.307 15.3863C188.366 16.3847 189.191 17.5564 189.782 18.9012C190.373 20.2256 190.669 21.6927 190.669 23.3025C190.669 24.8918 190.373 26.3691 189.782 27.7343C189.191 29.0791 188.366 30.2508 187.307 31.2492C186.267 32.2273 185.035 32.9914 183.608 33.5415C182.202 34.0917 180.664 34.3668 178.993 34.3668ZM178.962 30.1489C179.92 30.1489 180.796 29.9859 181.591 29.6599C182.406 29.3338 183.119 28.8652 183.73 28.2539C184.342 27.6426 184.81 26.9192 185.136 26.0838C185.483 25.2484 185.656 24.3213 185.656 23.3025C185.656 22.2836 185.483 21.3565 185.136 20.5211C184.81 19.6857 184.342 18.9623 183.73 18.351C183.14 17.7397 182.437 17.2711 181.622 16.9451C180.806 16.619 179.92 16.456 178.962 16.456C178.005 16.456 177.118 16.619 176.303 16.9451C175.509 17.2711 174.806 17.7397 174.194 18.351C173.583 18.9623 173.104 19.6857 172.758 20.5211C172.432 21.3565 172.269 22.2836 172.269 23.3025C172.269 24.3009 172.432 25.228 172.758 26.0838C173.104 26.9192 173.573 27.6426 174.164 28.2539C174.775 28.8652 175.488 29.3338 176.303 29.6599C177.118 29.9859 178.005 30.1489 178.962 30.1489Z" fill="#1D4FD7"/>
<path d="M42.2956 51.1116C41.3353 51.1116 40.5818 50.8415 40.035 50.3013C39.4948 49.7612 39.2247 48.9809 39.2247 47.9607V44.0095H40.5251V47.9106C40.5251 48.6308 40.6785 49.1543 40.9852 49.4811C41.2987 49.8079 41.7388 49.9712 42.3056 49.9712C42.8725 49.9712 43.3093 49.8079 43.616 49.4811C43.9228 49.1543 44.0761 48.6308 44.0761 47.9106V44.0095H45.3565V47.9607C45.3565 48.9809 45.0831 49.7612 44.5363 50.3013C43.9961 50.8415 43.2492 51.1116 42.2956 51.1116ZM50.0968 45.61C50.5236 45.61 50.9037 45.6933 51.2372 45.86C51.5773 46.0268 51.844 46.2835 52.0374 46.6303C52.2308 46.9704 52.3275 47.4105 52.3275 47.9506V51.0115H51.0771V48.1107C51.0771 47.6372 50.9638 47.2838 50.737 47.0504C50.517 46.817 50.2069 46.7003 49.8068 46.7003C49.5133 46.7003 49.2533 46.7603 49.0265 46.8803C48.7998 47.0004 48.6231 47.1804 48.4964 47.4205C48.3763 47.6539 48.3163 47.9506 48.3163 48.3108V51.0115H47.066V45.67H48.2563V47.1104L48.0462 46.6703C48.233 46.3302 48.503 46.0701 48.8565 45.8901C49.2166 45.7033 49.63 45.61 50.0968 45.61ZM53.922 51.0115V43.5894H55.1723V51.0115H53.922ZM59.2225 51.0816C58.6757 51.0816 58.1888 50.9649 57.7621 50.7315C57.3353 50.4914 56.9985 50.1646 56.7518 49.7512C56.505 49.3377 56.3817 48.8676 56.3817 48.3408C56.3817 47.8073 56.505 47.3371 56.7518 46.9304C56.9985 46.5169 57.3353 46.1935 57.7621 45.9601C58.1888 45.7267 58.6757 45.61 59.2225 45.61C59.776 45.61 60.2661 45.7267 60.6929 45.9601C61.1264 46.1935 61.4631 46.5136 61.7032 46.9204C61.9499 47.3271 62.0733 47.8006 62.0733 48.3408C62.0733 48.8676 61.9499 49.3377 61.7032 49.7512C61.4631 50.1646 61.1264 50.4914 60.6929 50.7315C60.2661 50.9649 59.776 51.0816 59.2225 51.0816ZM59.2225 50.0112C59.5292 50.0112 59.8026 49.9446 60.0427 49.8112C60.2828 49.6778 60.4695 49.4844 60.6029 49.231C60.7429 48.9776 60.8129 48.6809 60.8129 48.3408C60.8129 47.994 60.7429 47.6972 60.6029 47.4505C60.4695 47.1971 60.2828 47.0037 60.0427 46.8703C59.8026 46.737 59.5326 46.6703 59.2325 46.6703C58.9257 46.6703 58.6523 46.737 58.4122 46.8703C58.1788 47.0037 57.9921 47.1971 57.8521 47.4505C57.712 47.6972 57.642 47.994 57.642 48.3408C57.642 48.6809 57.712 48.9776 57.8521 49.231C57.9921 49.4844 58.1788 49.6778 58.4122 49.8112C58.6523 49.9446 58.9224 50.0112 59.2225 50.0112ZM65.728 51.0816C65.1678 51.0816 64.6677 50.9649 64.2276 50.7315C63.7941 50.4914 63.454 50.1646 63.2073 49.7512C62.9605 49.3377 62.8372 48.8676 62.8372 48.3408C62.8372 47.8073 62.9605 47.3371 63.2073 46.9304C63.454 46.5169 63.7941 46.1935 64.2276 45.9601C64.6677 45.7267 65.1678 45.61 65.728 45.61C66.2482 45.61 66.705 45.7167 67.0984 45.9301C67.4985 46.1368 67.8019 46.4435 68.0087 46.8503L67.0484 47.4105C66.8883 47.1571 66.6916 46.9704 66.4582 46.8503C66.2315 46.7303 65.9847 46.6703 65.718 46.6703C65.4112 46.6703 65.1345 46.737 64.8878 46.8703C64.641 47.0037 64.4476 47.1971 64.3076 47.4505C64.1676 47.6972 64.0975 47.994 64.0975 48.3408C64.0975 48.6875 64.1676 48.9876 64.3076 49.241C64.4476 49.4878 64.641 49.6778 64.8878 49.8112C65.1345 49.9446 65.4112 50.0112 65.718 50.0112C65.9847 50.0112 66.2315 49.9512 66.4582 49.8312C66.6916 49.7112 66.8883 49.5244 67.0484 49.271L68.0087 49.8312C67.8019 50.2313 67.4985 50.5414 67.0984 50.7615C66.705 50.9749 66.2482 51.0816 65.728 51.0816ZM70.0693 49.8212L70.0993 48.2507L72.8901 45.67H74.3906L72.0199 48.0507L71.3597 48.6008L70.0693 49.8212ZM69.049 51.0115V43.5894H70.2994V51.0115H69.049ZM73.0802 51.0115L71.1296 48.6008L71.9198 47.6005L74.6006 51.0115H73.0802ZM78.6296 53.0221C78.3695 53.0221 78.1094 52.9788 77.8493 52.8921C77.5893 52.8054 77.3725 52.6854 77.1991 52.532L77.6993 51.6117C77.826 51.7251 77.9694 51.8151 78.1294 51.8818C78.2895 51.9485 78.4528 51.9818 78.6195 51.9818C78.8463 51.9818 79.0297 51.9251 79.1697 51.8118C79.3097 51.6984 79.4398 51.5083 79.5598 51.2416L79.8699 50.5414L79.9699 50.3914L81.9905 45.67H83.1909L80.6901 51.4417C80.5234 51.8418 80.3367 52.1585 80.13 52.3919C79.9299 52.6253 79.7032 52.7887 79.4498 52.8821C79.2031 52.9754 78.9296 53.0221 78.6296 53.0221ZM79.7299 51.2016L77.3192 45.67H78.6195L80.5801 50.2813L79.7299 51.2016ZM86.2348 51.0816C85.688 51.0816 85.2012 50.9649 84.7744 50.7315C84.3476 50.4914 84.0109 50.1646 83.7641 49.7512C83.5174 49.3377 83.394 48.8676 83.394 48.3408C83.394 47.8073 83.5174 47.3371 83.7641 46.9304C84.0109 46.5169 84.3476 46.1935 84.7744 45.9601C85.2012 45.7267 85.688 45.61 86.2348 45.61C86.7883 45.61 87.2785 45.7267 87.7053 45.9601C88.1387 46.1935 88.4755 46.5136 88.7156 46.9204C88.9623 47.3271 89.0857 47.8006 89.0857 48.3408C89.0857 48.8676 88.9623 49.3377 88.7156 49.7512C88.4755 50.1646 88.1387 50.4914 87.7053 50.7315C87.2785 50.9649 86.7883 51.0816 86.2348 51.0816ZM86.2348 50.0112C86.5416 50.0112 86.815 49.9446 87.0551 49.8112C87.2952 49.6778 87.4819 49.4844 87.6152 49.231C87.7553 48.9776 87.8253 48.6809 87.8253 48.3408C87.8253 47.994 87.7553 47.6972 87.6152 47.4505C87.4819 47.1971 87.2952 47.0037 87.0551 46.8703C86.815 46.737 86.5449 46.6703 86.2449 46.6703C85.9381 46.6703 85.6647 46.737 85.4246 46.8703C85.1912 47.0037 85.0045 47.1971 84.8645 47.4505C84.7244 47.6972 84.6544 47.994 84.6544 48.3408C84.6544 48.6809 84.7244 48.9776 84.8645 49.231C85.0045 49.4844 85.1912 49.6778 85.4246 49.8112C85.6647 49.9446 85.9348 50.0112 86.2348 50.0112ZM92.5503 51.0816C92.0969 51.0816 91.6967 50.9982 91.35 50.8315C91.0032 50.6581 90.7331 50.398 90.5397 50.0513C90.3464 49.6978 90.2497 49.2544 90.2497 48.7209V45.67H91.5V48.5508C91.5 49.031 91.6067 49.3911 91.8201 49.6311C92.0402 49.8645 92.3503 49.9812 92.7504 49.9812C93.0438 49.9812 93.2972 49.9212 93.5106 49.8012C93.7307 49.6812 93.9007 49.5011 94.0207 49.261C94.1475 49.021 94.2108 48.7242 94.2108 48.3708V45.67H95.4612V51.0115H94.2708V49.5711L94.4809 50.0112C94.3008 50.358 94.0374 50.6248 93.6907 50.8115C93.3439 50.9915 92.9638 51.0816 92.5503 51.0816ZM97.1066 51.0115V45.67H98.297V47.1404L98.1569 46.7103C98.317 46.3502 98.567 46.0768 98.9071 45.8901C99.2539 45.7033 99.684 45.61 100.198 45.61V46.8003C100.144 46.787 100.094 46.7803 100.047 46.7803C100.001 46.7736 99.9541 46.7703 99.9074 46.7703C99.434 46.7703 99.0572 46.9103 98.7771 47.1904C98.497 47.4638 98.357 47.874 98.357 48.4208V51.0115H97.1066ZM107.049 51.0816C106.616 51.0816 106.219 50.9815 105.859 50.7815C105.505 50.5814 105.222 50.2813 105.008 49.8812C104.802 49.4744 104.698 48.9609 104.698 48.3408C104.698 47.7139 104.798 47.2004 104.998 46.8003C105.205 46.4002 105.485 46.1034 105.839 45.9101C106.192 45.71 106.596 45.61 107.049 45.61C107.576 45.61 108.039 45.7233 108.439 45.9501C108.846 46.1768 109.166 46.4936 109.4 46.9003C109.64 47.3071 109.76 47.7873 109.76 48.3408C109.76 48.8943 109.64 49.3777 109.4 49.7912C109.166 50.198 108.846 50.5147 108.439 50.7415C108.039 50.9682 107.576 51.0816 107.049 51.0816ZM104.088 52.9521V45.67H105.279V46.9304L105.239 48.3508L105.339 49.7712V52.9521H104.088ZM106.909 50.0112C107.209 50.0112 107.476 49.9446 107.709 49.8112C107.949 49.6778 108.139 49.4844 108.279 49.231C108.419 48.9776 108.489 48.6809 108.489 48.3408C108.489 47.994 108.419 47.6972 108.279 47.4505C108.139 47.1971 107.949 47.0037 107.709 46.8703C107.476 46.737 107.209 46.6703 106.909 46.6703C106.609 46.6703 106.339 46.737 106.099 46.8703C105.859 47.0037 105.669 47.1971 105.529 47.4505C105.389 47.6972 105.319 47.994 105.319 48.3408C105.319 48.6809 105.389 48.9776 105.529 49.231C105.669 49.4844 105.859 49.6778 106.099 49.8112C106.339 49.9446 106.609 50.0112 106.909 50.0112ZM113.355 51.0816C112.808 51.0816 112.321 50.9649 111.894 50.7315C111.467 50.4914 111.131 50.1646 110.884 49.7512C110.637 49.3377 110.514 48.8676 110.514 48.3408C110.514 47.8073 110.637 47.3371 110.884 46.9304C111.131 46.5169 111.467 46.1935 111.894 45.9601C112.321 45.7267 112.808 45.61 113.355 45.61C113.908 45.61 114.398 45.7267 114.825 45.9601C115.259 46.1935 115.595 46.5136 115.835 46.9204C116.082 47.3271 116.206 47.8006 116.206 48.3408C116.206 48.8676 116.082 49.3377 115.835 49.7512C115.595 50.1646 115.259 50.4914 114.825 50.7315C114.398 50.9649 113.908 51.0816 113.355 51.0816ZM113.355 50.0112C113.661 50.0112 113.935 49.9446 114.175 49.8112C114.415 49.6778 114.602 49.4844 114.735 49.231C114.875 48.9776 114.945 48.6809 114.945 48.3408C114.945 47.994 114.875 47.6972 114.735 47.4505C114.602 47.1971 114.415 47.0037 114.175 46.8703C113.935 46.737 113.665 46.6703 113.365 46.6703C113.058 46.6703 112.785 46.737 112.544 46.8703C112.311 47.0037 112.124 47.1971 111.984 47.4505C111.844 47.6972 111.774 47.994 111.774 48.3408C111.774 48.6809 111.844 48.9776 111.984 49.231C112.124 49.4844 112.311 49.6778 112.544 49.8112C112.785 49.9446 113.055 50.0112 113.355 50.0112ZM119.42 51.0816C118.833 51.0816 118.38 50.9315 118.06 50.6314C117.74 50.3247 117.58 49.8745 117.58 49.281V44.4896H118.83V49.251C118.83 49.5044 118.893 49.7012 119.02 49.8412C119.153 49.9812 119.337 50.0513 119.57 50.0513C119.85 50.0513 120.084 49.9779 120.27 49.8312L120.62 50.7215C120.474 50.8415 120.294 50.9315 120.08 50.9915C119.867 51.0515 119.647 51.0816 119.42 51.0816ZM116.699 46.7103V45.71H120.26V46.7103H116.699ZM123.992 51.0816C123.399 51.0816 122.879 50.9649 122.432 50.7315C121.992 50.4914 121.648 50.1646 121.401 49.7512C121.161 49.3377 121.041 48.8676 121.041 48.3408C121.041 47.8073 121.158 47.3371 121.391 46.9304C121.632 46.5169 121.958 46.1935 122.372 45.9601C122.792 45.7267 123.269 45.61 123.802 45.61C124.322 45.61 124.786 45.7233 125.193 45.9501C125.599 46.1768 125.919 46.4969 126.153 46.9103C126.386 47.3238 126.503 47.8106 126.503 48.3708C126.503 48.4241 126.5 48.4841 126.493 48.5508C126.493 48.6175 126.49 48.6809 126.483 48.7409H122.032V47.9106H125.823L125.333 48.1707C125.339 47.864 125.276 47.5939 125.143 47.3605C125.009 47.1271 124.826 46.9437 124.592 46.8103C124.366 46.6769 124.102 46.6103 123.802 46.6103C123.495 46.6103 123.225 46.6769 122.992 46.8103C122.765 46.9437 122.585 47.1304 122.452 47.3705C122.325 47.6039 122.262 47.8806 122.262 48.2007V48.4008C122.262 48.7209 122.335 49.0043 122.482 49.251C122.629 49.4978 122.835 49.6878 123.102 49.8212C123.369 49.9546 123.675 50.0212 124.022 50.0212C124.322 50.0212 124.592 49.9746 124.832 49.8812C125.073 49.7878 125.286 49.6411 125.473 49.4411L126.143 50.2113C125.903 50.4914 125.599 50.7081 125.233 50.8615C124.872 51.0082 124.459 51.0816 123.992 51.0816ZM130.743 45.61C131.17 45.61 131.55 45.6933 131.884 45.86C132.224 46.0268 132.49 46.2835 132.684 46.6303C132.877 46.9704 132.974 47.4105 132.974 47.9506V51.0115H131.724V48.1107C131.724 47.6372 131.61 47.2838 131.383 47.0504C131.163 46.817 130.853 46.7003 130.453 46.7003C130.16 46.7003 129.9 46.7603 129.673 46.8803C129.446 47.0004 129.269 47.1804 129.143 47.4205C129.023 47.6539 128.963 47.9506 128.963 48.3108V51.0115H127.712V45.67H128.903V47.1104L128.693 46.6703C128.879 46.3302 129.149 46.0701 129.503 45.8901C129.863 45.7033 130.276 45.61 130.743 45.61ZM136.579 51.0816C135.992 51.0816 135.539 50.9315 135.219 50.6314C134.898 50.3247 134.738 49.8745 134.738 49.281V44.4896H135.989V49.251C135.989 49.5044 136.052 49.7012 136.179 49.8412C136.312 49.9812 136.496 50.0513 136.729 50.0513C137.009 50.0513 137.242 49.9779 137.429 49.8312L137.779 50.7215C137.633 50.8415 137.453 50.9315 137.239 50.9915C137.026 51.0515 136.806 51.0816 136.579 51.0816ZM133.858 46.7103V45.71H137.419V46.7103H133.858ZM138.816 51.0115V45.67H140.067V51.0115H138.816ZM139.446 44.7897C139.213 44.7897 139.02 44.7164 138.866 44.5697C138.72 44.423 138.646 44.2462 138.646 44.0395C138.646 43.8261 138.72 43.6494 138.866 43.5094C139.02 43.3627 139.213 43.2893 139.446 43.2893C139.68 43.2893 139.87 43.3593 140.017 43.4994C140.17 43.6327 140.247 43.8028 140.247 44.0095C140.247 44.2296 140.173 44.4163 140.027 44.5697C139.88 44.7164 139.686 44.7897 139.446 44.7897ZM145.007 51.0115V49.9312L144.937 49.7012V47.8106C144.937 47.4438 144.827 47.1604 144.607 46.9604C144.387 46.7536 144.053 46.6503 143.607 46.6503C143.306 46.6503 143.01 46.697 142.716 46.7903C142.43 46.8837 142.186 47.0137 141.986 47.1804L141.496 46.2702C141.783 46.0501 142.123 45.8867 142.516 45.78C142.916 45.6667 143.33 45.61 143.757 45.61C144.53 45.61 145.127 45.7967 145.547 46.1701C145.974 46.5369 146.187 47.1071 146.187 47.8806V51.0115H145.007ZM143.326 51.0816C142.926 51.0816 142.576 51.0149 142.276 50.8815C141.976 50.7415 141.743 50.5514 141.576 50.3113C141.416 50.0646 141.336 49.7878 141.336 49.4811C141.336 49.181 141.406 48.9109 141.546 48.6709C141.693 48.4308 141.929 48.2407 142.256 48.1007C142.583 47.9607 143.016 47.8906 143.557 47.8906H145.107V48.7209H143.647C143.22 48.7209 142.933 48.7909 142.786 48.9309C142.64 49.0643 142.566 49.231 142.566 49.4311C142.566 49.6578 142.656 49.8379 142.836 49.9712C143.016 50.1046 143.266 50.1713 143.587 50.1713C143.893 50.1713 144.167 50.1013 144.407 49.9612C144.654 49.8212 144.83 49.6145 144.937 49.3411L145.147 50.0913C145.027 50.4047 144.81 50.6481 144.497 50.8215C144.19 50.9949 143.8 51.0816 143.326 51.0816ZM147.8 51.0115V43.5894H149.051V51.0115H147.8ZM155.484 51.0816C154.897 51.0816 154.443 50.9315 154.123 50.6314C153.803 50.3247 153.643 49.8745 153.643 49.281V44.4896H154.893V49.251C154.893 49.5044 154.957 49.7012 155.083 49.8412C155.217 49.9812 155.4 50.0513 155.634 50.0513C155.914 50.0513 156.147 49.9779 156.334 49.8312L156.684 50.7215C156.537 50.8415 156.357 50.9315 156.144 50.9915C155.93 51.0515 155.71 51.0816 155.484 51.0816ZM152.763 46.7103V45.71H156.324V46.7103H152.763ZM159.946 51.0816C159.399 51.0816 158.912 50.9649 158.485 50.7315C158.058 50.4914 157.722 50.1646 157.475 49.7512C157.228 49.3377 157.105 48.8676 157.105 48.3408C157.105 47.8073 157.228 47.3371 157.475 46.9304C157.722 46.5169 158.058 46.1935 158.485 45.9601C158.912 45.7267 159.399 45.61 159.946 45.61C160.499 45.61 160.989 45.7267 161.416 45.9601C161.85 46.1935 162.186 46.5136 162.426 46.9204C162.673 47.3271 162.796 47.8006 162.796 48.3408C162.796 48.8676 162.673 49.3377 162.426 49.7512C162.186 50.1646 161.85 50.4914 161.416 50.7315C160.989 50.9649 160.499 51.0816 159.946 51.0816ZM159.946 50.0112C160.252 50.0112 160.526 49.9446 160.766 49.8112C161.006 49.6778 161.193 49.4844 161.326 49.231C161.466 48.9776 161.536 48.6809 161.536 48.3408C161.536 47.994 161.466 47.6972 161.326 47.4505C161.193 47.1971 161.006 47.0037 160.766 46.8703C160.526 46.737 160.256 46.6703 159.956 46.6703C159.649 46.6703 159.375 46.737 159.135 46.8703C158.902 47.0037 158.715 47.1971 158.575 47.4505C158.435 47.6972 158.365 47.994 158.365 48.3408C158.365 48.6809 158.435 48.9776 158.575 49.231C158.715 49.4844 158.902 49.6778 159.135 49.8112C159.375 49.9446 159.646 50.0112 159.946 50.0112ZM166.261 51.0816C165.748 51.0816 165.284 50.9682 164.871 50.7415C164.464 50.5081 164.144 50.188 163.91 49.7812C163.677 49.3744 163.56 48.8943 163.56 48.3408C163.56 47.7873 163.677 47.3071 163.91 46.9003C164.144 46.4936 164.464 46.1768 164.871 45.9501C165.284 45.7233 165.748 45.61 166.261 45.61C166.708 45.61 167.108 45.71 167.461 45.9101C167.815 46.1034 168.095 46.4002 168.302 46.8003C168.508 47.2004 168.612 47.7139 168.612 48.3408C168.612 48.9609 168.512 49.4744 168.312 49.8812C168.112 50.2813 167.835 50.5814 167.481 50.7815C167.128 50.9815 166.721 51.0816 166.261 51.0816ZM166.411 50.0112C166.711 50.0112 166.978 49.9446 167.211 49.8112C167.451 49.6778 167.642 49.4844 167.782 49.231C167.928 48.9776 168.002 48.6809 168.002 48.3408C168.002 47.994 167.928 47.6972 167.782 47.4505C167.642 47.1971 167.451 47.0037 167.211 46.8703C166.978 46.737 166.711 46.6703 166.411 46.6703C166.111 46.6703 165.841 46.737 165.601 46.8703C165.368 47.0037 165.177 47.1971 165.031 47.4505C164.891 47.6972 164.821 47.994 164.821 48.3408C164.821 48.6809 164.891 48.9776 165.031 49.231C165.177 49.4844 165.368 49.6778 165.601 49.8112C165.841 49.9446 166.111 50.0112 166.411 50.0112ZM168.032 51.0115V49.7512L168.082 48.3308L167.982 46.9103V43.5894H169.222V51.0115H168.032ZM174.167 51.0115V49.9312L174.097 49.7012V47.8106C174.097 47.4438 173.987 47.1604 173.767 46.9604C173.547 46.7536 173.213 46.6503 172.767 46.6503C172.466 46.6503 172.17 46.697 171.876 46.7903C171.59 46.8837 171.346 47.0137 171.146 47.1804L170.656 46.2702C170.943 46.0501 171.283 45.8867 171.676 45.78C172.076 45.6667 172.49 45.61 172.917 45.61C173.69 45.61 174.287 45.7967 174.707 46.1701C175.134 46.5369 175.347 47.1071 175.347 47.8806V51.0115H174.167ZM172.486 51.0816C172.086 51.0816 171.736 51.0149 171.436 50.8815C171.136 50.7415 170.903 50.5514 170.736 50.3113C170.576 50.0646 170.496 49.7878 170.496 49.4811C170.496 49.181 170.566 48.9109 170.706 48.6709C170.853 48.4308 171.089 48.2407 171.416 48.1007C171.743 47.9607 172.176 47.8906 172.717 47.8906H174.267V48.7209H172.807C172.38 48.7209 172.093 48.7909 171.946 48.9309C171.8 49.0643 171.726 49.231 171.726 49.4311C171.726 49.6578 171.816 49.8379 171.996 49.9712C172.176 50.1046 172.426 50.1713 172.747 50.1713C173.053 50.1713 173.327 50.1013 173.567 49.9612C173.814 49.8212 173.99 49.6145 174.097 49.3411L174.307 50.0913C174.187 50.4047 173.97 50.6481 173.657 50.8215C173.35 50.9949 172.96 51.0816 172.486 51.0816ZM177.303 53.0221C177.043 53.0221 176.783 52.9788 176.523 52.8921C176.262 52.8054 176.046 52.6854 175.872 52.532L176.372 51.6117C176.499 51.7251 176.643 51.8151 176.803 51.8818C176.963 51.9485 177.126 51.9818 177.293 51.9818C177.519 51.9818 177.703 51.9251 177.843 51.8118C177.983 51.6984 178.113 51.5083 178.233 51.2416L178.543 50.5414L178.643 50.3914L180.664 45.67H181.864L179.363 51.4417C179.197 51.8418 179.01 52.1585 178.803 52.3919C178.603 52.6253 178.376 52.7887 178.123 52.8821C177.876 52.9754 177.603 53.0221 177.303 53.0221ZM178.403 51.2016L175.992 45.67H177.293L179.253 50.2813L178.403 51.2016Z" fill="#15181E"/>
<defs>
<clipPath id="clip0_41_239">
<rect width="22.2287" height="14.7265" fill="white" transform="translate(6.39075 21.1172)"/>
</clipPath>
</defs>
</svg>
